%FSLAX23Y23*%
%MOIN*%
G70*
G01*
G75*
G04 Layer_Color=16711935*
%ADD10C,0.008*%
%ADD11C,0.059*%
%ADD12R,0.035X0.037*%
%ADD13R,0.035X0.037*%
%ADD14R,0.045X0.069*%
%ADD15R,0.055X0.047*%
%ADD16R,0.055X0.043*%
%ADD17O,0.024X0.087*%
%ADD18R,0.039X0.094*%
%ADD19R,0.130X0.094*%
%ADD20O,0.065X0.022*%
%ADD21O,0.022X0.065*%
%ADD22R,0.043X0.055*%
%ADD23R,0.043X0.067*%
%ADD24R,0.067X0.043*%
%ADD25R,0.050X0.100*%
%ADD26R,0.057X0.094*%
%ADD27R,0.069X0.045*%
G04:AMPARAMS|DCode=28|XSize=69mil|YSize=45mil|CornerRadius=0mil|HoleSize=0mil|Usage=FLASHONLY|Rotation=225.000|XOffset=0mil|YOffset=0mil|HoleType=Round|Shape=Rectangle|*
%AMROTATEDRECTD28*
4,1,4,0.008,0.040,0.040,0.008,-0.008,-0.040,-0.040,-0.008,0.008,0.040,0.0*
%
%ADD28ROTATEDRECTD28*%

G04:AMPARAMS|DCode=29|XSize=69mil|YSize=45mil|CornerRadius=0mil|HoleSize=0mil|Usage=FLASHONLY|Rotation=315.000|XOffset=0mil|YOffset=0mil|HoleType=Round|Shape=Rectangle|*
%AMROTATEDRECTD29*
4,1,4,-0.040,0.008,-0.008,0.040,0.040,-0.008,0.008,-0.040,-0.040,0.008,0.0*
%
%ADD29ROTATEDRECTD29*%

%ADD30R,0.047X0.047*%
%ADD31R,0.047X0.047*%
G04:AMPARAMS|DCode=32|XSize=47mil|YSize=47mil|CornerRadius=0mil|HoleSize=0mil|Usage=FLASHONLY|Rotation=225.000|XOffset=0mil|YOffset=0mil|HoleType=Round|Shape=Rectangle|*
%AMROTATEDRECTD32*
4,1,4,0.000,0.033,0.033,0.000,0.000,-0.033,-0.033,0.000,0.000,0.033,0.0*
%
%ADD32ROTATEDRECTD32*%

G04:AMPARAMS|DCode=33|XSize=47mil|YSize=47mil|CornerRadius=0mil|HoleSize=0mil|Usage=FLASHONLY|Rotation=315.000|XOffset=0mil|YOffset=0mil|HoleType=Round|Shape=Rectangle|*
%AMROTATEDRECTD33*
4,1,4,-0.033,0.000,0.000,0.033,0.033,0.000,0.000,-0.033,-0.033,0.000,0.0*
%
%ADD33ROTATEDRECTD33*%

%ADD34O,0.022X0.010*%
%ADD35O,0.010X0.022*%
%ADD36C,0.010*%
%ADD37C,0.012*%
%ADD38C,0.009*%
%ADD39C,0.020*%
%ADD40C,0.030*%
%ADD41C,0.005*%
%ADD42R,0.047X0.047*%
%ADD43C,0.047*%
%ADD44C,0.060*%
%ADD45C,0.063*%
%ADD46R,0.060X0.060*%
%ADD47R,0.059X0.059*%
%ADD48R,0.059X0.059*%
%ADD49C,0.051*%
%ADD50C,0.039*%
%ADD51R,0.047X0.047*%
%ADD52O,0.100X0.050*%
%ADD53R,0.100X0.050*%
%ADD54C,0.031*%
%ADD55C,0.024*%
%ADD56C,0.026*%
%ADD57C,0.004*%
%ADD58C,0.010*%
%ADD59C,0.008*%
%ADD60C,0.024*%
%ADD61C,0.016*%
%ADD62C,0.001*%
%ADD63C,0.020*%
%ADD64C,0.006*%
%ADD65C,0.067*%
%ADD66R,0.043X0.045*%
%ADD67R,0.043X0.045*%
%ADD68R,0.053X0.077*%
%ADD69R,0.063X0.055*%
%ADD70R,0.063X0.051*%
%ADD71O,0.032X0.095*%
%ADD72R,0.047X0.102*%
%ADD73R,0.138X0.102*%
%ADD74O,0.073X0.030*%
%ADD75O,0.030X0.073*%
%ADD76R,0.051X0.063*%
%ADD77R,0.051X0.075*%
%ADD78R,0.075X0.051*%
%ADD79R,0.058X0.108*%
%ADD80R,0.065X0.102*%
%ADD81R,0.077X0.053*%
G04:AMPARAMS|DCode=82|XSize=77mil|YSize=53mil|CornerRadius=0mil|HoleSize=0mil|Usage=FLASHONLY|Rotation=225.000|XOffset=0mil|YOffset=0mil|HoleType=Round|Shape=Rectangle|*
%AMROTATEDRECTD82*
4,1,4,0.008,0.046,0.046,0.008,-0.008,-0.046,-0.046,-0.008,0.008,0.046,0.0*
%
%ADD82ROTATEDRECTD82*%

G04:AMPARAMS|DCode=83|XSize=77mil|YSize=53mil|CornerRadius=0mil|HoleSize=0mil|Usage=FLASHONLY|Rotation=315.000|XOffset=0mil|YOffset=0mil|HoleType=Round|Shape=Rectangle|*
%AMROTATEDRECTD83*
4,1,4,-0.046,0.008,-0.008,0.046,0.046,-0.008,0.008,-0.046,-0.046,0.008,0.0*
%
%ADD83ROTATEDRECTD83*%

%ADD84R,0.055X0.055*%
%ADD85R,0.055X0.055*%
G04:AMPARAMS|DCode=86|XSize=55mil|YSize=55mil|CornerRadius=0mil|HoleSize=0mil|Usage=FLASHONLY|Rotation=225.000|XOffset=0mil|YOffset=0mil|HoleType=Round|Shape=Rectangle|*
%AMROTATEDRECTD86*
4,1,4,0.000,0.039,0.039,0.000,0.000,-0.039,-0.039,0.000,0.000,0.039,0.0*
%
%ADD86ROTATEDRECTD86*%

G04:AMPARAMS|DCode=87|XSize=55mil|YSize=55mil|CornerRadius=0mil|HoleSize=0mil|Usage=FLASHONLY|Rotation=315.000|XOffset=0mil|YOffset=0mil|HoleType=Round|Shape=Rectangle|*
%AMROTATEDRECTD87*
4,1,4,-0.039,0.000,0.000,0.039,0.039,0.000,0.000,-0.039,-0.039,0.000,0.0*
%
%ADD87ROTATEDRECTD87*%

%ADD88O,0.030X0.018*%
%ADD89O,0.018X0.030*%
%ADD90R,0.055X0.055*%
%ADD91C,0.055*%
%ADD92C,0.068*%
%ADD93C,0.071*%
%ADD94R,0.068X0.068*%
%ADD95R,0.067X0.067*%
%ADD96R,0.067X0.067*%
%ADD97C,0.059*%
%ADD98C,0.047*%
%ADD99R,0.055X0.055*%
%ADD100O,0.108X0.058*%
%ADD101R,0.108X0.058*%
%ADD102C,0.032*%
%ADD103C,0.002*%
D41*
X2363Y-3740D02*
G03*
X3741Y-2362I0J1378D01*
G01*
X-3739D02*
G03*
X-2362Y-3740I1378J0D01*
G01*
Y3740D02*
G03*
X-3739Y2362I0J-1378D01*
G01*
X3741D02*
G03*
X2363Y3740I-1378J0D01*
G01*
X-2362Y-3740D02*
X2363D01*
X-3739Y-2362D02*
Y2362D01*
X-2362Y3740D02*
X2363D01*
X3741Y-2362D02*
Y2362D01*
D65*
X-1980Y-500D02*
D03*
X-1880Y-600D02*
D03*
Y-500D02*
D03*
X-1780Y-600D02*
D03*
Y-500D02*
D03*
X2223Y-1245D02*
D03*
X-1780Y-1920D02*
D03*
Y-2020D02*
D03*
X-375Y-4D02*
D03*
Y-104D02*
D03*
X-3055Y-1655D02*
D03*
Y-1555D02*
D03*
Y-1455D02*
D03*
Y-1355D02*
D03*
Y-1255D02*
D03*
X-947Y-2421D02*
D03*
X-847Y-2521D02*
D03*
Y-2421D02*
D03*
X-747Y-2521D02*
D03*
Y-2421D02*
D03*
X-647Y-2521D02*
D03*
Y-2421D02*
D03*
X-547Y-2521D02*
D03*
Y-2421D02*
D03*
X-447Y-2521D02*
D03*
Y-2421D02*
D03*
X-347Y-2521D02*
D03*
Y-2421D02*
D03*
X-247Y-2521D02*
D03*
Y-2421D02*
D03*
X-147Y-2521D02*
D03*
Y-2421D02*
D03*
X-47Y-2521D02*
D03*
Y-2421D02*
D03*
X53Y-2521D02*
D03*
Y-2421D02*
D03*
X153Y-2521D02*
D03*
Y-2421D02*
D03*
X253Y-2521D02*
D03*
Y-2421D02*
D03*
X353Y-2521D02*
D03*
Y-2421D02*
D03*
X453Y-2521D02*
D03*
Y-2421D02*
D03*
X553Y-2521D02*
D03*
Y-2421D02*
D03*
X653Y-2521D02*
D03*
Y-2421D02*
D03*
X753Y-2521D02*
D03*
Y-2421D02*
D03*
X853Y-2521D02*
D03*
Y-2421D02*
D03*
X953Y-2521D02*
D03*
Y-2421D02*
D03*
X-805Y-2735D02*
D03*
X-705D02*
D03*
X-870Y2730D02*
D03*
X-770D02*
D03*
X-670D02*
D03*
X-570D02*
D03*
X-470D02*
D03*
X-370D02*
D03*
X-270D02*
D03*
X-170D02*
D03*
X-70D02*
D03*
X30D02*
D03*
X130D02*
D03*
X230D02*
D03*
X330D02*
D03*
X430D02*
D03*
X530D02*
D03*
X630D02*
D03*
X730D02*
D03*
X830D02*
D03*
X930D02*
D03*
X1030D02*
D03*
X-870Y1830D02*
D03*
X-770D02*
D03*
X-670D02*
D03*
X-570D02*
D03*
X-470D02*
D03*
X-370D02*
D03*
X-270D02*
D03*
X-170D02*
D03*
X-70D02*
D03*
X30D02*
D03*
X130D02*
D03*
X230D02*
D03*
X330D02*
D03*
X430D02*
D03*
X530D02*
D03*
X630D02*
D03*
X730D02*
D03*
X830D02*
D03*
X930D02*
D03*
X1030D02*
D03*
D90*
X-1815Y520D02*
D03*
X320Y1340D02*
D03*
X-1020D02*
D03*
X-1000Y-1380D02*
D03*
X310Y-1390D02*
D03*
X2160Y420D02*
D03*
X-1896Y-276D02*
D03*
Y-79D02*
D03*
Y118D02*
D03*
Y315D02*
D03*
X2165Y236D02*
D03*
Y39D02*
D03*
Y-157D02*
D03*
Y-354D02*
D03*
X2244Y-551D02*
D03*
X2175Y-950D02*
D03*
D91*
X-1894Y520D02*
D03*
X-1972D02*
D03*
X-2051D02*
D03*
X1545Y2500D02*
D03*
X-1540D02*
D03*
Y-2500D02*
D03*
X1545Y-2500D02*
D03*
X714Y1340D02*
D03*
X635D02*
D03*
X556D02*
D03*
X477D02*
D03*
X399D02*
D03*
X-626D02*
D03*
X-705D02*
D03*
X-784D02*
D03*
X-863D02*
D03*
X-941D02*
D03*
X-606Y-1380D02*
D03*
X-685D02*
D03*
X-764D02*
D03*
X-843D02*
D03*
X-921D02*
D03*
X704Y-1390D02*
D03*
X625D02*
D03*
X546D02*
D03*
X467D02*
D03*
X389D02*
D03*
X3075Y61D02*
D03*
Y-18D02*
D03*
Y-96D02*
D03*
X-3030Y56D02*
D03*
Y-23D02*
D03*
Y-101D02*
D03*
X2239Y420D02*
D03*
X2317D02*
D03*
X2396D02*
D03*
X-2054Y-276D02*
D03*
X-1975D02*
D03*
X-2054Y-79D02*
D03*
X-1975D02*
D03*
X-2054Y118D02*
D03*
X-1975D02*
D03*
X-2054Y315D02*
D03*
X-1975D02*
D03*
X2323Y236D02*
D03*
X2244D02*
D03*
X2323Y39D02*
D03*
X2244D02*
D03*
X2323Y-157D02*
D03*
X2244D02*
D03*
X2323Y-354D02*
D03*
X2244D02*
D03*
X-1811Y-2520D02*
D03*
X-1417Y-2795D02*
D03*
X-1614D02*
D03*
X-1811D02*
D03*
X2165Y-551D02*
D03*
X2254Y-950D02*
D03*
D92*
X571Y-30D02*
D03*
X671D02*
D03*
X571Y70D02*
D03*
X671D02*
D03*
X571Y170D02*
D03*
X671D02*
D03*
X-1194Y970D02*
D03*
X-1094D02*
D03*
X-834Y-930D02*
D03*
X-734D02*
D03*
X1166D02*
D03*
X1066D02*
D03*
X1666D02*
D03*
X1566D02*
D03*
X1466D02*
D03*
X1366D02*
D03*
X1266D02*
D03*
X266D02*
D03*
X166D02*
D03*
X766D02*
D03*
X666D02*
D03*
X566D02*
D03*
X466D02*
D03*
X366D02*
D03*
X1266Y970D02*
D03*
X1366D02*
D03*
X766D02*
D03*
X866D02*
D03*
X966D02*
D03*
X1066D02*
D03*
X1166D02*
D03*
X-534Y-930D02*
D03*
X-634D02*
D03*
X-494Y970D02*
D03*
X-394D02*
D03*
X-994D02*
D03*
X-894D02*
D03*
X-794D02*
D03*
X-694D02*
D03*
X-594D02*
D03*
X366D02*
D03*
X466D02*
D03*
X-134D02*
D03*
X-34D02*
D03*
X66D02*
D03*
X166D02*
D03*
X266D02*
D03*
X1866D02*
D03*
X1766D02*
D03*
X1866Y870D02*
D03*
X1766D02*
D03*
X1866Y770D02*
D03*
X1766D02*
D03*
X1866Y670D02*
D03*
X1766D02*
D03*
X1866Y570D02*
D03*
X1766D02*
D03*
X1866Y470D02*
D03*
X1766D02*
D03*
X1866Y370D02*
D03*
X1766D02*
D03*
X1866Y270D02*
D03*
X1766D02*
D03*
X1866Y170D02*
D03*
X1766D02*
D03*
Y70D02*
D03*
X1866D02*
D03*
Y-30D02*
D03*
X1766D02*
D03*
X1866Y-130D02*
D03*
X1766D02*
D03*
X1866Y-230D02*
D03*
X1766D02*
D03*
X1866Y-330D02*
D03*
X1766D02*
D03*
X1866Y-430D02*
D03*
X1766D02*
D03*
X1866Y-530D02*
D03*
X1766D02*
D03*
X1866Y-630D02*
D03*
X1766D02*
D03*
X1866Y-730D02*
D03*
X1766D02*
D03*
X-940Y2880D02*
D03*
X-840D02*
D03*
X-740D02*
D03*
X-640D02*
D03*
X-2149Y1937D02*
D03*
X-2078Y2008D02*
D03*
X-2008Y2079D02*
D03*
X-1937Y2150D02*
D03*
X-2580Y-145D02*
D03*
Y-45D02*
D03*
Y55D02*
D03*
Y155D02*
D03*
X-1941Y-2161D02*
D03*
X-2012Y-2090D02*
D03*
X-2083Y-2020D02*
D03*
X-2154Y-1949D02*
D03*
X-640Y-2900D02*
D03*
X-740D02*
D03*
X-840D02*
D03*
X-940D02*
D03*
X2149Y-1941D02*
D03*
X2078Y-2012D02*
D03*
X2008Y-2083D02*
D03*
X1937Y-2154D02*
D03*
X2559Y143D02*
D03*
Y43D02*
D03*
Y-57D02*
D03*
Y-157D02*
D03*
X1941Y2153D02*
D03*
X2012Y2082D02*
D03*
X2083Y2012D02*
D03*
X2154Y1941D02*
D03*
X960Y-2900D02*
D03*
X860D02*
D03*
X760D02*
D03*
X660D02*
D03*
Y2880D02*
D03*
X760D02*
D03*
X860D02*
D03*
X960D02*
D03*
D93*
X-1334Y970D02*
D03*
X-1384Y-930D02*
D03*
X1866D02*
D03*
X1616Y970D02*
D03*
D94*
X66Y-930D02*
D03*
X1466Y970D02*
D03*
X-134Y-930D02*
D03*
X-294Y970D02*
D03*
X566D02*
D03*
D95*
X-1980Y-600D02*
D03*
X-947Y-2521D02*
D03*
X-905Y-2735D02*
D03*
D96*
X2223Y-1383D02*
D03*
X-1780Y-1820D02*
D03*
X-375Y96D02*
D03*
X-3055Y-1155D02*
D03*
D97*
X-3346Y-3110D02*
D03*
X-3110Y-3346D02*
D03*
X3327Y3091D02*
D03*
X3091Y3327D02*
D03*
Y-3327D02*
D03*
X3327Y-3091D02*
D03*
X-3346Y3110D02*
D03*
X-3110Y3346D02*
D03*
X1969Y-3228D02*
D03*
X1378D02*
D03*
X1969Y-3622D02*
D03*
X1378D02*
D03*
X-157Y-3346D02*
D03*
X-1575D02*
D03*
X-2165Y3543D02*
D03*
Y-3543D02*
D03*
X2165D02*
D03*
Y3543D02*
D03*
X3543Y-2165D02*
D03*
X-3543D02*
D03*
Y2165D02*
D03*
X3543D02*
D03*
X2205Y1291D02*
D03*
Y992D02*
D03*
D98*
X-1315Y390D02*
D03*
X-1515D02*
D03*
D99*
X3075Y-175D02*
D03*
X-3030Y-180D02*
D03*
X-1811Y-2599D02*
D03*
X-1417Y-2874D02*
D03*
X-1614D02*
D03*
X-1811D02*
D03*
D100*
X-2420Y-900D02*
D03*
Y-1000D02*
D03*
Y-1100D02*
D03*
Y-1200D02*
D03*
Y-1300D02*
D03*
Y-1400D02*
D03*
Y-1500D02*
D03*
Y-1600D02*
D03*
X-1920Y-900D02*
D03*
Y-1000D02*
D03*
Y-1100D02*
D03*
Y-1200D02*
D03*
Y-1300D02*
D03*
Y-1400D02*
D03*
Y-1500D02*
D03*
Y990D02*
D03*
Y1090D02*
D03*
Y1190D02*
D03*
Y1290D02*
D03*
Y1390D02*
D03*
Y1490D02*
D03*
Y1590D02*
D03*
X-2420Y890D02*
D03*
Y990D02*
D03*
Y1090D02*
D03*
Y1190D02*
D03*
Y1290D02*
D03*
Y1390D02*
D03*
Y1490D02*
D03*
Y1590D02*
D03*
D101*
X-1920Y-1600D02*
D03*
Y890D02*
D03*
D102*
X-1348Y-145D02*
D03*
X-1685D02*
D03*
X-1317Y-125D02*
D03*
X-1660Y-120D02*
D03*
X861Y-3589D02*
D03*
X964Y-3594D02*
D03*
X45Y-135D02*
D03*
X1775Y-1220D02*
D03*
Y-1560D02*
D03*
Y-1705D02*
D03*
X335Y-1140D02*
D03*
X405Y-815D02*
D03*
X335Y-1105D02*
D03*
D103*
X-3294Y-952D02*
Y900D01*
X-3296Y-960D02*
Y908D01*
X-3298Y-968D02*
Y914D01*
X-3300Y-972D02*
Y920D01*
X-3302Y-978D02*
Y926D01*
X-3304Y-982D02*
Y930D01*
X-3306Y-986D02*
Y934D01*
X-3308Y-990D02*
Y938D01*
X-3310Y-994D02*
Y942D01*
X-3312Y-996D02*
Y944D01*
X-3314Y-1000D02*
Y948D01*
X-3316Y-1002D02*
Y950D01*
X-3318Y-1004D02*
Y952D01*
X-3320Y-1008D02*
Y954D01*
X-3322Y-1010D02*
Y958D01*
X-3324Y-1012D02*
Y960D01*
X-3326Y-1014D02*
Y962D01*
X-3328Y-1016D02*
Y964D01*
X-3330Y-1018D02*
Y966D01*
X-3332Y-1020D02*
Y968D01*
X-3334Y-1022D02*
Y970D01*
X-3336Y-1022D02*
Y970D01*
X-3338Y-1024D02*
Y972D01*
X-3340Y-1026D02*
Y974D01*
X-3342Y-1028D02*
Y976D01*
X-3344Y-1030D02*
Y978D01*
X-3346Y-1030D02*
Y-938D01*
Y-38D02*
Y58D01*
Y886D02*
Y978D01*
X-3348Y-1032D02*
Y-948D01*
Y-36D02*
Y54D01*
Y896D02*
Y980D01*
X-3350Y-1034D02*
Y-954D01*
Y-34D02*
Y54D01*
Y902D02*
Y982D01*
X-3352Y-1034D02*
Y-958D01*
Y-32D02*
Y52D01*
Y906D02*
Y982D01*
X-3354Y-1036D02*
Y-962D01*
Y-32D02*
Y52D01*
Y910D02*
Y984D01*
X-3356Y-1036D02*
Y-966D01*
Y-32D02*
Y52D01*
Y914D02*
Y984D01*
X-3358Y-1038D02*
Y-968D01*
Y-32D02*
Y52D01*
Y916D02*
Y986D01*
X-3360Y-1038D02*
Y-970D01*
Y-32D02*
Y52D01*
Y918D02*
Y986D01*
X-3362Y-1040D02*
Y-974D01*
Y-34D02*
Y54D01*
Y922D02*
Y988D01*
X-3364Y-1040D02*
Y-976D01*
Y-36D02*
Y54D01*
Y924D02*
Y988D01*
X-3366Y-1042D02*
Y-978D01*
Y-38D02*
Y58D01*
Y926D02*
Y990D01*
X-3368Y-1042D02*
Y-980D01*
Y-940D02*
Y-98D01*
Y-52D02*
Y72D01*
Y118D02*
Y888D01*
Y928D02*
Y990D01*
X-3370Y-1044D02*
Y-982D01*
Y-946D02*
Y-100D01*
Y-58D02*
Y76D01*
Y118D02*
Y894D01*
Y930D02*
Y992D01*
X-3372Y-1044D02*
Y-982D01*
Y-952D02*
Y-102D01*
Y-60D02*
Y80D01*
Y120D02*
Y900D01*
Y930D02*
Y992D01*
X-3374Y-1044D02*
Y-984D01*
Y-954D02*
Y-102D01*
Y-64D02*
Y82D01*
Y122D02*
Y902D01*
Y932D02*
Y992D01*
X-3376Y-1046D02*
Y-986D01*
Y-958D02*
Y-104D01*
Y-66D02*
Y84D01*
Y124D02*
Y906D01*
Y934D02*
Y994D01*
X-3378Y-1046D02*
Y-988D01*
Y-960D02*
Y-106D01*
Y-68D02*
Y86D01*
Y124D02*
Y908D01*
Y936D02*
Y994D01*
X-3380Y-1046D02*
Y-988D01*
Y-962D02*
Y-106D01*
Y-70D02*
Y88D01*
Y126D02*
Y910D01*
Y936D02*
Y994D01*
X-3382Y-1046D02*
Y-990D01*
Y-964D02*
Y-108D01*
Y-72D02*
Y90D01*
Y128D02*
Y912D01*
Y938D02*
Y994D01*
X-3384Y-1048D02*
Y-990D01*
Y-966D02*
Y-760D01*
Y-716D02*
Y-586D01*
Y-540D02*
Y-454D01*
Y-366D02*
Y-226D01*
Y-202D02*
Y-108D01*
Y-74D02*
Y92D01*
Y128D02*
Y168D01*
Y192D02*
Y274D01*
Y298D02*
Y344D01*
Y430D02*
Y518D01*
Y542D02*
Y610D01*
Y634D02*
Y702D01*
Y728D02*
Y914D01*
Y938D02*
Y996D01*
X-3386Y-1048D02*
Y-992D01*
Y-968D02*
Y-768D01*
Y-708D02*
Y-594D01*
Y-534D02*
Y-454D01*
Y-358D02*
Y-226D01*
Y-202D02*
Y-110D01*
Y-74D02*
Y94D01*
Y130D02*
Y168D01*
Y192D02*
Y274D01*
Y298D02*
Y344D01*
Y438D02*
Y518D01*
Y542D02*
Y610D01*
Y634D02*
Y702D01*
Y728D02*
Y916D01*
Y940D02*
Y996D01*
X-3388Y-1048D02*
Y-992D01*
Y-968D02*
Y-772D01*
Y-704D02*
Y-598D01*
Y-528D02*
Y-454D01*
Y-354D02*
Y-226D01*
Y-202D02*
Y-110D01*
Y-76D02*
Y96D01*
Y130D02*
Y168D01*
Y192D02*
Y274D01*
Y298D02*
Y344D01*
Y444D02*
Y518D01*
Y542D02*
Y610D01*
Y634D02*
Y702D01*
Y728D02*
Y916D01*
Y940D02*
Y996D01*
X-3390Y-1048D02*
Y-994D01*
Y-970D02*
Y-776D01*
Y-700D02*
Y-602D01*
Y-524D02*
Y-454D01*
Y-350D02*
Y-226D01*
Y-202D02*
Y-112D01*
Y-78D02*
Y96D01*
Y130D02*
Y168D01*
Y192D02*
Y274D01*
Y298D02*
Y344D01*
Y448D02*
Y518D01*
Y542D02*
Y610D01*
Y634D02*
Y702D01*
Y728D02*
Y918D01*
Y942D02*
Y996D01*
X-3392Y-1050D02*
Y-994D01*
Y-972D02*
Y-780D01*
Y-696D02*
Y-606D01*
Y-522D02*
Y-454D01*
Y-346D02*
Y-226D01*
Y-202D02*
Y-112D01*
Y-78D02*
Y98D01*
Y132D02*
Y168D01*
Y192D02*
Y274D01*
Y298D02*
Y344D01*
Y450D02*
Y518D01*
Y542D02*
Y610D01*
Y634D02*
Y702D01*
Y728D02*
Y920D01*
Y942D02*
Y998D01*
X-3394Y-1050D02*
Y-994D01*
Y-972D02*
Y-782D01*
Y-694D02*
Y-608D01*
Y-518D02*
Y-454D01*
Y-344D02*
Y-226D01*
Y-202D02*
Y-112D01*
Y-80D02*
Y98D01*
Y132D02*
Y168D01*
Y192D02*
Y274D01*
Y298D02*
Y344D01*
Y452D02*
Y518D01*
Y542D02*
Y610D01*
Y634D02*
Y702D01*
Y728D02*
Y920D01*
Y942D02*
Y998D01*
X-3396Y-1050D02*
Y-996D01*
Y-972D02*
Y-784D01*
Y-692D02*
Y-610D01*
Y-516D02*
Y-454D01*
Y-342D02*
Y-226D01*
Y-202D02*
Y-114D01*
Y-80D02*
Y100D01*
Y132D02*
Y168D01*
Y192D02*
Y274D01*
Y298D02*
Y344D01*
Y456D02*
Y518D01*
Y542D02*
Y610D01*
Y634D02*
Y702D01*
Y728D02*
Y920D01*
Y944D02*
Y998D01*
X-3398Y-1050D02*
Y-996D01*
Y-974D02*
Y-788D01*
Y-688D02*
Y-612D01*
Y-514D02*
Y-454D01*
Y-340D02*
Y-226D01*
Y-202D02*
Y-114D01*
Y-80D02*
Y100D01*
Y134D02*
Y168D01*
Y192D02*
Y274D01*
Y298D02*
Y344D01*
Y458D02*
Y518D01*
Y542D02*
Y610D01*
Y634D02*
Y702D01*
Y728D02*
Y922D01*
Y944D02*
Y998D01*
X-3400Y-1050D02*
Y-996D01*
Y-974D02*
Y-790D01*
Y-686D02*
Y-614D01*
Y-512D02*
Y-454D01*
Y-338D02*
Y-226D01*
Y-202D02*
Y-114D01*
Y-82D02*
Y102D01*
Y134D02*
Y168D01*
Y192D02*
Y274D01*
Y298D02*
Y344D01*
Y460D02*
Y518D01*
Y542D02*
Y610D01*
Y634D02*
Y702D01*
Y728D02*
Y922D01*
Y944D02*
Y998D01*
X-3402Y-1050D02*
Y-996D01*
Y-974D02*
Y-790D01*
Y-686D02*
Y-616D01*
Y-510D02*
Y-454D01*
Y-336D02*
Y-226D01*
Y-202D02*
Y-114D01*
Y-82D02*
Y102D01*
Y134D02*
Y168D01*
Y192D02*
Y274D01*
Y298D02*
Y344D01*
Y462D02*
Y518D01*
Y542D02*
Y610D01*
Y634D02*
Y702D01*
Y728D02*
Y922D01*
Y944D02*
Y998D01*
X-3404Y-1050D02*
Y-996D01*
Y-976D02*
Y-792D01*
Y-684D02*
Y-618D01*
Y-508D02*
Y-454D01*
Y-334D02*
Y-226D01*
Y-202D02*
Y-116D01*
Y-82D02*
Y102D01*
Y134D02*
Y168D01*
Y192D02*
Y274D01*
Y298D02*
Y344D01*
Y462D02*
Y518D01*
Y542D02*
Y610D01*
Y634D02*
Y702D01*
Y728D02*
Y924D01*
Y944D02*
Y998D01*
X-3406Y-1050D02*
Y-998D01*
Y-976D02*
Y-794D01*
Y-682D02*
Y-620D01*
Y-508D02*
Y-454D01*
Y-332D02*
Y-226D01*
Y-202D02*
Y-116D01*
Y-82D02*
Y102D01*
Y134D02*
Y168D01*
Y192D02*
Y274D01*
Y298D02*
Y344D01*
Y464D02*
Y518D01*
Y542D02*
Y610D01*
Y634D02*
Y702D01*
Y728D02*
Y924D01*
Y946D02*
Y998D01*
X-3408Y-1050D02*
Y-998D01*
Y-976D02*
Y-796D01*
Y-756D02*
Y-720D01*
Y-680D02*
Y-620D01*
Y-582D02*
Y-544D01*
Y-506D02*
Y-370D01*
Y-332D02*
Y-226D01*
Y-202D02*
Y-116D01*
Y-84D02*
Y102D01*
Y136D02*
Y168D01*
Y192D02*
Y274D01*
Y298D02*
Y426D01*
Y466D02*
Y518D01*
Y542D02*
Y610D01*
Y634D02*
Y702D01*
Y728D02*
Y924D01*
Y946D02*
Y998D01*
X-3410Y-1050D02*
Y-998D01*
Y-976D02*
Y-796D01*
Y-764D02*
Y-712D01*
Y-680D02*
Y-622D01*
Y-588D02*
Y-538D01*
Y-504D02*
Y-364D01*
Y-330D02*
Y-226D01*
Y-202D02*
Y-116D01*
Y-84D02*
Y102D01*
Y136D02*
Y168D01*
Y192D02*
Y274D01*
Y298D02*
Y434D01*
Y466D02*
Y518D01*
Y542D02*
Y610D01*
Y634D02*
Y702D01*
Y728D02*
Y924D01*
Y946D02*
Y998D01*
X-3412Y-1050D02*
Y-998D01*
Y-976D02*
Y-798D01*
Y-766D02*
Y-710D01*
Y-678D02*
Y-624D01*
Y-592D02*
Y-534D01*
Y-504D02*
Y-360D01*
Y-330D02*
Y-226D01*
Y-202D02*
Y-116D01*
Y-84D02*
Y102D01*
Y136D02*
Y168D01*
Y194D02*
Y274D01*
Y298D02*
Y438D01*
Y468D02*
Y518D01*
Y542D02*
Y610D01*
Y634D02*
Y702D01*
Y728D02*
Y924D01*
Y946D02*
Y998D01*
X-3414Y-1050D02*
Y-998D01*
Y-976D02*
Y-798D01*
Y-770D02*
Y-706D01*
Y-678D02*
Y-624D01*
Y-594D02*
Y-532D01*
Y-502D02*
Y-358D01*
Y-328D02*
Y-226D01*
Y-202D02*
Y-116D01*
Y-84D02*
Y102D01*
Y136D02*
Y168D01*
Y194D02*
Y274D01*
Y298D02*
Y440D01*
Y468D02*
Y518D01*
Y542D02*
Y610D01*
Y634D02*
Y702D01*
Y728D02*
Y924D01*
Y946D02*
Y998D01*
X-3416Y-1050D02*
Y-998D01*
Y-976D02*
Y-800D01*
Y-772D02*
Y-704D01*
Y-676D02*
Y-624D01*
Y-596D02*
Y-530D01*
Y-502D02*
Y-356D01*
Y-328D02*
Y-226D01*
Y-202D02*
Y-116D01*
Y-84D02*
Y102D01*
Y136D02*
Y168D01*
Y194D02*
Y274D01*
Y298D02*
Y442D01*
Y470D02*
Y518D01*
Y542D02*
Y610D01*
Y634D02*
Y702D01*
Y728D02*
Y924D01*
Y946D02*
Y998D01*
X-3418Y-1050D02*
Y-998D01*
Y-976D02*
Y-800D01*
Y-774D02*
Y-702D01*
Y-676D02*
Y-626D01*
Y-598D02*
Y-528D01*
Y-502D02*
Y-354D01*
Y-326D02*
Y-226D01*
Y-202D02*
Y-116D01*
Y-84D02*
Y102D01*
Y136D02*
Y170D01*
Y194D02*
Y274D01*
Y298D02*
Y444D01*
Y470D02*
Y518D01*
Y542D02*
Y610D01*
Y634D02*
Y702D01*
Y728D02*
Y924D01*
Y946D02*
Y998D01*
X-3420Y-1050D02*
Y-998D01*
Y-976D02*
Y-802D01*
Y-774D02*
Y-702D01*
Y-676D02*
Y-626D01*
Y-600D02*
Y-526D01*
Y-500D02*
Y-352D01*
Y-326D02*
Y-226D01*
Y-202D02*
Y-116D01*
Y-84D02*
Y102D01*
Y136D02*
Y170D01*
Y196D02*
Y274D01*
Y298D02*
Y444D01*
Y472D02*
Y518D01*
Y542D02*
Y610D01*
Y634D02*
Y702D01*
Y728D02*
Y924D01*
Y946D02*
Y998D01*
X-3422Y-1050D02*
Y-998D01*
Y-976D02*
Y-802D01*
Y-776D02*
Y-700D01*
Y-674D02*
Y-626D01*
Y-602D02*
Y-526D01*
Y-500D02*
Y-352D01*
Y-326D02*
Y-226D01*
Y-202D02*
Y-116D01*
Y-84D02*
Y102D01*
Y136D02*
Y170D01*
Y196D02*
Y274D01*
Y298D02*
Y446D01*
Y472D02*
Y518D01*
Y542D02*
Y610D01*
Y634D02*
Y702D01*
Y728D02*
Y924D01*
Y946D02*
Y998D01*
X-3424Y-1050D02*
Y-998D01*
Y-976D02*
Y-802D01*
Y-776D02*
Y-700D01*
Y-674D02*
Y-628D01*
Y-602D02*
Y-524D01*
Y-500D02*
Y-350D01*
Y-324D02*
Y-226D01*
Y-202D02*
Y-116D01*
Y-84D02*
Y102D01*
Y136D02*
Y170D01*
Y198D02*
Y274D01*
Y298D02*
Y448D01*
Y472D02*
Y518D01*
Y542D02*
Y610D01*
Y634D02*
Y702D01*
Y728D02*
Y924D01*
Y946D02*
Y998D01*
X-3426Y-1050D02*
Y-996D01*
Y-976D02*
Y-802D01*
Y-778D02*
Y-698D01*
Y-674D02*
Y-628D01*
Y-602D02*
Y-524D01*
Y-500D02*
Y-350D01*
Y-324D02*
Y-226D01*
Y-202D02*
Y-116D01*
Y-84D02*
Y102D01*
Y136D02*
Y172D01*
Y198D02*
Y274D01*
Y298D02*
Y448D01*
Y472D02*
Y518D01*
Y542D02*
Y610D01*
Y634D02*
Y702D01*
Y728D02*
Y924D01*
Y946D02*
Y998D01*
X-3428Y-1050D02*
Y-996D01*
Y-974D02*
Y-802D01*
Y-778D02*
Y-698D01*
Y-674D02*
Y-628D01*
Y-604D02*
Y-524D01*
Y-498D02*
Y-348D01*
Y-324D02*
Y-226D01*
Y-202D02*
Y-116D01*
Y-84D02*
Y102D01*
Y136D02*
Y172D01*
Y200D02*
Y274D01*
Y298D02*
Y448D01*
Y472D02*
Y518D01*
Y542D02*
Y610D01*
Y634D02*
Y702D01*
Y728D02*
Y924D01*
Y946D02*
Y998D01*
X-3430Y-1050D02*
Y-996D01*
Y-974D02*
Y-804D01*
Y-778D02*
Y-698D01*
Y-674D02*
Y-628D01*
Y-604D02*
Y-524D01*
Y-498D02*
Y-348D01*
Y-324D02*
Y-226D01*
Y-202D02*
Y-116D01*
Y-84D02*
Y102D01*
Y136D02*
Y174D01*
Y202D02*
Y274D01*
Y298D02*
Y448D01*
Y474D02*
Y518D01*
Y542D02*
Y610D01*
Y634D02*
Y702D01*
Y728D02*
Y924D01*
Y946D02*
Y998D01*
X-3432Y-1050D02*
Y-996D01*
Y-974D02*
Y-804D01*
Y-778D02*
Y-698D01*
Y-674D02*
Y-628D01*
Y-604D02*
Y-522D01*
Y-498D02*
Y-348D01*
Y-324D02*
Y-226D01*
Y-202D02*
Y-116D01*
Y-84D02*
Y102D01*
Y136D02*
Y174D01*
Y206D02*
Y274D01*
Y298D02*
Y448D01*
Y474D02*
Y518D01*
Y542D02*
Y610D01*
Y634D02*
Y702D01*
Y728D02*
Y924D01*
Y946D02*
Y998D01*
X-3434Y-1050D02*
Y-994D01*
Y-972D02*
Y-804D01*
Y-778D02*
Y-698D01*
Y-672D02*
Y-628D01*
Y-604D02*
Y-522D01*
Y-498D02*
Y-348D01*
Y-324D02*
Y-226D01*
Y-202D02*
Y-116D01*
Y-84D02*
Y102D01*
Y136D02*
Y176D01*
Y210D02*
Y274D01*
Y298D02*
Y448D01*
Y474D02*
Y518D01*
Y542D02*
Y610D01*
Y634D02*
Y702D01*
Y728D02*
Y924D01*
Y946D02*
Y998D01*
X-3436Y-1050D02*
Y-994D01*
Y-972D02*
Y-804D01*
Y-778D02*
Y-698D01*
Y-672D02*
Y-628D01*
Y-604D02*
Y-522D01*
Y-498D02*
Y-348D01*
Y-324D02*
Y-226D01*
Y-202D02*
Y-116D01*
Y-84D02*
Y102D01*
Y136D02*
Y176D01*
Y218D02*
Y274D01*
Y298D02*
Y448D01*
Y474D02*
Y518D01*
Y542D02*
Y610D01*
Y634D02*
Y702D01*
Y728D02*
Y924D01*
Y946D02*
Y998D01*
X-3438Y-1048D02*
Y-994D01*
Y-970D02*
Y-804D01*
Y-778D02*
Y-698D01*
Y-672D02*
Y-628D01*
Y-604D02*
Y-522D01*
Y-498D02*
Y-348D01*
Y-324D02*
Y-226D01*
Y-202D02*
Y-116D01*
Y-84D02*
Y102D01*
Y136D02*
Y178D01*
Y298D02*
Y448D01*
Y474D02*
Y518D01*
Y542D02*
Y610D01*
Y634D02*
Y702D01*
Y728D02*
Y924D01*
Y946D02*
Y998D01*
X-3440Y-1048D02*
Y-992D01*
Y-970D02*
Y-804D01*
Y-778D02*
Y-698D01*
Y-672D02*
Y-628D01*
Y-604D02*
Y-522D01*
Y-498D02*
Y-348D01*
Y-324D02*
Y-226D01*
Y-202D02*
Y-116D01*
Y-84D02*
Y102D01*
Y136D02*
Y180D01*
Y298D02*
Y448D01*
Y474D02*
Y518D01*
Y542D02*
Y610D01*
Y634D02*
Y702D01*
Y728D02*
Y924D01*
Y946D02*
Y998D01*
X-3442Y-1048D02*
Y-992D01*
Y-968D02*
Y-804D01*
Y-778D02*
Y-698D01*
Y-672D02*
Y-628D01*
Y-604D02*
Y-522D01*
Y-498D02*
Y-348D01*
Y-324D02*
Y-226D01*
Y-202D02*
Y-116D01*
Y-84D02*
Y-10D01*
Y28D02*
Y102D01*
Y136D02*
Y182D01*
Y298D02*
Y448D01*
Y474D02*
Y518D01*
Y542D02*
Y610D01*
Y634D02*
Y702D01*
Y728D02*
Y924D01*
Y946D02*
Y998D01*
X-3444Y-1048D02*
Y-992D01*
Y-966D02*
Y-804D01*
Y-778D02*
Y-698D01*
Y-672D02*
Y-628D01*
Y-604D02*
Y-522D01*
Y-498D02*
Y-348D01*
Y-324D02*
Y-226D01*
Y-202D02*
Y-116D01*
Y-84D02*
Y-12D01*
Y32D02*
Y102D01*
Y136D02*
Y184D01*
Y298D02*
Y448D01*
Y474D02*
Y518D01*
Y542D02*
Y610D01*
Y634D02*
Y702D01*
Y728D02*
Y924D01*
Y946D02*
Y998D01*
X-3446Y-1048D02*
Y-990D01*
Y-964D02*
Y-804D01*
Y-778D02*
Y-698D01*
Y-672D02*
Y-628D01*
Y-604D02*
Y-522D01*
Y-498D02*
Y-348D01*
Y-324D02*
Y-226D01*
Y-202D02*
Y-116D01*
Y-84D02*
Y-14D01*
Y34D02*
Y102D01*
Y136D02*
Y186D01*
Y298D02*
Y448D01*
Y474D02*
Y518D01*
Y542D02*
Y610D01*
Y634D02*
Y702D01*
Y728D02*
Y924D01*
Y946D02*
Y998D01*
X-3448Y-1046D02*
Y-988D01*
Y-964D02*
Y-804D01*
Y-778D02*
Y-698D01*
Y-672D02*
Y-522D01*
Y-498D02*
Y-348D01*
Y-324D02*
Y-226D01*
Y-202D02*
Y-116D01*
Y-84D02*
Y-16D01*
Y34D02*
Y102D01*
Y136D02*
Y186D01*
Y298D02*
Y448D01*
Y474D02*
Y518D01*
Y542D02*
Y610D01*
Y634D02*
Y702D01*
Y728D02*
Y924D01*
Y946D02*
Y998D01*
X-3450Y-1046D02*
Y-988D01*
Y-962D02*
Y-804D01*
Y-778D02*
Y-698D01*
Y-672D02*
Y-522D01*
Y-498D02*
Y-348D01*
Y-324D02*
Y-226D01*
Y-202D02*
Y-116D01*
Y-84D02*
Y-16D01*
Y36D02*
Y102D01*
Y136D02*
Y186D01*
Y298D02*
Y448D01*
Y474D02*
Y518D01*
Y542D02*
Y610D01*
Y634D02*
Y702D01*
Y728D02*
Y924D01*
Y946D02*
Y998D01*
X-3452Y-1046D02*
Y-986D01*
Y-958D02*
Y-804D01*
Y-778D02*
Y-698D01*
Y-672D02*
Y-522D01*
Y-498D02*
Y-348D01*
Y-324D02*
Y-226D01*
Y-202D02*
Y-116D01*
Y-84D02*
Y-16D01*
Y36D02*
Y102D01*
Y136D02*
Y184D01*
Y298D02*
Y448D01*
Y474D02*
Y518D01*
Y542D02*
Y610D01*
Y634D02*
Y702D01*
Y728D02*
Y924D01*
Y946D02*
Y998D01*
X-3454Y-1044D02*
Y-986D01*
Y-956D02*
Y-804D01*
Y-778D02*
Y-698D01*
Y-672D02*
Y-522D01*
Y-498D02*
Y-348D01*
Y-324D02*
Y-226D01*
Y-202D02*
Y-116D01*
Y-84D02*
Y-16D01*
Y36D02*
Y102D01*
Y136D02*
Y182D01*
Y298D02*
Y448D01*
Y474D02*
Y518D01*
Y542D02*
Y610D01*
Y634D02*
Y702D01*
Y728D02*
Y924D01*
Y946D02*
Y998D01*
X-3456Y-1044D02*
Y-984D01*
Y-952D02*
Y-804D01*
Y-778D02*
Y-698D01*
Y-672D02*
Y-522D01*
Y-498D02*
Y-348D01*
Y-324D02*
Y-226D01*
Y-202D02*
Y-116D01*
Y-84D02*
Y-16D01*
Y36D02*
Y102D01*
Y136D02*
Y180D01*
Y298D02*
Y448D01*
Y474D02*
Y518D01*
Y542D02*
Y610D01*
Y634D02*
Y702D01*
Y728D02*
Y924D01*
Y946D02*
Y998D01*
X-3458Y-1044D02*
Y-982D01*
Y-950D02*
Y-804D01*
Y-778D02*
Y-698D01*
Y-672D02*
Y-522D01*
Y-498D02*
Y-348D01*
Y-324D02*
Y-226D01*
Y-202D02*
Y-116D01*
Y-84D02*
Y-16D01*
Y36D02*
Y102D01*
Y136D02*
Y178D01*
Y298D02*
Y448D01*
Y474D02*
Y518D01*
Y542D02*
Y610D01*
Y634D02*
Y702D01*
Y728D02*
Y924D01*
Y946D02*
Y998D01*
X-3460Y-1042D02*
Y-980D01*
Y-944D02*
Y-804D01*
Y-778D02*
Y-698D01*
Y-672D02*
Y-522D01*
Y-498D02*
Y-348D01*
Y-324D02*
Y-226D01*
Y-202D02*
Y-116D01*
Y-84D02*
Y-16D01*
Y36D02*
Y102D01*
Y136D02*
Y176D01*
Y298D02*
Y448D01*
Y474D02*
Y518D01*
Y542D02*
Y610D01*
Y634D02*
Y702D01*
Y728D02*
Y924D01*
Y946D02*
Y998D01*
X-3462Y-1042D02*
Y-978D01*
Y-934D02*
Y-804D01*
Y-778D02*
Y-698D01*
Y-672D02*
Y-522D01*
Y-498D02*
Y-348D01*
Y-324D02*
Y-226D01*
Y-202D02*
Y-116D01*
Y-84D02*
Y-16D01*
Y36D02*
Y102D01*
Y136D02*
Y176D01*
Y210D02*
Y274D01*
Y298D02*
Y448D01*
Y474D02*
Y518D01*
Y542D02*
Y610D01*
Y634D02*
Y702D01*
Y728D02*
Y924D01*
Y946D02*
Y998D01*
X-3464Y-1040D02*
Y-976D01*
Y-874D02*
Y-804D01*
Y-778D02*
Y-698D01*
Y-672D02*
Y-522D01*
Y-498D02*
Y-428D01*
Y-324D02*
Y-226D01*
Y-202D02*
Y-116D01*
Y-84D02*
Y-16D01*
Y36D02*
Y102D01*
Y136D02*
Y174D01*
Y206D02*
Y274D01*
Y298D02*
Y370D01*
Y474D02*
Y518D01*
Y542D02*
Y610D01*
Y634D02*
Y702D01*
Y728D02*
Y808D01*
Y946D02*
Y998D01*
X-3466Y-1040D02*
Y-974D01*
Y-868D02*
Y-804D01*
Y-778D02*
Y-698D01*
Y-672D02*
Y-522D01*
Y-498D02*
Y-428D01*
Y-324D02*
Y-226D01*
Y-202D02*
Y-116D01*
Y-84D02*
Y-16D01*
Y36D02*
Y102D01*
Y136D02*
Y174D01*
Y204D02*
Y274D01*
Y298D02*
Y370D01*
Y474D02*
Y518D01*
Y542D02*
Y610D01*
Y634D02*
Y702D01*
Y728D02*
Y808D01*
Y946D02*
Y998D01*
X-3468Y-1040D02*
Y-972D01*
Y-862D02*
Y-804D01*
Y-778D02*
Y-698D01*
Y-672D02*
Y-522D01*
Y-498D02*
Y-428D01*
Y-324D02*
Y-226D01*
Y-202D02*
Y-116D01*
Y-84D02*
Y-16D01*
Y36D02*
Y102D01*
Y136D02*
Y172D01*
Y202D02*
Y274D01*
Y298D02*
Y370D01*
Y474D02*
Y518D01*
Y542D02*
Y610D01*
Y634D02*
Y702D01*
Y728D02*
Y808D01*
Y946D02*
Y998D01*
X-3470Y-1038D02*
Y-970D01*
Y-858D02*
Y-804D01*
Y-778D02*
Y-698D01*
Y-672D02*
Y-522D01*
Y-498D02*
Y-428D01*
Y-324D02*
Y-226D01*
Y-202D02*
Y-116D01*
Y-84D02*
Y-16D01*
Y36D02*
Y102D01*
Y136D02*
Y172D01*
Y200D02*
Y274D01*
Y298D02*
Y370D01*
Y474D02*
Y518D01*
Y542D02*
Y610D01*
Y634D02*
Y702D01*
Y728D02*
Y808D01*
Y946D02*
Y998D01*
X-3472Y-1038D02*
Y-966D01*
Y-854D02*
Y-804D01*
Y-778D02*
Y-698D01*
Y-672D02*
Y-522D01*
Y-498D02*
Y-428D01*
Y-324D02*
Y-226D01*
Y-202D02*
Y-116D01*
Y-84D02*
Y-16D01*
Y36D02*
Y102D01*
Y136D02*
Y170D01*
Y198D02*
Y274D01*
Y298D02*
Y370D01*
Y474D02*
Y518D01*
Y542D02*
Y610D01*
Y634D02*
Y702D01*
Y728D02*
Y808D01*
Y946D02*
Y998D01*
X-3474Y-1036D02*
Y-964D01*
Y-852D02*
Y-804D01*
Y-778D02*
Y-698D01*
Y-672D02*
Y-522D01*
Y-498D02*
Y-428D01*
Y-324D02*
Y-226D01*
Y-202D02*
Y-116D01*
Y-84D02*
Y-16D01*
Y36D02*
Y102D01*
Y136D02*
Y170D01*
Y196D02*
Y274D01*
Y298D02*
Y370D01*
Y474D02*
Y518D01*
Y542D02*
Y610D01*
Y634D02*
Y702D01*
Y728D02*
Y808D01*
Y946D02*
Y998D01*
X-3476Y-1034D02*
Y-960D01*
Y-848D02*
Y-804D01*
Y-778D02*
Y-698D01*
Y-672D02*
Y-522D01*
Y-498D02*
Y-428D01*
Y-324D02*
Y-226D01*
Y-202D02*
Y-116D01*
Y-84D02*
Y-16D01*
Y36D02*
Y102D01*
Y136D02*
Y170D01*
Y196D02*
Y274D01*
Y298D02*
Y370D01*
Y474D02*
Y518D01*
Y542D02*
Y610D01*
Y634D02*
Y702D01*
Y728D02*
Y808D01*
Y946D02*
Y998D01*
X-3478Y-1034D02*
Y-956D01*
Y-846D02*
Y-804D01*
Y-778D02*
Y-698D01*
Y-672D02*
Y-522D01*
Y-498D02*
Y-428D01*
Y-324D02*
Y-226D01*
Y-202D02*
Y-116D01*
Y-84D02*
Y-16D01*
Y36D02*
Y102D01*
Y136D02*
Y170D01*
Y194D02*
Y274D01*
Y298D02*
Y370D01*
Y474D02*
Y518D01*
Y542D02*
Y610D01*
Y634D02*
Y702D01*
Y728D02*
Y808D01*
Y946D02*
Y998D01*
X-3480Y-1032D02*
Y-952D01*
Y-844D02*
Y-804D01*
Y-778D02*
Y-698D01*
Y-672D02*
Y-522D01*
Y-498D02*
Y-428D01*
Y-324D02*
Y-226D01*
Y-202D02*
Y-116D01*
Y-84D02*
Y-16D01*
Y36D02*
Y102D01*
Y136D02*
Y170D01*
Y194D02*
Y274D01*
Y298D02*
Y370D01*
Y474D02*
Y518D01*
Y542D02*
Y610D01*
Y634D02*
Y702D01*
Y728D02*
Y808D01*
Y946D02*
Y998D01*
X-3482Y-1032D02*
Y-944D01*
Y-842D02*
Y-804D01*
Y-778D02*
Y-698D01*
Y-672D02*
Y-522D01*
Y-498D02*
Y-428D01*
Y-324D02*
Y-226D01*
Y-202D02*
Y-116D01*
Y-84D02*
Y-16D01*
Y36D02*
Y102D01*
Y136D02*
Y168D01*
Y194D02*
Y274D01*
Y298D02*
Y370D01*
Y474D02*
Y518D01*
Y542D02*
Y610D01*
Y634D02*
Y702D01*
Y728D02*
Y808D01*
Y946D02*
Y998D01*
X-3484Y-1030D02*
Y-884D01*
Y-840D02*
Y-804D01*
Y-778D02*
Y-698D01*
Y-672D02*
Y-522D01*
Y-498D02*
Y-428D01*
Y-324D02*
Y-226D01*
Y-202D02*
Y-116D01*
Y-84D02*
Y-16D01*
Y36D02*
Y102D01*
Y136D02*
Y168D01*
Y194D02*
Y274D01*
Y298D02*
Y370D01*
Y474D02*
Y518D01*
Y542D02*
Y610D01*
Y634D02*
Y702D01*
Y728D02*
Y924D01*
Y946D02*
Y998D01*
X-3486Y-1028D02*
Y-874D01*
Y-838D02*
Y-804D01*
Y-778D02*
Y-698D01*
Y-672D02*
Y-522D01*
Y-498D02*
Y-428D01*
Y-324D02*
Y-226D01*
Y-202D02*
Y-116D01*
Y-84D02*
Y-14D01*
Y34D02*
Y102D01*
Y136D02*
Y168D01*
Y192D02*
Y274D01*
Y298D02*
Y370D01*
Y474D02*
Y518D01*
Y542D02*
Y610D01*
Y634D02*
Y702D01*
Y728D02*
Y924D01*
Y946D02*
Y998D01*
X-3488Y-1026D02*
Y-868D01*
Y-836D02*
Y-804D01*
Y-778D02*
Y-698D01*
Y-672D02*
Y-522D01*
Y-498D02*
Y-348D01*
Y-324D02*
Y-226D01*
Y-202D02*
Y-116D01*
Y-84D02*
Y-14D01*
Y34D02*
Y102D01*
Y136D02*
Y168D01*
Y192D02*
Y274D01*
Y298D02*
Y448D01*
Y474D02*
Y518D01*
Y542D02*
Y610D01*
Y634D02*
Y702D01*
Y728D02*
Y924D01*
Y946D02*
Y998D01*
X-3490Y-1026D02*
Y-866D01*
Y-834D02*
Y-804D01*
Y-778D02*
Y-698D01*
Y-672D02*
Y-522D01*
Y-498D02*
Y-348D01*
Y-324D02*
Y-226D01*
Y-202D02*
Y-116D01*
Y-84D02*
Y-12D01*
Y32D02*
Y102D01*
Y136D02*
Y168D01*
Y192D02*
Y274D01*
Y298D02*
Y448D01*
Y474D02*
Y518D01*
Y542D02*
Y610D01*
Y634D02*
Y702D01*
Y728D02*
Y924D01*
Y946D02*
Y998D01*
X-3492Y-1024D02*
Y-862D01*
Y-832D02*
Y-804D01*
Y-778D02*
Y-698D01*
Y-672D02*
Y-522D01*
Y-498D02*
Y-348D01*
Y-324D02*
Y-226D01*
Y-202D02*
Y-116D01*
Y-84D02*
Y-8D01*
Y28D02*
Y102D01*
Y136D02*
Y168D01*
Y192D02*
Y274D01*
Y298D02*
Y448D01*
Y474D02*
Y518D01*
Y542D02*
Y610D01*
Y634D02*
Y702D01*
Y728D02*
Y924D01*
Y946D02*
Y998D01*
X-3494Y-1022D02*
Y-860D01*
Y-832D02*
Y-804D01*
Y-778D02*
Y-698D01*
Y-672D02*
Y-522D01*
Y-498D02*
Y-348D01*
Y-324D02*
Y-226D01*
Y-202D02*
Y-116D01*
Y-84D02*
Y102D01*
Y136D02*
Y168D01*
Y192D02*
Y274D01*
Y298D02*
Y448D01*
Y474D02*
Y518D01*
Y542D02*
Y610D01*
Y634D02*
Y702D01*
Y728D02*
Y924D01*
Y946D02*
Y998D01*
X-3496Y-1020D02*
Y-858D01*
Y-830D02*
Y-804D01*
Y-778D02*
Y-698D01*
Y-672D02*
Y-522D01*
Y-498D02*
Y-348D01*
Y-324D02*
Y-226D01*
Y-202D02*
Y-116D01*
Y-84D02*
Y102D01*
Y136D02*
Y168D01*
Y192D02*
Y274D01*
Y298D02*
Y448D01*
Y474D02*
Y518D01*
Y542D02*
Y610D01*
Y634D02*
Y702D01*
Y728D02*
Y924D01*
Y946D02*
Y998D01*
X-3498Y-1018D02*
Y-854D01*
Y-830D02*
Y-804D01*
Y-778D02*
Y-698D01*
Y-672D02*
Y-522D01*
Y-498D02*
Y-348D01*
Y-324D02*
Y-226D01*
Y-202D02*
Y-116D01*
Y-84D02*
Y102D01*
Y136D02*
Y168D01*
Y192D02*
Y274D01*
Y298D02*
Y448D01*
Y474D02*
Y518D01*
Y542D02*
Y610D01*
Y634D02*
Y702D01*
Y728D02*
Y924D01*
Y946D02*
Y998D01*
X-3500Y-1016D02*
Y-854D01*
Y-828D02*
Y-804D01*
Y-778D02*
Y-698D01*
Y-672D02*
Y-522D01*
Y-498D02*
Y-348D01*
Y-324D02*
Y-226D01*
Y-202D02*
Y-116D01*
Y-84D02*
Y102D01*
Y136D02*
Y168D01*
Y192D02*
Y274D01*
Y298D02*
Y448D01*
Y474D02*
Y518D01*
Y542D02*
Y610D01*
Y634D02*
Y702D01*
Y728D02*
Y924D01*
Y946D02*
Y998D01*
X-3502Y-1014D02*
Y-852D01*
Y-826D02*
Y-804D01*
Y-778D02*
Y-698D01*
Y-672D02*
Y-522D01*
Y-498D02*
Y-348D01*
Y-324D02*
Y-226D01*
Y-202D02*
Y-116D01*
Y-84D02*
Y102D01*
Y136D02*
Y168D01*
Y192D02*
Y274D01*
Y298D02*
Y448D01*
Y474D02*
Y518D01*
Y542D02*
Y610D01*
Y634D02*
Y702D01*
Y728D02*
Y924D01*
Y946D02*
Y998D01*
X-3504Y-1012D02*
Y-850D01*
Y-826D02*
Y-804D01*
Y-778D02*
Y-698D01*
Y-672D02*
Y-628D01*
Y-604D02*
Y-522D01*
Y-498D02*
Y-348D01*
Y-324D02*
Y-226D01*
Y-202D02*
Y-116D01*
Y-84D02*
Y102D01*
Y136D02*
Y168D01*
Y192D02*
Y274D01*
Y298D02*
Y448D01*
Y474D02*
Y518D01*
Y542D02*
Y610D01*
Y634D02*
Y702D01*
Y728D02*
Y924D01*
Y946D02*
Y998D01*
X-3506Y-1010D02*
Y-848D01*
Y-826D02*
Y-804D01*
Y-778D02*
Y-698D01*
Y-672D02*
Y-628D01*
Y-604D02*
Y-522D01*
Y-498D02*
Y-348D01*
Y-324D02*
Y-226D01*
Y-202D02*
Y-116D01*
Y-84D02*
Y102D01*
Y136D02*
Y168D01*
Y192D02*
Y274D01*
Y298D02*
Y448D01*
Y474D02*
Y518D01*
Y542D02*
Y610D01*
Y634D02*
Y702D01*
Y728D02*
Y924D01*
Y946D02*
Y998D01*
X-3508Y-1008D02*
Y-848D01*
Y-824D02*
Y-804D01*
Y-778D02*
Y-698D01*
Y-672D02*
Y-628D01*
Y-604D02*
Y-522D01*
Y-498D02*
Y-348D01*
Y-324D02*
Y-226D01*
Y-202D02*
Y-116D01*
Y-84D02*
Y102D01*
Y136D02*
Y168D01*
Y192D02*
Y274D01*
Y298D02*
Y448D01*
Y474D02*
Y518D01*
Y542D02*
Y610D01*
Y634D02*
Y702D01*
Y728D02*
Y924D01*
Y946D02*
Y998D01*
X-3510Y-1006D02*
Y-846D01*
Y-824D02*
Y-804D01*
Y-778D02*
Y-698D01*
Y-672D02*
Y-628D01*
Y-604D02*
Y-522D01*
Y-498D02*
Y-348D01*
Y-324D02*
Y-226D01*
Y-202D02*
Y-116D01*
Y-84D02*
Y102D01*
Y136D02*
Y168D01*
Y192D02*
Y274D01*
Y298D02*
Y448D01*
Y474D02*
Y518D01*
Y542D02*
Y610D01*
Y634D02*
Y702D01*
Y728D02*
Y924D01*
Y946D02*
Y998D01*
X-3512Y-1004D02*
Y-846D01*
Y-824D02*
Y-804D01*
Y-778D02*
Y-698D01*
Y-672D02*
Y-628D01*
Y-604D02*
Y-522D01*
Y-498D02*
Y-348D01*
Y-324D02*
Y-226D01*
Y-202D02*
Y-116D01*
Y-84D02*
Y102D01*
Y136D02*
Y168D01*
Y192D02*
Y274D01*
Y298D02*
Y448D01*
Y474D02*
Y518D01*
Y542D02*
Y610D01*
Y634D02*
Y702D01*
Y728D02*
Y924D01*
Y946D02*
Y998D01*
X-3514Y-1000D02*
Y-844D01*
Y-822D02*
Y-804D01*
Y-778D02*
Y-698D01*
Y-672D02*
Y-628D01*
Y-604D02*
Y-522D01*
Y-498D02*
Y-348D01*
Y-324D02*
Y-226D01*
Y-202D02*
Y-116D01*
Y-84D02*
Y102D01*
Y136D02*
Y168D01*
Y192D02*
Y274D01*
Y298D02*
Y448D01*
Y474D02*
Y518D01*
Y542D02*
Y610D01*
Y634D02*
Y702D01*
Y728D02*
Y924D01*
Y946D02*
Y998D01*
X-3516Y-998D02*
Y-844D01*
Y-822D02*
Y-804D01*
Y-778D02*
Y-698D01*
Y-674D02*
Y-628D01*
Y-604D02*
Y-522D01*
Y-498D02*
Y-348D01*
Y-324D02*
Y-226D01*
Y-202D02*
Y-116D01*
Y-84D02*
Y102D01*
Y136D02*
Y168D01*
Y192D02*
Y274D01*
Y298D02*
Y448D01*
Y474D02*
Y518D01*
Y542D02*
Y610D01*
Y634D02*
Y702D01*
Y728D02*
Y924D01*
Y946D02*
Y998D01*
X-3518Y-996D02*
Y-844D01*
Y-822D02*
Y-804D01*
Y-778D02*
Y-698D01*
Y-674D02*
Y-628D01*
Y-604D02*
Y-522D01*
Y-498D02*
Y-348D01*
Y-324D02*
Y-226D01*
Y-202D02*
Y-116D01*
Y-84D02*
Y102D01*
Y136D02*
Y168D01*
Y194D02*
Y274D01*
Y298D02*
Y448D01*
Y474D02*
Y518D01*
Y542D02*
Y610D01*
Y634D02*
Y702D01*
Y728D02*
Y924D01*
Y946D02*
Y998D01*
X-3520Y-992D02*
Y-844D01*
Y-822D02*
Y-802D01*
Y-778D02*
Y-698D01*
Y-674D02*
Y-628D01*
Y-604D02*
Y-524D01*
Y-498D02*
Y-348D01*
Y-324D02*
Y-226D01*
Y-202D02*
Y-116D01*
Y-84D02*
Y102D01*
Y136D02*
Y168D01*
Y194D02*
Y274D01*
Y298D02*
Y448D01*
Y474D02*
Y518D01*
Y542D02*
Y610D01*
Y636D02*
Y702D01*
Y726D02*
Y924D01*
Y946D02*
Y998D01*
X-3522Y-988D02*
Y-842D01*
Y-822D02*
Y-802D01*
Y-778D02*
Y-698D01*
Y-674D02*
Y-628D01*
Y-604D02*
Y-524D01*
Y-498D02*
Y-348D01*
Y-324D02*
Y-226D01*
Y-202D02*
Y-116D01*
Y-84D02*
Y102D01*
Y136D02*
Y170D01*
Y194D02*
Y274D01*
Y298D02*
Y448D01*
Y472D02*
Y518D01*
Y544D02*
Y610D01*
Y636D02*
Y702D01*
Y726D02*
Y924D01*
Y946D02*
Y998D01*
X-3524Y-984D02*
Y-842D01*
Y-820D02*
Y-802D01*
Y-778D02*
Y-698D01*
Y-674D02*
Y-628D01*
Y-602D02*
Y-524D01*
Y-500D02*
Y-350D01*
Y-324D02*
Y-226D01*
Y-202D02*
Y-116D01*
Y-84D02*
Y102D01*
Y136D02*
Y170D01*
Y194D02*
Y272D01*
Y298D02*
Y448D01*
Y472D02*
Y518D01*
Y544D02*
Y608D01*
Y636D02*
Y702D01*
Y726D02*
Y924D01*
Y946D02*
Y998D01*
X-3526Y-990D02*
Y-842D01*
Y-820D02*
Y-802D01*
Y-776D02*
Y-700D01*
Y-674D02*
Y-628D01*
Y-602D02*
Y-524D01*
Y-500D02*
Y-350D01*
Y-324D02*
Y-226D01*
Y-202D02*
Y-116D01*
Y-84D02*
Y102D01*
Y136D02*
Y170D01*
Y196D02*
Y272D01*
Y298D02*
Y446D01*
Y472D02*
Y520D01*
Y544D02*
Y608D01*
Y636D02*
Y700D01*
Y726D02*
Y924D01*
Y946D02*
Y998D01*
X-3528Y-1002D02*
Y-842D01*
Y-820D02*
Y-802D01*
Y-776D02*
Y-700D01*
Y-674D02*
Y-626D01*
Y-600D02*
Y-526D01*
Y-500D02*
Y-352D01*
Y-326D02*
Y-226D01*
Y-202D02*
Y-116D01*
Y-84D02*
Y102D01*
Y136D02*
Y170D01*
Y196D02*
Y272D01*
Y296D02*
Y446D01*
Y472D02*
Y520D01*
Y546D02*
Y608D01*
Y638D02*
Y700D01*
Y726D02*
Y924D01*
Y946D02*
Y998D01*
X-3530Y-1008D02*
Y-842D01*
Y-820D02*
Y-800D01*
Y-774D02*
Y-702D01*
Y-676D02*
Y-626D01*
Y-600D02*
Y-528D01*
Y-500D02*
Y-352D01*
Y-326D02*
Y-226D01*
Y-202D02*
Y-116D01*
Y-82D02*
Y102D01*
Y136D02*
Y170D01*
Y198D02*
Y270D01*
Y296D02*
Y444D01*
Y472D02*
Y520D01*
Y546D02*
Y606D01*
Y640D02*
Y698D01*
Y724D02*
Y924D01*
Y946D02*
Y998D01*
X-3532Y-1012D02*
Y-842D01*
Y-820D02*
Y-800D01*
Y-772D02*
Y-704D01*
Y-676D02*
Y-626D01*
Y-598D02*
Y-528D01*
Y-502D02*
Y-354D01*
Y-326D02*
Y-226D01*
Y-202D02*
Y-116D01*
Y-82D02*
Y102D01*
Y136D02*
Y172D01*
Y198D02*
Y268D01*
Y296D02*
Y444D01*
Y470D02*
Y520D01*
Y548D02*
Y604D01*
Y640D02*
Y696D01*
Y724D02*
Y924D01*
Y946D02*
Y998D01*
X-3534Y-1016D02*
Y-842D01*
Y-820D02*
Y-800D01*
Y-772D02*
Y-706D01*
Y-676D02*
Y-624D01*
Y-596D02*
Y-530D01*
Y-502D02*
Y-356D01*
Y-328D02*
Y-226D01*
Y-202D02*
Y-116D01*
Y-82D02*
Y102D01*
Y136D02*
Y172D01*
Y200D02*
Y266D01*
Y294D02*
Y442D01*
Y470D02*
Y522D01*
Y550D02*
Y602D01*
Y642D02*
Y696D01*
Y724D02*
Y924D01*
Y946D02*
Y998D01*
X-3536Y-1018D02*
Y-842D01*
Y-820D02*
Y-798D01*
Y-768D02*
Y-708D01*
Y-678D02*
Y-624D01*
Y-594D02*
Y-532D01*
Y-504D02*
Y-358D01*
Y-328D02*
Y-226D01*
Y-202D02*
Y-116D01*
Y-82D02*
Y100D01*
Y136D02*
Y174D01*
Y202D02*
Y264D01*
Y294D02*
Y440D01*
Y468D02*
Y522D01*
Y552D02*
Y600D01*
Y644D02*
Y692D01*
Y722D02*
Y924D01*
Y946D02*
Y998D01*
X-3538Y-1020D02*
Y-842D01*
Y-820D02*
Y-798D01*
Y-766D02*
Y-710D01*
Y-678D02*
Y-622D01*
Y-592D02*
Y-536D01*
Y-504D02*
Y-360D01*
Y-330D02*
Y-226D01*
Y-202D02*
Y-116D01*
Y-80D02*
Y100D01*
Y136D02*
Y174D01*
Y206D02*
Y262D01*
Y294D02*
Y436D01*
Y468D02*
Y524D01*
Y554D02*
Y598D01*
Y648D02*
Y690D01*
Y722D02*
Y924D01*
Y946D02*
Y998D01*
X-3540Y-1024D02*
Y-842D01*
Y-820D02*
Y-796D01*
Y-762D02*
Y-714D01*
Y-680D02*
Y-622D01*
Y-588D02*
Y-540D01*
Y-506D02*
Y-364D01*
Y-330D02*
Y-226D01*
Y-202D02*
Y-116D01*
Y-80D02*
Y100D01*
Y134D02*
Y176D01*
Y210D02*
Y258D01*
Y292D02*
Y432D01*
Y466D02*
Y524D01*
Y558D02*
Y594D01*
Y652D02*
Y686D01*
Y720D02*
Y924D01*
Y946D02*
Y998D01*
X-3542Y-1026D02*
Y-842D01*
Y-822D02*
Y-796D01*
Y-752D02*
Y-724D01*
Y-682D02*
Y-620D01*
Y-578D02*
Y-550D01*
Y-506D02*
Y-374D01*
Y-332D02*
Y-226D01*
Y-202D02*
Y-116D01*
Y-78D02*
Y98D01*
Y134D02*
Y176D01*
Y220D02*
Y248D01*
Y290D02*
Y422D01*
Y466D02*
Y526D01*
Y568D02*
Y584D01*
Y662D02*
Y676D01*
Y720D02*
Y924D01*
Y944D02*
Y998D01*
X-3544Y-1026D02*
Y-844D01*
Y-822D02*
Y-794D01*
Y-682D02*
Y-618D01*
Y-508D02*
Y-454D01*
Y-334D02*
Y-280D01*
Y-148D02*
Y-114D01*
Y-78D02*
Y98D01*
Y134D02*
Y178D01*
Y290D02*
Y344D01*
Y464D02*
Y528D01*
Y718D02*
Y922D01*
Y944D02*
Y998D01*
X-3546Y-1028D02*
Y-844D01*
Y-822D02*
Y-792D01*
Y-684D02*
Y-618D01*
Y-510D02*
Y-454D01*
Y-334D02*
Y-280D01*
Y-148D02*
Y-114D01*
Y-76D02*
Y96D01*
Y134D02*
Y180D01*
Y288D02*
Y344D01*
Y462D02*
Y528D01*
Y716D02*
Y922D01*
Y944D02*
Y998D01*
X-3548Y-1030D02*
Y-844D01*
Y-822D02*
Y-790D01*
Y-686D02*
Y-616D01*
Y-512D02*
Y-454D01*
Y-336D02*
Y-280D01*
Y-148D02*
Y-114D01*
Y-76D02*
Y94D01*
Y134D02*
Y182D01*
Y286D02*
Y344D01*
Y460D02*
Y530D01*
Y714D02*
Y922D01*
Y944D02*
Y998D01*
X-3550Y-1032D02*
Y-846D01*
Y-822D02*
Y-788D01*
Y-688D02*
Y-614D01*
Y-512D02*
Y-454D01*
Y-338D02*
Y-280D01*
Y-148D02*
Y-114D01*
Y-74D02*
Y94D01*
Y132D02*
Y184D01*
Y284D02*
Y344D01*
Y458D02*
Y532D01*
Y620D02*
Y624D01*
Y712D02*
Y920D01*
Y944D02*
Y998D01*
X-3552Y-1032D02*
Y-846D01*
Y-824D02*
Y-786D01*
Y-690D02*
Y-612D01*
Y-514D02*
Y-454D01*
Y-340D02*
Y-280D01*
Y-148D02*
Y-112D01*
Y-72D02*
Y92D01*
Y132D02*
Y186D01*
Y282D02*
Y344D01*
Y456D02*
Y534D01*
Y618D02*
Y626D01*
Y710D02*
Y920D01*
Y942D02*
Y998D01*
X-3554Y-1034D02*
Y-846D01*
Y-824D02*
Y-784D01*
Y-692D02*
Y-610D01*
Y-518D02*
Y-454D01*
Y-342D02*
Y-280D01*
Y-148D02*
Y-112D01*
Y-70D02*
Y90D01*
Y132D02*
Y188D01*
Y280D02*
Y344D01*
Y454D02*
Y536D01*
Y616D02*
Y628D01*
Y708D02*
Y920D01*
Y942D02*
Y998D01*
X-3556Y-1034D02*
Y-848D01*
Y-824D02*
Y-782D01*
Y-694D02*
Y-608D01*
Y-520D02*
Y-454D01*
Y-346D02*
Y-280D01*
Y-148D02*
Y-112D01*
Y-68D02*
Y88D01*
Y130D02*
Y190D01*
Y278D02*
Y344D01*
Y452D02*
Y540D01*
Y614D02*
Y632D01*
Y706D02*
Y918D01*
Y942D02*
Y996D01*
X-3558Y-1036D02*
Y-850D01*
Y-826D02*
Y-778D01*
Y-698D02*
Y-604D01*
Y-522D02*
Y-454D01*
Y-348D02*
Y-280D01*
Y-148D02*
Y-110D01*
Y-66D02*
Y86D01*
Y130D02*
Y192D01*
Y274D02*
Y344D01*
Y450D02*
Y542D01*
Y610D02*
Y634D01*
Y704D02*
Y916D01*
Y940D02*
Y996D01*
X-3560Y-1036D02*
Y-850D01*
Y-826D02*
Y-776D01*
Y-700D02*
Y-600D01*
Y-526D02*
Y-454D01*
Y-352D02*
Y-280D01*
Y-148D02*
Y-110D01*
Y-64D02*
Y82D01*
Y130D02*
Y196D01*
Y272D02*
Y344D01*
Y446D02*
Y546D01*
Y608D02*
Y638D01*
Y700D02*
Y916D01*
Y940D02*
Y996D01*
X-3562Y-1036D02*
Y-852D01*
Y-828D02*
Y-772D01*
Y-704D02*
Y-596D01*
Y-530D02*
Y-454D01*
Y-356D02*
Y-280D01*
Y-148D02*
Y-108D01*
Y-60D02*
Y80D01*
Y128D02*
Y200D01*
Y268D02*
Y344D01*
Y442D02*
Y550D01*
Y604D02*
Y642D01*
Y696D02*
Y914D01*
Y938D02*
Y996D01*
X-3564Y-1038D02*
Y-854D01*
Y-828D02*
Y-766D01*
Y-710D02*
Y-592D01*
Y-536D02*
Y-454D01*
Y-360D02*
Y-280D01*
Y-148D02*
Y-108D01*
Y-56D02*
Y76D01*
Y128D02*
Y206D01*
Y262D02*
Y344D01*
Y436D02*
Y554D01*
Y598D02*
Y648D01*
Y690D02*
Y912D01*
Y938D02*
Y994D01*
X-3566Y-1038D02*
Y-856D01*
Y-830D02*
Y-756D01*
Y-720D02*
Y-580D01*
Y-546D02*
Y-454D01*
Y-372D02*
Y-280D01*
Y-148D02*
Y-106D01*
Y-52D02*
Y70D01*
Y126D02*
Y216D01*
Y252D02*
Y344D01*
Y426D02*
Y566D01*
Y588D02*
Y658D01*
Y680D02*
Y910D01*
Y936D02*
Y994D01*
X-3568Y-1038D02*
Y-858D01*
Y-830D02*
Y-106D01*
Y-42D02*
Y60D01*
Y124D02*
Y908D01*
Y936D02*
Y994D01*
X-3570Y-1038D02*
Y-860D01*
Y-832D02*
Y-104D01*
Y124D02*
Y906D01*
Y934D02*
Y994D01*
X-3572Y-1038D02*
Y-864D01*
Y-834D02*
Y-102D01*
Y122D02*
Y902D01*
Y932D02*
Y992D01*
X-3574Y-1040D02*
Y-866D01*
Y-836D02*
Y-102D01*
Y120D02*
Y900D01*
Y930D02*
Y992D01*
X-3576Y-1040D02*
Y-872D01*
Y-836D02*
Y-100D01*
Y118D02*
Y894D01*
Y930D02*
Y990D01*
X-3578Y-1040D02*
Y-878D01*
Y-838D02*
Y-98D01*
Y118D02*
Y888D01*
Y928D02*
Y990D01*
X-3580Y-1040D02*
Y-986D01*
Y-840D02*
Y-96D01*
Y116D02*
Y768D01*
Y926D02*
Y990D01*
X-3582Y-1040D02*
Y-986D01*
Y-842D02*
Y-94D01*
Y114D02*
Y768D01*
Y924D02*
Y988D01*
X-3584Y-1040D02*
Y-986D01*
Y-844D02*
Y-92D01*
Y110D02*
Y768D01*
Y922D02*
Y988D01*
X-3586Y-1040D02*
Y-986D01*
Y-848D02*
Y-90D01*
Y108D02*
Y768D01*
Y918D02*
Y986D01*
X-3588Y-1040D02*
Y-986D01*
Y-850D02*
Y-86D01*
Y106D02*
Y768D01*
Y916D02*
Y986D01*
X-3590Y-1040D02*
Y-986D01*
Y-852D02*
Y-652D01*
Y-650D02*
Y-84D01*
Y102D02*
Y768D01*
Y914D02*
Y984D01*
X-3592Y-1040D02*
Y-986D01*
Y-856D02*
Y-654D01*
Y-648D02*
Y-80D01*
Y100D02*
Y494D01*
Y498D02*
Y768D01*
Y910D02*
Y984D01*
X-3594Y-1040D02*
Y-986D01*
Y-860D02*
Y-656D01*
Y-646D02*
Y-76D01*
Y96D02*
Y490D01*
Y500D02*
Y768D01*
Y906D02*
Y982D01*
X-3596Y-1040D02*
Y-986D01*
Y-864D02*
Y-658D01*
Y-644D02*
Y-72D01*
Y92D02*
Y488D01*
Y502D02*
Y768D01*
Y902D02*
Y982D01*
X-3598Y-1040D02*
Y-986D01*
Y-870D02*
Y-660D01*
Y-640D02*
Y-66D01*
Y86D02*
Y486D01*
Y506D02*
Y768D01*
Y896D02*
Y980D01*
X-3600Y-1040D02*
Y-986D01*
Y-880D02*
Y-664D01*
Y-638D02*
Y-56D01*
Y76D02*
Y484D01*
Y508D02*
Y768D01*
Y886D02*
Y978D01*
X-3602Y-1040D02*
Y-666D01*
Y-636D02*
Y480D01*
Y510D02*
Y978D01*
X-3604Y-1040D02*
Y-670D01*
Y-632D02*
Y-494D01*
Y-492D02*
Y-320D01*
Y-318D02*
Y302D01*
Y304D02*
Y478D01*
Y514D02*
Y976D01*
X-3606Y-1040D02*
Y-672D01*
Y-628D02*
Y-498D01*
Y-490D02*
Y-324D01*
Y-316D02*
Y164D01*
Y168D02*
Y300D01*
Y306D02*
Y474D01*
Y518D02*
Y974D01*
X-3608Y-1038D02*
Y-676D01*
Y-626D02*
Y-502D01*
Y-488D02*
Y-328D01*
Y-314D02*
Y162D01*
Y172D02*
Y296D01*
Y308D02*
Y470D01*
Y522D02*
Y972D01*
X-3610Y-1038D02*
Y-680D01*
Y-622D02*
Y-506D01*
Y-486D02*
Y-332D01*
Y-312D02*
Y160D01*
Y176D02*
Y292D01*
Y312D02*
Y466D01*
Y526D02*
Y970D01*
X-3612Y-1038D02*
Y-796D01*
Y-792D02*
Y-686D01*
Y-616D02*
Y-510D01*
Y-482D02*
Y-336D01*
Y-308D02*
Y160D01*
Y180D02*
Y286D01*
Y314D02*
Y462D01*
Y530D02*
Y970D01*
X-3614Y-1038D02*
Y-798D01*
Y-786D02*
Y-690D01*
Y-612D02*
Y-516D01*
Y-480D02*
Y-342D01*
Y-304D02*
Y158D01*
Y186D02*
Y282D01*
Y318D02*
Y456D01*
Y536D02*
Y618D01*
Y628D02*
Y710D01*
Y716D02*
Y968D01*
X-3616Y-1038D02*
Y-800D01*
Y-780D02*
Y-698D01*
Y-604D02*
Y-522D01*
Y-474D02*
Y-348D01*
Y-300D02*
Y156D01*
Y192D02*
Y274D01*
Y322D02*
Y450D01*
Y542D02*
Y610D01*
Y634D02*
Y704D01*
Y716D02*
Y966D01*
X-3618Y-1036D02*
Y-802D01*
Y-770D02*
Y-706D01*
Y-596D02*
Y-532D01*
Y-468D02*
Y-358D01*
Y-294D02*
Y154D01*
Y202D02*
Y266D01*
Y328D02*
Y440D01*
Y552D02*
Y602D01*
Y644D02*
Y694D01*
Y718D02*
Y964D01*
X-3620Y-1036D02*
Y-804D01*
Y-132D02*
Y152D01*
Y718D02*
Y962D01*
X-3622Y-1036D02*
Y-806D01*
Y-130D02*
Y150D01*
Y718D02*
Y960D01*
X-3624Y-1034D02*
Y-808D01*
Y-128D02*
Y148D01*
Y720D02*
Y958D01*
X-3626Y-1034D02*
Y-812D01*
Y-126D02*
Y144D01*
Y720D02*
Y954D01*
X-3628Y-1032D02*
Y-814D01*
Y-122D02*
Y142D01*
Y722D02*
Y952D01*
X-3630Y-1032D02*
Y-816D01*
Y-120D02*
Y140D01*
Y724D02*
Y950D01*
X-3632Y-1030D02*
Y-818D01*
Y-118D02*
Y136D01*
Y724D02*
Y948D01*
X-3634Y-1028D02*
Y-822D01*
Y-114D02*
Y134D01*
Y726D02*
Y944D01*
X-3636Y-1026D02*
Y-824D01*
Y-112D02*
Y130D01*
Y728D02*
Y942D01*
X-3638Y-1024D02*
Y-828D01*
Y-108D02*
Y128D01*
Y730D02*
Y938D01*
X-3640Y-1022D02*
Y-832D01*
Y-104D02*
Y124D01*
Y732D02*
Y934D01*
X-3642Y-1020D02*
Y-836D01*
Y-100D02*
Y120D01*
Y734D02*
Y930D01*
X-3644Y-1018D02*
Y-840D01*
Y-96D02*
Y116D01*
Y736D02*
Y926D01*
X-3646Y-1016D02*
Y-846D01*
Y-92D02*
Y110D01*
Y740D02*
Y920D01*
X-3648Y-1012D02*
Y-852D01*
Y-86D02*
Y104D01*
Y742D02*
Y914D01*
X-3650Y-1008D02*
Y-858D01*
Y-80D02*
Y98D01*
Y746D02*
Y908D01*
X-3652Y-1002D02*
Y-866D01*
Y-70D02*
Y90D01*
Y752D02*
Y900D01*
M02*
