%FSLAX23Y23*%
%MOIN*%
G70*
G01*
G75*
G04 Layer_Color=65535*
%ADD10C,0.008*%
%ADD11C,0.059*%
%ADD12R,0.035X0.037*%
%ADD13R,0.035X0.037*%
%ADD14R,0.045X0.069*%
%ADD15R,0.055X0.047*%
%ADD16R,0.055X0.043*%
%ADD17O,0.024X0.087*%
%ADD18R,0.039X0.094*%
%ADD19R,0.130X0.094*%
%ADD20O,0.065X0.022*%
%ADD21O,0.022X0.065*%
%ADD22R,0.043X0.055*%
%ADD23R,0.043X0.067*%
%ADD24R,0.067X0.043*%
%ADD25R,0.050X0.100*%
%ADD26R,0.057X0.094*%
%ADD27R,0.069X0.045*%
G04:AMPARAMS|DCode=28|XSize=69mil|YSize=45mil|CornerRadius=0mil|HoleSize=0mil|Usage=FLASHONLY|Rotation=225.000|XOffset=0mil|YOffset=0mil|HoleType=Round|Shape=Rectangle|*
%AMROTATEDRECTD28*
4,1,4,0.008,0.040,0.040,0.008,-0.008,-0.040,-0.040,-0.008,0.008,0.040,0.0*
%
%ADD28ROTATEDRECTD28*%

G04:AMPARAMS|DCode=29|XSize=69mil|YSize=45mil|CornerRadius=0mil|HoleSize=0mil|Usage=FLASHONLY|Rotation=315.000|XOffset=0mil|YOffset=0mil|HoleType=Round|Shape=Rectangle|*
%AMROTATEDRECTD29*
4,1,4,-0.040,0.008,-0.008,0.040,0.040,-0.008,0.008,-0.040,-0.040,0.008,0.0*
%
%ADD29ROTATEDRECTD29*%

%ADD30R,0.047X0.047*%
%ADD31R,0.047X0.047*%
G04:AMPARAMS|DCode=32|XSize=47mil|YSize=47mil|CornerRadius=0mil|HoleSize=0mil|Usage=FLASHONLY|Rotation=225.000|XOffset=0mil|YOffset=0mil|HoleType=Round|Shape=Rectangle|*
%AMROTATEDRECTD32*
4,1,4,0.000,0.033,0.033,0.000,0.000,-0.033,-0.033,0.000,0.000,0.033,0.0*
%
%ADD32ROTATEDRECTD32*%

G04:AMPARAMS|DCode=33|XSize=47mil|YSize=47mil|CornerRadius=0mil|HoleSize=0mil|Usage=FLASHONLY|Rotation=315.000|XOffset=0mil|YOffset=0mil|HoleType=Round|Shape=Rectangle|*
%AMROTATEDRECTD33*
4,1,4,-0.033,0.000,0.000,0.033,0.033,0.000,0.000,-0.033,-0.033,0.000,0.0*
%
%ADD33ROTATEDRECTD33*%

%ADD34O,0.022X0.010*%
%ADD35O,0.010X0.022*%
%ADD36C,0.010*%
%ADD37C,0.012*%
%ADD38C,0.009*%
%ADD39C,0.020*%
%ADD40C,0.030*%
%ADD41C,0.005*%
%ADD42R,0.047X0.047*%
%ADD43C,0.047*%
%ADD44C,0.060*%
%ADD45C,0.063*%
%ADD46R,0.060X0.060*%
%ADD47R,0.059X0.059*%
%ADD48R,0.059X0.059*%
%ADD49C,0.051*%
%ADD50C,0.039*%
%ADD51R,0.047X0.047*%
%ADD52O,0.100X0.050*%
%ADD53R,0.100X0.050*%
%ADD54C,0.031*%
%ADD55C,0.024*%
%ADD56C,0.026*%
%ADD57C,0.004*%
%ADD58C,0.010*%
%ADD59C,0.008*%
%ADD60C,0.024*%
%ADD61C,0.016*%
%ADD62C,0.001*%
%ADD63C,0.020*%
%ADD64C,0.006*%
D10*
X-1697Y-485D02*
X-1708Y-491D01*
X-1720Y-503D01*
Y-514D01*
X-1714Y-520D01*
X-1703D01*
X-1697Y-514D01*
Y-508D01*
X-1703Y-503D01*
X-1720D01*
X-1697Y-585D02*
X-1720D01*
Y-603D01*
X-1708Y-597D01*
X-1703D01*
X-1697Y-603D01*
Y-614D01*
X-1703Y-620D01*
X-1714D01*
X-1720Y-614D01*
X-2057Y-520D02*
X-2080D01*
X-2057Y-497D01*
Y-491D01*
X-2063Y-485D01*
X-2074D01*
X-2080Y-491D01*
X-2060Y-620D02*
X-2048D01*
X-2054D01*
Y-585D01*
X-2060Y-591D01*
X1056Y-2541D02*
X1033D01*
X1056Y-2518D01*
Y-2512D01*
X1050Y-2506D01*
X1039D01*
X1033Y-2512D01*
X1068D02*
X1074Y-2506D01*
X1085D01*
X1091Y-2512D01*
Y-2535D01*
X1085Y-2541D01*
X1074D01*
X1068Y-2535D01*
Y-2512D01*
X1050Y-2441D02*
Y-2406D01*
X1033Y-2424D01*
X1056D01*
X1068Y-2412D02*
X1074Y-2406D01*
X1085D01*
X1091Y-2412D01*
Y-2435D01*
X1085Y-2441D01*
X1074D01*
X1068Y-2435D01*
Y-2412D01*
X-1073Y-2439D02*
X-1096D01*
X-1073Y-2415D01*
Y-2409D01*
X-1079Y-2404D01*
X-1091D01*
X-1096Y-2409D01*
X-1062Y-2439D02*
X-1050D01*
X-1056D01*
Y-2404D01*
X-1062Y-2409D01*
X-1047Y-2541D02*
X-1036D01*
X-1041D01*
Y-2506D01*
X-1047Y-2512D01*
D36*
X-1422Y-2500D02*
G03*
X-1422Y-2500I-118J0D01*
G01*
X1663Y-2500D02*
G03*
X1663Y-2500I-118J0D01*
G01*
X-1422Y2500D02*
G03*
X-1422Y2500I-118J0D01*
G01*
X1663D02*
G03*
X1663Y2500I-118J0D01*
G01*
X-2135Y450D02*
X-1735D01*
Y630D01*
X-2135D02*
X-1735D01*
X-2135Y450D02*
Y630D01*
X1016Y-980D02*
Y-880D01*
Y-980D02*
X1716D01*
X1015Y-880D02*
X1716D01*
X721Y-80D02*
Y220D01*
X521Y-80D02*
Y220D01*
X721D01*
X521Y-80D02*
X721D01*
X1716Y-780D02*
Y1020D01*
Y-980D02*
Y-880D01*
X116Y-980D02*
Y-880D01*
X16Y-980D02*
X816D01*
Y-880D01*
X16D02*
X816D01*
X16Y-980D02*
Y-880D01*
X1416Y920D02*
Y1020D01*
X716D02*
X1516D01*
X716Y920D02*
Y1020D01*
Y920D02*
X1516D01*
Y1020D01*
X-84Y-980D02*
Y-930D01*
X-184Y-980D02*
X-84D01*
X-894Y-880D02*
X-184D01*
X-894Y-980D02*
Y-880D01*
Y-980D02*
X-184D01*
Y-880D01*
X-84D01*
Y-930D02*
Y-880D01*
X-344Y920D02*
Y1020D01*
X-1254D02*
X-244D01*
X-1254Y920D02*
Y1020D01*
Y920D02*
X-244D01*
Y1020D01*
X516Y920D02*
Y1020D01*
X-184D02*
X616D01*
X-184Y920D02*
Y1020D01*
Y920D02*
X616D01*
Y1020D01*
X1716Y-780D02*
X1916D01*
X1816Y920D02*
X1916D01*
X1816D02*
Y1020D01*
X1716D02*
X1891D01*
X1916Y995D01*
Y-780D02*
Y995D01*
X-1909Y-1673D02*
X-1841D01*
X-1909Y-1732D02*
Y-1673D01*
X-1841Y-1457D02*
X-1555D01*
X-1841Y-1673D02*
Y-1457D01*
X-1555D02*
X-728D01*
X-1909Y-2126D02*
Y-1732D01*
X-1772Y-2264D02*
X-787D01*
X-591Y-2067D01*
Y-1594D01*
X-728Y-1457D02*
X-591Y-1594D01*
X-236Y295D02*
Y787D01*
X453D01*
Y295D02*
Y787D01*
X-197Y295D02*
X453D01*
X-1909Y-2126D02*
X-1772Y-2264D01*
X1260Y-1122D02*
X1665D01*
Y-2165D02*
Y-1122D01*
X1260Y-2165D02*
X1665D01*
X1260D02*
Y-1122D01*
X-1654Y-460D02*
Y630D01*
Y-460D02*
X-689D01*
Y630D01*
X-1654D02*
X-689D01*
Y-295D02*
Y295D01*
Y-295D02*
X197D01*
Y295D01*
X-689D02*
X197D01*
X2638Y0D02*
X3701Y1063D01*
X2638Y0D02*
X3701Y-1063D01*
X-3701Y-2087D02*
X-2087D01*
Y-3701D02*
Y-2087D01*
X-3701Y-1063D02*
X-2638Y0D01*
X-3701Y1063D02*
X-2638Y0D01*
X-3701Y2087D02*
X-2087D01*
Y3701D01*
X-1560Y3700D02*
X-800Y2940D01*
X-40Y3700D01*
X2087Y2087D02*
Y3701D01*
Y2087D02*
X3701D01*
X800Y2940D02*
X1560Y3700D01*
X40D02*
X800Y2940D01*
X55Y-3710D02*
X815Y-2950D01*
X1575Y-3710D01*
X-1550D02*
X-790Y-2950D01*
X-30Y-3710D01*
X1970Y870D02*
X2480D01*
Y1310D01*
X2280Y1510D02*
X2480Y1310D01*
X1664Y1510D02*
X2280D01*
X1740Y-3571D02*
Y-3330D01*
X1890Y-3571D02*
Y-3330D01*
X1854D02*
X1890D01*
X1854Y-3571D02*
X1890D01*
X1740D02*
X1776D01*
X1740Y-3330D02*
X1776D01*
X1465Y-3579D02*
Y-3339D01*
X1615Y-3579D02*
Y-3339D01*
X1579D02*
X1615D01*
X1579Y-3579D02*
X1615D01*
X1465D02*
X1501D01*
X1465Y-3339D02*
X1501D01*
X-990Y2830D02*
X-590D01*
X-990D02*
Y2930D01*
X-590D01*
Y2830D02*
Y2930D01*
X-2149Y1867D02*
X-1866Y2150D01*
X-2220Y1937D02*
X-2149Y1867D01*
X-2220Y1937D02*
X-1937Y2220D01*
X-1866Y2150D01*
X-2530Y-195D02*
Y205D01*
X-2630Y-195D02*
X-2530D01*
X-2630D02*
Y205D01*
X-2530D01*
X-2154Y-1878D02*
X-1871Y-2161D01*
X-1941Y-2232D02*
X-1871Y-2161D01*
X-2224Y-1949D02*
X-1941Y-2232D01*
X-2224Y-1949D02*
X-2154Y-1878D01*
X-990Y-2850D02*
X-590D01*
Y-2950D02*
Y-2850D01*
X-990Y-2950D02*
X-590D01*
X-990D02*
Y-2850D01*
X1866Y-2154D02*
X2149Y-1871D01*
X2220Y-1941D01*
X1937Y-2224D02*
X2220Y-1941D01*
X1866Y-2154D02*
X1937Y-2224D01*
X2509Y-207D02*
Y193D01*
X2609D01*
Y-207D02*
Y193D01*
X2509Y-207D02*
X2609D01*
X1871Y2153D02*
X2154Y1870D01*
X1871Y2153D02*
X1941Y2224D01*
X2224Y1941D01*
X2154Y1870D02*
X2224Y1941D01*
X610Y-2850D02*
X1010D01*
Y-2950D02*
Y-2850D01*
X610Y-2950D02*
X1010D01*
X610D02*
Y-2850D01*
Y2830D02*
X1010D01*
X610D02*
Y2930D01*
X1010D01*
Y2830D02*
Y2930D01*
X-2136Y-346D02*
Y-166D01*
X-1816D01*
Y-346D02*
Y-166D01*
X-2136Y-346D02*
X-1816D01*
X-2136Y-149D02*
Y31D01*
X-1816D01*
Y-149D02*
Y31D01*
X-2136Y-149D02*
X-1816D01*
X-2136Y48D02*
Y228D01*
X-1816D01*
Y48D02*
Y228D01*
X-2136Y48D02*
X-1816D01*
X-2136Y245D02*
Y425D01*
X-1816D01*
Y245D02*
Y425D01*
X-2136Y245D02*
X-1816D01*
X2405Y126D02*
Y306D01*
X2085Y126D02*
X2405D01*
X2085D02*
Y306D01*
X2405D01*
Y-71D02*
Y109D01*
X2085Y-71D02*
X2405D01*
X2085D02*
Y109D01*
X2405D01*
Y-267D02*
Y-87D01*
X2085Y-267D02*
X2405D01*
X2085D02*
Y-87D01*
X2405D01*
Y-464D02*
Y-284D01*
X2085Y-464D02*
X2405D01*
X2085D02*
Y-284D01*
X2405D01*
X-1881Y-2679D02*
Y-2449D01*
Y-2679D02*
X-1701D01*
Y-2449D01*
X-1881D02*
X-1701D01*
X-1487Y-2724D02*
X-1307D01*
Y-2954D02*
Y-2724D01*
X-1487Y-2954D02*
X-1307D01*
X-1487D02*
Y-2724D01*
X-1684D02*
X-1504D01*
Y-2954D02*
Y-2724D01*
X-1684Y-2954D02*
X-1504D01*
X-1684D02*
Y-2724D01*
X-1881D02*
X-1701D01*
Y-2954D02*
Y-2724D01*
X-1881Y-2954D02*
X-1701D01*
X-1881D02*
Y-2724D01*
X2325Y-1060D02*
Y-880D01*
X2095Y-1060D02*
X2325D01*
X2095D02*
Y-880D01*
X2325D01*
X-331Y-3342D02*
X-324D01*
X-276D02*
X-269D01*
X111Y2869D02*
Y2876D01*
Y2924D02*
Y2931D01*
X-1206Y-3341D02*
X-1199D01*
X-1261D02*
X-1254D01*
X-3206Y-3239D02*
X-3200Y-3245D01*
X-3245Y-3200D02*
X-3239Y-3206D01*
X3180Y3225D02*
X3186Y3219D01*
X3219Y3186D02*
X3225Y3180D01*
X3219Y-3186D02*
X3225Y-3180D01*
X3180Y-3225D02*
X3186Y-3219D01*
X-1441Y-3341D02*
X-1434D01*
X-1386D02*
X-1379D01*
X-3245Y3200D02*
X-3239Y3206D01*
X-3206Y3239D02*
X-3200Y3245D01*
X-1092Y-3341D02*
X-1084D01*
X-1037D02*
X-1029D01*
X-684Y-3342D02*
X-676D01*
X-629D02*
X-621D01*
X-508D02*
X-500D01*
X-453D02*
X-445D01*
X-2475Y-1650D02*
Y-845D01*
Y-1650D02*
X-1860D01*
Y-845D01*
X-2475D02*
X-1860D01*
X-2475Y1645D02*
X-1860D01*
Y840D02*
Y1645D01*
X-2475Y840D02*
X-1860D01*
X-2475D02*
Y1645D01*
X1055Y875D02*
X1078D01*
X1067D01*
Y840D01*
X1090Y875D02*
X1113Y840D01*
Y875D02*
X1090Y840D01*
X1125Y834D02*
X1148D01*
X1160Y875D02*
Y840D01*
X1183D01*
X-3150Y-1320D02*
Y-1343D01*
Y-1332D01*
X-3185D01*
X-3150Y-1355D02*
X-3185Y-1378D01*
X-3150D02*
X-3185Y-1355D01*
X-3191Y-1390D02*
Y-1413D01*
X-3150Y-1425D02*
X-3185D01*
X-3168D01*
Y-1448D01*
X-3150D01*
X-3185D01*
X555Y-3580D02*
X578D01*
X567D01*
Y-3615D01*
X590D02*
Y-3580D01*
X602Y-3592D01*
X613Y-3580D01*
Y-3615D01*
X625D02*
Y-3580D01*
X642D01*
X648Y-3586D01*
Y-3598D01*
X642Y-3603D01*
X625D01*
X660Y-3621D02*
X683D01*
X718Y-3586D02*
X712Y-3580D01*
X701D01*
X695Y-3586D01*
Y-3592D01*
X701Y-3598D01*
X712D01*
X718Y-3603D01*
Y-3609D01*
X712Y-3615D01*
X701D01*
X695Y-3609D01*
X730Y-3580D02*
Y-3615D01*
X747D01*
X753Y-3609D01*
Y-3586D01*
X747Y-3580D01*
X730D01*
X765Y-3615D02*
Y-3592D01*
X777Y-3580D01*
X788Y-3592D01*
Y-3615D01*
Y-3598D01*
X765D01*
X1020Y-3575D02*
X1043D01*
X1032D01*
Y-3610D01*
X1055D02*
Y-3575D01*
X1067Y-3587D01*
X1078Y-3575D01*
Y-3610D01*
X1090D02*
Y-3575D01*
X1107D01*
X1113Y-3581D01*
Y-3593D01*
X1107Y-3598D01*
X1090D01*
X1125Y-3616D02*
X1148D01*
X1183Y-3581D02*
X1177Y-3575D01*
X1166D01*
X1160Y-3581D01*
Y-3587D01*
X1166Y-3593D01*
X1177D01*
X1183Y-3598D01*
Y-3604D01*
X1177Y-3610D01*
X1166D01*
X1160Y-3604D01*
X1218Y-3581D02*
X1212Y-3575D01*
X1201D01*
X1195Y-3581D01*
Y-3604D01*
X1201Y-3610D01*
X1212D01*
X1218Y-3604D01*
X1230Y-3575D02*
Y-3610D01*
X1253D01*
X725Y845D02*
Y880D01*
X742D01*
X748Y874D01*
Y862D01*
X742Y857D01*
X725D01*
X737D02*
X748Y845D01*
X760Y880D02*
X783Y845D01*
Y880D02*
X760Y845D01*
X-1040Y1120D02*
X-1028D01*
X-1034D01*
Y1085D01*
X-1040D01*
X-1028D01*
X-1011D02*
Y1120D01*
X-999Y1108D01*
X-988Y1120D01*
Y1085D01*
X-976Y1120D02*
Y1091D01*
X-970Y1085D01*
X-958D01*
X-953Y1091D01*
Y1120D01*
X-941Y1079D02*
X-918D01*
X-883Y1114D02*
X-888Y1120D01*
X-900D01*
X-906Y1114D01*
Y1108D01*
X-900Y1102D01*
X-888D01*
X-883Y1097D01*
Y1091D01*
X-888Y1085D01*
X-900D01*
X-906Y1091D01*
X-871Y1120D02*
Y1085D01*
X-853D01*
X-848Y1091D01*
Y1114D01*
X-853Y1120D01*
X-871D01*
X-836Y1085D02*
Y1108D01*
X-824Y1120D01*
X-813Y1108D01*
Y1085D01*
Y1102D01*
X-836D01*
X-1475Y1120D02*
X-1463D01*
X-1469D01*
Y1085D01*
X-1475D01*
X-1463D01*
X-1446D02*
Y1120D01*
X-1434Y1108D01*
X-1423Y1120D01*
Y1085D01*
X-1411Y1120D02*
Y1091D01*
X-1405Y1085D01*
X-1393D01*
X-1388Y1091D01*
Y1120D01*
X-1376Y1079D02*
X-1353D01*
X-1318Y1114D02*
X-1323Y1120D01*
X-1335D01*
X-1341Y1114D01*
Y1108D01*
X-1335Y1102D01*
X-1323D01*
X-1318Y1097D01*
Y1091D01*
X-1323Y1085D01*
X-1335D01*
X-1341Y1091D01*
X-1283Y1114D02*
X-1288Y1120D01*
X-1300D01*
X-1306Y1114D01*
Y1091D01*
X-1300Y1085D01*
X-1288D01*
X-1283Y1091D01*
X-1271Y1120D02*
Y1085D01*
X-1248D01*
X2010Y365D02*
Y353D01*
Y359D01*
X1975D01*
Y365D01*
Y353D01*
Y336D02*
X2010D01*
X1998Y324D01*
X2010Y313D01*
X1975D01*
X2010Y301D02*
X1981D01*
X1975Y295D01*
Y283D01*
X1981Y278D01*
X2010D01*
X1969Y266D02*
Y243D01*
X2010Y231D02*
Y219D01*
Y225D01*
X1975D01*
Y231D01*
Y219D01*
Y202D02*
X2010D01*
X1975Y178D01*
X2010D01*
Y167D02*
Y143D01*
Y155D01*
X1975D01*
X-395Y-2709D02*
Y-2669D01*
X-405Y-2659D01*
X-425D01*
X-435Y-2669D01*
Y-2709D01*
X-425Y-2718D01*
X-405D01*
X-415Y-2699D02*
X-395Y-2718D01*
X-405D02*
X-395Y-2709D01*
X-345Y-2718D02*
Y-2659D01*
X-375Y-2689D01*
X-335D01*
X-283Y-2708D02*
Y-2649D01*
X-254D01*
X-244Y-2659D01*
Y-2679D01*
X-254Y-2689D01*
X-283D01*
X-264D02*
X-244Y-2708D01*
X-184D02*
X-224D01*
X-184Y-2669D01*
Y-2659D01*
X-194Y-2649D01*
X-214D01*
X-224Y-2659D01*
X-134Y-2708D02*
Y-2649D01*
X-164Y-2679D01*
X-124D01*
X2139Y-3338D02*
X2145Y-3332D01*
Y-3321D01*
X2139Y-3315D01*
X2116D01*
X2110Y-3321D01*
Y-3332D01*
X2116Y-3338D01*
X2110Y-3373D02*
Y-3350D01*
X2133Y-3373D01*
X2139D01*
X2145Y-3367D01*
Y-3356D01*
X2139Y-3350D01*
Y-3385D02*
X2145Y-3391D01*
Y-3402D01*
X2139Y-3408D01*
X2116D01*
X2110Y-3402D01*
Y-3391D01*
X2116Y-3385D01*
X2139D01*
X1209Y-3338D02*
X1215Y-3332D01*
Y-3321D01*
X1209Y-3315D01*
X1186D01*
X1180Y-3321D01*
Y-3332D01*
X1186Y-3338D01*
X1180Y-3350D02*
Y-3362D01*
Y-3356D01*
X1215D01*
X1209Y-3350D01*
X1186Y-3379D02*
X1180Y-3385D01*
Y-3397D01*
X1186Y-3402D01*
X1209D01*
X1215Y-3397D01*
Y-3385D01*
X1209Y-3379D01*
X1203D01*
X1197Y-3385D01*
Y-3402D01*
X-389Y-3440D02*
X-395Y-3434D01*
Y-3423D01*
X-389Y-3417D01*
X-383D01*
X-377Y-3423D01*
Y-3428D01*
Y-3423D01*
X-372Y-3417D01*
X-366D01*
X-360Y-3423D01*
Y-3434D01*
X-366Y-3440D01*
X-395Y-3405D02*
X-372D01*
X-360Y-3393D01*
X-372Y-3382D01*
X-395D01*
X-389Y-3370D02*
X-395Y-3364D01*
Y-3353D01*
X-389Y-3347D01*
X-383D01*
X-377Y-3353D01*
Y-3358D01*
Y-3353D01*
X-372Y-3347D01*
X-366D01*
X-360Y-3353D01*
Y-3364D01*
X-366Y-3370D01*
X-354Y-3335D02*
Y-3312D01*
X-395Y-3300D02*
X-360D01*
Y-3283D01*
X-366Y-3277D01*
X-389D01*
X-395Y-3283D01*
Y-3300D01*
Y-3265D02*
X-366D01*
X-360Y-3259D01*
Y-3248D01*
X-366Y-3242D01*
X-395D01*
Y-3207D02*
Y-3230D01*
X-360D01*
Y-3207D01*
X-377Y-3230D02*
Y-3218D01*
X-2010Y-420D02*
Y-385D01*
X-1993D01*
X-1987Y-391D01*
Y-403D01*
X-1993Y-408D01*
X-2010D01*
X-1952Y-420D02*
X-1975D01*
X-1952Y-397D01*
Y-391D01*
X-1958Y-385D01*
X-1969D01*
X-1975Y-391D01*
X-1917Y-385D02*
X-1928Y-391D01*
X-1940Y-403D01*
Y-414D01*
X-1934Y-420D01*
X-1923D01*
X-1917Y-414D01*
Y-408D01*
X-1923Y-403D01*
X-1940D01*
X-1000Y770D02*
X-1035D01*
Y787D01*
X-1029Y793D01*
X-1017D01*
X-1012Y787D01*
Y770D01*
Y782D02*
X-1000Y793D01*
Y822D02*
X-1035D01*
X-1017Y805D01*
Y828D01*
X-1035Y840D02*
Y863D01*
X-1029D01*
X-1006Y840D01*
X-1000D01*
X-1260Y770D02*
X-1295D01*
Y787D01*
X-1289Y793D01*
X-1277D01*
X-1272Y787D01*
Y770D01*
Y782D02*
X-1260Y793D01*
Y822D02*
X-1295D01*
X-1277Y805D01*
Y828D01*
X-1295Y863D02*
X-1289Y852D01*
X-1277Y840D01*
X-1266D01*
X-1260Y846D01*
Y857D01*
X-1266Y863D01*
X-1272D01*
X-1277Y857D01*
Y840D01*
X-269Y203D02*
X-275Y197D01*
Y186D01*
X-269Y180D01*
X-246D01*
X-240Y186D01*
Y197D01*
X-246Y203D01*
X-240Y215D02*
Y227D01*
Y221D01*
X-275D01*
X-269Y215D01*
X-275Y267D02*
X-269Y256D01*
X-257Y244D01*
X-246D01*
X-240Y250D01*
Y262D01*
X-246Y267D01*
X-252D01*
X-257Y262D01*
Y244D01*
X-189Y203D02*
X-195Y197D01*
Y186D01*
X-189Y180D01*
X-166D01*
X-160Y186D01*
Y197D01*
X-166Y203D01*
X-160Y215D02*
Y227D01*
Y221D01*
X-195D01*
X-189Y215D01*
X-195Y267D02*
Y244D01*
X-177D01*
X-183Y256D01*
Y262D01*
X-177Y267D01*
X-166D01*
X-160Y262D01*
Y250D01*
X-166Y244D01*
X2045Y-1496D02*
X2039Y-1502D01*
Y-1513D01*
X2045Y-1519D01*
X2068D01*
X2074Y-1513D01*
Y-1502D01*
X2068Y-1496D01*
X2074Y-1484D02*
Y-1472D01*
Y-1478D01*
X2039D01*
X2045Y-1484D01*
X2074Y-1437D02*
X2039D01*
X2057Y-1455D01*
Y-1432D01*
X1360Y-690D02*
Y-660D01*
X1375D01*
X1380Y-665D01*
Y-675D01*
X1375Y-680D01*
X1360D01*
X1370D02*
X1380Y-690D01*
X1405D02*
Y-660D01*
X1390Y-675D01*
X1410D01*
X1435Y-690D02*
Y-660D01*
X1420Y-675D01*
X1440D01*
X1140Y-695D02*
Y-665D01*
X1155D01*
X1160Y-670D01*
Y-680D01*
X1155Y-685D01*
X1140D01*
X1150D02*
X1160Y-695D01*
X1185D02*
Y-665D01*
X1170Y-680D01*
X1190D01*
X1220Y-665D02*
X1200D01*
Y-680D01*
X1210Y-675D01*
X1215D01*
X1220Y-680D01*
Y-690D01*
X1215Y-695D01*
X1205D01*
X1200Y-690D01*
X220Y1555D02*
Y1590D01*
X232Y1578D01*
X243Y1590D01*
Y1555D01*
X255Y1590D02*
Y1555D01*
X272D01*
X278Y1561D01*
Y1567D01*
X272Y1572D01*
X255D01*
X272D01*
X278Y1578D01*
Y1584D01*
X272Y1590D01*
X255D01*
X313D02*
X290D01*
Y1555D01*
X313D01*
X290Y1572D02*
X302D01*
X325Y1590D02*
Y1555D01*
X342D01*
X348Y1561D01*
Y1584D01*
X342Y1590D01*
X325D01*
X360Y1555D02*
Y1561D01*
X366D01*
Y1555D01*
X360D01*
X389Y1590D02*
X412D01*
X401D01*
Y1555D01*
X424Y1590D02*
X447Y1555D01*
Y1590D02*
X424Y1555D01*
X720Y1565D02*
Y1600D01*
X732Y1588D01*
X743Y1600D01*
Y1565D01*
X755Y1600D02*
Y1565D01*
X772D01*
X778Y1571D01*
Y1577D01*
X772Y1582D01*
X755D01*
X772D01*
X778Y1588D01*
Y1594D01*
X772Y1600D01*
X755D01*
X813D02*
X790D01*
Y1565D01*
X813D01*
X790Y1582D02*
X802D01*
X825Y1600D02*
Y1565D01*
X842D01*
X848Y1571D01*
Y1594D01*
X842Y1600D01*
X825D01*
X860Y1565D02*
Y1571D01*
X866D01*
Y1565D01*
X860D01*
X889D02*
Y1600D01*
X907D01*
X912Y1594D01*
Y1582D01*
X907Y1577D01*
X889D01*
X901D02*
X912Y1565D01*
X924Y1600D02*
X947Y1565D01*
Y1600D02*
X924Y1565D01*
X-192Y2904D02*
Y2939D01*
X-175D01*
X-169Y2933D01*
Y2921D01*
X-175Y2916D01*
X-192D01*
X-180D02*
X-169Y2904D01*
X-157D02*
X-145D01*
X-151D01*
Y2939D01*
X-157Y2933D01*
X-128Y2910D02*
X-122Y2904D01*
X-110D01*
X-105Y2910D01*
Y2933D01*
X-110Y2939D01*
X-122D01*
X-128Y2933D01*
Y2927D01*
X-122Y2921D01*
X-105D01*
X-980Y-2620D02*
Y-2585D01*
X-963D01*
X-957Y-2591D01*
Y-2603D01*
X-963Y-2608D01*
X-980D01*
X-928Y-2620D02*
Y-2585D01*
X-945Y-2603D01*
X-922D01*
X110Y105D02*
Y76D01*
X116Y70D01*
X127D01*
X133Y76D01*
Y105D01*
X145Y70D02*
X157D01*
X151D01*
Y105D01*
X145Y99D01*
X-800Y-2100D02*
Y-2065D01*
X-783D01*
X-777Y-2071D01*
Y-2083D01*
X-783Y-2088D01*
X-800D01*
X-788D02*
X-777Y-2100D01*
X-765D02*
X-753D01*
X-759D01*
Y-2065D01*
X-765Y-2071D01*
X-713Y-2100D02*
X-736D01*
X-713Y-2077D01*
Y-2071D01*
X-718Y-2065D01*
X-730D01*
X-736Y-2071D01*
X-1440Y-1630D02*
Y-1595D01*
X-1423D01*
X-1417Y-1601D01*
Y-1613D01*
X-1423Y-1618D01*
X-1440D01*
X-1428D02*
X-1417Y-1630D01*
X-1405Y-1595D02*
X-1382D01*
Y-1601D01*
X-1405Y-1624D01*
Y-1630D01*
X-1530Y-2030D02*
Y-1995D01*
X-1513D01*
X-1507Y-2001D01*
Y-2013D01*
X-1513Y-2018D01*
X-1530D01*
X-1518D02*
X-1507Y-2030D01*
X-1472Y-1995D02*
X-1483Y-2001D01*
X-1495Y-2013D01*
Y-2024D01*
X-1489Y-2030D01*
X-1478D01*
X-1472Y-2024D01*
Y-2018D01*
X-1478Y-2013D01*
X-1495D01*
X-970Y-2240D02*
Y-2205D01*
X-953D01*
X-947Y-2211D01*
Y-2223D01*
X-953Y-2228D01*
X-970D01*
X-958D02*
X-947Y-2240D01*
X-912Y-2205D02*
X-935D01*
Y-2223D01*
X-923Y-2217D01*
X-918D01*
X-912Y-2223D01*
Y-2234D01*
X-918Y-2240D01*
X-929D01*
X-935Y-2234D01*
X-1122Y-1496D02*
Y-1461D01*
X-1105D01*
X-1099Y-1467D01*
Y-1479D01*
X-1105Y-1484D01*
X-1122D01*
X-1110D02*
X-1099Y-1496D01*
X-1070D02*
Y-1461D01*
X-1087Y-1479D01*
X-1064D01*
X-1319Y-1496D02*
Y-1461D01*
X-1301D01*
X-1296Y-1467D01*
Y-1479D01*
X-1301Y-1484D01*
X-1319D01*
X-1307D02*
X-1296Y-1496D01*
X-1284Y-1467D02*
X-1278Y-1461D01*
X-1266D01*
X-1261Y-1467D01*
Y-1473D01*
X-1266Y-1479D01*
X-1272D01*
X-1266D01*
X-1261Y-1484D01*
Y-1490D01*
X-1266Y-1496D01*
X-1278D01*
X-1284Y-1490D01*
X1580Y-1305D02*
Y-1334D01*
X1586Y-1340D01*
X1597D01*
X1603Y-1334D01*
Y-1305D01*
X1638D02*
X1627Y-1311D01*
X1615Y-1323D01*
Y-1334D01*
X1621Y-1340D01*
X1632D01*
X1638Y-1334D01*
Y-1328D01*
X1632Y-1323D01*
X1615D01*
X1580Y-1785D02*
Y-1814D01*
X1586Y-1820D01*
X1597D01*
X1603Y-1814D01*
Y-1785D01*
X1638D02*
X1615D01*
Y-1803D01*
X1627Y-1797D01*
X1632D01*
X1638Y-1803D01*
Y-1814D01*
X1632Y-1820D01*
X1621D01*
X1615Y-1814D01*
X-1339Y-1638D02*
Y-1667D01*
X-1333Y-1673D01*
X-1321D01*
X-1315Y-1667D01*
Y-1638D01*
X-1304Y-1644D02*
X-1298Y-1638D01*
X-1286D01*
X-1280Y-1644D01*
Y-1650D01*
X-1286Y-1656D01*
X-1292D01*
X-1286D01*
X-1280Y-1662D01*
Y-1667D01*
X-1286Y-1673D01*
X-1298D01*
X-1304Y-1667D01*
X-1102Y-1638D02*
Y-1667D01*
X-1097Y-1673D01*
X-1085D01*
X-1079Y-1667D01*
Y-1638D01*
X-1044Y-1673D02*
X-1067D01*
X-1044Y-1650D01*
Y-1644D01*
X-1050Y-1638D01*
X-1062D01*
X-1067Y-1644D01*
X-1720Y-1780D02*
X-1685D01*
Y-1797D01*
X-1691Y-1803D01*
X-1703D01*
X-1708Y-1797D01*
Y-1780D01*
X-1685Y-1838D02*
X-1691Y-1827D01*
X-1703Y-1815D01*
X-1714D01*
X-1720Y-1821D01*
Y-1832D01*
X-1714Y-1838D01*
X-1708D01*
X-1703Y-1832D01*
Y-1815D01*
X-470Y-170D02*
X-435D01*
Y-187D01*
X-441Y-193D01*
X-453D01*
X-458Y-187D01*
Y-170D01*
X-470Y-205D02*
Y-217D01*
Y-211D01*
X-435D01*
X-441Y-205D01*
X1583Y-1211D02*
X1577Y-1205D01*
X1566D01*
X1560Y-1211D01*
Y-1234D01*
X1566Y-1240D01*
X1577D01*
X1583Y-1234D01*
X1595Y-1240D02*
X1607D01*
X1601D01*
Y-1205D01*
X1595Y-1211D01*
X1624D02*
X1630Y-1205D01*
X1642D01*
X1647Y-1211D01*
Y-1217D01*
X1642Y-1223D01*
X1636D01*
X1642D01*
X1647Y-1228D01*
Y-1234D01*
X1642Y-1240D01*
X1630D01*
X1624Y-1234D01*
X1583Y-1691D02*
X1577Y-1685D01*
X1566D01*
X1560Y-1691D01*
Y-1714D01*
X1566Y-1720D01*
X1577D01*
X1583Y-1714D01*
X1595Y-1720D02*
X1607D01*
X1601D01*
Y-1685D01*
X1595Y-1691D01*
X1647Y-1720D02*
X1624D01*
X1647Y-1697D01*
Y-1691D01*
X1642Y-1685D01*
X1630D01*
X1624Y-1691D01*
X-1473Y-1467D02*
X-1479Y-1461D01*
X-1490D01*
X-1496Y-1467D01*
Y-1490D01*
X-1490Y-1496D01*
X-1479D01*
X-1473Y-1490D01*
X-1461Y-1496D02*
X-1449D01*
X-1455D01*
Y-1461D01*
X-1461Y-1467D01*
X-1432Y-1496D02*
X-1420D01*
X-1426D01*
Y-1461D01*
X-1432Y-1467D01*
X-1114Y-2209D02*
X-1120Y-2204D01*
X-1131D01*
X-1137Y-2209D01*
Y-2233D01*
X-1131Y-2239D01*
X-1120D01*
X-1114Y-2233D01*
X-1079Y-2204D02*
X-1102D01*
Y-2221D01*
X-1091Y-2215D01*
X-1085D01*
X-1079Y-2221D01*
Y-2233D01*
X-1085Y-2239D01*
X-1096D01*
X-1102Y-2233D01*
X-1607Y-1761D02*
X-1613Y-1755D01*
X-1624D01*
X-1630Y-1761D01*
Y-1784D01*
X-1624Y-1790D01*
X-1613D01*
X-1607Y-1784D01*
X-1578Y-1790D02*
Y-1755D01*
X-1595Y-1773D01*
X-1572D01*
X-767Y-1632D02*
X-773Y-1627D01*
X-784D01*
X-790Y-1632D01*
Y-1656D01*
X-784Y-1662D01*
X-773D01*
X-767Y-1656D01*
X-755Y-1632D02*
X-749Y-1627D01*
X-738D01*
X-732Y-1632D01*
Y-1638D01*
X-738Y-1644D01*
X-744D01*
X-738D01*
X-732Y-1650D01*
Y-1656D01*
X-738Y-1662D01*
X-749D01*
X-755Y-1656D01*
X-57Y179D02*
X-63Y185D01*
X-74D01*
X-80Y179D01*
Y156D01*
X-74Y150D01*
X-63D01*
X-57Y156D01*
X-22Y150D02*
X-45D01*
X-22Y173D01*
Y179D01*
X-28Y185D01*
X-39D01*
X-45Y179D01*
X-211Y-13D02*
X-205Y-7D01*
Y4D01*
X-211Y10D01*
X-234D01*
X-240Y4D01*
Y-7D01*
X-234Y-13D01*
X-240Y-25D02*
Y-37D01*
Y-31D01*
X-205D01*
X-211Y-25D01*
X-3336Y-3203D02*
X-3311Y-3228D01*
X-3295Y-3211D01*
X-3274Y-3191D02*
X-3299Y-3166D01*
X-3299Y-3191D01*
X-3282Y-3174D01*
X3096Y3239D02*
X3121Y3215D01*
X3137Y3231D01*
Y3281D02*
X3133Y3268D01*
Y3252D01*
X3141Y3244D01*
X3149D01*
X3158Y3252D01*
X3158Y3260D01*
X3154Y3264D01*
X3145Y3264D01*
X3133Y3252D01*
X3239Y-3096D02*
X3215Y-3121D01*
X3231Y-3137D01*
X3281D02*
X3264Y-3121D01*
X3252Y-3133D01*
X3264Y-3137D01*
X3268Y-3141D01*
Y-3149D01*
X3260Y-3158D01*
X3252Y-3158D01*
X3244Y-3149D01*
Y-3141D01*
X-3204Y3338D02*
X-3228Y3313D01*
X-3212Y3297D01*
X-3183Y3309D02*
X-3175Y3309D01*
X-3166Y3301D01*
Y3293D01*
X-3171Y3288D01*
X-3179D01*
X-3183Y3293D01*
X-3179Y3288D01*
X-3179Y3280D01*
X-3183Y3276D01*
X-3191Y3276D01*
X-3199Y3284D01*
Y3293D01*
X-1496Y-3132D02*
X-1519D01*
X-1525Y-3138D01*
Y-3149D01*
X-1519Y-3155D01*
X-1496D01*
X-1490Y-3149D01*
Y-3138D01*
X-1502Y-3143D02*
X-1490Y-3132D01*
Y-3138D02*
X-1496Y-3132D01*
X-1490Y-3097D02*
Y-3120D01*
X-1513Y-3097D01*
X-1519D01*
X-1525Y-3103D01*
Y-3114D01*
X-1519Y-3120D01*
X-1306Y-3137D02*
X-1329D01*
X-1335Y-3143D01*
Y-3154D01*
X-1329Y-3160D01*
X-1306D01*
X-1300Y-3154D01*
Y-3143D01*
X-1312Y-3148D02*
X-1300Y-3137D01*
Y-3143D02*
X-1306Y-3137D01*
X-1300Y-3125D02*
Y-3113D01*
Y-3119D01*
X-1335D01*
X-1329Y-3125D01*
X1769Y-3217D02*
X1763Y-3211D01*
X1751D01*
X1745Y-3217D01*
Y-3223D01*
X1751Y-3229D01*
X1763D01*
X1769Y-3234D01*
Y-3240D01*
X1763Y-3246D01*
X1751D01*
X1745Y-3240D01*
X1780Y-3211D02*
Y-3246D01*
X1792Y-3234D01*
X1804Y-3246D01*
Y-3211D01*
X1839Y-3246D02*
X1815D01*
X1839Y-3223D01*
Y-3217D01*
X1833Y-3211D01*
X1821D01*
X1815Y-3217D01*
X1494Y-3225D02*
X1488Y-3219D01*
X1476D01*
X1470Y-3225D01*
Y-3231D01*
X1476Y-3237D01*
X1488D01*
X1494Y-3243D01*
Y-3248D01*
X1488Y-3254D01*
X1476D01*
X1470Y-3248D01*
X1505Y-3219D02*
Y-3254D01*
X1517Y-3243D01*
X1529Y-3254D01*
Y-3219D01*
X1540Y-3254D02*
X1552D01*
X1546D01*
Y-3219D01*
X1540Y-3225D01*
X-1227Y-301D02*
X-1233Y-295D01*
X-1244D01*
X-1250Y-301D01*
Y-324D01*
X-1244Y-330D01*
X-1233D01*
X-1227Y-324D01*
X-1192Y-295D02*
X-1203Y-301D01*
X-1215Y-313D01*
Y-324D01*
X-1209Y-330D01*
X-1198D01*
X-1192Y-324D01*
Y-318D01*
X-1198Y-313D01*
X-1215D01*
X-901Y-23D02*
X-895Y-17D01*
Y-6D01*
X-901Y0D01*
X-924D01*
X-930Y-6D01*
Y-17D01*
X-924Y-23D01*
X-895Y-35D02*
Y-58D01*
X-901D01*
X-924Y-35D01*
X-930D01*
X-1597Y-301D02*
X-1603Y-295D01*
X-1614D01*
X-1620Y-301D01*
Y-324D01*
X-1614Y-330D01*
X-1603D01*
X-1597Y-324D01*
X-1585Y-301D02*
X-1579Y-295D01*
X-1568D01*
X-1562Y-301D01*
Y-307D01*
X-1568Y-313D01*
X-1562Y-318D01*
Y-324D01*
X-1568Y-330D01*
X-1579D01*
X-1585Y-324D01*
Y-318D01*
X-1579Y-313D01*
X-1585Y-307D01*
Y-301D01*
X-1579Y-313D02*
X-1568D01*
X-1251Y578D02*
X-1257Y584D01*
X-1268D01*
X-1274Y578D01*
Y555D01*
X-1268Y549D01*
X-1257D01*
X-1251Y555D01*
X-1239D02*
X-1233Y549D01*
X-1222D01*
X-1216Y555D01*
Y578D01*
X-1222Y584D01*
X-1233D01*
X-1239Y578D01*
Y572D01*
X-1233Y566D01*
X-1216D01*
X-1617Y579D02*
X-1623Y585D01*
X-1634D01*
X-1640Y579D01*
Y556D01*
X-1634Y550D01*
X-1623D01*
X-1617Y556D01*
X-1605Y550D02*
X-1593D01*
X-1599D01*
Y585D01*
X-1605Y579D01*
X-1576D02*
X-1570Y585D01*
X-1558D01*
X-1553Y579D01*
Y556D01*
X-1558Y550D01*
X-1570D01*
X-1576Y556D01*
Y579D01*
X-600Y2980D02*
Y2945D01*
X-612Y2957D01*
X-623Y2945D01*
Y2980D01*
X-635Y2945D02*
Y2980D01*
X-658D01*
X-670Y2945D02*
X-693Y2980D01*
Y2945D02*
X-670Y2980D01*
X-705D02*
X-717D01*
X-711D01*
Y2945D01*
X-705Y2951D01*
X-1980Y2260D02*
X-1955Y2235D01*
X-1972D01*
Y2219D01*
X-1996Y2244D01*
X-1980Y2211D02*
X-2005Y2235D01*
X-2021Y2219D01*
X-2005Y2186D02*
X-2046Y2194D01*
X-2021Y2169D02*
X-2029Y2211D01*
X-2071Y2169D02*
X-2054Y2186D01*
Y2153D01*
X-2050Y2149D01*
X-2042D01*
X-2034Y2157D01*
X-2034Y2165D01*
X-2680Y200D02*
X-2645D01*
X-2657Y188D01*
X-2645Y177D01*
X-2680D01*
X-2645Y165D02*
X-2680D01*
Y142D01*
X-2645Y130D02*
X-2680Y107D01*
X-2645D02*
X-2680Y130D01*
X-2651Y95D02*
X-2645Y89D01*
Y78D01*
X-2651Y72D01*
X-2657D01*
X-2663Y78D01*
Y83D01*
Y78D01*
X-2668Y72D01*
X-2674D01*
X-2680Y78D01*
Y89D01*
X-2674Y95D01*
X-2260Y-2000D02*
X-2235Y-1975D01*
Y-1992D01*
X-2219D01*
X-2244Y-2016D01*
X-2211Y-2000D02*
X-2235Y-2025D01*
X-2219Y-2041D01*
X-2186Y-2025D02*
X-2194Y-2066D01*
X-2169Y-2041D02*
X-2211Y-2049D01*
X-2173Y-2087D02*
X-2149Y-2062D01*
X-2173Y-2062D01*
X-2157Y-2078D01*
X-980Y-3000D02*
Y-2965D01*
X-968Y-2977D01*
X-957Y-2965D01*
Y-3000D01*
X-945Y-2965D02*
Y-3000D01*
X-922D01*
X-910Y-2965D02*
X-887Y-3000D01*
Y-2965D02*
X-910Y-3000D01*
X-852Y-2965D02*
X-875D01*
Y-2983D01*
X-863Y-2977D01*
X-858D01*
X-852Y-2983D01*
Y-2994D01*
X-858Y-3000D01*
X-869D01*
X-875Y-2994D01*
X1980Y-2260D02*
X1955Y-2235D01*
X1972D01*
Y-2219D01*
X1996Y-2244D01*
X1980Y-2211D02*
X2005Y-2235D01*
X2021Y-2219D01*
X2005Y-2186D02*
X2046Y-2194D01*
X2021Y-2169D02*
X2029Y-2211D01*
X2046Y-2145D02*
X2042Y-2157D01*
Y-2173D01*
X2050Y-2182D01*
X2058D01*
X2067Y-2173D01*
Y-2165D01*
X2062Y-2161D01*
X2054Y-2161D01*
X2042Y-2173D01*
X2660Y-200D02*
X2625D01*
X2637Y-188D01*
X2625Y-177D01*
X2660D01*
X2625Y-165D02*
X2660D01*
Y-142D01*
X2625Y-130D02*
X2660Y-107D01*
X2625D02*
X2660Y-130D01*
X2625Y-95D02*
Y-72D01*
X2631D01*
X2654Y-95D01*
X2660D01*
X2260Y1980D02*
X2235Y1955D01*
Y1972D01*
X2219D01*
X2244Y1996D01*
X2211Y1980D02*
X2235Y2005D01*
X2219Y2021D01*
X2186Y2005D02*
X2194Y2046D01*
X2169Y2021D02*
X2211Y2029D01*
X2165Y2034D02*
X2157Y2034D01*
X2149Y2042D01*
Y2050D01*
X2153Y2054D01*
X2161D01*
X2161Y2062D01*
X2165Y2067D01*
X2173D01*
X2182Y2058D01*
Y2050D01*
X2178Y2046D01*
X2169D01*
X2169Y2038D01*
X2165Y2034D01*
X2169Y2046D02*
X2161Y2054D01*
X-2980Y-1640D02*
X-2945D01*
Y-1657D01*
X-2951Y-1663D01*
X-2963D01*
X-2968Y-1657D01*
Y-1640D01*
X-2945Y-1675D02*
Y-1698D01*
X-2951D01*
X-2974Y-1675D01*
X-2980D01*
X1396Y3023D02*
X1431D01*
Y3006D01*
X1426Y3000D01*
X1414D01*
X1408Y3006D01*
Y3023D01*
Y3012D02*
X1396Y3000D01*
Y2989D02*
Y2977D01*
Y2983D01*
X1431D01*
X1426Y2989D01*
X1220Y2985D02*
X1255D01*
Y2968D01*
X1249Y2962D01*
X1237D01*
X1232Y2968D01*
Y2985D01*
Y2973D02*
X1220Y2962D01*
Y2927D02*
Y2950D01*
X1243Y2927D01*
X1249D01*
X1255Y2933D01*
Y2944D01*
X1249Y2950D01*
X-895Y-194D02*
Y-159D01*
X-878D01*
X-872Y-165D01*
Y-177D01*
X-878Y-182D01*
X-895D01*
X-883D02*
X-872Y-194D01*
X-860Y-188D02*
X-854Y-194D01*
X-843D01*
X-837Y-188D01*
Y-165D01*
X-843Y-159D01*
X-854D01*
X-860Y-165D01*
Y-171D01*
X-854Y-177D01*
X-837D01*
X-895Y50D02*
Y85D01*
X-878D01*
X-872Y79D01*
Y67D01*
X-878Y62D01*
X-895D01*
X-883D02*
X-872Y50D01*
X-860D02*
X-848D01*
X-854D01*
Y85D01*
X-860Y79D01*
X-831D02*
X-825Y85D01*
X-813D01*
X-808Y79D01*
Y56D01*
X-813Y50D01*
X-825D01*
X-831Y56D01*
Y79D01*
X-895Y150D02*
Y185D01*
X-878D01*
X-872Y179D01*
Y167D01*
X-878Y162D01*
X-895D01*
X-883D02*
X-872Y150D01*
X-860D02*
X-848D01*
X-854D01*
Y185D01*
X-860Y179D01*
X-831Y150D02*
X-819D01*
X-825D01*
Y185D01*
X-831Y179D01*
X-3060Y3160D02*
X-3035Y3185D01*
X-3023Y3172D01*
Y3164D01*
X-3031Y3156D01*
X-3039Y3156D01*
X-3052Y3168D01*
X-3044Y3160D02*
Y3144D01*
X-3035Y3135D02*
X-3027Y3127D01*
X-3031Y3131D01*
X-3006Y3156D01*
X-3015Y3156D01*
X-3002Y3102D02*
X-2978Y3127D01*
X-3002Y3127D01*
X-2986Y3111D01*
X-3180Y-3080D02*
X-3205Y-3055D01*
X-3192Y-3043D01*
X-3184D01*
X-3176Y-3051D01*
X-3176Y-3059D01*
X-3188Y-3072D01*
X-3180Y-3064D02*
X-3164D01*
X-3155Y-3055D02*
X-3147Y-3047D01*
X-3151Y-3051D01*
X-3176Y-3026D01*
X-3176Y-3035D01*
X-3143Y-2993D02*
X-3159Y-3010D01*
X-3147Y-3022D01*
X-3143Y-3010D01*
X-3139Y-3006D01*
X-3131D01*
X-3122Y-3014D01*
X-3122Y-3022D01*
X-3131Y-3031D01*
X-3139D01*
X3035Y-2927D02*
X3060Y-2902D01*
X3072Y-2914D01*
Y-2923D01*
X3064Y-2931D01*
X3056Y-2931D01*
X3043Y-2919D01*
X3052Y-2927D02*
Y-2943D01*
X3060Y-2952D02*
X3068Y-2960D01*
X3064Y-2956D01*
X3089Y-2931D01*
X3080Y-2931D01*
X3122Y-2964D02*
X3109Y-2960D01*
X3093D01*
X3085Y-2968D01*
Y-2976D01*
X3093Y-2985D01*
X3101Y-2985D01*
X3105Y-2980D01*
Y-2972D01*
X3093Y-2960D01*
X2927Y3035D02*
X2902Y3060D01*
X2914Y3072D01*
X2923D01*
X2931Y3064D01*
X2931Y3056D01*
X2919Y3043D01*
X2927Y3052D02*
X2943D01*
X2952Y3060D02*
X2960Y3068D01*
X2956Y3064D01*
X2931Y3089D01*
X2931Y3080D01*
X2947Y3105D02*
X2964Y3122D01*
X2968Y3118D01*
Y3085D01*
X2972Y3080D01*
X1350Y-3540D02*
Y-3505D01*
X1367D01*
X1373Y-3511D01*
Y-3523D01*
X1367Y-3528D01*
X1350D01*
X1362D02*
X1373Y-3540D01*
X1408D02*
X1385D01*
X1408Y-3517D01*
Y-3511D01*
X1402Y-3505D01*
X1391D01*
X1385Y-3511D01*
X1420D02*
X1426Y-3505D01*
X1437D01*
X1443Y-3511D01*
Y-3534D01*
X1437Y-3540D01*
X1426D01*
X1420Y-3534D01*
Y-3511D01*
X1925Y-3535D02*
Y-3500D01*
X1942D01*
X1948Y-3506D01*
Y-3518D01*
X1942Y-3523D01*
X1925D01*
X1937D02*
X1948Y-3535D01*
X1983D02*
X1960D01*
X1983Y-3512D01*
Y-3506D01*
X1977Y-3500D01*
X1966D01*
X1960Y-3506D01*
X1995Y-3535D02*
X2007D01*
X2001D01*
Y-3500D01*
X1995Y-3506D01*
X-1580Y215D02*
Y186D01*
X-1574Y180D01*
X-1563D01*
X-1557Y186D01*
Y215D01*
X-1528Y180D02*
Y215D01*
X-1545Y197D01*
X-1522D01*
X-1805Y1640D02*
X-1834D01*
X-1840Y1634D01*
Y1623D01*
X-1834Y1617D01*
X-1805D01*
Y1605D02*
Y1582D01*
X-1811D01*
X-1834Y1605D01*
X-1840D01*
X-1805Y-840D02*
X-1834D01*
X-1840Y-846D01*
Y-857D01*
X-1834Y-863D01*
X-1805D01*
X-1811Y-875D02*
X-1805Y-881D01*
Y-892D01*
X-1811Y-898D01*
X-1817D01*
X-1823Y-892D01*
X-1828Y-898D01*
X-1834D01*
X-1840Y-892D01*
Y-881D01*
X-1834Y-875D01*
X-1828D01*
X-1823Y-881D01*
X-1817Y-875D01*
X-1811D01*
X-1823Y-881D02*
Y-892D01*
X-1640Y515D02*
Y509D01*
X-1628Y497D01*
X-1617Y509D01*
Y515D01*
X-1628Y497D02*
Y480D01*
X-1605D02*
X-1593D01*
X-1599D01*
Y515D01*
X-1605Y509D01*
X2560Y-765D02*
Y-800D01*
X2577D01*
X2583Y-794D01*
Y-771D01*
X2577Y-765D01*
X2560D01*
X2595Y-800D02*
X2607D01*
X2601D01*
Y-765D01*
X2595Y-771D01*
X2420Y-765D02*
Y-800D01*
X2437D01*
X2443Y-794D01*
Y-771D01*
X2437Y-765D01*
X2420D01*
X2478Y-800D02*
X2455D01*
X2478Y-777D01*
Y-771D01*
X2472Y-765D01*
X2461D01*
X2455Y-771D01*
X620Y-3000D02*
Y-2965D01*
X632Y-2977D01*
X643Y-2965D01*
Y-3000D01*
X655Y-2965D02*
Y-3000D01*
X678D01*
X690Y-2965D02*
X713Y-3000D01*
Y-2965D02*
X690Y-3000D01*
X725Y-2994D02*
X731Y-3000D01*
X742D01*
X748Y-2994D01*
Y-2971D01*
X742Y-2965D01*
X731D01*
X725Y-2971D01*
Y-2977D01*
X731Y-2983D01*
X748D01*
X1000Y2980D02*
Y2945D01*
X988Y2957D01*
X977Y2945D01*
Y2980D01*
X965Y2945D02*
Y2980D01*
X942D01*
X930Y2945D02*
X907Y2980D01*
Y2945D02*
X930Y2980D01*
X895D02*
X883D01*
X889D01*
Y2945D01*
X895Y2951D01*
X866D02*
X860Y2945D01*
X848D01*
X843Y2951D01*
Y2974D01*
X848Y2980D01*
X860D01*
X866Y2974D01*
Y2951D01*
X-1617Y-391D02*
X-1623Y-385D01*
X-1634D01*
X-1640Y-391D01*
Y-414D01*
X-1634Y-420D01*
X-1623D01*
X-1617Y-414D01*
X-1605Y-420D02*
X-1593D01*
X-1599D01*
Y-385D01*
X-1605Y-391D01*
X-1576Y-385D02*
X-1553D01*
Y-391D01*
X-1576Y-414D01*
Y-420D01*
X2471Y-1427D02*
X2465Y-1433D01*
Y-1444D01*
X2471Y-1450D01*
X2494D01*
X2500Y-1444D01*
Y-1433D01*
X2494Y-1427D01*
X2500Y-1415D02*
Y-1403D01*
Y-1409D01*
X2465D01*
X2471Y-1415D01*
Y-1386D02*
X2465Y-1380D01*
Y-1368D01*
X2471Y-1363D01*
X2477D01*
X2483Y-1368D01*
X2488Y-1363D01*
X2494D01*
X2500Y-1368D01*
Y-1380D01*
X2494Y-1386D01*
X2488D01*
X2483Y-1380D01*
X2477Y-1386D01*
X2471D01*
X2483Y-1380D02*
Y-1368D01*
X1960Y1395D02*
Y1360D01*
X1977D01*
X1983Y1366D01*
Y1372D01*
X1977Y1377D01*
X1960D01*
X1977D01*
X1983Y1383D01*
Y1389D01*
X1977Y1395D01*
X1960D01*
X1995D02*
X2018D01*
Y1389D01*
X1995Y1366D01*
Y1360D01*
X2018D01*
X2030D02*
X2042D01*
X2036D01*
Y1395D01*
X2030Y1389D01*
X1743Y1456D02*
Y1479D01*
X1737Y1485D01*
X1726D01*
X1720Y1479D01*
Y1456D01*
X1726Y1450D01*
X1737D01*
X1732Y1462D02*
X1743Y1450D01*
X1737D02*
X1743Y1456D01*
X1755Y1479D02*
X1761Y1485D01*
X1772D01*
X1778Y1479D01*
Y1473D01*
X1772Y1467D01*
X1767D01*
X1772D01*
X1778Y1462D01*
Y1456D01*
X1772Y1450D01*
X1761D01*
X1755Y1456D01*
X1730Y1240D02*
Y1275D01*
X1747D01*
X1753Y1269D01*
Y1257D01*
X1747Y1252D01*
X1730D01*
X1742D02*
X1753Y1240D01*
X1782D02*
Y1275D01*
X1765Y1257D01*
X1788D01*
X1800Y1246D02*
X1806Y1240D01*
X1817D01*
X1823Y1246D01*
Y1269D01*
X1817Y1275D01*
X1806D01*
X1800Y1269D01*
Y1263D01*
X1806Y1257D01*
X1823D01*
X-281Y-2986D02*
Y-2951D01*
X-264D01*
X-258Y-2957D01*
Y-2969D01*
X-264Y-2974D01*
X-281D01*
X-269D02*
X-258Y-2986D01*
X-223D02*
X-246D01*
X-223Y-2963D01*
Y-2957D01*
X-229Y-2951D01*
X-240D01*
X-246Y-2957D01*
X-188Y-2986D02*
X-211D01*
X-188Y-2963D01*
Y-2957D01*
X-194Y-2951D01*
X-205D01*
X-211Y-2957D01*
X-1765Y655D02*
X-1760Y650D01*
X-1750D01*
X-1745Y655D01*
Y675D01*
X-1750Y680D01*
X-1760D01*
X-1765Y675D01*
Y665D01*
X-1755D01*
X-1775Y680D02*
Y650D01*
X-1795Y680D01*
Y650D01*
X-1805D02*
Y680D01*
X-1820D01*
X-1825Y675D01*
Y655D01*
X-1820Y650D01*
X-1805D01*
X-1865Y680D02*
Y660D01*
X-1875Y650D01*
X-1885Y660D01*
Y680D01*
Y665D01*
X-1865D01*
X-1895Y655D02*
X-1900Y650D01*
X-1910D01*
X-1915Y655D01*
Y675D01*
X-1910Y680D01*
X-1900D01*
X-1895Y675D01*
Y655D01*
X-1955Y680D02*
Y660D01*
X-1965Y650D01*
X-1975Y660D01*
Y680D01*
Y665D01*
X-1955D01*
X-1985Y650D02*
X-2005D01*
Y655D01*
X-1985Y675D01*
Y680D01*
X-2065Y650D02*
X-2045D01*
Y665D01*
X-2055Y660D01*
X-2060D01*
X-2065Y665D01*
Y675D01*
X-2060Y680D01*
X-2050D01*
X-2045Y675D01*
X-2075Y650D02*
Y670D01*
X-2085Y680D01*
X-2095Y670D01*
Y650D01*
X-2155Y620D02*
Y640D01*
X-2185D01*
Y620D01*
X-2170Y640D02*
Y630D01*
X-2155Y610D02*
X-2185Y590D01*
X-2155D02*
X-2185Y610D01*
X-2155Y580D02*
Y560D01*
Y570D01*
X-2185D01*
Y550D02*
X-2155D01*
Y535D01*
X-2160Y530D01*
X-2170D01*
X-2175Y535D01*
Y550D01*
Y540D02*
X-2185Y530D01*
Y520D02*
X-2165D01*
X-2155Y510D01*
X-2165Y500D01*
X-2185D01*
X-2170D01*
Y520D01*
X-2050Y-685D02*
X-2038D01*
X-2044D01*
Y-720D01*
X-2050D01*
X-2038D01*
X-1998Y-691D02*
X-2003Y-685D01*
X-2015D01*
X-2021Y-691D01*
Y-714D01*
X-2015Y-720D01*
X-2003D01*
X-1998Y-714D01*
X-1963Y-691D02*
X-1968Y-685D01*
X-1980D01*
X-1986Y-691D01*
Y-697D01*
X-1980Y-703D01*
X-1968D01*
X-1963Y-708D01*
Y-714D01*
X-1968Y-720D01*
X-1980D01*
X-1986Y-714D01*
X-1951Y-720D02*
Y-685D01*
X-1933D01*
X-1928Y-691D01*
Y-703D01*
X-1933Y-708D01*
X-1951D01*
X-1940Y-2420D02*
X-1910D01*
Y-2435D01*
X-1915Y-2440D01*
X-1925D01*
X-1930Y-2435D01*
Y-2420D01*
X-1940Y-2450D02*
X-1920D01*
X-1910Y-2460D01*
X-1920Y-2470D01*
X-1940D01*
X-1925D01*
Y-2450D01*
X-1910Y-2480D02*
X-1935D01*
X-1940Y-2485D01*
Y-2495D01*
X-1935Y-2500D01*
X-1910D01*
X-1915Y-2530D02*
X-1910Y-2525D01*
Y-2515D01*
X-1915Y-2510D01*
X-1920D01*
X-1925Y-2515D01*
Y-2525D01*
X-1930Y-2530D01*
X-1935D01*
X-1940Y-2525D01*
Y-2515D01*
X-1935Y-2510D01*
X-1910Y-2560D02*
Y-2540D01*
X-1940D01*
Y-2560D01*
X-1925Y-2540D02*
Y-2550D01*
X-1915Y-2620D02*
X-1910Y-2615D01*
Y-2605D01*
X-1915Y-2600D01*
X-1935D01*
X-1940Y-2605D01*
Y-2615D01*
X-1935Y-2620D01*
X-1940Y-2630D02*
X-1920D01*
X-1910Y-2640D01*
X-1920Y-2650D01*
X-1940D01*
X-1925D01*
Y-2630D01*
X-1940Y-2660D02*
X-1910D01*
Y-2675D01*
X-1915Y-2680D01*
X-1925D01*
X-1930Y-2675D01*
Y-2660D01*
X-1940Y-2690D02*
X-1935D01*
Y-2695D01*
X-1940D01*
Y-2690D01*
X3570Y1900D02*
X3600Y1920D01*
X3570D02*
X3600Y1900D01*
X3585Y1930D02*
Y1950D01*
X3575Y1940D02*
X3595D01*
X3390Y1720D02*
X3395D01*
X3405Y1730D01*
X3395Y1740D01*
X3390D01*
X3405Y1730D02*
X3420D01*
X3405Y1750D02*
Y1770D01*
X3538Y1743D02*
Y1763D01*
X3543D01*
X3563Y1743D01*
X3568D01*
Y1763D01*
X3553Y1773D02*
Y1793D01*
X3644Y1725D02*
X3604D01*
X3617Y1738D01*
X3604Y1752D01*
X3644D01*
X3617Y1772D02*
Y1785D01*
X3624Y1792D01*
X3644D01*
Y1772D01*
X3637Y1765D01*
X3631Y1772D01*
Y1792D01*
X3657Y1818D02*
Y1825D01*
X3651Y1832D01*
X3617D01*
Y1812D01*
X3624Y1805D01*
X3637D01*
X3644Y1812D01*
Y1832D01*
Y1845D02*
X3637D01*
Y1852D01*
X3644D01*
Y1845D01*
X3669Y1432D02*
X3662Y1425D01*
Y1412D01*
X3669Y1405D01*
X3695D01*
X3702Y1412D01*
Y1425D01*
X3695Y1432D01*
X3682D01*
Y1418D01*
X3675Y1445D02*
X3695D01*
X3702Y1452D01*
Y1472D01*
X3709D01*
X3715Y1465D01*
Y1458D01*
X3702Y1472D02*
X3675D01*
Y1485D02*
X3702D01*
X3689D01*
X3682Y1492D01*
X3675Y1498D01*
Y1505D01*
X3702Y1532D02*
Y1545D01*
X3695Y1552D01*
X3682D01*
X3675Y1545D01*
Y1532D01*
X3682Y1525D01*
X3695D01*
X3702Y1532D01*
X3644Y1405D02*
X3617D01*
X3604Y1418D01*
X3617Y1432D01*
X3644D01*
X3624D01*
Y1405D01*
X3617Y1472D02*
Y1452D01*
X3624Y1445D01*
X3637D01*
X3644Y1452D01*
Y1472D01*
X3617Y1512D02*
Y1492D01*
X3624Y1485D01*
X3637D01*
X3644Y1492D01*
Y1512D01*
Y1525D02*
X3637D01*
Y1532D01*
X3644D01*
Y1525D01*
X3538Y1423D02*
Y1443D01*
X3543D01*
X3563Y1423D01*
X3568D01*
Y1443D01*
X3553Y1453D02*
Y1473D01*
X3543Y1463D02*
X3563D01*
X3390Y1400D02*
X3420Y1420D01*
X3390D02*
X3420Y1400D01*
X3405Y1430D02*
Y1450D01*
X3570Y1580D02*
X3575D01*
X3585Y1590D01*
X3575Y1600D01*
X3570D01*
X3585Y1590D02*
X3600D01*
X3585Y1610D02*
Y1630D01*
X3575Y1620D02*
X3595D01*
X-3130Y-1620D02*
X-3160D01*
Y-1635D01*
X-3155Y-1640D01*
X-3135D01*
X-3130Y-1635D01*
Y-1620D01*
Y-1650D02*
Y-1670D01*
Y-1660D01*
X-3160D01*
Y-1680D02*
X-3130D01*
Y-1695D01*
X-3135Y-1700D01*
X-3145D01*
X-3150Y-1695D01*
Y-1680D01*
Y-1690D02*
X-3160Y-1700D01*
X-3135Y-1140D02*
X-3130Y-1135D01*
Y-1125D01*
X-3135Y-1120D01*
X-3155D01*
X-3160Y-1125D01*
Y-1135D01*
X-3155Y-1140D01*
X-3145D01*
Y-1130D01*
X-3160Y-1150D02*
X-3130D01*
X-3160Y-1170D01*
X-3130D01*
Y-1180D02*
X-3160D01*
Y-1195D01*
X-3155Y-1200D01*
X-3135D01*
X-3130Y-1195D01*
Y-1180D01*
X-2980Y-1100D02*
X-2940D01*
Y-1120D01*
X-2947Y-1127D01*
X-2960D01*
X-2967Y-1120D01*
Y-1100D01*
X-2980Y-1140D02*
X-2940D01*
Y-1160D01*
X-2947Y-1167D01*
X-2960D01*
X-2967Y-1160D01*
Y-1140D01*
Y-1153D02*
X-2980Y-1167D01*
X-2940Y-1200D02*
Y-1187D01*
X-2947Y-1180D01*
X-2973D01*
X-2980Y-1187D01*
Y-1200D01*
X-2973Y-1207D01*
X-2947D01*
X-2940Y-1200D01*
X-2947Y-1247D02*
X-2940Y-1240D01*
Y-1227D01*
X-2947Y-1220D01*
X-2973D01*
X-2980Y-1227D01*
Y-1240D01*
X-2973Y-1247D01*
X-2960D01*
Y-1233D01*
X-2980Y-1260D02*
X-2940D01*
Y-1280D01*
X-2947Y-1287D01*
X-2960D01*
X-2967Y-1280D01*
Y-1260D01*
Y-1273D02*
X-2980Y-1287D01*
Y-1300D02*
X-2953D01*
X-2940Y-1313D01*
X-2953Y-1327D01*
X-2980D01*
X-2960D01*
Y-1300D01*
X-2980Y-1340D02*
X-2940D01*
X-2953Y-1353D01*
X-2940Y-1367D01*
X-2980D01*
Y-1380D02*
X-2940D01*
X-2953Y-1393D01*
X-2940Y-1407D01*
X-2980D01*
X-2940Y-1447D02*
Y-1420D01*
X-2980D01*
Y-1447D01*
X-2960Y-1420D02*
Y-1433D01*
X-2980Y-1460D02*
X-2940D01*
Y-1480D01*
X-2947Y-1487D01*
X-2960D01*
X-2967Y-1480D01*
Y-1460D01*
Y-1473D02*
X-2980Y-1487D01*
X-1770Y-2100D02*
X-1800D01*
Y-2115D01*
X-1795Y-2120D01*
X-1775D01*
X-1770Y-2115D01*
Y-2100D01*
Y-2130D02*
Y-2140D01*
Y-2135D01*
X-1800D01*
Y-2130D01*
Y-2140D01*
X-1775Y-2175D02*
X-1770Y-2170D01*
Y-2160D01*
X-1775Y-2155D01*
X-1795D01*
X-1800Y-2160D01*
Y-2170D01*
X-1795Y-2175D01*
X-1785D01*
Y-2165D01*
X-1770Y-2185D02*
Y-2195D01*
Y-2190D01*
X-1800D01*
Y-2185D01*
Y-2195D01*
Y-2210D02*
X-1795D01*
Y-2215D01*
X-1800D01*
Y-2210D01*
X-1775Y-1680D02*
X-1770Y-1675D01*
Y-1665D01*
X-1775Y-1660D01*
X-1795D01*
X-1800Y-1665D01*
Y-1675D01*
X-1795Y-1680D01*
X-1800Y-1690D02*
X-1780D01*
X-1770Y-1700D01*
X-1780Y-1710D01*
X-1800D01*
X-1785D01*
Y-1690D01*
X-1800Y-1720D02*
X-1770D01*
Y-1735D01*
X-1775Y-1740D01*
X-1785D01*
X-1790Y-1735D01*
Y-1720D01*
X-1800Y-1750D02*
X-1795D01*
Y-1755D01*
X-1800D01*
Y-1750D01*
X-1880Y-1780D02*
X-1850D01*
Y-1795D01*
X-1855Y-1800D01*
X-1865D01*
X-1870Y-1795D01*
Y-1780D01*
X-1880Y-1810D02*
X-1860D01*
X-1850Y-1820D01*
X-1860Y-1830D01*
X-1880D01*
X-1865D01*
Y-1810D01*
X-1850Y-1840D02*
X-1875D01*
X-1880Y-1845D01*
Y-1855D01*
X-1875Y-1860D01*
X-1850D01*
X-1855Y-1890D02*
X-1850Y-1885D01*
Y-1875D01*
X-1855Y-1870D01*
X-1860D01*
X-1865Y-1875D01*
Y-1885D01*
X-1870Y-1890D01*
X-1875D01*
X-1880Y-1885D01*
Y-1875D01*
X-1875Y-1870D01*
X-1850Y-1920D02*
Y-1900D01*
X-1880D01*
Y-1920D01*
X-1865Y-1900D02*
Y-1910D01*
X-1855Y-1980D02*
X-1850Y-1975D01*
Y-1965D01*
X-1855Y-1960D01*
X-1860D01*
X-1865Y-1965D01*
Y-1975D01*
X-1870Y-1980D01*
X-1875D01*
X-1880Y-1975D01*
Y-1965D01*
X-1875Y-1960D01*
X-1850Y-2010D02*
Y-1990D01*
X-1880D01*
Y-2010D01*
X-1865Y-1990D02*
Y-2000D01*
X-1850Y-2020D02*
X-1880D01*
Y-2040D01*
Y-2050D02*
X-1875D01*
Y-2055D01*
X-1880D01*
Y-2050D01*
X1289Y-2008D02*
Y-2028D01*
X1304D01*
X1299Y-2018D01*
Y-2013D01*
X1304Y-2008D01*
X1314D01*
X1319Y-2013D01*
Y-2023D01*
X1314Y-2028D01*
X1289Y-1998D02*
X1309D01*
X1319Y-1988D01*
X1309Y-1978D01*
X1289D01*
X1319Y-1938D02*
X1289D01*
Y-1923D01*
X1294Y-1918D01*
X1304D01*
X1309Y-1923D01*
Y-1938D01*
Y-1928D02*
X1319Y-1918D01*
X1289Y-1888D02*
Y-1908D01*
X1319D01*
Y-1888D01*
X1304Y-1908D02*
Y-1898D01*
X1294Y-1858D02*
X1289Y-1863D01*
Y-1873D01*
X1294Y-1878D01*
X1314D01*
X1319Y-1873D01*
Y-1863D01*
X1314Y-1858D01*
X1304D01*
Y-1868D01*
X1319Y-1848D02*
X1314D01*
Y-1843D01*
X1319D01*
Y-1848D01*
X1294Y-1575D02*
X1289Y-1570D01*
Y-1560D01*
X1294Y-1555D01*
X1299D01*
X1304Y-1560D01*
Y-1565D01*
Y-1560D01*
X1309Y-1555D01*
X1314D01*
X1319Y-1560D01*
Y-1570D01*
X1314Y-1575D01*
X1289Y-1545D02*
X1309D01*
X1319Y-1535D01*
X1309Y-1525D01*
X1289D01*
X1294Y-1515D02*
X1289Y-1510D01*
Y-1500D01*
X1294Y-1495D01*
X1299D01*
X1304Y-1500D01*
Y-1505D01*
Y-1500D01*
X1309Y-1495D01*
X1314D01*
X1319Y-1500D01*
Y-1510D01*
X1314Y-1515D01*
X1319Y-1455D02*
X1289D01*
Y-1440D01*
X1294Y-1435D01*
X1304D01*
X1309Y-1440D01*
Y-1455D01*
Y-1445D02*
X1319Y-1435D01*
X1289Y-1405D02*
Y-1425D01*
X1319D01*
Y-1405D01*
X1304Y-1425D02*
Y-1415D01*
X1294Y-1375D02*
X1289Y-1380D01*
Y-1390D01*
X1294Y-1395D01*
X1314D01*
X1319Y-1390D01*
Y-1380D01*
X1314Y-1375D01*
X1304D01*
Y-1385D01*
X1319Y-1365D02*
X1314D01*
Y-1360D01*
X1319D01*
Y-1365D01*
X-2155Y420D02*
Y410D01*
Y415D01*
X-2185D01*
Y420D01*
Y410D01*
Y395D02*
X-2155D01*
Y380D01*
X-2160Y375D01*
X-2170D01*
X-2175Y380D01*
Y395D01*
Y385D02*
X-2185Y375D01*
Y350D02*
X-2155D01*
X-2170Y365D01*
Y345D01*
X-2155Y220D02*
Y210D01*
Y215D01*
X-2185D01*
Y220D01*
Y210D01*
Y195D02*
X-2155D01*
Y180D01*
X-2160Y175D01*
X-2170D01*
X-2175Y180D01*
Y195D01*
Y185D02*
X-2185Y175D01*
X-2160Y165D02*
X-2155Y160D01*
Y150D01*
X-2160Y145D01*
X-2165D01*
X-2170Y150D01*
Y155D01*
Y150D01*
X-2175Y145D01*
X-2180D01*
X-2185Y150D01*
Y160D01*
X-2180Y165D01*
X-2155Y20D02*
Y10D01*
Y15D01*
X-2185D01*
Y20D01*
Y10D01*
Y-5D02*
X-2155D01*
Y-20D01*
X-2160Y-25D01*
X-2170D01*
X-2175Y-20D01*
Y-5D01*
Y-15D02*
X-2185Y-25D01*
Y-55D02*
Y-35D01*
X-2165Y-55D01*
X-2160D01*
X-2155Y-50D01*
Y-40D01*
X-2160Y-35D01*
X-2155Y-180D02*
Y-190D01*
Y-185D01*
X-2185D01*
Y-180D01*
Y-190D01*
Y-205D02*
X-2155D01*
Y-220D01*
X-2160Y-225D01*
X-2170D01*
X-2175Y-220D01*
Y-205D01*
Y-215D02*
X-2185Y-225D01*
Y-235D02*
Y-245D01*
Y-240D01*
X-2155D01*
X-2160Y-235D01*
X2425Y-260D02*
Y-248D01*
Y-254D01*
X2460D01*
Y-260D01*
Y-248D01*
Y-231D02*
X2425D01*
Y-213D01*
X2431Y-208D01*
X2443D01*
X2448Y-213D01*
Y-231D01*
Y-219D02*
X2460Y-208D01*
X2425Y-196D02*
Y-173D01*
X2431D01*
X2454Y-196D01*
X2460D01*
X2425Y-60D02*
Y-48D01*
Y-54D01*
X2460D01*
Y-60D01*
Y-48D01*
Y-31D02*
X2425D01*
Y-13D01*
X2431Y-8D01*
X2443D01*
X2448Y-13D01*
Y-31D01*
Y-19D02*
X2460Y-8D01*
X2425Y27D02*
X2431Y16D01*
X2443Y4D01*
X2454D01*
X2460Y10D01*
Y22D01*
X2454Y27D01*
X2448D01*
X2443Y22D01*
Y4D01*
X2425Y140D02*
Y152D01*
Y146D01*
X2460D01*
Y140D01*
Y152D01*
Y169D02*
X2425D01*
Y187D01*
X2431Y192D01*
X2443D01*
X2448Y187D01*
Y169D01*
Y181D02*
X2460Y192D01*
X2425Y227D02*
Y204D01*
X2443D01*
X2437Y216D01*
Y222D01*
X2443Y227D01*
X2454D01*
X2460Y222D01*
Y210D01*
X2454Y204D01*
X2425Y-460D02*
Y-448D01*
Y-454D01*
X2460D01*
Y-460D01*
Y-448D01*
Y-431D02*
X2425D01*
Y-413D01*
X2431Y-408D01*
X2443D01*
X2448Y-413D01*
Y-431D01*
Y-419D02*
X2460Y-408D01*
X2431Y-396D02*
X2425Y-390D01*
Y-378D01*
X2431Y-373D01*
X2437D01*
X2443Y-378D01*
X2448Y-373D01*
X2454D01*
X2460Y-378D01*
Y-390D01*
X2454Y-396D01*
X2448D01*
X2443Y-390D01*
X2437Y-396D01*
X2431D01*
X2443Y-390D02*
Y-378D01*
X2380Y-1120D02*
X2345D01*
Y-1103D01*
X2351Y-1097D01*
X2363D01*
X2368Y-1103D01*
Y-1120D01*
X2345Y-1085D02*
X2380D01*
X2368Y-1073D01*
X2380Y-1062D01*
X2345D01*
X2380Y-1050D02*
X2345D01*
Y-1033D01*
X2351Y-1027D01*
X2363D01*
X2368Y-1033D01*
Y-1050D01*
Y-1038D02*
X2380Y-1027D01*
X2351Y-957D02*
X2345Y-963D01*
Y-974D01*
X2351Y-980D01*
X2357D01*
X2363Y-974D01*
Y-963D01*
X2368Y-957D01*
X2374D01*
X2380Y-963D01*
Y-974D01*
X2374Y-980D01*
X2345Y-945D02*
X2380D01*
X2368Y-933D01*
X2380Y-922D01*
X2345D01*
Y-910D02*
Y-898D01*
Y-904D01*
X2380D01*
Y-910D01*
Y-898D01*
X2345Y-881D02*
Y-858D01*
Y-869D01*
X2380D01*
X2351Y-823D02*
X2345Y-828D01*
Y-840D01*
X2351Y-846D01*
X2374D01*
X2380Y-840D01*
Y-828D01*
X2374Y-823D01*
X2345Y-811D02*
X2380D01*
X2363D01*
Y-788D01*
X2345D01*
X2380D01*
X-600Y-2725D02*
X-577D01*
X-588D01*
Y-2760D01*
X-548Y-2725D02*
X-559D01*
X-565Y-2731D01*
Y-2754D01*
X-559Y-2760D01*
X-548D01*
X-542Y-2754D01*
Y-2731D01*
X-548Y-2725D01*
X-530D02*
Y-2754D01*
X-524Y-2760D01*
X-513D01*
X-507Y-2754D01*
Y-2725D01*
X-472Y-2731D02*
X-478Y-2725D01*
X-489D01*
X-495Y-2731D01*
Y-2754D01*
X-489Y-2760D01*
X-478D01*
X-472Y-2754D01*
X-460Y-2725D02*
Y-2760D01*
Y-2743D01*
X-437D01*
Y-2725D01*
Y-2760D01*
X-390D02*
Y-2725D01*
X-373D01*
X-367Y-2731D01*
Y-2743D01*
X-373Y-2748D01*
X-390D01*
X-378D02*
X-367Y-2760D01*
X-332Y-2725D02*
X-355D01*
Y-2760D01*
X-332D01*
X-355Y-2743D02*
X-343D01*
X-297Y-2731D02*
X-303Y-2725D01*
X-314D01*
X-320Y-2731D01*
Y-2754D01*
X-314Y-2760D01*
X-303D01*
X-297Y-2754D01*
Y-2743D01*
X-308D01*
X-285Y-2760D02*
Y-2754D01*
X-279D01*
Y-2760D01*
X-285D01*
X-1908Y-2801D02*
X-1902Y-2795D01*
Y-2784D01*
X-1908Y-2778D01*
X-1914D01*
X-1920Y-2784D01*
Y-2795D01*
X-1925Y-2801D01*
X-1931D01*
X-1937Y-2795D01*
Y-2784D01*
X-1931Y-2778D01*
X-1920Y-2848D02*
Y-2871D01*
X-1908Y-2860D02*
X-1931D01*
X-1902Y-2906D02*
Y-2883D01*
X-1920D01*
X-1914Y-2895D01*
Y-2900D01*
X-1920Y-2906D01*
X-1931D01*
X-1937Y-2900D01*
Y-2889D01*
X-1931Y-2883D01*
X-1902Y-2918D02*
X-1925D01*
X-1937Y-2930D01*
X-1925Y-2941D01*
X-1902D01*
X-1480Y-3000D02*
Y-2970D01*
X-1465D01*
X-1460Y-2975D01*
Y-2985D01*
X-1465Y-2990D01*
X-1480D01*
X-1450Y-3000D02*
Y-2980D01*
X-1440Y-2970D01*
X-1430Y-2980D01*
Y-3000D01*
Y-2985D01*
X-1450D01*
X-1420Y-2970D02*
Y-2995D01*
X-1415Y-3000D01*
X-1405D01*
X-1400Y-2995D01*
Y-2970D01*
X-1370Y-2975D02*
X-1375Y-2970D01*
X-1385D01*
X-1390Y-2975D01*
Y-2980D01*
X-1385Y-2985D01*
X-1375D01*
X-1370Y-2990D01*
Y-2995D01*
X-1375Y-3000D01*
X-1385D01*
X-1390Y-2995D01*
X-1340Y-2970D02*
X-1360D01*
Y-3000D01*
X-1340D01*
X-1360Y-2985D02*
X-1350D01*
X-1680Y-2970D02*
Y-2990D01*
X-1670Y-3000D01*
X-1660Y-2990D01*
Y-2970D01*
X-1650D02*
X-1640D01*
X-1645D01*
Y-3000D01*
X-1650D01*
X-1640D01*
X-1605Y-2975D02*
X-1610Y-2970D01*
X-1620D01*
X-1625Y-2975D01*
Y-2995D01*
X-1620Y-3000D01*
X-1610D01*
X-1605Y-2995D01*
X-1595Y-2970D02*
X-1575D01*
X-1585D01*
Y-3000D01*
X-1565Y-2970D02*
X-1555D01*
X-1560D01*
Y-3000D01*
X-1565D01*
X-1555D01*
X-1540D02*
Y-2970D01*
X-1530Y-2980D01*
X-1520Y-2970D01*
Y-3000D01*
X-1860Y-2975D02*
X-1865Y-2970D01*
X-1875D01*
X-1880Y-2975D01*
Y-2980D01*
X-1875Y-2985D01*
X-1865D01*
X-1860Y-2990D01*
Y-2995D01*
X-1865Y-3000D01*
X-1875D01*
X-1880Y-2995D01*
X-1850Y-2970D02*
X-1830D01*
X-1840D01*
Y-3000D01*
X-1820D02*
Y-2980D01*
X-1810Y-2970D01*
X-1800Y-2980D01*
Y-3000D01*
Y-2985D01*
X-1820D01*
X-1790Y-2970D02*
X-1770D01*
X-1780D01*
Y-3000D01*
X-1760Y-2970D02*
Y-2995D01*
X-1755Y-3000D01*
X-1745D01*
X-1740Y-2995D01*
Y-2970D01*
X-1710Y-2975D02*
X-1715Y-2970D01*
X-1725D01*
X-1730Y-2975D01*
Y-2980D01*
X-1725Y-2985D01*
X-1715D01*
X-1710Y-2990D01*
Y-2995D01*
X-1715Y-3000D01*
X-1725D01*
X-1730Y-2995D01*
X-1489Y-3397D02*
X-1495Y-3403D01*
Y-3414D01*
X-1489Y-3420D01*
X-1483D01*
X-1477Y-3414D01*
Y-3403D01*
X-1472Y-3397D01*
X-1466D01*
X-1460Y-3403D01*
Y-3414D01*
X-1466Y-3420D01*
X-1495Y-3385D02*
Y-3362D01*
Y-3373D01*
X-1460D01*
Y-3350D02*
X-1483D01*
X-1495Y-3338D01*
X-1483Y-3327D01*
X-1460D01*
X-1477D01*
Y-3350D01*
X-1495Y-3315D02*
Y-3292D01*
Y-3303D01*
X-1460D01*
X-1495Y-3280D02*
X-1466D01*
X-1460Y-3274D01*
Y-3263D01*
X-1466Y-3257D01*
X-1495D01*
X-1489Y-3222D02*
X-1495Y-3228D01*
Y-3239D01*
X-1489Y-3245D01*
X-1483D01*
X-1477Y-3239D01*
Y-3228D01*
X-1472Y-3222D01*
X-1466D01*
X-1460Y-3228D01*
Y-3239D01*
X-1466Y-3245D01*
X-1280Y-3400D02*
X-1315D01*
Y-3383D01*
X-1309Y-3377D01*
X-1297D01*
X-1292Y-3383D01*
Y-3400D01*
X-1280Y-3365D02*
X-1303D01*
X-1315Y-3353D01*
X-1303Y-3342D01*
X-1280D01*
X-1297D01*
Y-3365D01*
X-1315Y-3330D02*
X-1286D01*
X-1280Y-3324D01*
Y-3313D01*
X-1286Y-3307D01*
X-1315D01*
X-1309Y-3272D02*
X-1315Y-3278D01*
Y-3289D01*
X-1309Y-3295D01*
X-1303D01*
X-1297Y-3289D01*
Y-3278D01*
X-1292Y-3272D01*
X-1286D01*
X-1280Y-3278D01*
Y-3289D01*
X-1286Y-3295D01*
X-1315Y-3237D02*
Y-3260D01*
X-1280D01*
Y-3237D01*
X-1297Y-3260D02*
Y-3248D01*
X-1155Y-3390D02*
Y-3367D01*
Y-3378D01*
X-1120D01*
X-1155Y-3332D02*
Y-3355D01*
X-1120D01*
Y-3332D01*
X-1137Y-3355D02*
Y-3343D01*
X-1120Y-3320D02*
X-1155D01*
X-1143Y-3308D01*
X-1155Y-3297D01*
X-1120D01*
Y-3285D02*
X-1155D01*
Y-3268D01*
X-1149Y-3262D01*
X-1137D01*
X-1132Y-3268D01*
Y-3285D01*
X-736Y-3444D02*
X-742Y-3438D01*
Y-3427D01*
X-736Y-3421D01*
X-730D01*
X-724Y-3427D01*
Y-3432D01*
Y-3427D01*
X-719Y-3421D01*
X-713D01*
X-707Y-3427D01*
Y-3438D01*
X-713Y-3444D01*
X-742Y-3409D02*
X-719D01*
X-707Y-3397D01*
X-719Y-3386D01*
X-742D01*
X-736Y-3374D02*
X-742Y-3368D01*
Y-3357D01*
X-736Y-3351D01*
X-730D01*
X-724Y-3357D01*
Y-3362D01*
Y-3357D01*
X-719Y-3351D01*
X-713D01*
X-707Y-3357D01*
Y-3368D01*
X-713Y-3374D01*
X-707Y-3304D02*
X-742D01*
Y-3287D01*
X-736Y-3281D01*
X-724D01*
X-719Y-3287D01*
Y-3304D01*
X-742Y-3269D02*
X-707D01*
X-719Y-3257D01*
X-707Y-3246D01*
X-742D01*
X-707Y-3234D02*
X-742D01*
Y-3217D01*
X-736Y-3211D01*
X-724D01*
X-719Y-3217D01*
Y-3234D01*
Y-3222D02*
X-707Y-3211D01*
X-562Y-3399D02*
Y-3422D01*
X-544D01*
X-550Y-3410D01*
Y-3405D01*
X-544Y-3399D01*
X-533D01*
X-527Y-3405D01*
Y-3416D01*
X-533Y-3422D01*
X-562Y-3387D02*
X-539D01*
X-527Y-3375D01*
X-539Y-3364D01*
X-562D01*
X-527Y-3317D02*
X-562D01*
Y-3300D01*
X-556Y-3294D01*
X-544D01*
X-539Y-3300D01*
Y-3317D01*
X-562Y-3282D02*
X-527D01*
X-539Y-3270D01*
X-527Y-3259D01*
X-562D01*
X-527Y-3247D02*
X-562D01*
Y-3230D01*
X-556Y-3224D01*
X-544D01*
X-539Y-3230D01*
Y-3247D01*
Y-3235D02*
X-527Y-3224D01*
X-20Y2970D02*
Y3005D01*
X-8Y2993D01*
X3Y3005D01*
Y2970D01*
X15Y3005D02*
Y2970D01*
X32D01*
X38Y2976D01*
Y2982D01*
X32Y2987D01*
X15D01*
X32D01*
X38Y2993D01*
Y2999D01*
X32Y3005D01*
X15D01*
X73D02*
X50D01*
Y2970D01*
X73D01*
X50Y2987D02*
X62D01*
X85Y3005D02*
Y2970D01*
X102D01*
X108Y2976D01*
Y2999D01*
X102Y3005D01*
X85D01*
X155D02*
Y2970D01*
X172D01*
X178Y2976D01*
Y2982D01*
X172Y2987D01*
X155D01*
X172D01*
X178Y2993D01*
Y2999D01*
X172Y3005D01*
X155D01*
X190D02*
Y2976D01*
X196Y2970D01*
X207D01*
X213Y2976D01*
Y3005D01*
X248Y2999D02*
X242Y3005D01*
X231D01*
X225Y2999D01*
Y2993D01*
X231Y2987D01*
X242D01*
X248Y2982D01*
Y2976D01*
X242Y2970D01*
X231D01*
X225Y2976D01*
X260Y3005D02*
Y2999D01*
X272Y2987D01*
X283Y2999D01*
Y3005D01*
X272Y2987D02*
Y2970D01*
D39*
X2087Y-2087D02*
X3701D01*
X2087Y-3701D02*
Y-2087D01*
D41*
X2204Y-3543D02*
G03*
X2204Y-3543I-39J0D01*
G01*
X-2127D02*
G03*
X-2127Y-3543I-39J0D01*
G01*
Y3543D02*
G03*
X-2127Y3543I-39J0D01*
G01*
X2204D02*
G03*
X2204Y3543I-39J0D01*
G01*
X3583Y-2165D02*
G03*
X3583Y-2165I-39J0D01*
G01*
Y2166D02*
G03*
X3583Y2166I-39J0D01*
G01*
X-3504D02*
G03*
X-3504Y2166I-39J0D01*
G01*
Y-2165D02*
G03*
X-3504Y-2165I-39J0D01*
G01*
X-1655Y1070D02*
X1866D01*
X1966Y970D01*
Y570D02*
Y970D01*
Y570D02*
X2066Y470D01*
Y-880D02*
Y470D01*
X-1655Y-1030D02*
X1966D01*
Y-980D01*
X2066Y-880D01*
X3583Y1731D02*
Y1871D01*
X3563Y1851D02*
X3583Y1871D01*
X3603Y1851D01*
X3443Y1731D02*
X3583D01*
X3443D02*
X3463Y1711D01*
X3443Y1731D02*
X3463Y1751D01*
X3443Y1411D02*
X3463Y1431D01*
X3443Y1411D02*
X3463Y1391D01*
X3443Y1411D02*
X3583D01*
Y1551D02*
X3603Y1531D01*
X3563D02*
X3583Y1551D01*
Y1411D02*
Y1551D01*
X-2306Y-1328D02*
X-2038D01*
X-2306D02*
Y-1002D01*
X-2038D01*
Y-1328D02*
Y-1002D01*
Y1162D02*
Y1488D01*
X-2306D02*
X-2038D01*
X-2306Y1162D02*
Y1488D01*
Y1162D02*
X-2038D01*
X2363Y-3740D02*
G03*
X3741Y-2362I0J1378D01*
G01*
X-3739D02*
G03*
X-2362Y-3740I1378J0D01*
G01*
Y3740D02*
G03*
X-3739Y2362I0J-1378D01*
G01*
X3741D02*
G03*
X2363Y3740I-1378J0D01*
G01*
X-2362Y-3740D02*
X2363D01*
X-3739Y-2362D02*
Y2362D01*
X-2362Y3740D02*
X2363D01*
X3741Y-2362D02*
Y2362D01*
D57*
X899Y-3600D02*
G03*
X899Y-3600I-39J0D01*
G01*
X1004D02*
G03*
X1004Y-3600I-39J0D01*
G01*
X-3131Y-1515D02*
G03*
X-3131Y-1515I-39J0D01*
G01*
X899Y865D02*
G03*
X899Y865I-39J0D01*
G01*
X1024Y860D02*
G03*
X1024Y860I-39J0D01*
G01*
X-1056Y1065D02*
G03*
X-1056Y1065I-39J0D01*
G01*
X-1156D02*
G03*
X-1156Y1065I-39J0D01*
G01*
X2024Y435D02*
G03*
X2024Y435I-39J0D01*
G01*
X579Y1580D02*
G03*
X579Y1580I-39J0D01*
G01*
X694D02*
G03*
X694Y1580I-39J0D01*
G01*
X-1541Y-2618D02*
X1545D01*
X-1658Y-2501D02*
Y2499D01*
X1663Y-2500D02*
Y2501D01*
X-1539Y2618D02*
X1546D01*
D58*
X-380Y-2758D02*
G03*
X-380Y-2758I-5J0D01*
G01*
X-1104Y-1923D02*
G03*
X-1104Y-1923I-5J0D01*
G01*
X1356Y-1576D02*
G03*
X1356Y-1576I-5J0D01*
G01*
Y-2056D02*
G03*
X1356Y-2056I-5J0D01*
G01*
X-1342Y-1925D02*
G03*
X-1342Y-1925I-5J0D01*
G01*
X-1405Y-3197D02*
G03*
X-1405Y-3197I-5J0D01*
G01*
X-1225D02*
G03*
X-1225Y-3197I-5J0D01*
G01*
X-1247Y195D02*
G03*
X-1247Y195I-5J0D01*
G01*
X1816Y1465D02*
G03*
X1816Y1465I-5J0D01*
G01*
X2575Y-744D02*
G03*
X2575Y-744I-5J0D01*
G01*
X2430D02*
G03*
X2430Y-744I-5J0D01*
G01*
X-114Y56D02*
G03*
X-114Y56I-5J0D01*
G01*
D59*
X2380Y-1314D02*
G03*
X2380Y-1314I-157J0D01*
G01*
X2953Y0D02*
G03*
X2953Y0I-2953J0D01*
G01*
X-1565Y470D02*
G03*
X-1565Y310I0J-80D01*
G01*
X-1268D02*
G03*
X-1268Y470I0J80D01*
G01*
X-1996Y-1557D02*
G03*
X-1996Y-1557I-70J0D01*
G01*
Y933D02*
G03*
X-1996Y933I-70J0D01*
G01*
X-436Y-2857D02*
Y-2799D01*
X-334Y-2857D02*
Y-2799D01*
X-436D02*
X-418D01*
X-352D02*
X-334D01*
X-222Y-2816D02*
X-178D01*
X-222Y-2754D02*
X-178D01*
X2036Y-3375D02*
X2084D01*
X1251Y-3380D02*
X1299D01*
X-1730Y-650D02*
Y-450D01*
X-2030Y-650D02*
Y-450D01*
X-1730D01*
X-2030Y-650D02*
X-1730D01*
X-1922D02*
X-1730D01*
X-902Y-1864D02*
Y-1793D01*
X-1099Y-1864D02*
Y-1793D01*
X-902D01*
X-1099Y-1864D02*
X-902D01*
X1351Y-1517D02*
X1615D01*
X1351Y-1407D02*
X1615D01*
X1351Y-1517D02*
Y-1407D01*
X1615Y-1517D02*
Y-1407D01*
X1351Y-1997D02*
X1615D01*
X1351Y-1887D02*
X1615D01*
X1351Y-1997D02*
Y-1887D01*
X1615Y-1997D02*
Y-1887D01*
X-1830Y-2070D02*
Y-1770D01*
Y-2070D02*
X-1730D01*
Y-1770D01*
X-1830D02*
X-1730D01*
X-1140Y-1866D02*
Y-1795D01*
X-1337Y-1866D02*
Y-1795D01*
X-1140D01*
X-1337Y-1866D02*
X-1140D01*
X-475Y-154D02*
Y146D01*
Y-154D02*
X-425D01*
X-475Y146D02*
X-425D01*
Y-154D02*
Y146D01*
X-609Y113D02*
X-475D01*
X-625Y96D02*
X-609Y113D01*
X-625Y96D02*
X-609Y79D01*
X-475D01*
X-609Y13D02*
X-475D01*
X-625Y-4D02*
X-609Y13D01*
X-625Y-4D02*
X-609Y-21D01*
X-475D01*
X-609Y-87D02*
X-475D01*
X-625Y-104D02*
X-609Y-87D01*
X-625Y-104D02*
X-609Y-121D01*
X-475D01*
X-1461Y-3156D02*
X-1443D01*
X-1377D02*
X-1359D01*
X-1461D02*
Y-3098D01*
X-1359Y-3156D02*
Y-3098D01*
X-1281Y-3156D02*
X-1263D01*
X-1197D02*
X-1179D01*
X-1281D02*
Y-3098D01*
X-1179Y-3156D02*
Y-3098D01*
X-3105Y-1705D02*
Y-1105D01*
X-3005Y-1705D02*
Y-1105D01*
X-3105D02*
X-3005D01*
X-3105Y-1705D02*
X-3005D01*
X-1511Y-86D02*
Y146D01*
X-1279Y-86D02*
Y146D01*
X-1511Y-86D02*
X-1279D01*
X-1511Y146D02*
X-1279D01*
X1437Y-1672D02*
X1469D01*
X1437Y-1731D02*
X1469D01*
X1437Y-1192D02*
X1469D01*
X1437Y-1251D02*
X1469D01*
X-1486Y-430D02*
X-1454D01*
X-1486Y-370D02*
X-1454D01*
X2450Y-1286D02*
Y-1254D01*
X2510Y-1286D02*
Y-1254D01*
X1844Y1424D02*
X1862D01*
X1760D02*
X1778D01*
X1862Y1366D02*
Y1424D01*
X1760Y1366D02*
Y1424D01*
X-997Y-2571D02*
Y-2375D01*
X-994Y-2371D01*
X1003D01*
Y-2571D02*
Y-2371D01*
X-997Y-2571D02*
X1003D01*
X-990Y-2835D02*
X-620D01*
Y-2635D01*
X-990D02*
X-620D01*
X-990Y-2835D02*
Y-2635D01*
X-1565Y470D02*
X-1268D01*
X-1565Y310D02*
X-1268D01*
X2565Y-719D02*
Y-541D01*
X2675Y-719D02*
Y-541D01*
X2565Y-719D02*
X2576D01*
X2565Y-541D02*
X2576D01*
X2664Y-719D02*
X2675D01*
X2664Y-541D02*
X2675D01*
X2420Y-719D02*
Y-541D01*
X2530Y-719D02*
Y-541D01*
X2420Y-719D02*
X2431D01*
X2420Y-541D02*
X2431D01*
X2519Y-719D02*
X2530D01*
X2519Y-541D02*
X2530D01*
X-269Y-3575D02*
Y-3532D01*
X-331Y-3575D02*
Y-3532D01*
X-1131Y758D02*
Y802D01*
X-1069Y758D02*
Y802D01*
X-1231Y758D02*
Y802D01*
X-1169Y758D02*
Y802D01*
X1418Y-729D02*
X1462D01*
X1418Y-791D02*
X1462D01*
X1198Y-729D02*
X1242D01*
X1198Y-791D02*
X1242D01*
X-130Y2820D02*
X-86D01*
X-130Y2882D02*
X-86D01*
X-789Y-1982D02*
Y-1939D01*
X-728Y-1982D02*
Y-1939D01*
X-1199Y-3574D02*
Y-3531D01*
X-1261Y-3574D02*
Y-3531D01*
X-1529Y-1702D02*
Y-1659D01*
X-1468Y-1702D02*
Y-1659D01*
X-1529Y-1912D02*
Y-1869D01*
X-1468Y-1912D02*
Y-1869D01*
X-908Y-2112D02*
Y-2069D01*
X-969Y-2112D02*
Y-2069D01*
X-1061Y-1510D02*
X-1017D01*
X-1061Y-1571D02*
X-1017D01*
X-1271Y-1510D02*
X-1227D01*
X-1271Y-1571D02*
X-1227D01*
X1289Y2918D02*
Y2962D01*
X1351Y2918D02*
Y2962D01*
X1129Y2878D02*
Y2922D01*
X1191Y2878D02*
Y2922D01*
X-1037Y-143D02*
X-993D01*
X-1037Y-205D02*
X-993D01*
X-1037Y101D02*
X-993D01*
X-1037Y39D02*
X-993D01*
X-1037Y139D02*
X-993D01*
X-1037Y201D02*
X-993D01*
X-1091Y-3574D02*
Y-3531D01*
X-1030Y-3574D02*
Y-3531D01*
X-3054Y3097D02*
X-3023Y3066D01*
X-3097Y3054D02*
X-3066Y3023D01*
X-3117Y-3074D02*
X-3086Y-3043D01*
X-3074Y-3117D02*
X-3043Y-3086D01*
X3003Y-3046D02*
X3034Y-3077D01*
X3046Y-3003D02*
X3077Y-3034D01*
X3046Y3003D02*
X3077Y3034D01*
X3003Y3046D02*
X3034Y3077D01*
X-1379Y-3574D02*
Y-3531D01*
X-1441Y-3574D02*
Y-3531D01*
X1416Y-3422D02*
Y-3378D01*
X1354Y-3422D02*
Y-3378D01*
X1991Y-3417D02*
Y-3373D01*
X1929Y-3417D02*
Y-3373D01*
X-507Y-3575D02*
Y-3532D01*
X-446Y-3575D02*
Y-3532D01*
X-683Y-3575D02*
Y-3532D01*
X-622Y-3575D02*
Y-3532D01*
X391Y428D02*
Y472D01*
X329Y428D02*
Y472D01*
X391Y628D02*
Y672D01*
X329Y628D02*
Y672D01*
X291Y428D02*
Y472D01*
X229Y428D02*
Y472D01*
X291Y628D02*
Y672D01*
X229Y628D02*
Y672D01*
X191Y428D02*
Y472D01*
X129Y428D02*
Y472D01*
X191Y628D02*
Y672D01*
X129Y628D02*
Y672D01*
X91Y428D02*
Y472D01*
X29Y428D02*
Y472D01*
X91Y628D02*
Y672D01*
X29Y628D02*
Y672D01*
X-9Y428D02*
Y472D01*
X-71Y428D02*
Y472D01*
X-9Y628D02*
Y672D01*
X-71Y628D02*
Y672D01*
X-109Y428D02*
Y472D01*
X-171Y428D02*
Y472D01*
X-109Y628D02*
Y672D01*
X-171Y628D02*
Y672D01*
X1789Y1151D02*
X1833D01*
X1789Y1212D02*
X1833D01*
X-83Y67D02*
Y85D01*
X-65D01*
X56D02*
X74D01*
Y67D02*
Y85D01*
Y-72D02*
Y-53D01*
X56Y-72D02*
X74D01*
X-83D02*
X-65D01*
X-83D02*
Y-53D01*
X-222Y-2921D02*
X-178D01*
X-222Y-2859D02*
X-178D01*
D60*
X-1306Y107D02*
G03*
X-1306Y107I-12J0D01*
G01*
D61*
X2441Y1142D02*
G03*
X2441Y1142I-236J0D01*
G01*
D62*
X-3555Y-1964D02*
Y-1905D01*
Y-1559D02*
Y-1493D01*
Y-1081D02*
Y-1028D01*
X-3554Y-1969D02*
Y-1905D01*
Y-1564D02*
Y-1488D01*
Y-1086D02*
Y-1028D01*
X-3553Y-1972D02*
Y-1905D01*
Y-1567D02*
Y-1485D01*
Y-1089D02*
Y-1028D01*
X-3552Y-1974D02*
Y-1905D01*
Y-1569D02*
Y-1483D01*
Y-1091D02*
Y-1028D01*
X-3551Y-1976D02*
Y-1905D01*
Y-1571D02*
Y-1481D01*
Y-1093D02*
Y-1028D01*
X-3550Y-1978D02*
Y-1905D01*
Y-1572D02*
Y-1479D01*
Y-1095D02*
Y-1028D01*
X-3549Y-1979D02*
Y-1905D01*
Y-1574D02*
Y-1478D01*
Y-1096D02*
Y-1028D01*
X-3548Y-1980D02*
Y-1905D01*
Y-1575D02*
Y-1476D01*
Y-1097D02*
Y-1028D01*
X-3547Y-1982D02*
Y-1905D01*
Y-1576D02*
Y-1475D01*
Y-1099D02*
Y-1028D01*
X-3546Y-1983D02*
Y-1905D01*
Y-1578D02*
Y-1474D01*
Y-1100D02*
Y-1028D01*
X-3545Y-1984D02*
Y-1905D01*
Y-1579D02*
Y-1473D01*
Y-1101D02*
Y-1028D01*
X-3544Y-1985D02*
Y-1965D01*
Y-1580D02*
Y-1472D01*
Y-1102D02*
Y-1082D01*
X-3543Y-1986D02*
Y-1968D01*
Y-1580D02*
Y-1471D01*
Y-1103D02*
Y-1085D01*
X-3542Y-1986D02*
Y-1971D01*
Y-1581D02*
Y-1470D01*
Y-1103D02*
Y-1088D01*
X-3541Y-1987D02*
Y-1972D01*
Y-1582D02*
Y-1470D01*
Y-1104D02*
Y-1089D01*
X-3540Y-1988D02*
Y-1974D01*
Y-1583D02*
Y-1469D01*
Y-1105D02*
Y-1091D01*
X-3539Y-1989D02*
Y-1975D01*
Y-1583D02*
Y-1551D01*
Y-1500D02*
Y-1468D01*
Y-1106D02*
Y-1092D01*
X-3538Y-1989D02*
Y-1976D01*
Y-1861D02*
Y-1850D01*
Y-1815D02*
Y-1804D01*
Y-1734D02*
Y-1693D01*
Y-1647D02*
Y-1629D01*
Y-1584D02*
Y-1556D01*
Y-1495D02*
Y-1468D01*
Y-1447D02*
Y-1381D01*
Y-1335D02*
Y-1294D01*
Y-1248D02*
Y-1231D01*
Y-1161D02*
Y-1143D01*
Y-1106D02*
Y-1093D01*
X-3537Y-1990D02*
Y-1977D01*
Y-1866D02*
Y-1845D01*
Y-1820D02*
Y-1798D01*
Y-1739D02*
Y-1693D01*
Y-1652D02*
Y-1624D01*
Y-1585D02*
Y-1559D01*
Y-1493D02*
Y-1467D01*
Y-1447D02*
Y-1381D01*
Y-1341D02*
Y-1294D01*
Y-1253D02*
Y-1225D01*
Y-1166D02*
Y-1138D01*
Y-1107D02*
Y-1094D01*
X-3536Y-1990D02*
Y-1978D01*
Y-1869D02*
Y-1842D01*
Y-1823D02*
Y-1796D01*
Y-1742D02*
Y-1693D01*
Y-1655D02*
Y-1621D01*
Y-1585D02*
Y-1561D01*
Y-1491D02*
Y-1467D01*
Y-1447D02*
Y-1381D01*
Y-1343D02*
Y-1294D01*
Y-1256D02*
Y-1223D01*
Y-1169D02*
Y-1135D01*
Y-1107D02*
Y-1095D01*
X-3535Y-1991D02*
Y-1979D01*
Y-1871D02*
Y-1840D01*
Y-1825D02*
Y-1794D01*
Y-1744D02*
Y-1693D01*
Y-1657D02*
Y-1619D01*
Y-1586D02*
Y-1562D01*
Y-1489D02*
Y-1466D01*
Y-1447D02*
Y-1381D01*
Y-1345D02*
Y-1294D01*
Y-1258D02*
Y-1221D01*
Y-1171D02*
Y-1133D01*
Y-1108D02*
Y-1096D01*
X-3534Y-1991D02*
Y-1979D01*
Y-1873D02*
Y-1838D01*
Y-1826D02*
Y-1792D01*
Y-1746D02*
Y-1693D01*
Y-1658D02*
Y-1617D01*
Y-1586D02*
Y-1564D01*
Y-1488D02*
Y-1466D01*
Y-1447D02*
Y-1381D01*
Y-1347D02*
Y-1294D01*
Y-1260D02*
Y-1219D01*
Y-1172D02*
Y-1132D01*
Y-1108D02*
Y-1096D01*
X-3533Y-1992D02*
Y-1980D01*
Y-1874D02*
Y-1837D01*
Y-1828D02*
Y-1791D01*
Y-1747D02*
Y-1693D01*
Y-1660D02*
Y-1616D01*
Y-1586D02*
Y-1565D01*
Y-1487D02*
Y-1465D01*
Y-1447D02*
Y-1381D01*
Y-1348D02*
Y-1294D01*
Y-1261D02*
Y-1217D01*
Y-1174D02*
Y-1130D01*
Y-1109D02*
Y-1097D01*
X-3532Y-1992D02*
Y-1981D01*
Y-1875D02*
Y-1835D01*
Y-1829D02*
Y-1789D01*
Y-1748D02*
Y-1693D01*
Y-1661D02*
Y-1615D01*
Y-1587D02*
Y-1566D01*
Y-1486D02*
Y-1465D01*
Y-1447D02*
Y-1381D01*
Y-1350D02*
Y-1294D01*
Y-1262D02*
Y-1216D01*
Y-1175D02*
Y-1129D01*
Y-1109D02*
Y-1098D01*
X-3531Y-1992D02*
Y-1981D01*
Y-1876D02*
Y-1834D01*
Y-1830D02*
Y-1788D01*
Y-1749D02*
Y-1693D01*
Y-1662D02*
Y-1614D01*
Y-1587D02*
Y-1567D01*
Y-1485D02*
Y-1465D01*
Y-1447D02*
Y-1381D01*
Y-1351D02*
Y-1294D01*
Y-1264D02*
Y-1215D01*
Y-1176D02*
Y-1128D01*
Y-1109D02*
Y-1098D01*
X-3530Y-1993D02*
Y-1981D01*
Y-1877D02*
Y-1833D01*
Y-1831D02*
Y-1787D01*
Y-1750D02*
Y-1693D01*
Y-1663D02*
Y-1613D01*
Y-1587D02*
Y-1568D01*
Y-1484D02*
Y-1464D01*
Y-1447D02*
Y-1381D01*
Y-1352D02*
Y-1294D01*
Y-1265D02*
Y-1214D01*
Y-1177D02*
Y-1127D01*
Y-1110D02*
Y-1098D01*
X-3529Y-1993D02*
Y-1982D01*
Y-1878D02*
Y-1786D01*
Y-1751D02*
Y-1693D01*
Y-1664D02*
Y-1612D01*
Y-1588D02*
Y-1568D01*
Y-1483D02*
Y-1464D01*
Y-1447D02*
Y-1381D01*
Y-1353D02*
Y-1294D01*
Y-1265D02*
Y-1213D01*
Y-1178D02*
Y-1126D01*
Y-1110D02*
Y-1099D01*
X-3528Y-1993D02*
Y-1982D01*
Y-1879D02*
Y-1785D01*
Y-1752D02*
Y-1693D01*
Y-1665D02*
Y-1611D01*
Y-1588D02*
Y-1569D01*
Y-1483D02*
Y-1464D01*
Y-1447D02*
Y-1381D01*
Y-1354D02*
Y-1294D01*
Y-1266D02*
Y-1212D01*
Y-1179D02*
Y-1125D01*
Y-1110D02*
Y-1099D01*
X-3527Y-1993D02*
Y-1982D01*
Y-1880D02*
Y-1785D01*
Y-1753D02*
Y-1693D01*
Y-1666D02*
Y-1610D01*
Y-1588D02*
Y-1570D01*
Y-1482D02*
Y-1464D01*
Y-1447D02*
Y-1381D01*
Y-1354D02*
Y-1294D01*
Y-1267D02*
Y-1212D01*
Y-1180D02*
Y-1124D01*
Y-1110D02*
Y-1099D01*
X-3526Y-1993D02*
Y-1983D01*
Y-1881D02*
Y-1859D01*
Y-1852D02*
Y-1813D01*
Y-1805D02*
Y-1784D01*
Y-1754D02*
Y-1732D01*
Y-1666D02*
Y-1645D01*
Y-1631D02*
Y-1609D01*
Y-1588D02*
Y-1570D01*
Y-1482D02*
Y-1463D01*
Y-1420D02*
Y-1408D01*
Y-1355D02*
Y-1334D01*
Y-1268D02*
Y-1246D01*
Y-1232D02*
Y-1211D01*
Y-1180D02*
Y-1159D01*
Y-1145D02*
Y-1123D01*
Y-1110D02*
Y-1100D01*
X-3525Y-1994D02*
Y-1983D01*
Y-1881D02*
Y-1864D01*
Y-1847D02*
Y-1818D01*
Y-1800D02*
Y-1783D01*
Y-1754D02*
Y-1737D01*
Y-1667D02*
Y-1650D01*
Y-1626D02*
Y-1609D01*
Y-1588D02*
Y-1571D01*
Y-1481D02*
Y-1463D01*
Y-1420D02*
Y-1408D01*
Y-1356D02*
Y-1339D01*
Y-1268D02*
Y-1251D01*
Y-1227D02*
Y-1210D01*
Y-1181D02*
Y-1164D01*
Y-1140D02*
Y-1123D01*
Y-1111D02*
Y-1100D01*
X-3524Y-1994D02*
Y-1983D01*
Y-1882D02*
Y-1866D01*
Y-1845D02*
Y-1820D01*
Y-1798D02*
Y-1783D01*
Y-1755D02*
Y-1739D01*
Y-1668D02*
Y-1652D01*
Y-1624D02*
Y-1608D01*
Y-1589D02*
Y-1571D01*
Y-1481D02*
Y-1463D01*
Y-1420D02*
Y-1408D01*
Y-1356D02*
Y-1341D01*
Y-1269D02*
Y-1253D01*
Y-1225D02*
Y-1210D01*
Y-1182D02*
Y-1166D01*
Y-1138D02*
Y-1122D01*
Y-1111D02*
Y-1100D01*
X-3523Y-1994D02*
Y-1983D01*
Y-1882D02*
Y-1867D01*
Y-1843D02*
Y-1821D01*
Y-1797D02*
Y-1782D01*
Y-1755D02*
Y-1741D01*
Y-1668D02*
Y-1653D01*
Y-1622D02*
Y-1608D01*
Y-1589D02*
Y-1571D01*
Y-1480D02*
Y-1463D01*
Y-1420D02*
Y-1408D01*
Y-1357D02*
Y-1342D01*
Y-1269D02*
Y-1255D01*
Y-1224D02*
Y-1209D01*
Y-1182D02*
Y-1167D01*
Y-1137D02*
Y-1122D01*
Y-1111D02*
Y-1100D01*
X-3522Y-1994D02*
Y-1983D01*
Y-1883D02*
Y-1869D01*
Y-1842D02*
Y-1822D01*
Y-1796D02*
Y-1782D01*
Y-1756D02*
Y-1742D01*
Y-1668D02*
Y-1654D01*
Y-1621D02*
Y-1607D01*
Y-1589D02*
Y-1572D01*
Y-1480D02*
Y-1463D01*
Y-1420D02*
Y-1408D01*
Y-1357D02*
Y-1343D01*
Y-1270D02*
Y-1256D01*
Y-1223D02*
Y-1209D01*
Y-1183D02*
Y-1168D01*
Y-1135D02*
Y-1121D01*
Y-1111D02*
Y-1100D01*
X-3521Y-1994D02*
Y-1983D01*
Y-1883D02*
Y-1869D01*
Y-1841D02*
Y-1823D01*
Y-1795D02*
Y-1781D01*
Y-1756D02*
Y-1743D01*
Y-1669D02*
Y-1655D01*
Y-1620D02*
Y-1607D01*
Y-1589D02*
Y-1572D01*
Y-1480D02*
Y-1463D01*
Y-1420D02*
Y-1408D01*
Y-1358D02*
Y-1344D01*
Y-1270D02*
Y-1257D01*
Y-1222D02*
Y-1208D01*
Y-1183D02*
Y-1169D01*
Y-1135D02*
Y-1121D01*
Y-1111D02*
Y-1100D01*
X-3520Y-1994D02*
Y-1983D01*
Y-1883D02*
Y-1870D01*
Y-1841D02*
Y-1824D01*
Y-1794D02*
Y-1781D01*
Y-1757D02*
Y-1743D01*
Y-1669D02*
Y-1656D01*
Y-1620D02*
Y-1606D01*
Y-1589D02*
Y-1572D01*
Y-1480D02*
Y-1463D01*
Y-1420D02*
Y-1408D01*
Y-1358D02*
Y-1345D01*
Y-1271D02*
Y-1257D01*
Y-1221D02*
Y-1208D01*
Y-1183D02*
Y-1170D01*
Y-1134D02*
Y-1121D01*
Y-1111D02*
Y-1100D01*
X-3519Y-1994D02*
Y-1983D01*
Y-1884D02*
Y-1871D01*
Y-1840D02*
Y-1825D01*
Y-1794D02*
Y-1781D01*
Y-1757D02*
Y-1744D01*
Y-1669D02*
Y-1657D01*
Y-1619D02*
Y-1606D01*
Y-1589D02*
Y-1572D01*
Y-1479D02*
Y-1463D01*
Y-1420D02*
Y-1408D01*
Y-1358D02*
Y-1345D01*
Y-1271D02*
Y-1258D01*
Y-1221D02*
Y-1208D01*
Y-1184D02*
Y-1171D01*
Y-1133D02*
Y-1120D01*
Y-1111D02*
Y-1100D01*
X-3518Y-1994D02*
Y-1983D01*
Y-1884D02*
Y-1871D01*
Y-1839D02*
Y-1825D01*
Y-1793D02*
Y-1781D01*
Y-1757D02*
Y-1744D01*
Y-1670D02*
Y-1657D01*
Y-1619D02*
Y-1606D01*
Y-1589D02*
Y-1572D01*
Y-1479D02*
Y-1463D01*
Y-1420D02*
Y-1408D01*
Y-1359D02*
Y-1346D01*
Y-1271D02*
Y-1259D01*
Y-1220D02*
Y-1207D01*
Y-1184D02*
Y-1171D01*
Y-1133D02*
Y-1120D01*
Y-1111D02*
Y-1100D01*
X-3517Y-1994D02*
Y-1983D01*
Y-1884D02*
Y-1872D01*
Y-1839D02*
Y-1825D01*
Y-1793D02*
Y-1780D01*
Y-1757D02*
Y-1745D01*
Y-1670D02*
Y-1657D01*
Y-1618D02*
Y-1606D01*
Y-1589D02*
Y-1572D01*
Y-1479D02*
Y-1463D01*
Y-1420D02*
Y-1408D01*
Y-1359D02*
Y-1346D01*
Y-1271D02*
Y-1259D01*
Y-1220D02*
Y-1207D01*
Y-1184D02*
Y-1172D01*
Y-1132D02*
Y-1120D01*
Y-1111D02*
Y-1100D01*
X-3516Y-1994D02*
Y-1983D01*
Y-1884D02*
Y-1872D01*
Y-1839D02*
Y-1826D01*
Y-1793D02*
Y-1780D01*
Y-1757D02*
Y-1745D01*
Y-1670D02*
Y-1658D01*
Y-1618D02*
Y-1606D01*
Y-1589D02*
Y-1572D01*
Y-1479D02*
Y-1463D01*
Y-1420D02*
Y-1408D01*
Y-1359D02*
Y-1347D01*
Y-1272D02*
Y-1259D01*
Y-1219D02*
Y-1207D01*
Y-1184D02*
Y-1172D01*
Y-1132D02*
Y-1120D01*
Y-1110D02*
Y-1100D01*
X-3515Y-1994D02*
Y-1983D01*
Y-1884D02*
Y-1872D01*
Y-1839D02*
Y-1826D01*
Y-1792D02*
Y-1780D01*
Y-1758D02*
Y-1745D01*
Y-1670D02*
Y-1658D01*
Y-1618D02*
Y-1605D01*
Y-1589D02*
Y-1572D01*
Y-1479D02*
Y-1463D01*
Y-1420D02*
Y-1408D01*
Y-1359D02*
Y-1347D01*
Y-1272D02*
Y-1259D01*
Y-1219D02*
Y-1207D01*
Y-1184D02*
Y-1172D01*
Y-1132D02*
Y-1120D01*
Y-1110D02*
Y-1099D01*
X-3514Y-1994D02*
Y-1983D01*
Y-1885D02*
Y-1872D01*
Y-1838D02*
Y-1826D01*
Y-1792D02*
Y-1780D01*
Y-1758D02*
Y-1745D01*
Y-1670D02*
Y-1658D01*
Y-1618D02*
Y-1605D01*
Y-1589D02*
Y-1572D01*
Y-1479D02*
Y-1463D01*
Y-1420D02*
Y-1408D01*
Y-1359D02*
Y-1347D01*
Y-1272D02*
Y-1260D01*
Y-1219D02*
Y-1207D01*
Y-1184D02*
Y-1172D01*
Y-1132D02*
Y-1119D01*
Y-1110D02*
Y-1099D01*
X-3513Y-1994D02*
Y-1983D01*
Y-1885D02*
Y-1872D01*
Y-1838D02*
Y-1826D01*
Y-1792D02*
Y-1780D01*
Y-1758D02*
Y-1745D01*
Y-1670D02*
Y-1658D01*
Y-1617D02*
Y-1605D01*
Y-1589D02*
Y-1572D01*
Y-1479D02*
Y-1463D01*
Y-1420D02*
Y-1408D01*
Y-1359D02*
Y-1347D01*
Y-1272D02*
Y-1260D01*
Y-1219D02*
Y-1207D01*
Y-1184D02*
Y-1172D01*
Y-1132D02*
Y-1119D01*
Y-1110D02*
Y-1099D01*
X-3512Y-1994D02*
Y-1983D01*
Y-1885D02*
Y-1872D01*
Y-1838D02*
Y-1826D01*
Y-1792D02*
Y-1780D01*
Y-1758D02*
Y-1745D01*
Y-1670D02*
Y-1658D01*
Y-1617D02*
Y-1605D01*
Y-1589D02*
Y-1572D01*
Y-1479D02*
Y-1463D01*
Y-1420D02*
Y-1408D01*
Y-1359D02*
Y-1347D01*
Y-1272D02*
Y-1260D01*
Y-1219D02*
Y-1207D01*
Y-1185D02*
Y-1172D01*
Y-1132D02*
Y-1119D01*
Y-1110D02*
Y-1099D01*
X-3511Y-1994D02*
Y-1983D01*
Y-1885D02*
Y-1872D01*
Y-1838D02*
Y-1826D01*
Y-1792D02*
Y-1780D01*
Y-1758D02*
Y-1745D01*
Y-1670D02*
Y-1658D01*
Y-1617D02*
Y-1605D01*
Y-1589D02*
Y-1572D01*
Y-1479D02*
Y-1463D01*
Y-1420D02*
Y-1408D01*
Y-1359D02*
Y-1347D01*
Y-1272D02*
Y-1260D01*
Y-1219D02*
Y-1207D01*
Y-1185D02*
Y-1172D01*
Y-1132D02*
Y-1119D01*
Y-1109D02*
Y-1098D01*
X-3510Y-1994D02*
Y-1983D01*
Y-1885D02*
Y-1872D01*
Y-1838D02*
Y-1826D01*
Y-1792D02*
Y-1780D01*
Y-1758D02*
Y-1745D01*
Y-1670D02*
Y-1658D01*
Y-1617D02*
Y-1605D01*
Y-1589D02*
Y-1572D01*
Y-1479D02*
Y-1463D01*
Y-1420D02*
Y-1408D01*
Y-1359D02*
Y-1347D01*
Y-1272D02*
Y-1260D01*
Y-1219D02*
Y-1207D01*
Y-1185D02*
Y-1172D01*
Y-1132D02*
Y-1119D01*
Y-1109D02*
Y-1098D01*
X-3509Y-1994D02*
Y-1983D01*
Y-1885D02*
Y-1872D01*
Y-1838D02*
Y-1826D01*
Y-1792D02*
Y-1780D01*
Y-1758D02*
Y-1745D01*
Y-1670D02*
Y-1658D01*
Y-1617D02*
Y-1605D01*
Y-1589D02*
Y-1572D01*
Y-1479D02*
Y-1463D01*
Y-1420D02*
Y-1408D01*
Y-1359D02*
Y-1347D01*
Y-1272D02*
Y-1260D01*
Y-1219D02*
Y-1207D01*
Y-1185D02*
Y-1172D01*
Y-1132D02*
Y-1119D01*
Y-1109D02*
Y-1097D01*
X-3508Y-1994D02*
Y-1983D01*
Y-1885D02*
Y-1872D01*
Y-1838D02*
Y-1826D01*
Y-1792D02*
Y-1780D01*
Y-1758D02*
Y-1745D01*
Y-1670D02*
Y-1658D01*
Y-1617D02*
Y-1605D01*
Y-1589D02*
Y-1572D01*
Y-1479D02*
Y-1463D01*
Y-1420D02*
Y-1408D01*
Y-1359D02*
Y-1347D01*
Y-1272D02*
Y-1260D01*
Y-1219D02*
Y-1207D01*
Y-1185D02*
Y-1172D01*
Y-1132D02*
Y-1119D01*
Y-1108D02*
Y-1097D01*
X-3507Y-1994D02*
Y-1983D01*
Y-1885D02*
Y-1872D01*
Y-1838D02*
Y-1826D01*
Y-1792D02*
Y-1780D01*
Y-1758D02*
Y-1745D01*
Y-1670D02*
Y-1658D01*
Y-1617D02*
Y-1605D01*
Y-1589D02*
Y-1572D01*
Y-1479D02*
Y-1463D01*
Y-1420D02*
Y-1408D01*
Y-1359D02*
Y-1347D01*
Y-1272D02*
Y-1260D01*
Y-1219D02*
Y-1207D01*
Y-1185D02*
Y-1172D01*
Y-1132D02*
Y-1119D01*
Y-1108D02*
Y-1096D01*
X-3506Y-1994D02*
Y-1983D01*
Y-1885D02*
Y-1872D01*
Y-1838D02*
Y-1826D01*
Y-1792D02*
Y-1780D01*
Y-1758D02*
Y-1745D01*
Y-1670D02*
Y-1658D01*
Y-1617D02*
Y-1605D01*
Y-1589D02*
Y-1572D01*
Y-1479D02*
Y-1463D01*
Y-1420D02*
Y-1408D01*
Y-1359D02*
Y-1347D01*
Y-1272D02*
Y-1260D01*
Y-1185D02*
Y-1172D01*
Y-1132D02*
Y-1119D01*
Y-1108D02*
Y-1095D01*
X-3505Y-1994D02*
Y-1983D01*
Y-1885D02*
Y-1872D01*
Y-1838D02*
Y-1826D01*
Y-1792D02*
Y-1780D01*
Y-1758D02*
Y-1745D01*
Y-1670D02*
Y-1658D01*
Y-1617D02*
Y-1605D01*
Y-1589D02*
Y-1572D01*
Y-1479D02*
Y-1463D01*
Y-1420D02*
Y-1408D01*
Y-1359D02*
Y-1347D01*
Y-1272D02*
Y-1260D01*
Y-1185D02*
Y-1172D01*
Y-1132D02*
Y-1119D01*
Y-1107D02*
Y-1094D01*
X-3504Y-1994D02*
Y-1983D01*
Y-1885D02*
Y-1872D01*
Y-1838D02*
Y-1826D01*
Y-1792D02*
Y-1780D01*
Y-1758D02*
Y-1745D01*
Y-1670D02*
Y-1658D01*
Y-1617D02*
Y-1605D01*
Y-1589D02*
Y-1572D01*
Y-1479D02*
Y-1463D01*
Y-1420D02*
Y-1408D01*
Y-1359D02*
Y-1347D01*
Y-1272D02*
Y-1260D01*
Y-1185D02*
Y-1172D01*
Y-1132D02*
Y-1119D01*
Y-1106D02*
Y-1094D01*
X-3503Y-1994D02*
Y-1983D01*
Y-1885D02*
Y-1872D01*
Y-1838D02*
Y-1826D01*
Y-1792D02*
Y-1780D01*
Y-1758D02*
Y-1745D01*
Y-1670D02*
Y-1658D01*
Y-1617D02*
Y-1605D01*
Y-1589D02*
Y-1572D01*
Y-1479D02*
Y-1463D01*
Y-1420D02*
Y-1408D01*
Y-1359D02*
Y-1347D01*
Y-1272D02*
Y-1260D01*
Y-1185D02*
Y-1172D01*
Y-1132D02*
Y-1119D01*
Y-1106D02*
Y-1092D01*
X-3502Y-1994D02*
Y-1983D01*
Y-1885D02*
Y-1872D01*
Y-1838D02*
Y-1826D01*
Y-1792D02*
Y-1780D01*
Y-1758D02*
Y-1745D01*
Y-1670D02*
Y-1658D01*
Y-1617D02*
Y-1605D01*
Y-1589D02*
Y-1572D01*
Y-1479D02*
Y-1463D01*
Y-1420D02*
Y-1408D01*
Y-1359D02*
Y-1347D01*
Y-1272D02*
Y-1260D01*
Y-1185D02*
Y-1172D01*
Y-1132D02*
Y-1119D01*
Y-1105D02*
Y-1091D01*
X-3501Y-1994D02*
Y-1983D01*
Y-1885D02*
Y-1872D01*
Y-1838D02*
Y-1826D01*
Y-1792D02*
Y-1780D01*
Y-1758D02*
Y-1745D01*
Y-1670D02*
Y-1658D01*
Y-1617D02*
Y-1605D01*
Y-1589D02*
Y-1572D01*
Y-1535D02*
Y-1517D01*
Y-1479D02*
Y-1463D01*
Y-1420D02*
Y-1408D01*
Y-1359D02*
Y-1347D01*
Y-1272D02*
Y-1260D01*
Y-1185D02*
Y-1172D01*
Y-1132D02*
Y-1119D01*
Y-1105D02*
Y-1090D01*
X-3500Y-1994D02*
Y-1983D01*
Y-1885D02*
Y-1872D01*
Y-1838D02*
Y-1826D01*
Y-1792D02*
Y-1780D01*
Y-1758D02*
Y-1745D01*
Y-1670D02*
Y-1658D01*
Y-1617D02*
Y-1605D01*
Y-1589D02*
Y-1572D01*
Y-1537D02*
Y-1515D01*
Y-1479D02*
Y-1463D01*
Y-1420D02*
Y-1408D01*
Y-1359D02*
Y-1347D01*
Y-1272D02*
Y-1260D01*
Y-1185D02*
Y-1172D01*
Y-1132D02*
Y-1119D01*
Y-1104D02*
Y-1088D01*
X-3499Y-1994D02*
Y-1983D01*
Y-1885D02*
Y-1872D01*
Y-1838D02*
Y-1826D01*
Y-1792D02*
Y-1780D01*
Y-1758D02*
Y-1745D01*
Y-1670D02*
Y-1658D01*
Y-1617D02*
Y-1605D01*
Y-1589D02*
Y-1572D01*
Y-1538D02*
Y-1514D01*
Y-1479D02*
Y-1463D01*
Y-1420D02*
Y-1408D01*
Y-1359D02*
Y-1347D01*
Y-1272D02*
Y-1260D01*
Y-1185D02*
Y-1172D01*
Y-1132D02*
Y-1119D01*
Y-1103D02*
Y-1087D01*
X-3498Y-1994D02*
Y-1983D01*
Y-1885D02*
Y-1872D01*
Y-1838D02*
Y-1826D01*
Y-1792D02*
Y-1780D01*
Y-1758D02*
Y-1706D01*
Y-1670D02*
Y-1658D01*
Y-1617D02*
Y-1605D01*
Y-1589D02*
Y-1572D01*
Y-1538D02*
Y-1514D01*
Y-1479D02*
Y-1463D01*
Y-1420D02*
Y-1408D01*
Y-1359D02*
Y-1307D01*
Y-1272D02*
Y-1260D01*
Y-1185D02*
Y-1172D01*
Y-1132D02*
Y-1119D01*
Y-1102D02*
Y-1084D01*
X-3497Y-1994D02*
Y-1983D01*
Y-1885D02*
Y-1872D01*
Y-1838D02*
Y-1826D01*
Y-1792D02*
Y-1780D01*
Y-1758D02*
Y-1706D01*
Y-1670D02*
Y-1658D01*
Y-1618D02*
Y-1605D01*
Y-1589D02*
Y-1572D01*
Y-1539D02*
Y-1513D01*
Y-1479D02*
Y-1463D01*
Y-1420D02*
Y-1408D01*
Y-1359D02*
Y-1307D01*
Y-1272D02*
Y-1260D01*
Y-1185D02*
Y-1172D01*
Y-1132D02*
Y-1119D01*
Y-1101D02*
Y-1079D01*
X-3496Y-1994D02*
Y-1925D01*
Y-1885D02*
Y-1872D01*
Y-1838D02*
Y-1826D01*
Y-1792D02*
Y-1780D01*
Y-1758D02*
Y-1706D01*
Y-1670D02*
Y-1658D01*
Y-1618D02*
Y-1605D01*
Y-1589D02*
Y-1572D01*
Y-1539D02*
Y-1513D01*
Y-1479D02*
Y-1463D01*
Y-1420D02*
Y-1408D01*
Y-1359D02*
Y-1307D01*
Y-1272D02*
Y-1260D01*
Y-1185D02*
Y-1172D01*
Y-1132D02*
Y-1119D01*
Y-1100D02*
Y-1049D01*
X-3495Y-1994D02*
Y-1925D01*
Y-1885D02*
Y-1872D01*
Y-1838D02*
Y-1826D01*
Y-1792D02*
Y-1780D01*
Y-1758D02*
Y-1706D01*
Y-1670D02*
Y-1658D01*
Y-1618D02*
Y-1606D01*
Y-1589D02*
Y-1572D01*
Y-1539D02*
Y-1513D01*
Y-1479D02*
Y-1463D01*
Y-1420D02*
Y-1408D01*
Y-1359D02*
Y-1307D01*
Y-1272D02*
Y-1260D01*
Y-1185D02*
Y-1172D01*
Y-1132D02*
Y-1119D01*
Y-1099D02*
Y-1045D01*
X-3494Y-1994D02*
Y-1925D01*
Y-1885D02*
Y-1872D01*
Y-1838D02*
Y-1826D01*
Y-1792D02*
Y-1780D01*
Y-1758D02*
Y-1706D01*
Y-1670D02*
Y-1658D01*
Y-1618D02*
Y-1606D01*
Y-1589D02*
Y-1572D01*
Y-1539D02*
Y-1513D01*
Y-1479D02*
Y-1463D01*
Y-1420D02*
Y-1408D01*
Y-1359D02*
Y-1307D01*
Y-1272D02*
Y-1260D01*
Y-1185D02*
Y-1172D01*
Y-1132D02*
Y-1119D01*
Y-1098D02*
Y-1043D01*
X-3493Y-1994D02*
Y-1925D01*
Y-1885D02*
Y-1872D01*
Y-1838D02*
Y-1826D01*
Y-1792D02*
Y-1780D01*
Y-1758D02*
Y-1706D01*
Y-1670D02*
Y-1658D01*
Y-1619D02*
Y-1606D01*
Y-1589D02*
Y-1572D01*
Y-1539D02*
Y-1513D01*
Y-1479D02*
Y-1463D01*
Y-1420D02*
Y-1408D01*
Y-1359D02*
Y-1307D01*
Y-1272D02*
Y-1260D01*
Y-1185D02*
Y-1172D01*
Y-1132D02*
Y-1119D01*
Y-1097D02*
Y-1041D01*
X-3492Y-1994D02*
Y-1925D01*
Y-1885D02*
Y-1872D01*
Y-1838D02*
Y-1826D01*
Y-1792D02*
Y-1780D01*
Y-1758D02*
Y-1706D01*
Y-1670D02*
Y-1658D01*
Y-1619D02*
Y-1606D01*
Y-1589D02*
Y-1572D01*
Y-1539D02*
Y-1513D01*
Y-1479D02*
Y-1463D01*
Y-1420D02*
Y-1408D01*
Y-1359D02*
Y-1307D01*
Y-1272D02*
Y-1260D01*
Y-1185D02*
Y-1172D01*
Y-1132D02*
Y-1119D01*
Y-1095D02*
Y-1039D01*
X-3491Y-1994D02*
Y-1925D01*
Y-1885D02*
Y-1872D01*
Y-1838D02*
Y-1826D01*
Y-1792D02*
Y-1780D01*
Y-1758D02*
Y-1706D01*
Y-1670D02*
Y-1658D01*
Y-1620D02*
Y-1606D01*
Y-1589D02*
Y-1572D01*
Y-1539D02*
Y-1513D01*
Y-1479D02*
Y-1463D01*
Y-1420D02*
Y-1408D01*
Y-1359D02*
Y-1307D01*
Y-1272D02*
Y-1260D01*
Y-1185D02*
Y-1172D01*
Y-1132D02*
Y-1119D01*
Y-1094D02*
Y-1038D01*
X-3490Y-1994D02*
Y-1925D01*
Y-1885D02*
Y-1872D01*
Y-1838D02*
Y-1826D01*
Y-1792D02*
Y-1780D01*
Y-1758D02*
Y-1706D01*
Y-1670D02*
Y-1658D01*
Y-1621D02*
Y-1607D01*
Y-1589D02*
Y-1572D01*
Y-1539D02*
Y-1513D01*
Y-1479D02*
Y-1463D01*
Y-1420D02*
Y-1408D01*
Y-1359D02*
Y-1307D01*
Y-1272D02*
Y-1260D01*
Y-1185D02*
Y-1172D01*
Y-1132D02*
Y-1119D01*
Y-1092D02*
Y-1036D01*
X-3489Y-1994D02*
Y-1925D01*
Y-1885D02*
Y-1872D01*
Y-1838D02*
Y-1826D01*
Y-1792D02*
Y-1780D01*
Y-1758D02*
Y-1706D01*
Y-1670D02*
Y-1658D01*
Y-1622D02*
Y-1607D01*
Y-1589D02*
Y-1572D01*
Y-1539D02*
Y-1513D01*
Y-1479D02*
Y-1463D01*
Y-1420D02*
Y-1408D01*
Y-1359D02*
Y-1307D01*
Y-1272D02*
Y-1260D01*
Y-1185D02*
Y-1172D01*
Y-1132D02*
Y-1119D01*
Y-1090D02*
Y-1035D01*
X-3488Y-1994D02*
Y-1925D01*
Y-1885D02*
Y-1872D01*
Y-1838D02*
Y-1826D01*
Y-1792D02*
Y-1780D01*
Y-1758D02*
Y-1706D01*
Y-1670D02*
Y-1658D01*
Y-1623D02*
Y-1608D01*
Y-1589D02*
Y-1572D01*
Y-1539D02*
Y-1513D01*
Y-1479D02*
Y-1463D01*
Y-1420D02*
Y-1408D01*
Y-1359D02*
Y-1307D01*
Y-1272D02*
Y-1260D01*
Y-1185D02*
Y-1172D01*
Y-1132D02*
Y-1119D01*
Y-1087D02*
Y-1034D01*
X-3487Y-1994D02*
Y-1925D01*
Y-1885D02*
Y-1872D01*
Y-1838D02*
Y-1826D01*
Y-1792D02*
Y-1780D01*
Y-1758D02*
Y-1706D01*
Y-1670D02*
Y-1658D01*
Y-1624D02*
Y-1608D01*
Y-1589D02*
Y-1572D01*
Y-1539D02*
Y-1513D01*
Y-1479D02*
Y-1463D01*
Y-1420D02*
Y-1408D01*
Y-1359D02*
Y-1307D01*
Y-1272D02*
Y-1260D01*
Y-1185D02*
Y-1172D01*
Y-1132D02*
Y-1119D01*
Y-1084D02*
Y-1033D01*
X-3486Y-1994D02*
Y-1983D01*
Y-1885D02*
Y-1872D01*
Y-1838D02*
Y-1826D01*
Y-1792D02*
Y-1780D01*
Y-1758D02*
Y-1745D01*
Y-1670D02*
Y-1658D01*
Y-1626D02*
Y-1609D01*
Y-1589D02*
Y-1572D01*
Y-1539D02*
Y-1513D01*
Y-1479D02*
Y-1463D01*
Y-1420D02*
Y-1408D01*
Y-1359D02*
Y-1347D01*
Y-1272D02*
Y-1260D01*
Y-1185D02*
Y-1172D01*
Y-1132D02*
Y-1119D01*
Y-1054D02*
Y-1032D01*
X-3485Y-1994D02*
Y-1983D01*
Y-1885D02*
Y-1872D01*
Y-1838D02*
Y-1826D01*
Y-1792D02*
Y-1780D01*
Y-1758D02*
Y-1745D01*
Y-1670D02*
Y-1609D01*
Y-1589D02*
Y-1572D01*
Y-1539D02*
Y-1513D01*
Y-1479D02*
Y-1463D01*
Y-1420D02*
Y-1408D01*
Y-1359D02*
Y-1347D01*
Y-1272D02*
Y-1260D01*
Y-1185D02*
Y-1172D01*
Y-1132D02*
Y-1119D01*
Y-1049D02*
Y-1031D01*
X-3484Y-1994D02*
Y-1983D01*
Y-1885D02*
Y-1872D01*
Y-1838D02*
Y-1826D01*
Y-1792D02*
Y-1780D01*
Y-1758D02*
Y-1745D01*
Y-1670D02*
Y-1610D01*
Y-1589D02*
Y-1572D01*
Y-1539D02*
Y-1513D01*
Y-1479D02*
Y-1463D01*
Y-1420D02*
Y-1408D01*
Y-1359D02*
Y-1347D01*
Y-1272D02*
Y-1260D01*
Y-1185D02*
Y-1172D01*
Y-1132D02*
Y-1119D01*
Y-1046D02*
Y-1030D01*
X-3483Y-1994D02*
Y-1983D01*
Y-1885D02*
Y-1872D01*
Y-1838D02*
Y-1826D01*
Y-1792D02*
Y-1780D01*
Y-1758D02*
Y-1745D01*
Y-1670D02*
Y-1611D01*
Y-1589D02*
Y-1572D01*
Y-1539D02*
Y-1513D01*
Y-1479D02*
Y-1463D01*
Y-1420D02*
Y-1408D01*
Y-1359D02*
Y-1347D01*
Y-1272D02*
Y-1260D01*
Y-1185D02*
Y-1172D01*
Y-1132D02*
Y-1119D01*
Y-1045D02*
Y-1029D01*
X-3482Y-1994D02*
Y-1983D01*
Y-1885D02*
Y-1872D01*
Y-1838D02*
Y-1826D01*
Y-1792D02*
Y-1780D01*
Y-1758D02*
Y-1745D01*
Y-1670D02*
Y-1612D01*
Y-1589D02*
Y-1572D01*
Y-1539D02*
Y-1513D01*
Y-1479D02*
Y-1463D01*
Y-1420D02*
Y-1408D01*
Y-1359D02*
Y-1347D01*
Y-1272D02*
Y-1260D01*
Y-1185D02*
Y-1172D01*
Y-1132D02*
Y-1119D01*
Y-1043D02*
Y-1028D01*
X-3481Y-1994D02*
Y-1983D01*
Y-1885D02*
Y-1872D01*
Y-1838D02*
Y-1826D01*
Y-1792D02*
Y-1780D01*
Y-1758D02*
Y-1745D01*
Y-1670D02*
Y-1613D01*
Y-1589D02*
Y-1572D01*
Y-1539D02*
Y-1513D01*
Y-1479D02*
Y-1463D01*
Y-1420D02*
Y-1408D01*
Y-1359D02*
Y-1347D01*
Y-1272D02*
Y-1260D01*
Y-1185D02*
Y-1172D01*
Y-1132D02*
Y-1119D01*
Y-1042D02*
Y-1028D01*
X-3480Y-1994D02*
Y-1983D01*
Y-1885D02*
Y-1872D01*
Y-1838D02*
Y-1826D01*
Y-1792D02*
Y-1780D01*
Y-1758D02*
Y-1745D01*
Y-1670D02*
Y-1614D01*
Y-1589D02*
Y-1572D01*
Y-1539D02*
Y-1513D01*
Y-1479D02*
Y-1463D01*
Y-1420D02*
Y-1408D01*
Y-1359D02*
Y-1347D01*
Y-1272D02*
Y-1260D01*
Y-1185D02*
Y-1172D01*
Y-1132D02*
Y-1119D01*
Y-1040D02*
Y-1027D01*
X-3479Y-1994D02*
Y-1983D01*
Y-1885D02*
Y-1872D01*
Y-1838D02*
Y-1826D01*
Y-1792D02*
Y-1780D01*
Y-1758D02*
Y-1745D01*
Y-1670D02*
Y-1614D01*
Y-1589D02*
Y-1572D01*
Y-1538D02*
Y-1513D01*
Y-1479D02*
Y-1463D01*
Y-1420D02*
Y-1408D01*
Y-1359D02*
Y-1347D01*
Y-1272D02*
Y-1260D01*
Y-1185D02*
Y-1172D01*
Y-1132D02*
Y-1119D01*
Y-1039D02*
Y-1027D01*
X-3478Y-1994D02*
Y-1983D01*
Y-1885D02*
Y-1872D01*
Y-1838D02*
Y-1826D01*
Y-1792D02*
Y-1780D01*
Y-1758D02*
Y-1745D01*
Y-1670D02*
Y-1614D01*
Y-1589D02*
Y-1572D01*
Y-1538D02*
Y-1514D01*
Y-1479D02*
Y-1463D01*
Y-1420D02*
Y-1408D01*
Y-1359D02*
Y-1347D01*
Y-1272D02*
Y-1260D01*
Y-1219D02*
Y-1207D01*
Y-1185D02*
Y-1172D01*
Y-1132D02*
Y-1119D01*
Y-1039D02*
Y-1026D01*
X-3477Y-1994D02*
Y-1983D01*
Y-1885D02*
Y-1872D01*
Y-1838D02*
Y-1826D01*
Y-1792D02*
Y-1780D01*
Y-1758D02*
Y-1745D01*
Y-1670D02*
Y-1613D01*
Y-1589D02*
Y-1572D01*
Y-1537D02*
Y-1515D01*
Y-1479D02*
Y-1463D01*
Y-1420D02*
Y-1408D01*
Y-1359D02*
Y-1347D01*
Y-1272D02*
Y-1260D01*
Y-1219D02*
Y-1207D01*
Y-1185D02*
Y-1172D01*
Y-1132D02*
Y-1119D01*
Y-1038D02*
Y-1025D01*
X-3476Y-1994D02*
Y-1983D01*
Y-1885D02*
Y-1872D01*
Y-1838D02*
Y-1826D01*
Y-1792D02*
Y-1780D01*
Y-1758D02*
Y-1745D01*
Y-1670D02*
Y-1612D01*
Y-1589D02*
Y-1572D01*
Y-1535D02*
Y-1516D01*
Y-1479D02*
Y-1463D01*
Y-1420D02*
Y-1408D01*
Y-1359D02*
Y-1347D01*
Y-1272D02*
Y-1260D01*
Y-1219D02*
Y-1207D01*
Y-1185D02*
Y-1172D01*
Y-1132D02*
Y-1119D01*
Y-1037D02*
Y-1025D01*
X-3475Y-1994D02*
Y-1983D01*
Y-1885D02*
Y-1872D01*
Y-1838D02*
Y-1826D01*
Y-1792D02*
Y-1780D01*
Y-1758D02*
Y-1745D01*
Y-1670D02*
Y-1611D01*
Y-1589D02*
Y-1572D01*
Y-1479D02*
Y-1463D01*
Y-1420D02*
Y-1408D01*
Y-1359D02*
Y-1347D01*
Y-1272D02*
Y-1260D01*
Y-1219D02*
Y-1207D01*
Y-1185D02*
Y-1172D01*
Y-1132D02*
Y-1119D01*
Y-1036D02*
Y-1025D01*
X-3474Y-1994D02*
Y-1983D01*
Y-1885D02*
Y-1872D01*
Y-1838D02*
Y-1826D01*
Y-1792D02*
Y-1780D01*
Y-1758D02*
Y-1745D01*
Y-1670D02*
Y-1610D01*
Y-1589D02*
Y-1572D01*
Y-1479D02*
Y-1463D01*
Y-1420D02*
Y-1408D01*
Y-1359D02*
Y-1347D01*
Y-1272D02*
Y-1260D01*
Y-1219D02*
Y-1207D01*
Y-1185D02*
Y-1172D01*
Y-1132D02*
Y-1119D01*
Y-1036D02*
Y-1024D01*
X-3473Y-1994D02*
Y-1983D01*
Y-1885D02*
Y-1872D01*
Y-1838D02*
Y-1826D01*
Y-1792D02*
Y-1780D01*
Y-1758D02*
Y-1745D01*
Y-1670D02*
Y-1658D01*
Y-1630D02*
Y-1609D01*
Y-1589D02*
Y-1572D01*
Y-1479D02*
Y-1463D01*
Y-1420D02*
Y-1408D01*
Y-1359D02*
Y-1347D01*
Y-1272D02*
Y-1260D01*
Y-1219D02*
Y-1207D01*
Y-1185D02*
Y-1172D01*
Y-1132D02*
Y-1119D01*
Y-1035D02*
Y-1024D01*
X-3472Y-1994D02*
Y-1983D01*
Y-1885D02*
Y-1872D01*
Y-1838D02*
Y-1826D01*
Y-1792D02*
Y-1780D01*
Y-1758D02*
Y-1745D01*
Y-1670D02*
Y-1658D01*
Y-1626D02*
Y-1609D01*
Y-1589D02*
Y-1572D01*
Y-1479D02*
Y-1463D01*
Y-1420D02*
Y-1408D01*
Y-1359D02*
Y-1347D01*
Y-1272D02*
Y-1260D01*
Y-1219D02*
Y-1207D01*
Y-1185D02*
Y-1172D01*
Y-1132D02*
Y-1119D01*
Y-1035D02*
Y-1024D01*
X-3471Y-1994D02*
Y-1983D01*
Y-1885D02*
Y-1872D01*
Y-1838D02*
Y-1826D01*
Y-1792D02*
Y-1780D01*
Y-1758D02*
Y-1745D01*
Y-1670D02*
Y-1658D01*
Y-1624D02*
Y-1608D01*
Y-1589D02*
Y-1572D01*
Y-1479D02*
Y-1463D01*
Y-1420D02*
Y-1408D01*
Y-1359D02*
Y-1347D01*
Y-1272D02*
Y-1260D01*
Y-1219D02*
Y-1207D01*
Y-1184D02*
Y-1172D01*
Y-1132D02*
Y-1119D01*
Y-1034D02*
Y-1023D01*
X-3470Y-1994D02*
Y-1983D01*
Y-1885D02*
Y-1872D01*
Y-1838D02*
Y-1826D01*
Y-1792D02*
Y-1780D01*
Y-1758D02*
Y-1745D01*
Y-1670D02*
Y-1658D01*
Y-1622D02*
Y-1608D01*
Y-1589D02*
Y-1572D01*
Y-1479D02*
Y-1463D01*
Y-1420D02*
Y-1408D01*
Y-1359D02*
Y-1347D01*
Y-1272D02*
Y-1259D01*
Y-1219D02*
Y-1207D01*
Y-1184D02*
Y-1172D01*
Y-1132D02*
Y-1119D01*
Y-1034D02*
Y-1023D01*
X-3469Y-1994D02*
Y-1983D01*
Y-1885D02*
Y-1872D01*
Y-1838D02*
Y-1826D01*
Y-1792D02*
Y-1780D01*
Y-1757D02*
Y-1745D01*
Y-1670D02*
Y-1658D01*
Y-1621D02*
Y-1607D01*
Y-1589D02*
Y-1572D01*
Y-1479D02*
Y-1463D01*
Y-1420D02*
Y-1408D01*
Y-1359D02*
Y-1347D01*
Y-1272D02*
Y-1259D01*
Y-1219D02*
Y-1207D01*
Y-1184D02*
Y-1172D01*
Y-1132D02*
Y-1120D01*
Y-1034D02*
Y-1023D01*
X-3468Y-1994D02*
Y-1983D01*
Y-1885D02*
Y-1872D01*
Y-1838D02*
Y-1826D01*
Y-1792D02*
Y-1780D01*
Y-1757D02*
Y-1745D01*
Y-1670D02*
Y-1658D01*
Y-1620D02*
Y-1607D01*
Y-1589D02*
Y-1572D01*
Y-1479D02*
Y-1463D01*
Y-1420D02*
Y-1408D01*
Y-1359D02*
Y-1346D01*
Y-1271D02*
Y-1259D01*
Y-1220D02*
Y-1207D01*
Y-1184D02*
Y-1172D01*
Y-1132D02*
Y-1120D01*
Y-1033D02*
Y-1023D01*
X-3467Y-1994D02*
Y-1983D01*
Y-1885D02*
Y-1872D01*
Y-1838D02*
Y-1826D01*
Y-1792D02*
Y-1780D01*
Y-1757D02*
Y-1745D01*
Y-1670D02*
Y-1658D01*
Y-1620D02*
Y-1606D01*
Y-1589D02*
Y-1572D01*
Y-1479D02*
Y-1463D01*
Y-1420D02*
Y-1408D01*
Y-1359D02*
Y-1346D01*
Y-1271D02*
Y-1259D01*
Y-1220D02*
Y-1207D01*
Y-1184D02*
Y-1171D01*
Y-1133D02*
Y-1120D01*
Y-1033D02*
Y-1022D01*
X-3466Y-1994D02*
Y-1983D01*
Y-1885D02*
Y-1872D01*
Y-1838D02*
Y-1826D01*
Y-1792D02*
Y-1780D01*
Y-1757D02*
Y-1744D01*
Y-1670D02*
Y-1658D01*
Y-1619D02*
Y-1606D01*
Y-1589D02*
Y-1572D01*
Y-1479D02*
Y-1463D01*
Y-1420D02*
Y-1408D01*
Y-1358D02*
Y-1345D01*
Y-1271D02*
Y-1258D01*
Y-1220D02*
Y-1208D01*
Y-1184D02*
Y-1171D01*
Y-1133D02*
Y-1120D01*
Y-1033D02*
Y-1022D01*
X-3465Y-1994D02*
Y-1983D01*
Y-1885D02*
Y-1872D01*
Y-1838D02*
Y-1826D01*
Y-1792D02*
Y-1780D01*
Y-1757D02*
Y-1743D01*
Y-1670D02*
Y-1658D01*
Y-1619D02*
Y-1606D01*
Y-1589D02*
Y-1572D01*
Y-1479D02*
Y-1463D01*
Y-1420D02*
Y-1408D01*
Y-1358D02*
Y-1345D01*
Y-1271D02*
Y-1258D01*
Y-1221D02*
Y-1208D01*
Y-1183D02*
Y-1170D01*
Y-1134D02*
Y-1120D01*
Y-1033D02*
Y-1022D01*
X-3464Y-1994D02*
Y-1983D01*
Y-1885D02*
Y-1872D01*
Y-1838D02*
Y-1826D01*
Y-1792D02*
Y-1780D01*
Y-1756D02*
Y-1743D01*
Y-1670D02*
Y-1658D01*
Y-1618D02*
Y-1606D01*
Y-1589D02*
Y-1572D01*
Y-1479D02*
Y-1463D01*
Y-1420D02*
Y-1408D01*
Y-1358D02*
Y-1344D01*
Y-1270D02*
Y-1257D01*
Y-1222D02*
Y-1208D01*
Y-1183D02*
Y-1170D01*
Y-1134D02*
Y-1121D01*
Y-1033D02*
Y-1022D01*
X-3463Y-1994D02*
Y-1983D01*
Y-1885D02*
Y-1872D01*
Y-1838D02*
Y-1826D01*
Y-1792D02*
Y-1780D01*
Y-1756D02*
Y-1742D01*
Y-1670D02*
Y-1658D01*
Y-1618D02*
Y-1605D01*
Y-1589D02*
Y-1572D01*
Y-1479D02*
Y-1463D01*
Y-1420D02*
Y-1408D01*
Y-1357D02*
Y-1343D01*
Y-1270D02*
Y-1256D01*
Y-1223D02*
Y-1209D01*
Y-1183D02*
Y-1169D01*
Y-1135D02*
Y-1121D01*
Y-1033D02*
Y-1022D01*
X-3462Y-1994D02*
Y-1983D01*
Y-1885D02*
Y-1872D01*
Y-1838D02*
Y-1826D01*
Y-1792D02*
Y-1780D01*
Y-1755D02*
Y-1741D01*
Y-1670D02*
Y-1658D01*
Y-1618D02*
Y-1605D01*
Y-1589D02*
Y-1572D01*
Y-1479D02*
Y-1463D01*
Y-1420D02*
Y-1408D01*
Y-1357D02*
Y-1342D01*
Y-1270D02*
Y-1255D01*
Y-1224D02*
Y-1209D01*
Y-1182D02*
Y-1168D01*
Y-1136D02*
Y-1122D01*
Y-1033D02*
Y-1022D01*
X-3461Y-1994D02*
Y-1983D01*
Y-1885D02*
Y-1872D01*
Y-1838D02*
Y-1826D01*
Y-1792D02*
Y-1780D01*
Y-1755D02*
Y-1740D01*
Y-1670D02*
Y-1658D01*
Y-1618D02*
Y-1605D01*
Y-1589D02*
Y-1572D01*
Y-1479D02*
Y-1463D01*
Y-1420D02*
Y-1408D01*
Y-1356D02*
Y-1341D01*
Y-1269D02*
Y-1254D01*
Y-1225D02*
Y-1209D01*
Y-1182D02*
Y-1166D01*
Y-1138D02*
Y-1122D01*
Y-1033D02*
Y-1022D01*
X-3460Y-1994D02*
Y-1983D01*
Y-1885D02*
Y-1872D01*
Y-1838D02*
Y-1826D01*
Y-1792D02*
Y-1780D01*
Y-1754D02*
Y-1738D01*
Y-1670D02*
Y-1658D01*
Y-1617D02*
Y-1605D01*
Y-1589D02*
Y-1572D01*
Y-1479D02*
Y-1463D01*
Y-1420D02*
Y-1408D01*
Y-1356D02*
Y-1339D01*
Y-1269D02*
Y-1252D01*
Y-1227D02*
Y-1210D01*
Y-1181D02*
Y-1165D01*
Y-1139D02*
Y-1123D01*
Y-1033D02*
Y-1022D01*
X-3459Y-1994D02*
Y-1983D01*
Y-1885D02*
Y-1872D01*
Y-1838D02*
Y-1826D01*
Y-1792D02*
Y-1780D01*
Y-1754D02*
Y-1734D01*
Y-1670D02*
Y-1658D01*
Y-1617D02*
Y-1605D01*
Y-1589D02*
Y-1572D01*
Y-1479D02*
Y-1463D01*
Y-1420D02*
Y-1408D01*
Y-1355D02*
Y-1336D01*
Y-1268D02*
Y-1249D01*
Y-1230D02*
Y-1211D01*
Y-1181D02*
Y-1161D01*
Y-1143D02*
Y-1123D01*
Y-1033D02*
Y-1022D01*
X-3458Y-1994D02*
Y-1983D01*
Y-1885D02*
Y-1872D01*
Y-1838D02*
Y-1826D01*
Y-1792D02*
Y-1780D01*
Y-1753D02*
Y-1693D01*
Y-1670D02*
Y-1658D01*
Y-1617D02*
Y-1605D01*
Y-1588D02*
Y-1572D01*
Y-1480D02*
Y-1463D01*
Y-1420D02*
Y-1408D01*
Y-1355D02*
Y-1294D01*
Y-1267D02*
Y-1211D01*
Y-1180D02*
Y-1124D01*
Y-1033D02*
Y-1022D01*
X-3457Y-1993D02*
Y-1983D01*
Y-1885D02*
Y-1872D01*
Y-1838D02*
Y-1826D01*
Y-1792D02*
Y-1780D01*
Y-1752D02*
Y-1693D01*
Y-1670D02*
Y-1658D01*
Y-1617D02*
Y-1605D01*
Y-1588D02*
Y-1572D01*
Y-1480D02*
Y-1463D01*
Y-1420D02*
Y-1408D01*
Y-1354D02*
Y-1294D01*
Y-1267D02*
Y-1212D01*
Y-1179D02*
Y-1125D01*
Y-1033D02*
Y-1023D01*
X-3456Y-1993D02*
Y-1982D01*
Y-1885D02*
Y-1872D01*
Y-1838D02*
Y-1826D01*
Y-1792D02*
Y-1780D01*
Y-1752D02*
Y-1693D01*
Y-1670D02*
Y-1658D01*
Y-1617D02*
Y-1605D01*
Y-1588D02*
Y-1572D01*
Y-1480D02*
Y-1464D01*
Y-1420D02*
Y-1408D01*
Y-1353D02*
Y-1294D01*
Y-1266D02*
Y-1213D01*
Y-1178D02*
Y-1126D01*
Y-1034D02*
Y-1023D01*
X-3455Y-1993D02*
Y-1982D01*
Y-1885D02*
Y-1872D01*
Y-1838D02*
Y-1826D01*
Y-1792D02*
Y-1780D01*
Y-1751D02*
Y-1693D01*
Y-1670D02*
Y-1658D01*
Y-1617D02*
Y-1605D01*
Y-1588D02*
Y-1572D01*
Y-1480D02*
Y-1464D01*
Y-1420D02*
Y-1408D01*
Y-1352D02*
Y-1294D01*
Y-1265D02*
Y-1214D01*
Y-1178D02*
Y-1126D01*
Y-1034D02*
Y-1023D01*
X-3454Y-1993D02*
Y-1982D01*
Y-1885D02*
Y-1872D01*
Y-1838D02*
Y-1826D01*
Y-1792D02*
Y-1780D01*
Y-1750D02*
Y-1693D01*
Y-1670D02*
Y-1658D01*
Y-1617D02*
Y-1605D01*
Y-1588D02*
Y-1571D01*
Y-1481D02*
Y-1464D01*
Y-1420D02*
Y-1408D01*
Y-1351D02*
Y-1294D01*
Y-1264D02*
Y-1215D01*
Y-1177D02*
Y-1127D01*
Y-1034D02*
Y-1023D01*
X-3453Y-1993D02*
Y-1981D01*
Y-1885D02*
Y-1872D01*
Y-1838D02*
Y-1826D01*
Y-1792D02*
Y-1780D01*
Y-1749D02*
Y-1693D01*
Y-1670D02*
Y-1658D01*
Y-1617D02*
Y-1605D01*
Y-1587D02*
Y-1571D01*
Y-1481D02*
Y-1464D01*
Y-1420D02*
Y-1408D01*
Y-1350D02*
Y-1294D01*
Y-1263D02*
Y-1216D01*
Y-1175D02*
Y-1129D01*
Y-1035D02*
Y-1023D01*
X-3452Y-1992D02*
Y-1981D01*
Y-1885D02*
Y-1872D01*
Y-1838D02*
Y-1826D01*
Y-1792D02*
Y-1780D01*
Y-1747D02*
Y-1693D01*
Y-1670D02*
Y-1658D01*
Y-1617D02*
Y-1605D01*
Y-1587D02*
Y-1570D01*
Y-1481D02*
Y-1465D01*
Y-1420D02*
Y-1408D01*
Y-1349D02*
Y-1294D01*
Y-1262D02*
Y-1217D01*
Y-1174D02*
Y-1130D01*
Y-1035D02*
Y-1024D01*
X-3451Y-1992D02*
Y-1981D01*
Y-1885D02*
Y-1872D01*
Y-1838D02*
Y-1826D01*
Y-1792D02*
Y-1780D01*
Y-1746D02*
Y-1693D01*
Y-1670D02*
Y-1658D01*
Y-1617D02*
Y-1605D01*
Y-1587D02*
Y-1570D01*
Y-1482D02*
Y-1465D01*
Y-1420D02*
Y-1408D01*
Y-1348D02*
Y-1294D01*
Y-1260D02*
Y-1218D01*
Y-1173D02*
Y-1131D01*
Y-1035D02*
Y-1024D01*
X-3450Y-1992D02*
Y-1980D01*
Y-1885D02*
Y-1872D01*
Y-1838D02*
Y-1826D01*
Y-1792D02*
Y-1780D01*
Y-1745D02*
Y-1693D01*
Y-1670D02*
Y-1658D01*
Y-1617D02*
Y-1605D01*
Y-1586D02*
Y-1569D01*
Y-1482D02*
Y-1465D01*
Y-1420D02*
Y-1408D01*
Y-1346D02*
Y-1294D01*
Y-1259D02*
Y-1220D01*
Y-1171D02*
Y-1133D01*
Y-1036D02*
Y-1024D01*
X-3449Y-1991D02*
Y-1979D01*
Y-1885D02*
Y-1872D01*
Y-1838D02*
Y-1826D01*
Y-1792D02*
Y-1780D01*
Y-1743D02*
Y-1693D01*
Y-1670D02*
Y-1658D01*
Y-1617D02*
Y-1605D01*
Y-1586D02*
Y-1569D01*
Y-1483D02*
Y-1466D01*
Y-1420D02*
Y-1408D01*
Y-1344D02*
Y-1294D01*
Y-1257D02*
Y-1222D01*
Y-1169D02*
Y-1135D01*
Y-1037D02*
Y-1025D01*
X-3448Y-1991D02*
Y-1979D01*
Y-1885D02*
Y-1872D01*
Y-1838D02*
Y-1826D01*
Y-1792D02*
Y-1780D01*
Y-1740D02*
Y-1693D01*
Y-1670D02*
Y-1658D01*
Y-1617D02*
Y-1605D01*
Y-1586D02*
Y-1568D01*
Y-1484D02*
Y-1466D01*
Y-1420D02*
Y-1408D01*
Y-1342D02*
Y-1294D01*
Y-1254D02*
Y-1224D01*
Y-1167D02*
Y-1137D01*
Y-1037D02*
Y-1025D01*
X-3447Y-1990D02*
Y-1978D01*
Y-1885D02*
Y-1872D01*
Y-1838D02*
Y-1826D01*
Y-1792D02*
Y-1780D01*
Y-1736D02*
Y-1693D01*
Y-1670D02*
Y-1658D01*
Y-1617D02*
Y-1605D01*
Y-1585D02*
Y-1567D01*
Y-1484D02*
Y-1467D01*
Y-1420D02*
Y-1408D01*
Y-1338D02*
Y-1294D01*
Y-1251D02*
Y-1228D01*
Y-1163D02*
Y-1141D01*
Y-1038D02*
Y-1026D01*
X-3446Y-1990D02*
Y-1977D01*
Y-1585D02*
Y-1566D01*
Y-1485D02*
Y-1467D01*
Y-1039D02*
Y-1026D01*
X-3445Y-1989D02*
Y-1976D01*
Y-1584D02*
Y-1565D01*
Y-1486D02*
Y-1468D01*
Y-1040D02*
Y-1027D01*
X-3444Y-1989D02*
Y-1975D01*
Y-1583D02*
Y-1564D01*
Y-1487D02*
Y-1468D01*
Y-1041D02*
Y-1027D01*
X-3443Y-1988D02*
Y-1974D01*
Y-1583D02*
Y-1563D01*
Y-1488D02*
Y-1469D01*
Y-1042D02*
Y-1028D01*
X-3442Y-1987D02*
Y-1972D01*
Y-1582D02*
Y-1562D01*
Y-1489D02*
Y-1470D01*
Y-1044D02*
Y-1029D01*
X-3441Y-1986D02*
Y-1971D01*
Y-1581D02*
Y-1561D01*
Y-1491D02*
Y-1470D01*
Y-1045D02*
Y-1030D01*
X-3440Y-1986D02*
Y-1968D01*
Y-1580D02*
Y-1559D01*
Y-1492D02*
Y-1471D01*
Y-1048D02*
Y-1030D01*
X-3439Y-1985D02*
Y-1965D01*
Y-1580D02*
Y-1557D01*
Y-1495D02*
Y-1472D01*
Y-1051D02*
Y-1031D01*
X-3438Y-1984D02*
Y-1550D01*
Y-1502D02*
Y-1032D01*
X-3437Y-1983D02*
Y-1548D01*
Y-1503D02*
Y-1033D01*
X-3436Y-1982D02*
Y-1548D01*
Y-1504D02*
Y-1034D01*
X-3435Y-1980D02*
Y-1547D01*
Y-1505D02*
Y-1036D01*
X-3434Y-1979D02*
Y-1547D01*
Y-1505D02*
Y-1037D01*
X-3433Y-1978D02*
Y-1547D01*
Y-1505D02*
Y-1038D01*
X-3432Y-1976D02*
Y-1547D01*
Y-1505D02*
Y-1040D01*
X-3431Y-1974D02*
Y-1547D01*
Y-1505D02*
Y-1042D01*
X-3430Y-1972D02*
Y-1548D01*
Y-1504D02*
Y-1044D01*
X-3429Y-1969D02*
Y-1548D01*
Y-1503D02*
Y-1047D01*
X-3428Y-1964D02*
Y-1550D01*
Y-1502D02*
Y-1052D01*
D63*
X2150Y1272D02*
Y1307D01*
D64*
X2223Y-1530D02*
Y-1490D01*
X2203Y-1510D02*
X2243D01*
M02*
