%FSLAX23Y23*%
%MOIN*%
G70*
G01*
G75*
G04 Layer_Color=32896*
%ADD10C,0.008*%
%ADD11C,0.059*%
%ADD12R,0.035X0.037*%
%ADD13R,0.035X0.037*%
%ADD14R,0.045X0.069*%
%ADD15R,0.055X0.047*%
%ADD16R,0.055X0.043*%
%ADD17O,0.024X0.087*%
%ADD18R,0.039X0.094*%
%ADD19R,0.130X0.094*%
%ADD20O,0.065X0.022*%
%ADD21O,0.022X0.065*%
%ADD22R,0.043X0.055*%
%ADD23R,0.043X0.067*%
%ADD24R,0.067X0.043*%
%ADD25R,0.050X0.100*%
%ADD26R,0.057X0.094*%
%ADD27R,0.069X0.045*%
G04:AMPARAMS|DCode=28|XSize=69mil|YSize=45mil|CornerRadius=0mil|HoleSize=0mil|Usage=FLASHONLY|Rotation=225.000|XOffset=0mil|YOffset=0mil|HoleType=Round|Shape=Rectangle|*
%AMROTATEDRECTD28*
4,1,4,0.008,0.040,0.040,0.008,-0.008,-0.040,-0.040,-0.008,0.008,0.040,0.0*
%
%ADD28ROTATEDRECTD28*%

G04:AMPARAMS|DCode=29|XSize=69mil|YSize=45mil|CornerRadius=0mil|HoleSize=0mil|Usage=FLASHONLY|Rotation=315.000|XOffset=0mil|YOffset=0mil|HoleType=Round|Shape=Rectangle|*
%AMROTATEDRECTD29*
4,1,4,-0.040,0.008,-0.008,0.040,0.040,-0.008,0.008,-0.040,-0.040,0.008,0.0*
%
%ADD29ROTATEDRECTD29*%

%ADD30R,0.047X0.047*%
%ADD31R,0.047X0.047*%
G04:AMPARAMS|DCode=32|XSize=47mil|YSize=47mil|CornerRadius=0mil|HoleSize=0mil|Usage=FLASHONLY|Rotation=225.000|XOffset=0mil|YOffset=0mil|HoleType=Round|Shape=Rectangle|*
%AMROTATEDRECTD32*
4,1,4,0.000,0.033,0.033,0.000,0.000,-0.033,-0.033,0.000,0.000,0.033,0.0*
%
%ADD32ROTATEDRECTD32*%

G04:AMPARAMS|DCode=33|XSize=47mil|YSize=47mil|CornerRadius=0mil|HoleSize=0mil|Usage=FLASHONLY|Rotation=315.000|XOffset=0mil|YOffset=0mil|HoleType=Round|Shape=Rectangle|*
%AMROTATEDRECTD33*
4,1,4,-0.033,0.000,0.000,0.033,0.033,0.000,0.000,-0.033,-0.033,0.000,0.0*
%
%ADD33ROTATEDRECTD33*%

%ADD34O,0.022X0.010*%
%ADD35O,0.010X0.022*%
%ADD36C,0.010*%
%ADD37C,0.012*%
%ADD38C,0.009*%
%ADD39C,0.020*%
%ADD40C,0.030*%
%ADD41C,0.005*%
%ADD42R,0.047X0.047*%
%ADD43C,0.047*%
%ADD44C,0.060*%
%ADD45C,0.063*%
%ADD46R,0.060X0.060*%
%ADD47R,0.059X0.059*%
%ADD48R,0.059X0.059*%
%ADD49C,0.051*%
%ADD50C,0.039*%
%ADD51R,0.047X0.047*%
%ADD52O,0.100X0.050*%
%ADD53R,0.100X0.050*%
%ADD54C,0.031*%
%ADD55C,0.024*%
%ADD56C,0.026*%
%ADD57C,0.004*%
%ADD58C,0.010*%
%ADD59C,0.008*%
%ADD60C,0.024*%
%ADD61C,0.016*%
%ADD62C,0.001*%
%ADD63C,0.020*%
%ADD64C,0.006*%
%ADD65C,0.067*%
%ADD66R,0.043X0.045*%
%ADD67R,0.043X0.045*%
%ADD68R,0.053X0.077*%
%ADD69R,0.063X0.055*%
%ADD70R,0.063X0.051*%
%ADD71O,0.032X0.095*%
%ADD72R,0.047X0.102*%
%ADD73R,0.138X0.102*%
%ADD74O,0.073X0.030*%
%ADD75O,0.030X0.073*%
%ADD76R,0.051X0.063*%
%ADD77R,0.051X0.075*%
%ADD78R,0.075X0.051*%
%ADD79R,0.058X0.108*%
%ADD80R,0.065X0.102*%
%ADD81R,0.077X0.053*%
G04:AMPARAMS|DCode=82|XSize=77mil|YSize=53mil|CornerRadius=0mil|HoleSize=0mil|Usage=FLASHONLY|Rotation=225.000|XOffset=0mil|YOffset=0mil|HoleType=Round|Shape=Rectangle|*
%AMROTATEDRECTD82*
4,1,4,0.008,0.046,0.046,0.008,-0.008,-0.046,-0.046,-0.008,0.008,0.046,0.0*
%
%ADD82ROTATEDRECTD82*%

G04:AMPARAMS|DCode=83|XSize=77mil|YSize=53mil|CornerRadius=0mil|HoleSize=0mil|Usage=FLASHONLY|Rotation=315.000|XOffset=0mil|YOffset=0mil|HoleType=Round|Shape=Rectangle|*
%AMROTATEDRECTD83*
4,1,4,-0.046,0.008,-0.008,0.046,0.046,-0.008,0.008,-0.046,-0.046,0.008,0.0*
%
%ADD83ROTATEDRECTD83*%

%ADD84R,0.055X0.055*%
%ADD85R,0.055X0.055*%
G04:AMPARAMS|DCode=86|XSize=55mil|YSize=55mil|CornerRadius=0mil|HoleSize=0mil|Usage=FLASHONLY|Rotation=225.000|XOffset=0mil|YOffset=0mil|HoleType=Round|Shape=Rectangle|*
%AMROTATEDRECTD86*
4,1,4,0.000,0.039,0.039,0.000,0.000,-0.039,-0.039,0.000,0.000,0.039,0.0*
%
%ADD86ROTATEDRECTD86*%

G04:AMPARAMS|DCode=87|XSize=55mil|YSize=55mil|CornerRadius=0mil|HoleSize=0mil|Usage=FLASHONLY|Rotation=315.000|XOffset=0mil|YOffset=0mil|HoleType=Round|Shape=Rectangle|*
%AMROTATEDRECTD87*
4,1,4,-0.039,0.000,0.000,0.039,0.039,0.000,0.000,-0.039,-0.039,0.000,0.0*
%
%ADD87ROTATEDRECTD87*%

%ADD88O,0.030X0.018*%
%ADD89O,0.018X0.030*%
%ADD90R,0.055X0.055*%
%ADD91C,0.055*%
%ADD92C,0.068*%
%ADD93C,0.071*%
%ADD94R,0.068X0.068*%
%ADD95R,0.067X0.067*%
%ADD96R,0.067X0.067*%
%ADD97C,0.059*%
%ADD98C,0.047*%
%ADD99R,0.055X0.055*%
%ADD100O,0.108X0.058*%
%ADD101R,0.108X0.058*%
%ADD102C,0.032*%
%ADD103C,0.002*%
D36*
X-920Y2255D02*
G03*
X-920Y2305I0J25D01*
G01*
X-920Y2205D02*
Y2255D01*
X-750Y2180D02*
X-730Y2200D01*
X-920Y2255D02*
Y2780D01*
X1080Y1780D02*
Y2780D01*
X-920Y1780D02*
Y2205D01*
Y1780D02*
X1080D01*
X-920Y2780D02*
X1080D01*
X-920Y2380D02*
X-750D01*
X-730Y2360D01*
X-920Y2180D02*
X-750D01*
X-730Y2200D02*
Y2360D01*
X790Y1270D02*
Y1450D01*
X240D02*
X790D01*
X240Y1270D02*
Y1450D01*
Y1270D02*
X790D01*
X-550D02*
Y1450D01*
X-1100D02*
X-550D01*
X-1100Y1270D02*
Y1450D01*
Y1270D02*
X-550D01*
X-530Y-1450D02*
Y-1270D01*
X-1080D02*
X-530D01*
X-1080Y-1450D02*
Y-1270D01*
Y-1450D02*
X-530D01*
X780Y-1460D02*
Y-1280D01*
X230D02*
X780D01*
X230Y-1460D02*
Y-1280D01*
Y-1460D02*
X780D01*
X2965Y145D02*
X3145D01*
X2965Y-255D02*
Y145D01*
Y-255D02*
X3145D01*
Y145D01*
X-3140Y140D02*
X-2960D01*
X-3140Y-260D02*
Y140D01*
Y-260D02*
X-2960D01*
Y140D01*
X2080Y350D02*
X2480D01*
X2080D02*
Y530D01*
X2480D01*
Y350D02*
Y530D01*
X2094Y-661D02*
Y-481D01*
Y-661D02*
X2324D01*
Y-481D01*
X2094D02*
X2324D01*
X2950Y-175D02*
X2915D01*
Y-192D01*
X2921Y-198D01*
X2933D01*
X2938Y-192D01*
Y-175D01*
X2950Y-233D02*
Y-210D01*
X2927Y-233D01*
X2921D01*
X2915Y-227D01*
Y-216D01*
X2921Y-210D01*
X2950Y-245D02*
Y-257D01*
Y-251D01*
X2915D01*
X2921Y-245D01*
X729Y1500D02*
Y1465D01*
X746D01*
X752Y1471D01*
Y1483D01*
X746Y1488D01*
X729D01*
X764Y1471D02*
X770Y1465D01*
X781D01*
X787Y1471D01*
Y1477D01*
X781Y1483D01*
X787Y1488D01*
Y1494D01*
X781Y1500D01*
X770D01*
X764Y1494D01*
Y1488D01*
X770Y1483D01*
X764Y1477D01*
Y1471D01*
X770Y1483D02*
X781D01*
X-611Y1498D02*
Y1463D01*
X-594D01*
X-588Y1469D01*
Y1481D01*
X-594Y1486D01*
X-611D01*
X-576Y1492D02*
X-570Y1498D01*
X-559D01*
X-553Y1492D01*
Y1469D01*
X-559Y1463D01*
X-570D01*
X-576Y1469D01*
Y1475D01*
X-570Y1481D01*
X-553D01*
X-989Y-1498D02*
Y-1463D01*
X-1006D01*
X-1012Y-1469D01*
Y-1481D01*
X-1006Y-1486D01*
X-989D01*
X-1024Y-1498D02*
X-1036D01*
X-1030D01*
Y-1463D01*
X-1024Y-1469D01*
X-1053D02*
X-1059Y-1463D01*
X-1071D01*
X-1076Y-1469D01*
Y-1492D01*
X-1071Y-1498D01*
X-1059D01*
X-1053Y-1492D01*
Y-1469D01*
X305Y-1509D02*
Y-1474D01*
X288D01*
X282Y-1480D01*
Y-1492D01*
X288Y-1497D01*
X305D01*
X270Y-1509D02*
X258D01*
X264D01*
Y-1474D01*
X270Y-1480D01*
X241Y-1509D02*
X229D01*
X235D01*
Y-1474D01*
X241Y-1480D01*
X-2940Y50D02*
X-2905D01*
Y67D01*
X-2911Y73D01*
X-2923D01*
X-2928Y67D01*
Y50D01*
X-2940Y108D02*
Y85D01*
X-2917Y108D01*
X-2911D01*
X-2905Y102D01*
Y91D01*
X-2911Y85D01*
Y120D02*
X-2905Y126D01*
Y137D01*
X-2911Y143D01*
X-2934D01*
X-2940Y137D01*
Y126D01*
X-2934Y120D01*
X-2911D01*
X2060Y520D02*
X2025D01*
Y503D01*
X2031Y497D01*
X2043D01*
X2048Y503D01*
Y520D01*
X2060Y462D02*
Y485D01*
X2037Y462D01*
X2031D01*
X2025Y468D01*
Y479D01*
X2031Y485D01*
X2060Y427D02*
Y450D01*
X2037Y427D01*
X2031D01*
X2025Y433D01*
Y444D01*
X2031Y450D01*
X2320Y-460D02*
Y-425D01*
X2303D01*
X2297Y-431D01*
Y-443D01*
X2303Y-448D01*
X2320D01*
X2262Y-460D02*
X2285D01*
X2262Y-437D01*
Y-431D01*
X2268Y-425D01*
X2279D01*
X2285Y-431D01*
X2250D02*
X2244Y-425D01*
X2233D01*
X2227Y-431D01*
Y-437D01*
X2233Y-443D01*
X2238D01*
X2233D01*
X2227Y-448D01*
Y-454D01*
X2233Y-460D01*
X2244D01*
X2250Y-454D01*
X2905Y145D02*
X2945D01*
Y118D01*
X2905Y105D02*
Y92D01*
Y98D01*
X2945D01*
Y105D01*
Y92D01*
X2912Y45D02*
X2905Y52D01*
Y65D01*
X2912Y72D01*
X2938D01*
X2945Y65D01*
Y52D01*
X2938Y45D01*
X2925D01*
Y58D01*
X2905Y32D02*
X2945D01*
X2925D01*
Y5D01*
X2905D01*
X2945D01*
X2905Y-8D02*
Y-35D01*
Y-22D01*
X2945D01*
Y-115D02*
Y-88D01*
X2918Y-115D01*
X2912D01*
X2905Y-108D01*
Y-95D01*
X2912Y-88D01*
X-2900Y-260D02*
X-2940D01*
Y-233D01*
X-2900Y-220D02*
Y-207D01*
Y-213D01*
X-2940D01*
Y-220D01*
Y-207D01*
X-2907Y-160D02*
X-2900Y-167D01*
Y-180D01*
X-2907Y-187D01*
X-2933D01*
X-2940Y-180D01*
Y-167D01*
X-2933Y-160D01*
X-2920D01*
Y-173D01*
X-2900Y-147D02*
X-2940D01*
X-2920D01*
Y-120D01*
X-2900D01*
X-2940D01*
X-2900Y-107D02*
Y-80D01*
Y-93D01*
X-2940D01*
Y-27D02*
Y-13D01*
Y-20D01*
X-2900D01*
X-2907Y-27D01*
X2460Y300D02*
Y340D01*
X2440D01*
X2433Y333D01*
Y320D01*
X2440Y313D01*
X2460D01*
X2447D02*
X2433Y300D01*
X2420Y340D02*
X2393Y300D01*
Y340D02*
X2420Y300D01*
X2340Y340D02*
X2313D01*
X2327D01*
Y300D01*
X2300Y340D02*
X2273Y300D01*
Y340D02*
X2300Y300D01*
X2220Y320D02*
X2193D01*
X2140D02*
X2113D01*
X2127Y333D02*
Y307D01*
X2480Y590D02*
Y548D01*
X2472Y540D01*
X2455D01*
X2447Y548D01*
Y590D01*
X2430Y540D02*
Y573D01*
X2413Y590D01*
X2397Y573D01*
Y540D01*
Y565D01*
X2430D01*
X2380Y540D02*
Y590D01*
X2355D01*
X2347Y582D01*
Y565D01*
X2355Y557D01*
X2380D01*
X2363D02*
X2347Y540D01*
X2330Y590D02*
X2297D01*
X2313D01*
Y540D01*
X2280Y565D02*
X2247D01*
X2230Y590D02*
Y540D01*
X2205D01*
X2197Y548D01*
Y557D01*
X2205Y565D01*
X2230D01*
X2205D01*
X2197Y573D01*
Y582D01*
X2205Y590D01*
X2230D01*
X2180D02*
X2147D01*
X2163D01*
Y540D01*
X2280Y-695D02*
X2247D01*
X2263Y-678D02*
Y-712D01*
X2180Y-695D02*
X2147D01*
X2280Y-780D02*
Y-730D01*
X2255D01*
X2247Y-738D01*
Y-755D01*
X2255Y-763D01*
X2280D01*
X2230Y-730D02*
Y-780D01*
X2213Y-763D01*
X2197Y-780D01*
Y-730D01*
X2180Y-780D02*
Y-730D01*
X2155D01*
X2147Y-738D01*
Y-755D01*
X2155Y-763D01*
X2180D01*
X2163D02*
X2147Y-780D01*
X-540Y-1520D02*
Y-1470D01*
X-557Y-1487D01*
X-573Y-1470D01*
Y-1520D01*
X-615Y-1470D02*
X-598D01*
X-590Y-1478D01*
Y-1512D01*
X-598Y-1520D01*
X-615D01*
X-623Y-1512D01*
Y-1478D01*
X-615Y-1470D01*
X-640D02*
X-673D01*
X-657D01*
Y-1520D01*
X-715Y-1470D02*
X-698D01*
X-690Y-1478D01*
Y-1512D01*
X-698Y-1520D01*
X-715D01*
X-723Y-1512D01*
Y-1478D01*
X-715Y-1470D01*
X-740Y-1520D02*
Y-1470D01*
X-765D01*
X-773Y-1478D01*
Y-1495D01*
X-765Y-1503D01*
X-740D01*
X-757D02*
X-773Y-1520D01*
X-840Y-1478D02*
X-848Y-1470D01*
X-865D01*
X-873Y-1478D01*
Y-1487D01*
X-865Y-1495D01*
X-857D01*
X-865D01*
X-873Y-1503D01*
Y-1512D01*
X-865Y-1520D01*
X-848D01*
X-840Y-1512D01*
X-1100Y1520D02*
Y1470D01*
X-1083Y1487D01*
X-1067Y1470D01*
Y1520D01*
X-1025Y1470D02*
X-1042D01*
X-1050Y1478D01*
Y1512D01*
X-1042Y1520D01*
X-1025D01*
X-1017Y1512D01*
Y1478D01*
X-1025Y1470D01*
X-1000D02*
X-967D01*
X-983D01*
Y1520D01*
X-925Y1470D02*
X-942D01*
X-950Y1478D01*
Y1512D01*
X-942Y1520D01*
X-925D01*
X-917Y1512D01*
Y1478D01*
X-925Y1470D01*
X-900Y1520D02*
Y1470D01*
X-875D01*
X-867Y1478D01*
Y1495D01*
X-875Y1503D01*
X-900D01*
X-883D02*
X-867Y1520D01*
X-767D02*
X-800D01*
X-767Y1487D01*
Y1478D01*
X-775Y1470D01*
X-792D01*
X-800Y1478D01*
X240Y1520D02*
Y1470D01*
X257Y1487D01*
X273Y1470D01*
Y1520D01*
X315Y1470D02*
X298D01*
X290Y1478D01*
Y1512D01*
X298Y1520D01*
X315D01*
X323Y1512D01*
Y1478D01*
X315Y1470D01*
X340D02*
X373D01*
X357D01*
Y1520D01*
X415Y1470D02*
X398D01*
X390Y1478D01*
Y1512D01*
X398Y1520D01*
X415D01*
X423Y1512D01*
Y1478D01*
X415Y1470D01*
X440Y1520D02*
Y1470D01*
X465D01*
X473Y1478D01*
Y1495D01*
X465Y1503D01*
X440D01*
X457D02*
X473Y1520D01*
X540D02*
X557D01*
X548D01*
Y1470D01*
X540Y1478D01*
X760Y-1540D02*
Y-1490D01*
X743Y-1507D01*
X727Y-1490D01*
Y-1540D01*
X685Y-1490D02*
X702D01*
X710Y-1498D01*
Y-1532D01*
X702Y-1540D01*
X685D01*
X677Y-1532D01*
Y-1498D01*
X685Y-1490D01*
X660D02*
X627D01*
X643D01*
Y-1540D01*
X585Y-1490D02*
X602D01*
X610Y-1498D01*
Y-1532D01*
X602Y-1540D01*
X585D01*
X577Y-1532D01*
Y-1498D01*
X585Y-1490D01*
X560Y-1540D02*
Y-1490D01*
X535D01*
X527Y-1498D01*
Y-1515D01*
X535Y-1523D01*
X560D01*
X543D02*
X527Y-1540D01*
X435D02*
Y-1490D01*
X460Y-1515D01*
X427D01*
X-3570Y1868D02*
Y1892D01*
Y1880D01*
X-3512D01*
X-3500Y1892D01*
Y1903D01*
X-3512Y1915D01*
X-3547Y1845D02*
X-3512D01*
X-3500Y1833D01*
Y1798D01*
X-3547D01*
X-3500Y1775D02*
X-3547D01*
Y1740D01*
X-3535Y1728D01*
X-3500D01*
Y1705D02*
X-3547Y1658D01*
X-3500Y1588D02*
Y1635D01*
X-3547Y1588D01*
X-3558D01*
X-3570Y1600D01*
Y1623D01*
X-3558Y1635D01*
Y1565D02*
X-3570Y1553D01*
Y1530D01*
X-3558Y1518D01*
X-3512D01*
X-3500Y1530D01*
Y1553D01*
X-3512Y1565D01*
X-3558D01*
X-3500Y1495D02*
Y1472D01*
Y1483D01*
X-3570D01*
X-3558Y1495D01*
Y1437D02*
X-3570Y1425D01*
Y1402D01*
X-3558Y1390D01*
X-3547D01*
X-3535Y1402D01*
Y1413D01*
Y1402D01*
X-3523Y1390D01*
X-3512D01*
X-3500Y1402D01*
Y1425D01*
X-3512Y1437D01*
X-3445Y1905D02*
X-3398D01*
X-3375Y1882D01*
X-3398Y1858D01*
X-3445D01*
X-3375Y1835D02*
Y1812D01*
Y1823D01*
X-3445D01*
X-3433Y1835D01*
X-3375Y1777D02*
X-3387D01*
Y1765D01*
X-3375D01*
Y1777D01*
X-3433Y1718D02*
X-3445Y1707D01*
Y1683D01*
X-3433Y1672D01*
X-3387D01*
X-3375Y1683D01*
Y1707D01*
X-3387Y1718D01*
X-3433D01*
X281Y1255D02*
Y1225D01*
X291Y1235D01*
X301Y1225D01*
Y1255D01*
X311Y1240D02*
X331D01*
X321Y1230D02*
Y1250D01*
X371Y1255D02*
Y1225D01*
X381Y1235D01*
X391Y1225D01*
Y1255D01*
X401Y1240D02*
X421D01*
X461D02*
X481D01*
X471Y1230D02*
Y1250D01*
X551Y1240D02*
X571D01*
X661Y1225D02*
X641D01*
Y1255D01*
X661D01*
X641Y1240D02*
X651D01*
X671D02*
X691D01*
X681Y1230D02*
Y1250D01*
X751Y1225D02*
X731D01*
Y1255D01*
X751D01*
X731Y1240D02*
X741D01*
X761D02*
X781D01*
X-1052Y1254D02*
Y1224D01*
X-1042Y1234D01*
X-1032Y1224D01*
Y1254D01*
X-1022Y1239D02*
X-1002D01*
X-1012Y1229D02*
Y1249D01*
X-962Y1254D02*
Y1224D01*
X-952Y1234D01*
X-942Y1224D01*
Y1254D01*
X-932Y1239D02*
X-912D01*
X-872D02*
X-852D01*
X-862Y1229D02*
Y1249D01*
X-782Y1239D02*
X-762D01*
X-672Y1224D02*
X-692D01*
Y1254D01*
X-672D01*
X-692Y1239D02*
X-682D01*
X-662D02*
X-642D01*
X-652Y1229D02*
Y1249D01*
X-582Y1224D02*
X-602D01*
Y1254D01*
X-582D01*
X-602Y1239D02*
X-592D01*
X-572D02*
X-552D01*
X-577Y-1255D02*
Y-1225D01*
X-587Y-1235D01*
X-597Y-1225D01*
Y-1255D01*
X-607Y-1240D02*
X-627D01*
X-617Y-1230D02*
Y-1250D01*
X-667Y-1255D02*
Y-1225D01*
X-677Y-1235D01*
X-687Y-1225D01*
Y-1255D01*
X-697Y-1240D02*
X-717D01*
X-757D02*
X-777D01*
X-767Y-1230D02*
Y-1250D01*
X-847Y-1240D02*
X-867D01*
X-957Y-1225D02*
X-937D01*
Y-1255D01*
X-957D01*
X-937Y-1240D02*
X-947D01*
X-967D02*
X-987D01*
X-977Y-1230D02*
Y-1250D01*
X-1047Y-1225D02*
X-1027D01*
Y-1255D01*
X-1047D01*
X-1027Y-1240D02*
X-1037D01*
X-1057D02*
X-1077D01*
X735Y-1262D02*
Y-1232D01*
X725Y-1242D01*
X715Y-1232D01*
Y-1262D01*
X705Y-1247D02*
X685D01*
X695Y-1237D02*
Y-1257D01*
X645Y-1262D02*
Y-1232D01*
X635Y-1242D01*
X625Y-1232D01*
Y-1262D01*
X615Y-1247D02*
X595D01*
X555D02*
X535D01*
X545Y-1237D02*
Y-1257D01*
X465Y-1247D02*
X445D01*
X355Y-1232D02*
X375D01*
Y-1262D01*
X355D01*
X375Y-1247D02*
X365D01*
X345D02*
X325D01*
X335Y-1237D02*
Y-1257D01*
X265Y-1232D02*
X285D01*
Y-1262D01*
X265D01*
X285Y-1247D02*
X275D01*
X255D02*
X235D01*
D41*
X2363Y-3740D02*
G03*
X3741Y-2362I0J1378D01*
G01*
X-3739D02*
G03*
X-2362Y-3740I1378J0D01*
G01*
Y3740D02*
G03*
X-3739Y2362I0J-1378D01*
G01*
X3741D02*
G03*
X2363Y3740I-1378J0D01*
G01*
X-2362Y-3740D02*
X2363D01*
X-3739Y-2362D02*
Y2362D01*
X-2362Y3740D02*
X2363D01*
X3741Y-2362D02*
Y2362D01*
D103*
X-3346Y-938D02*
Y-38D01*
Y58D02*
Y886D01*
X-3348Y-948D02*
Y-36D01*
Y54D02*
Y896D01*
X-3350Y-954D02*
Y-34D01*
Y54D02*
Y902D01*
X-3352Y-958D02*
Y-32D01*
Y52D02*
Y906D01*
X-3354Y-962D02*
Y-32D01*
Y52D02*
Y910D01*
X-3356Y-966D02*
Y-32D01*
Y52D02*
Y914D01*
X-3358Y-968D02*
Y-32D01*
Y52D02*
Y916D01*
X-3360Y-970D02*
Y-32D01*
Y52D02*
Y918D01*
X-3362Y-974D02*
Y-34D01*
Y54D02*
Y922D01*
X-3364Y-976D02*
Y-36D01*
Y54D02*
Y924D01*
X-3366Y-978D02*
Y-38D01*
Y58D02*
Y926D01*
X-3368Y-980D02*
Y-940D01*
Y-98D02*
Y-52D01*
Y72D02*
Y118D01*
Y888D02*
Y928D01*
X-3370Y-982D02*
Y-946D01*
Y-100D02*
Y-58D01*
Y76D02*
Y118D01*
Y894D02*
Y930D01*
X-3372Y-982D02*
Y-952D01*
Y-102D02*
Y-60D01*
Y80D02*
Y120D01*
Y900D02*
Y930D01*
X-3374Y-984D02*
Y-954D01*
Y-102D02*
Y-64D01*
Y82D02*
Y122D01*
Y902D02*
Y932D01*
X-3376Y-986D02*
Y-958D01*
Y-104D02*
Y-66D01*
Y84D02*
Y124D01*
Y906D02*
Y934D01*
X-3378Y-988D02*
Y-960D01*
Y-106D02*
Y-68D01*
Y86D02*
Y124D01*
Y908D02*
Y936D01*
X-3380Y-988D02*
Y-962D01*
Y-106D02*
Y-70D01*
Y88D02*
Y126D01*
Y910D02*
Y936D01*
X-3382Y-990D02*
Y-964D01*
Y-108D02*
Y-72D01*
Y90D02*
Y128D01*
Y912D02*
Y938D01*
X-3384Y-990D02*
Y-966D01*
Y-760D02*
Y-716D01*
Y-586D02*
Y-540D01*
Y-454D02*
Y-366D01*
Y-226D02*
Y-202D01*
Y-108D02*
Y-74D01*
Y92D02*
Y128D01*
Y168D02*
Y192D01*
Y274D02*
Y298D01*
Y344D02*
Y430D01*
Y518D02*
Y542D01*
Y610D02*
Y634D01*
Y702D02*
Y728D01*
Y914D02*
Y938D01*
X-3386Y-992D02*
Y-968D01*
Y-768D02*
Y-708D01*
Y-594D02*
Y-534D01*
Y-454D02*
Y-358D01*
Y-226D02*
Y-202D01*
Y-110D02*
Y-74D01*
Y94D02*
Y130D01*
Y168D02*
Y192D01*
Y274D02*
Y298D01*
Y344D02*
Y438D01*
Y518D02*
Y542D01*
Y610D02*
Y634D01*
Y702D02*
Y728D01*
Y916D02*
Y940D01*
X-3388Y-992D02*
Y-968D01*
Y-772D02*
Y-704D01*
Y-598D02*
Y-528D01*
Y-454D02*
Y-354D01*
Y-226D02*
Y-202D01*
Y-110D02*
Y-76D01*
Y96D02*
Y130D01*
Y168D02*
Y192D01*
Y274D02*
Y298D01*
Y344D02*
Y444D01*
Y518D02*
Y542D01*
Y610D02*
Y634D01*
Y702D02*
Y728D01*
Y916D02*
Y940D01*
X-3390Y-994D02*
Y-970D01*
Y-776D02*
Y-700D01*
Y-602D02*
Y-524D01*
Y-454D02*
Y-350D01*
Y-226D02*
Y-202D01*
Y-112D02*
Y-78D01*
Y96D02*
Y130D01*
Y168D02*
Y192D01*
Y274D02*
Y298D01*
Y344D02*
Y448D01*
Y518D02*
Y542D01*
Y610D02*
Y634D01*
Y702D02*
Y728D01*
Y918D02*
Y942D01*
X-3392Y-994D02*
Y-972D01*
Y-780D02*
Y-696D01*
Y-606D02*
Y-522D01*
Y-454D02*
Y-346D01*
Y-226D02*
Y-202D01*
Y-112D02*
Y-78D01*
Y98D02*
Y132D01*
Y168D02*
Y192D01*
Y274D02*
Y298D01*
Y344D02*
Y450D01*
Y518D02*
Y542D01*
Y610D02*
Y634D01*
Y702D02*
Y728D01*
Y920D02*
Y942D01*
X-3394Y-994D02*
Y-972D01*
Y-782D02*
Y-694D01*
Y-608D02*
Y-518D01*
Y-454D02*
Y-344D01*
Y-226D02*
Y-202D01*
Y-112D02*
Y-80D01*
Y98D02*
Y132D01*
Y168D02*
Y192D01*
Y274D02*
Y298D01*
Y344D02*
Y452D01*
Y518D02*
Y542D01*
Y610D02*
Y634D01*
Y702D02*
Y728D01*
Y920D02*
Y942D01*
X-3396Y-996D02*
Y-972D01*
Y-784D02*
Y-692D01*
Y-610D02*
Y-516D01*
Y-454D02*
Y-342D01*
Y-226D02*
Y-202D01*
Y-114D02*
Y-80D01*
Y100D02*
Y132D01*
Y168D02*
Y192D01*
Y274D02*
Y298D01*
Y344D02*
Y456D01*
Y518D02*
Y542D01*
Y610D02*
Y634D01*
Y702D02*
Y728D01*
Y920D02*
Y944D01*
X-3398Y-996D02*
Y-974D01*
Y-788D02*
Y-688D01*
Y-612D02*
Y-514D01*
Y-454D02*
Y-340D01*
Y-226D02*
Y-202D01*
Y-114D02*
Y-80D01*
Y100D02*
Y134D01*
Y168D02*
Y192D01*
Y274D02*
Y298D01*
Y344D02*
Y458D01*
Y518D02*
Y542D01*
Y610D02*
Y634D01*
Y702D02*
Y728D01*
Y922D02*
Y944D01*
X-3400Y-996D02*
Y-974D01*
Y-790D02*
Y-686D01*
Y-614D02*
Y-512D01*
Y-454D02*
Y-338D01*
Y-226D02*
Y-202D01*
Y-114D02*
Y-82D01*
Y102D02*
Y134D01*
Y168D02*
Y192D01*
Y274D02*
Y298D01*
Y344D02*
Y460D01*
Y518D02*
Y542D01*
Y610D02*
Y634D01*
Y702D02*
Y728D01*
Y922D02*
Y944D01*
X-3402Y-996D02*
Y-974D01*
Y-790D02*
Y-686D01*
Y-616D02*
Y-510D01*
Y-454D02*
Y-336D01*
Y-226D02*
Y-202D01*
Y-114D02*
Y-82D01*
Y102D02*
Y134D01*
Y168D02*
Y192D01*
Y274D02*
Y298D01*
Y344D02*
Y462D01*
Y518D02*
Y542D01*
Y610D02*
Y634D01*
Y702D02*
Y728D01*
Y922D02*
Y944D01*
X-3404Y-996D02*
Y-976D01*
Y-792D02*
Y-684D01*
Y-618D02*
Y-508D01*
Y-454D02*
Y-334D01*
Y-226D02*
Y-202D01*
Y-116D02*
Y-82D01*
Y102D02*
Y134D01*
Y168D02*
Y192D01*
Y274D02*
Y298D01*
Y344D02*
Y462D01*
Y518D02*
Y542D01*
Y610D02*
Y634D01*
Y702D02*
Y728D01*
Y924D02*
Y944D01*
X-3406Y-998D02*
Y-976D01*
Y-794D02*
Y-682D01*
Y-620D02*
Y-508D01*
Y-454D02*
Y-332D01*
Y-226D02*
Y-202D01*
Y-116D02*
Y-82D01*
Y102D02*
Y134D01*
Y168D02*
Y192D01*
Y274D02*
Y298D01*
Y344D02*
Y464D01*
Y518D02*
Y542D01*
Y610D02*
Y634D01*
Y702D02*
Y728D01*
Y924D02*
Y946D01*
X-3408Y-998D02*
Y-976D01*
Y-796D02*
Y-756D01*
Y-720D02*
Y-680D01*
Y-620D02*
Y-582D01*
Y-544D02*
Y-506D01*
Y-370D02*
Y-332D01*
Y-226D02*
Y-202D01*
Y-116D02*
Y-84D01*
Y102D02*
Y136D01*
Y168D02*
Y192D01*
Y274D02*
Y298D01*
Y426D02*
Y466D01*
Y518D02*
Y542D01*
Y610D02*
Y634D01*
Y702D02*
Y728D01*
Y924D02*
Y946D01*
X-3410Y-998D02*
Y-976D01*
Y-796D02*
Y-764D01*
Y-712D02*
Y-680D01*
Y-622D02*
Y-588D01*
Y-538D02*
Y-504D01*
Y-364D02*
Y-330D01*
Y-226D02*
Y-202D01*
Y-116D02*
Y-84D01*
Y102D02*
Y136D01*
Y168D02*
Y192D01*
Y274D02*
Y298D01*
Y434D02*
Y466D01*
Y518D02*
Y542D01*
Y610D02*
Y634D01*
Y702D02*
Y728D01*
Y924D02*
Y946D01*
X-3412Y-998D02*
Y-976D01*
Y-798D02*
Y-766D01*
Y-710D02*
Y-678D01*
Y-624D02*
Y-592D01*
Y-534D02*
Y-504D01*
Y-360D02*
Y-330D01*
Y-226D02*
Y-202D01*
Y-116D02*
Y-84D01*
Y102D02*
Y136D01*
Y168D02*
Y194D01*
Y274D02*
Y298D01*
Y438D02*
Y468D01*
Y518D02*
Y542D01*
Y610D02*
Y634D01*
Y702D02*
Y728D01*
Y924D02*
Y946D01*
X-3414Y-998D02*
Y-976D01*
Y-798D02*
Y-770D01*
Y-706D02*
Y-678D01*
Y-624D02*
Y-594D01*
Y-532D02*
Y-502D01*
Y-358D02*
Y-328D01*
Y-226D02*
Y-202D01*
Y-116D02*
Y-84D01*
Y102D02*
Y136D01*
Y168D02*
Y194D01*
Y274D02*
Y298D01*
Y440D02*
Y468D01*
Y518D02*
Y542D01*
Y610D02*
Y634D01*
Y702D02*
Y728D01*
Y924D02*
Y946D01*
X-3416Y-998D02*
Y-976D01*
Y-800D02*
Y-772D01*
Y-704D02*
Y-676D01*
Y-624D02*
Y-596D01*
Y-530D02*
Y-502D01*
Y-356D02*
Y-328D01*
Y-226D02*
Y-202D01*
Y-116D02*
Y-84D01*
Y102D02*
Y136D01*
Y168D02*
Y194D01*
Y274D02*
Y298D01*
Y442D02*
Y470D01*
Y518D02*
Y542D01*
Y610D02*
Y634D01*
Y702D02*
Y728D01*
Y924D02*
Y946D01*
X-3418Y-998D02*
Y-976D01*
Y-800D02*
Y-774D01*
Y-702D02*
Y-676D01*
Y-626D02*
Y-598D01*
Y-528D02*
Y-502D01*
Y-354D02*
Y-326D01*
Y-226D02*
Y-202D01*
Y-116D02*
Y-84D01*
Y102D02*
Y136D01*
Y170D02*
Y194D01*
Y274D02*
Y298D01*
Y444D02*
Y470D01*
Y518D02*
Y542D01*
Y610D02*
Y634D01*
Y702D02*
Y728D01*
Y924D02*
Y946D01*
X-3420Y-998D02*
Y-976D01*
Y-802D02*
Y-774D01*
Y-702D02*
Y-676D01*
Y-626D02*
Y-600D01*
Y-526D02*
Y-500D01*
Y-352D02*
Y-326D01*
Y-226D02*
Y-202D01*
Y-116D02*
Y-84D01*
Y102D02*
Y136D01*
Y170D02*
Y196D01*
Y274D02*
Y298D01*
Y444D02*
Y472D01*
Y518D02*
Y542D01*
Y610D02*
Y634D01*
Y702D02*
Y728D01*
Y924D02*
Y946D01*
X-3422Y-998D02*
Y-976D01*
Y-802D02*
Y-776D01*
Y-700D02*
Y-674D01*
Y-626D02*
Y-602D01*
Y-526D02*
Y-500D01*
Y-352D02*
Y-326D01*
Y-226D02*
Y-202D01*
Y-116D02*
Y-84D01*
Y102D02*
Y136D01*
Y170D02*
Y196D01*
Y274D02*
Y298D01*
Y446D02*
Y472D01*
Y518D02*
Y542D01*
Y610D02*
Y634D01*
Y702D02*
Y728D01*
Y924D02*
Y946D01*
X-3424Y-998D02*
Y-976D01*
Y-802D02*
Y-776D01*
Y-700D02*
Y-674D01*
Y-628D02*
Y-602D01*
Y-524D02*
Y-500D01*
Y-350D02*
Y-324D01*
Y-226D02*
Y-202D01*
Y-116D02*
Y-84D01*
Y102D02*
Y136D01*
Y170D02*
Y198D01*
Y274D02*
Y298D01*
Y448D02*
Y472D01*
Y518D02*
Y542D01*
Y610D02*
Y634D01*
Y702D02*
Y728D01*
Y924D02*
Y946D01*
X-3426Y-996D02*
Y-976D01*
Y-802D02*
Y-778D01*
Y-698D02*
Y-674D01*
Y-628D02*
Y-602D01*
Y-524D02*
Y-500D01*
Y-350D02*
Y-324D01*
Y-226D02*
Y-202D01*
Y-116D02*
Y-84D01*
Y102D02*
Y136D01*
Y172D02*
Y198D01*
Y274D02*
Y298D01*
Y448D02*
Y472D01*
Y518D02*
Y542D01*
Y610D02*
Y634D01*
Y702D02*
Y728D01*
Y924D02*
Y946D01*
X-3428Y-996D02*
Y-974D01*
Y-802D02*
Y-778D01*
Y-698D02*
Y-674D01*
Y-628D02*
Y-604D01*
Y-524D02*
Y-498D01*
Y-348D02*
Y-324D01*
Y-226D02*
Y-202D01*
Y-116D02*
Y-84D01*
Y102D02*
Y136D01*
Y172D02*
Y200D01*
Y274D02*
Y298D01*
Y448D02*
Y472D01*
Y518D02*
Y542D01*
Y610D02*
Y634D01*
Y702D02*
Y728D01*
Y924D02*
Y946D01*
X-3430Y-996D02*
Y-974D01*
Y-804D02*
Y-778D01*
Y-698D02*
Y-674D01*
Y-628D02*
Y-604D01*
Y-524D02*
Y-498D01*
Y-348D02*
Y-324D01*
Y-226D02*
Y-202D01*
Y-116D02*
Y-84D01*
Y102D02*
Y136D01*
Y174D02*
Y202D01*
Y274D02*
Y298D01*
Y448D02*
Y474D01*
Y518D02*
Y542D01*
Y610D02*
Y634D01*
Y702D02*
Y728D01*
Y924D02*
Y946D01*
X-3432Y-996D02*
Y-974D01*
Y-804D02*
Y-778D01*
Y-698D02*
Y-674D01*
Y-628D02*
Y-604D01*
Y-522D02*
Y-498D01*
Y-348D02*
Y-324D01*
Y-226D02*
Y-202D01*
Y-116D02*
Y-84D01*
Y102D02*
Y136D01*
Y174D02*
Y206D01*
Y274D02*
Y298D01*
Y448D02*
Y474D01*
Y518D02*
Y542D01*
Y610D02*
Y634D01*
Y702D02*
Y728D01*
Y924D02*
Y946D01*
X-3434Y-994D02*
Y-972D01*
Y-804D02*
Y-778D01*
Y-698D02*
Y-672D01*
Y-628D02*
Y-604D01*
Y-522D02*
Y-498D01*
Y-348D02*
Y-324D01*
Y-226D02*
Y-202D01*
Y-116D02*
Y-84D01*
Y102D02*
Y136D01*
Y176D02*
Y210D01*
Y274D02*
Y298D01*
Y448D02*
Y474D01*
Y518D02*
Y542D01*
Y610D02*
Y634D01*
Y702D02*
Y728D01*
Y924D02*
Y946D01*
X-3436Y-994D02*
Y-972D01*
Y-804D02*
Y-778D01*
Y-698D02*
Y-672D01*
Y-628D02*
Y-604D01*
Y-522D02*
Y-498D01*
Y-348D02*
Y-324D01*
Y-226D02*
Y-202D01*
Y-116D02*
Y-84D01*
Y102D02*
Y136D01*
Y176D02*
Y218D01*
Y274D02*
Y298D01*
Y448D02*
Y474D01*
Y518D02*
Y542D01*
Y610D02*
Y634D01*
Y702D02*
Y728D01*
Y924D02*
Y946D01*
X-3438Y-994D02*
Y-970D01*
Y-804D02*
Y-778D01*
Y-698D02*
Y-672D01*
Y-628D02*
Y-604D01*
Y-522D02*
Y-498D01*
Y-348D02*
Y-324D01*
Y-226D02*
Y-202D01*
Y-116D02*
Y-84D01*
Y102D02*
Y136D01*
Y178D02*
Y298D01*
Y448D02*
Y474D01*
Y518D02*
Y542D01*
Y610D02*
Y634D01*
Y702D02*
Y728D01*
Y924D02*
Y946D01*
X-3440Y-992D02*
Y-970D01*
Y-804D02*
Y-778D01*
Y-698D02*
Y-672D01*
Y-628D02*
Y-604D01*
Y-522D02*
Y-498D01*
Y-348D02*
Y-324D01*
Y-226D02*
Y-202D01*
Y-116D02*
Y-84D01*
Y102D02*
Y136D01*
Y180D02*
Y298D01*
Y448D02*
Y474D01*
Y518D02*
Y542D01*
Y610D02*
Y634D01*
Y702D02*
Y728D01*
Y924D02*
Y946D01*
X-3442Y-992D02*
Y-968D01*
Y-804D02*
Y-778D01*
Y-698D02*
Y-672D01*
Y-628D02*
Y-604D01*
Y-522D02*
Y-498D01*
Y-348D02*
Y-324D01*
Y-226D02*
Y-202D01*
Y-116D02*
Y-84D01*
Y-10D02*
Y28D01*
Y102D02*
Y136D01*
Y182D02*
Y298D01*
Y448D02*
Y474D01*
Y518D02*
Y542D01*
Y610D02*
Y634D01*
Y702D02*
Y728D01*
Y924D02*
Y946D01*
X-3444Y-992D02*
Y-966D01*
Y-804D02*
Y-778D01*
Y-698D02*
Y-672D01*
Y-628D02*
Y-604D01*
Y-522D02*
Y-498D01*
Y-348D02*
Y-324D01*
Y-226D02*
Y-202D01*
Y-116D02*
Y-84D01*
Y-12D02*
Y32D01*
Y102D02*
Y136D01*
Y184D02*
Y298D01*
Y448D02*
Y474D01*
Y518D02*
Y542D01*
Y610D02*
Y634D01*
Y702D02*
Y728D01*
Y924D02*
Y946D01*
X-3446Y-990D02*
Y-964D01*
Y-804D02*
Y-778D01*
Y-698D02*
Y-672D01*
Y-628D02*
Y-604D01*
Y-522D02*
Y-498D01*
Y-348D02*
Y-324D01*
Y-226D02*
Y-202D01*
Y-116D02*
Y-84D01*
Y-14D02*
Y34D01*
Y102D02*
Y136D01*
Y186D02*
Y298D01*
Y448D02*
Y474D01*
Y518D02*
Y542D01*
Y610D02*
Y634D01*
Y702D02*
Y728D01*
Y924D02*
Y946D01*
X-3448Y-988D02*
Y-964D01*
Y-804D02*
Y-778D01*
Y-698D02*
Y-672D01*
Y-522D02*
Y-498D01*
Y-348D02*
Y-324D01*
Y-226D02*
Y-202D01*
Y-116D02*
Y-84D01*
Y-16D02*
Y34D01*
Y102D02*
Y136D01*
Y186D02*
Y298D01*
Y448D02*
Y474D01*
Y518D02*
Y542D01*
Y610D02*
Y634D01*
Y702D02*
Y728D01*
Y924D02*
Y946D01*
X-3450Y-988D02*
Y-962D01*
Y-804D02*
Y-778D01*
Y-698D02*
Y-672D01*
Y-522D02*
Y-498D01*
Y-348D02*
Y-324D01*
Y-226D02*
Y-202D01*
Y-116D02*
Y-84D01*
Y-16D02*
Y36D01*
Y102D02*
Y136D01*
Y186D02*
Y298D01*
Y448D02*
Y474D01*
Y518D02*
Y542D01*
Y610D02*
Y634D01*
Y702D02*
Y728D01*
Y924D02*
Y946D01*
X-3452Y-986D02*
Y-958D01*
Y-804D02*
Y-778D01*
Y-698D02*
Y-672D01*
Y-522D02*
Y-498D01*
Y-348D02*
Y-324D01*
Y-226D02*
Y-202D01*
Y-116D02*
Y-84D01*
Y-16D02*
Y36D01*
Y102D02*
Y136D01*
Y184D02*
Y298D01*
Y448D02*
Y474D01*
Y518D02*
Y542D01*
Y610D02*
Y634D01*
Y702D02*
Y728D01*
Y924D02*
Y946D01*
X-3454Y-986D02*
Y-956D01*
Y-804D02*
Y-778D01*
Y-698D02*
Y-672D01*
Y-522D02*
Y-498D01*
Y-348D02*
Y-324D01*
Y-226D02*
Y-202D01*
Y-116D02*
Y-84D01*
Y-16D02*
Y36D01*
Y102D02*
Y136D01*
Y182D02*
Y298D01*
Y448D02*
Y474D01*
Y518D02*
Y542D01*
Y610D02*
Y634D01*
Y702D02*
Y728D01*
Y924D02*
Y946D01*
X-3456Y-984D02*
Y-952D01*
Y-804D02*
Y-778D01*
Y-698D02*
Y-672D01*
Y-522D02*
Y-498D01*
Y-348D02*
Y-324D01*
Y-226D02*
Y-202D01*
Y-116D02*
Y-84D01*
Y-16D02*
Y36D01*
Y102D02*
Y136D01*
Y180D02*
Y298D01*
Y448D02*
Y474D01*
Y518D02*
Y542D01*
Y610D02*
Y634D01*
Y702D02*
Y728D01*
Y924D02*
Y946D01*
X-3458Y-982D02*
Y-950D01*
Y-804D02*
Y-778D01*
Y-698D02*
Y-672D01*
Y-522D02*
Y-498D01*
Y-348D02*
Y-324D01*
Y-226D02*
Y-202D01*
Y-116D02*
Y-84D01*
Y-16D02*
Y36D01*
Y102D02*
Y136D01*
Y178D02*
Y298D01*
Y448D02*
Y474D01*
Y518D02*
Y542D01*
Y610D02*
Y634D01*
Y702D02*
Y728D01*
Y924D02*
Y946D01*
X-3460Y-980D02*
Y-944D01*
Y-804D02*
Y-778D01*
Y-698D02*
Y-672D01*
Y-522D02*
Y-498D01*
Y-348D02*
Y-324D01*
Y-226D02*
Y-202D01*
Y-116D02*
Y-84D01*
Y-16D02*
Y36D01*
Y102D02*
Y136D01*
Y176D02*
Y298D01*
Y448D02*
Y474D01*
Y518D02*
Y542D01*
Y610D02*
Y634D01*
Y702D02*
Y728D01*
Y924D02*
Y946D01*
X-3462Y-978D02*
Y-934D01*
Y-804D02*
Y-778D01*
Y-698D02*
Y-672D01*
Y-522D02*
Y-498D01*
Y-348D02*
Y-324D01*
Y-226D02*
Y-202D01*
Y-116D02*
Y-84D01*
Y-16D02*
Y36D01*
Y102D02*
Y136D01*
Y176D02*
Y210D01*
Y274D02*
Y298D01*
Y448D02*
Y474D01*
Y518D02*
Y542D01*
Y610D02*
Y634D01*
Y702D02*
Y728D01*
Y924D02*
Y946D01*
X-3464Y-976D02*
Y-874D01*
Y-804D02*
Y-778D01*
Y-698D02*
Y-672D01*
Y-522D02*
Y-498D01*
Y-428D02*
Y-324D01*
Y-226D02*
Y-202D01*
Y-116D02*
Y-84D01*
Y-16D02*
Y36D01*
Y102D02*
Y136D01*
Y174D02*
Y206D01*
Y274D02*
Y298D01*
Y370D02*
Y474D01*
Y518D02*
Y542D01*
Y610D02*
Y634D01*
Y702D02*
Y728D01*
Y808D02*
Y946D01*
X-3466Y-974D02*
Y-868D01*
Y-804D02*
Y-778D01*
Y-698D02*
Y-672D01*
Y-522D02*
Y-498D01*
Y-428D02*
Y-324D01*
Y-226D02*
Y-202D01*
Y-116D02*
Y-84D01*
Y-16D02*
Y36D01*
Y102D02*
Y136D01*
Y174D02*
Y204D01*
Y274D02*
Y298D01*
Y370D02*
Y474D01*
Y518D02*
Y542D01*
Y610D02*
Y634D01*
Y702D02*
Y728D01*
Y808D02*
Y946D01*
X-3468Y-972D02*
Y-862D01*
Y-804D02*
Y-778D01*
Y-698D02*
Y-672D01*
Y-522D02*
Y-498D01*
Y-428D02*
Y-324D01*
Y-226D02*
Y-202D01*
Y-116D02*
Y-84D01*
Y-16D02*
Y36D01*
Y102D02*
Y136D01*
Y172D02*
Y202D01*
Y274D02*
Y298D01*
Y370D02*
Y474D01*
Y518D02*
Y542D01*
Y610D02*
Y634D01*
Y702D02*
Y728D01*
Y808D02*
Y946D01*
X-3470Y-970D02*
Y-858D01*
Y-804D02*
Y-778D01*
Y-698D02*
Y-672D01*
Y-522D02*
Y-498D01*
Y-428D02*
Y-324D01*
Y-226D02*
Y-202D01*
Y-116D02*
Y-84D01*
Y-16D02*
Y36D01*
Y102D02*
Y136D01*
Y172D02*
Y200D01*
Y274D02*
Y298D01*
Y370D02*
Y474D01*
Y518D02*
Y542D01*
Y610D02*
Y634D01*
Y702D02*
Y728D01*
Y808D02*
Y946D01*
X-3472Y-966D02*
Y-854D01*
Y-804D02*
Y-778D01*
Y-698D02*
Y-672D01*
Y-522D02*
Y-498D01*
Y-428D02*
Y-324D01*
Y-226D02*
Y-202D01*
Y-116D02*
Y-84D01*
Y-16D02*
Y36D01*
Y102D02*
Y136D01*
Y170D02*
Y198D01*
Y274D02*
Y298D01*
Y370D02*
Y474D01*
Y518D02*
Y542D01*
Y610D02*
Y634D01*
Y702D02*
Y728D01*
Y808D02*
Y946D01*
X-3474Y-964D02*
Y-852D01*
Y-804D02*
Y-778D01*
Y-698D02*
Y-672D01*
Y-522D02*
Y-498D01*
Y-428D02*
Y-324D01*
Y-226D02*
Y-202D01*
Y-116D02*
Y-84D01*
Y-16D02*
Y36D01*
Y102D02*
Y136D01*
Y170D02*
Y196D01*
Y274D02*
Y298D01*
Y370D02*
Y474D01*
Y518D02*
Y542D01*
Y610D02*
Y634D01*
Y702D02*
Y728D01*
Y808D02*
Y946D01*
X-3476Y-960D02*
Y-848D01*
Y-804D02*
Y-778D01*
Y-698D02*
Y-672D01*
Y-522D02*
Y-498D01*
Y-428D02*
Y-324D01*
Y-226D02*
Y-202D01*
Y-116D02*
Y-84D01*
Y-16D02*
Y36D01*
Y102D02*
Y136D01*
Y170D02*
Y196D01*
Y274D02*
Y298D01*
Y370D02*
Y474D01*
Y518D02*
Y542D01*
Y610D02*
Y634D01*
Y702D02*
Y728D01*
Y808D02*
Y946D01*
X-3478Y-956D02*
Y-846D01*
Y-804D02*
Y-778D01*
Y-698D02*
Y-672D01*
Y-522D02*
Y-498D01*
Y-428D02*
Y-324D01*
Y-226D02*
Y-202D01*
Y-116D02*
Y-84D01*
Y-16D02*
Y36D01*
Y102D02*
Y136D01*
Y170D02*
Y194D01*
Y274D02*
Y298D01*
Y370D02*
Y474D01*
Y518D02*
Y542D01*
Y610D02*
Y634D01*
Y702D02*
Y728D01*
Y808D02*
Y946D01*
X-3480Y-952D02*
Y-844D01*
Y-804D02*
Y-778D01*
Y-698D02*
Y-672D01*
Y-522D02*
Y-498D01*
Y-428D02*
Y-324D01*
Y-226D02*
Y-202D01*
Y-116D02*
Y-84D01*
Y-16D02*
Y36D01*
Y102D02*
Y136D01*
Y170D02*
Y194D01*
Y274D02*
Y298D01*
Y370D02*
Y474D01*
Y518D02*
Y542D01*
Y610D02*
Y634D01*
Y702D02*
Y728D01*
Y808D02*
Y946D01*
X-3482Y-944D02*
Y-842D01*
Y-804D02*
Y-778D01*
Y-698D02*
Y-672D01*
Y-522D02*
Y-498D01*
Y-428D02*
Y-324D01*
Y-226D02*
Y-202D01*
Y-116D02*
Y-84D01*
Y-16D02*
Y36D01*
Y102D02*
Y136D01*
Y168D02*
Y194D01*
Y274D02*
Y298D01*
Y370D02*
Y474D01*
Y518D02*
Y542D01*
Y610D02*
Y634D01*
Y702D02*
Y728D01*
Y808D02*
Y946D01*
X-3484Y-884D02*
Y-840D01*
Y-804D02*
Y-778D01*
Y-698D02*
Y-672D01*
Y-522D02*
Y-498D01*
Y-428D02*
Y-324D01*
Y-226D02*
Y-202D01*
Y-116D02*
Y-84D01*
Y-16D02*
Y36D01*
Y102D02*
Y136D01*
Y168D02*
Y194D01*
Y274D02*
Y298D01*
Y370D02*
Y474D01*
Y518D02*
Y542D01*
Y610D02*
Y634D01*
Y702D02*
Y728D01*
Y924D02*
Y946D01*
X-3486Y-874D02*
Y-838D01*
Y-804D02*
Y-778D01*
Y-698D02*
Y-672D01*
Y-522D02*
Y-498D01*
Y-428D02*
Y-324D01*
Y-226D02*
Y-202D01*
Y-116D02*
Y-84D01*
Y-14D02*
Y34D01*
Y102D02*
Y136D01*
Y168D02*
Y192D01*
Y274D02*
Y298D01*
Y370D02*
Y474D01*
Y518D02*
Y542D01*
Y610D02*
Y634D01*
Y702D02*
Y728D01*
Y924D02*
Y946D01*
X-3488Y-868D02*
Y-836D01*
Y-804D02*
Y-778D01*
Y-698D02*
Y-672D01*
Y-522D02*
Y-498D01*
Y-348D02*
Y-324D01*
Y-226D02*
Y-202D01*
Y-116D02*
Y-84D01*
Y-14D02*
Y34D01*
Y102D02*
Y136D01*
Y168D02*
Y192D01*
Y274D02*
Y298D01*
Y448D02*
Y474D01*
Y518D02*
Y542D01*
Y610D02*
Y634D01*
Y702D02*
Y728D01*
Y924D02*
Y946D01*
X-3490Y-866D02*
Y-834D01*
Y-804D02*
Y-778D01*
Y-698D02*
Y-672D01*
Y-522D02*
Y-498D01*
Y-348D02*
Y-324D01*
Y-226D02*
Y-202D01*
Y-116D02*
Y-84D01*
Y-12D02*
Y32D01*
Y102D02*
Y136D01*
Y168D02*
Y192D01*
Y274D02*
Y298D01*
Y448D02*
Y474D01*
Y518D02*
Y542D01*
Y610D02*
Y634D01*
Y702D02*
Y728D01*
Y924D02*
Y946D01*
X-3492Y-862D02*
Y-832D01*
Y-804D02*
Y-778D01*
Y-698D02*
Y-672D01*
Y-522D02*
Y-498D01*
Y-348D02*
Y-324D01*
Y-226D02*
Y-202D01*
Y-116D02*
Y-84D01*
Y-8D02*
Y28D01*
Y102D02*
Y136D01*
Y168D02*
Y192D01*
Y274D02*
Y298D01*
Y448D02*
Y474D01*
Y518D02*
Y542D01*
Y610D02*
Y634D01*
Y702D02*
Y728D01*
Y924D02*
Y946D01*
X-3494Y-860D02*
Y-832D01*
Y-804D02*
Y-778D01*
Y-698D02*
Y-672D01*
Y-522D02*
Y-498D01*
Y-348D02*
Y-324D01*
Y-226D02*
Y-202D01*
Y-116D02*
Y-84D01*
Y102D02*
Y136D01*
Y168D02*
Y192D01*
Y274D02*
Y298D01*
Y448D02*
Y474D01*
Y518D02*
Y542D01*
Y610D02*
Y634D01*
Y702D02*
Y728D01*
Y924D02*
Y946D01*
X-3496Y-858D02*
Y-830D01*
Y-804D02*
Y-778D01*
Y-698D02*
Y-672D01*
Y-522D02*
Y-498D01*
Y-348D02*
Y-324D01*
Y-226D02*
Y-202D01*
Y-116D02*
Y-84D01*
Y102D02*
Y136D01*
Y168D02*
Y192D01*
Y274D02*
Y298D01*
Y448D02*
Y474D01*
Y518D02*
Y542D01*
Y610D02*
Y634D01*
Y702D02*
Y728D01*
Y924D02*
Y946D01*
X-3498Y-854D02*
Y-830D01*
Y-804D02*
Y-778D01*
Y-698D02*
Y-672D01*
Y-522D02*
Y-498D01*
Y-348D02*
Y-324D01*
Y-226D02*
Y-202D01*
Y-116D02*
Y-84D01*
Y102D02*
Y136D01*
Y168D02*
Y192D01*
Y274D02*
Y298D01*
Y448D02*
Y474D01*
Y518D02*
Y542D01*
Y610D02*
Y634D01*
Y702D02*
Y728D01*
Y924D02*
Y946D01*
X-3500Y-854D02*
Y-828D01*
Y-804D02*
Y-778D01*
Y-698D02*
Y-672D01*
Y-522D02*
Y-498D01*
Y-348D02*
Y-324D01*
Y-226D02*
Y-202D01*
Y-116D02*
Y-84D01*
Y102D02*
Y136D01*
Y168D02*
Y192D01*
Y274D02*
Y298D01*
Y448D02*
Y474D01*
Y518D02*
Y542D01*
Y610D02*
Y634D01*
Y702D02*
Y728D01*
Y924D02*
Y946D01*
X-3502Y-852D02*
Y-826D01*
Y-804D02*
Y-778D01*
Y-698D02*
Y-672D01*
Y-522D02*
Y-498D01*
Y-348D02*
Y-324D01*
Y-226D02*
Y-202D01*
Y-116D02*
Y-84D01*
Y102D02*
Y136D01*
Y168D02*
Y192D01*
Y274D02*
Y298D01*
Y448D02*
Y474D01*
Y518D02*
Y542D01*
Y610D02*
Y634D01*
Y702D02*
Y728D01*
Y924D02*
Y946D01*
X-3504Y-850D02*
Y-826D01*
Y-804D02*
Y-778D01*
Y-698D02*
Y-672D01*
Y-628D02*
Y-604D01*
Y-522D02*
Y-498D01*
Y-348D02*
Y-324D01*
Y-226D02*
Y-202D01*
Y-116D02*
Y-84D01*
Y102D02*
Y136D01*
Y168D02*
Y192D01*
Y274D02*
Y298D01*
Y448D02*
Y474D01*
Y518D02*
Y542D01*
Y610D02*
Y634D01*
Y702D02*
Y728D01*
Y924D02*
Y946D01*
X-3506Y-848D02*
Y-826D01*
Y-804D02*
Y-778D01*
Y-698D02*
Y-672D01*
Y-628D02*
Y-604D01*
Y-522D02*
Y-498D01*
Y-348D02*
Y-324D01*
Y-226D02*
Y-202D01*
Y-116D02*
Y-84D01*
Y102D02*
Y136D01*
Y168D02*
Y192D01*
Y274D02*
Y298D01*
Y448D02*
Y474D01*
Y518D02*
Y542D01*
Y610D02*
Y634D01*
Y702D02*
Y728D01*
Y924D02*
Y946D01*
X-3508Y-848D02*
Y-824D01*
Y-804D02*
Y-778D01*
Y-698D02*
Y-672D01*
Y-628D02*
Y-604D01*
Y-522D02*
Y-498D01*
Y-348D02*
Y-324D01*
Y-226D02*
Y-202D01*
Y-116D02*
Y-84D01*
Y102D02*
Y136D01*
Y168D02*
Y192D01*
Y274D02*
Y298D01*
Y448D02*
Y474D01*
Y518D02*
Y542D01*
Y610D02*
Y634D01*
Y702D02*
Y728D01*
Y924D02*
Y946D01*
X-3510Y-846D02*
Y-824D01*
Y-804D02*
Y-778D01*
Y-698D02*
Y-672D01*
Y-628D02*
Y-604D01*
Y-522D02*
Y-498D01*
Y-348D02*
Y-324D01*
Y-226D02*
Y-202D01*
Y-116D02*
Y-84D01*
Y102D02*
Y136D01*
Y168D02*
Y192D01*
Y274D02*
Y298D01*
Y448D02*
Y474D01*
Y518D02*
Y542D01*
Y610D02*
Y634D01*
Y702D02*
Y728D01*
Y924D02*
Y946D01*
X-3512Y-846D02*
Y-824D01*
Y-804D02*
Y-778D01*
Y-698D02*
Y-672D01*
Y-628D02*
Y-604D01*
Y-522D02*
Y-498D01*
Y-348D02*
Y-324D01*
Y-226D02*
Y-202D01*
Y-116D02*
Y-84D01*
Y102D02*
Y136D01*
Y168D02*
Y192D01*
Y274D02*
Y298D01*
Y448D02*
Y474D01*
Y518D02*
Y542D01*
Y610D02*
Y634D01*
Y702D02*
Y728D01*
Y924D02*
Y946D01*
X-3514Y-844D02*
Y-822D01*
Y-804D02*
Y-778D01*
Y-698D02*
Y-672D01*
Y-628D02*
Y-604D01*
Y-522D02*
Y-498D01*
Y-348D02*
Y-324D01*
Y-226D02*
Y-202D01*
Y-116D02*
Y-84D01*
Y102D02*
Y136D01*
Y168D02*
Y192D01*
Y274D02*
Y298D01*
Y448D02*
Y474D01*
Y518D02*
Y542D01*
Y610D02*
Y634D01*
Y702D02*
Y728D01*
Y924D02*
Y946D01*
X-3516Y-844D02*
Y-822D01*
Y-804D02*
Y-778D01*
Y-698D02*
Y-674D01*
Y-628D02*
Y-604D01*
Y-522D02*
Y-498D01*
Y-348D02*
Y-324D01*
Y-226D02*
Y-202D01*
Y-116D02*
Y-84D01*
Y102D02*
Y136D01*
Y168D02*
Y192D01*
Y274D02*
Y298D01*
Y448D02*
Y474D01*
Y518D02*
Y542D01*
Y610D02*
Y634D01*
Y702D02*
Y728D01*
Y924D02*
Y946D01*
X-3518Y-844D02*
Y-822D01*
Y-804D02*
Y-778D01*
Y-698D02*
Y-674D01*
Y-628D02*
Y-604D01*
Y-522D02*
Y-498D01*
Y-348D02*
Y-324D01*
Y-226D02*
Y-202D01*
Y-116D02*
Y-84D01*
Y102D02*
Y136D01*
Y168D02*
Y194D01*
Y274D02*
Y298D01*
Y448D02*
Y474D01*
Y518D02*
Y542D01*
Y610D02*
Y634D01*
Y702D02*
Y728D01*
Y924D02*
Y946D01*
X-3520Y-844D02*
Y-822D01*
Y-802D02*
Y-778D01*
Y-698D02*
Y-674D01*
Y-628D02*
Y-604D01*
Y-524D02*
Y-498D01*
Y-348D02*
Y-324D01*
Y-226D02*
Y-202D01*
Y-116D02*
Y-84D01*
Y102D02*
Y136D01*
Y168D02*
Y194D01*
Y274D02*
Y298D01*
Y448D02*
Y474D01*
Y518D02*
Y542D01*
Y610D02*
Y636D01*
Y702D02*
Y726D01*
Y924D02*
Y946D01*
X-3522Y-842D02*
Y-822D01*
Y-802D02*
Y-778D01*
Y-698D02*
Y-674D01*
Y-628D02*
Y-604D01*
Y-524D02*
Y-498D01*
Y-348D02*
Y-324D01*
Y-226D02*
Y-202D01*
Y-116D02*
Y-84D01*
Y102D02*
Y136D01*
Y170D02*
Y194D01*
Y274D02*
Y298D01*
Y448D02*
Y472D01*
Y518D02*
Y544D01*
Y610D02*
Y636D01*
Y702D02*
Y726D01*
Y924D02*
Y946D01*
X-3524Y-842D02*
Y-820D01*
Y-802D02*
Y-778D01*
Y-698D02*
Y-674D01*
Y-628D02*
Y-602D01*
Y-524D02*
Y-500D01*
Y-350D02*
Y-324D01*
Y-226D02*
Y-202D01*
Y-116D02*
Y-84D01*
Y102D02*
Y136D01*
Y170D02*
Y194D01*
Y272D02*
Y298D01*
Y448D02*
Y472D01*
Y518D02*
Y544D01*
Y608D02*
Y636D01*
Y702D02*
Y726D01*
Y924D02*
Y946D01*
X-3526Y-842D02*
Y-820D01*
Y-802D02*
Y-776D01*
Y-700D02*
Y-674D01*
Y-628D02*
Y-602D01*
Y-524D02*
Y-500D01*
Y-350D02*
Y-324D01*
Y-226D02*
Y-202D01*
Y-116D02*
Y-84D01*
Y102D02*
Y136D01*
Y170D02*
Y196D01*
Y272D02*
Y298D01*
Y446D02*
Y472D01*
Y520D02*
Y544D01*
Y608D02*
Y636D01*
Y700D02*
Y726D01*
Y924D02*
Y946D01*
X-3528Y-842D02*
Y-820D01*
Y-802D02*
Y-776D01*
Y-700D02*
Y-674D01*
Y-626D02*
Y-600D01*
Y-526D02*
Y-500D01*
Y-352D02*
Y-326D01*
Y-226D02*
Y-202D01*
Y-116D02*
Y-84D01*
Y102D02*
Y136D01*
Y170D02*
Y196D01*
Y272D02*
Y296D01*
Y446D02*
Y472D01*
Y520D02*
Y546D01*
Y608D02*
Y638D01*
Y700D02*
Y726D01*
Y924D02*
Y946D01*
X-3530Y-842D02*
Y-820D01*
Y-800D02*
Y-774D01*
Y-702D02*
Y-676D01*
Y-626D02*
Y-600D01*
Y-528D02*
Y-500D01*
Y-352D02*
Y-326D01*
Y-226D02*
Y-202D01*
Y-116D02*
Y-82D01*
Y102D02*
Y136D01*
Y170D02*
Y198D01*
Y270D02*
Y296D01*
Y444D02*
Y472D01*
Y520D02*
Y546D01*
Y606D02*
Y640D01*
Y698D02*
Y724D01*
Y924D02*
Y946D01*
X-3532Y-842D02*
Y-820D01*
Y-800D02*
Y-772D01*
Y-704D02*
Y-676D01*
Y-626D02*
Y-598D01*
Y-528D02*
Y-502D01*
Y-354D02*
Y-326D01*
Y-226D02*
Y-202D01*
Y-116D02*
Y-82D01*
Y102D02*
Y136D01*
Y172D02*
Y198D01*
Y268D02*
Y296D01*
Y444D02*
Y470D01*
Y520D02*
Y548D01*
Y604D02*
Y640D01*
Y696D02*
Y724D01*
Y924D02*
Y946D01*
X-3534Y-842D02*
Y-820D01*
Y-800D02*
Y-772D01*
Y-706D02*
Y-676D01*
Y-624D02*
Y-596D01*
Y-530D02*
Y-502D01*
Y-356D02*
Y-328D01*
Y-226D02*
Y-202D01*
Y-116D02*
Y-82D01*
Y102D02*
Y136D01*
Y172D02*
Y200D01*
Y266D02*
Y294D01*
Y442D02*
Y470D01*
Y522D02*
Y550D01*
Y602D02*
Y642D01*
Y696D02*
Y724D01*
Y924D02*
Y946D01*
X-3536Y-842D02*
Y-820D01*
Y-798D02*
Y-768D01*
Y-708D02*
Y-678D01*
Y-624D02*
Y-594D01*
Y-532D02*
Y-504D01*
Y-358D02*
Y-328D01*
Y-226D02*
Y-202D01*
Y-116D02*
Y-82D01*
Y100D02*
Y136D01*
Y174D02*
Y202D01*
Y264D02*
Y294D01*
Y440D02*
Y468D01*
Y522D02*
Y552D01*
Y600D02*
Y644D01*
Y692D02*
Y722D01*
Y924D02*
Y946D01*
X-3538Y-842D02*
Y-820D01*
Y-798D02*
Y-766D01*
Y-710D02*
Y-678D01*
Y-622D02*
Y-592D01*
Y-536D02*
Y-504D01*
Y-360D02*
Y-330D01*
Y-226D02*
Y-202D01*
Y-116D02*
Y-80D01*
Y100D02*
Y136D01*
Y174D02*
Y206D01*
Y262D02*
Y294D01*
Y436D02*
Y468D01*
Y524D02*
Y554D01*
Y598D02*
Y648D01*
Y690D02*
Y722D01*
Y924D02*
Y946D01*
X-3540Y-842D02*
Y-820D01*
Y-796D02*
Y-762D01*
Y-714D02*
Y-680D01*
Y-622D02*
Y-588D01*
Y-540D02*
Y-506D01*
Y-364D02*
Y-330D01*
Y-226D02*
Y-202D01*
Y-116D02*
Y-80D01*
Y100D02*
Y134D01*
Y176D02*
Y210D01*
Y258D02*
Y292D01*
Y432D02*
Y466D01*
Y524D02*
Y558D01*
Y594D02*
Y652D01*
Y686D02*
Y720D01*
Y924D02*
Y946D01*
X-3542Y-842D02*
Y-822D01*
Y-796D02*
Y-752D01*
Y-724D02*
Y-682D01*
Y-620D02*
Y-578D01*
Y-550D02*
Y-506D01*
Y-374D02*
Y-332D01*
Y-226D02*
Y-202D01*
Y-116D02*
Y-78D01*
Y98D02*
Y134D01*
Y176D02*
Y220D01*
Y248D02*
Y290D01*
Y422D02*
Y466D01*
Y526D02*
Y568D01*
Y584D02*
Y662D01*
Y676D02*
Y720D01*
Y924D02*
Y944D01*
X-3544Y-844D02*
Y-822D01*
Y-794D02*
Y-682D01*
Y-618D02*
Y-508D01*
Y-454D02*
Y-334D01*
Y-280D02*
Y-148D01*
Y-114D02*
Y-78D01*
Y98D02*
Y134D01*
Y178D02*
Y290D01*
Y344D02*
Y464D01*
Y528D02*
Y718D01*
Y922D02*
Y944D01*
X-3546Y-844D02*
Y-822D01*
Y-792D02*
Y-684D01*
Y-618D02*
Y-510D01*
Y-454D02*
Y-334D01*
Y-280D02*
Y-148D01*
Y-114D02*
Y-76D01*
Y96D02*
Y134D01*
Y180D02*
Y288D01*
Y344D02*
Y462D01*
Y528D02*
Y716D01*
Y922D02*
Y944D01*
X-3548Y-844D02*
Y-822D01*
Y-790D02*
Y-686D01*
Y-616D02*
Y-512D01*
Y-454D02*
Y-336D01*
Y-280D02*
Y-148D01*
Y-114D02*
Y-76D01*
Y94D02*
Y134D01*
Y182D02*
Y286D01*
Y344D02*
Y460D01*
Y530D02*
Y714D01*
Y922D02*
Y944D01*
X-3550Y-846D02*
Y-822D01*
Y-788D02*
Y-688D01*
Y-614D02*
Y-512D01*
Y-454D02*
Y-338D01*
Y-280D02*
Y-148D01*
Y-114D02*
Y-74D01*
Y94D02*
Y132D01*
Y184D02*
Y284D01*
Y344D02*
Y458D01*
Y532D02*
Y620D01*
Y624D02*
Y712D01*
Y920D02*
Y944D01*
X-3552Y-846D02*
Y-824D01*
Y-786D02*
Y-690D01*
Y-612D02*
Y-514D01*
Y-454D02*
Y-340D01*
Y-280D02*
Y-148D01*
Y-112D02*
Y-72D01*
Y92D02*
Y132D01*
Y186D02*
Y282D01*
Y344D02*
Y456D01*
Y534D02*
Y618D01*
Y626D02*
Y710D01*
Y920D02*
Y942D01*
X-3554Y-846D02*
Y-824D01*
Y-784D02*
Y-692D01*
Y-610D02*
Y-518D01*
Y-454D02*
Y-342D01*
Y-280D02*
Y-148D01*
Y-112D02*
Y-70D01*
Y90D02*
Y132D01*
Y188D02*
Y280D01*
Y344D02*
Y454D01*
Y536D02*
Y616D01*
Y628D02*
Y708D01*
Y920D02*
Y942D01*
X-3556Y-848D02*
Y-824D01*
Y-782D02*
Y-694D01*
Y-608D02*
Y-520D01*
Y-454D02*
Y-346D01*
Y-280D02*
Y-148D01*
Y-112D02*
Y-68D01*
Y88D02*
Y130D01*
Y190D02*
Y278D01*
Y344D02*
Y452D01*
Y540D02*
Y614D01*
Y632D02*
Y706D01*
Y918D02*
Y942D01*
X-3558Y-850D02*
Y-826D01*
Y-778D02*
Y-698D01*
Y-604D02*
Y-522D01*
Y-454D02*
Y-348D01*
Y-280D02*
Y-148D01*
Y-110D02*
Y-66D01*
Y86D02*
Y130D01*
Y192D02*
Y274D01*
Y344D02*
Y450D01*
Y542D02*
Y610D01*
Y634D02*
Y704D01*
Y916D02*
Y940D01*
X-3560Y-850D02*
Y-826D01*
Y-776D02*
Y-700D01*
Y-600D02*
Y-526D01*
Y-454D02*
Y-352D01*
Y-280D02*
Y-148D01*
Y-110D02*
Y-64D01*
Y82D02*
Y130D01*
Y196D02*
Y272D01*
Y344D02*
Y446D01*
Y546D02*
Y608D01*
Y638D02*
Y700D01*
Y916D02*
Y940D01*
X-3562Y-852D02*
Y-828D01*
Y-772D02*
Y-704D01*
Y-596D02*
Y-530D01*
Y-454D02*
Y-356D01*
Y-280D02*
Y-148D01*
Y-108D02*
Y-60D01*
Y80D02*
Y128D01*
Y200D02*
Y268D01*
Y344D02*
Y442D01*
Y550D02*
Y604D01*
Y642D02*
Y696D01*
Y914D02*
Y938D01*
X-3564Y-854D02*
Y-828D01*
Y-766D02*
Y-710D01*
Y-592D02*
Y-536D01*
Y-454D02*
Y-360D01*
Y-280D02*
Y-148D01*
Y-108D02*
Y-56D01*
Y76D02*
Y128D01*
Y206D02*
Y262D01*
Y344D02*
Y436D01*
Y554D02*
Y598D01*
Y648D02*
Y690D01*
Y912D02*
Y938D01*
X-3566Y-856D02*
Y-830D01*
Y-756D02*
Y-720D01*
Y-580D02*
Y-546D01*
Y-454D02*
Y-372D01*
Y-280D02*
Y-148D01*
Y-106D02*
Y-52D01*
Y70D02*
Y126D01*
Y216D02*
Y252D01*
Y344D02*
Y426D01*
Y566D02*
Y588D01*
Y658D02*
Y680D01*
Y910D02*
Y936D01*
X-3568Y-858D02*
Y-830D01*
Y-106D02*
Y-42D01*
Y60D02*
Y124D01*
Y908D02*
Y936D01*
X-3570Y-860D02*
Y-832D01*
Y-104D02*
Y124D01*
Y906D02*
Y934D01*
X-3572Y-864D02*
Y-834D01*
Y-102D02*
Y122D01*
Y902D02*
Y932D01*
X-3574Y-866D02*
Y-836D01*
Y-102D02*
Y120D01*
Y900D02*
Y930D01*
X-3576Y-872D02*
Y-836D01*
Y-100D02*
Y118D01*
Y894D02*
Y930D01*
X-3578Y-878D02*
Y-838D01*
Y-98D02*
Y118D01*
Y888D02*
Y928D01*
X-3580Y-986D02*
Y-840D01*
Y-96D02*
Y116D01*
Y768D02*
Y926D01*
X-3582Y-986D02*
Y-842D01*
Y-94D02*
Y114D01*
Y768D02*
Y924D01*
X-3584Y-986D02*
Y-844D01*
Y-92D02*
Y110D01*
Y768D02*
Y922D01*
X-3586Y-986D02*
Y-848D01*
Y-90D02*
Y108D01*
Y768D02*
Y918D01*
X-3588Y-986D02*
Y-850D01*
Y-86D02*
Y106D01*
Y768D02*
Y916D01*
X-3590Y-986D02*
Y-852D01*
Y-84D02*
Y102D01*
Y768D02*
Y914D01*
X-3592Y-986D02*
Y-856D01*
Y-80D02*
Y100D01*
Y768D02*
Y910D01*
X-3594Y-986D02*
Y-860D01*
Y-76D02*
Y96D01*
Y768D02*
Y906D01*
X-3596Y-986D02*
Y-864D01*
Y-72D02*
Y92D01*
Y768D02*
Y902D01*
X-3598Y-986D02*
Y-870D01*
Y-66D02*
Y86D01*
Y768D02*
Y896D01*
X-3600Y-986D02*
Y-880D01*
Y-56D02*
Y76D01*
Y768D02*
Y886D01*
M02*
