M48
;Layer_Color=9474304
;FILE_FORMAT=2:3
INCH,LZ
;TYPE=PLATED
T1F00S00C0.012
T2F00S00C0.024
T3F00S00C0.025
T4F00S00C0.028
T5F00S00C0.030
T6F00S00C0.035
T7F00S00C0.079
T8F00S00C0.126
;TYPE=NON_PLATED
T9F00S00C0.118
%
T01
X-01416Y-03616
X-01229Y-03579
X-01069
X-00829Y-03328
Y-02962
X-00739Y-02999
X-00639Y-03039
X-0118Y-02871
X-02123Y-02873
X-02034Y-02249
X-01549Y-02254
X-00684Y-02269
X-00178Y-02242
X-00149Y-02269
X-0012Y-0289
X-00385Y-028
X-00553Y-0329
X-00266Y-03614
X00861Y-03589
Y-03001
X00964Y-03039
X01257Y-02965
X01225Y-02474
X01017
X00964Y-03594
X0135Y-0346
X01741Y-03569
X02166Y-02098
X02261Y-02044
X01775Y-01705
Y-0156
Y-0122
X01786Y-01179
X0193Y-0118
X01484Y-01346
X01481Y-01829
X01136Y-00789
X00405Y-00815
X00476Y-00669
X00061
X00335Y-01105
X00335Y-0114
X-01174Y-00969
X-01209Y-01429
X-01394Y-01444
Y-01574
X-01432Y-02036
X-01527
X-01498Y-01985
X-01634Y-01919
X-01027Y-01892
X-01058Y-01839
X-01078Y-01779
X-00978Y-01839
X-00938Y-01889
X-01009Y-02099
X-01086Y-02053
X-02079Y-02157
X-01499Y-00784
Y-00644
X-02756Y-00687
X-02754Y-00721
X-02753Y-00757
X-02609Y-00429
X-02864Y-00144
X-02829Y-00044
X-02794Y00056
X-02605Y0073
X-02015
X-01419Y00571
X-01366Y00317
X-01338Y00294
X-01309Y00268
X-01349Y00161
X-01531Y00148
X-01522Y00112
X-0152Y00078
X-0166Y-0012
X-01685Y-00145
X-01474Y-00229
X-01445Y-00299
X-01357
X-01348Y-00145
X-01317Y-00125
X-0117Y-00025
X-01169Y00009
X-01138Y00087
X-01077Y-00033
X-00951Y-00028
X-00954Y-00204
X-011Y-0033
X-01225Y-00473
Y-00613
X-02049Y-00429
X-0202Y-00025
X-0198Y-0002
X-00928Y00172
X-01095Y00865
X-00374Y00706
X-00329Y00721
X-00283Y00707
X-00275Y0077
X-00239Y00772
X-00215Y00685
X-00159Y00721
X-00059
X00041
X00141
X00241
X00341
X00865Y00865
X00843Y-00048
X0081
Y-00404
X00844Y-00402
X00045Y-00135
X-00059Y00121
X-00044Y00152
X00105Y00194
X-00224Y00072
X01094Y-00049
X0114Y-00051
X01174Y-0005
X01209
X01244
Y-00256
X01209Y-00255
X01174Y-00256
X0114Y-00253
X01094Y-0024
X00975Y00875
X02875Y00873
X02869Y0093
X02861Y00821
X02856Y00771
X02826Y00141
X02796Y00041
X02761Y-00054
X0189Y012
X01006Y01231
X00931
X00871Y01181
X00656Y01551
X00566Y01591
X00581Y02381
X00801
X00011Y01896
X-00214Y02056
Y01416
X-02159Y02091
X-02254Y02044
X-02562Y0119
X-00939Y03011
X-00839Y02984
X0018Y0289
X00661Y03011
X0076Y02984
T02
X-01515Y0039
X-01315
T03
X-0192Y-016
Y-015
Y-014
Y-013
Y-012
Y-011
Y-01
Y-009
X-0242
Y-01
Y-011
Y-012
Y-013
Y-014
Y-015
Y-016
Y0089
X-0192
Y0099
Y0109
Y0119
Y0129
Y0139
Y0149
Y0159
X-0242
Y0149
Y0139
Y0129
Y0119
Y0109
Y0099
T04
X-01811Y-02874
Y-02795
X-01811Y-02599
Y-0252
X-01614Y-02795
Y-02874
X-01417
Y-02795
X02175Y-0095
X02254
X00704Y-0139
X00625
X00546
X00467
X00389
X0031
X-00606Y-0138
X-00685
X-00764
X-00843
X-00921
X-01
X-0303Y-0018
Y-00101
Y-00023
Y00056
X-02054Y00118
X-01975
X-01896
Y-00079
X-01975
X-02054
Y-00276
X-01975
X-01896
Y00315
X-01975
X-02054
X-02051Y0052
X-01972
X-01894
X-01815
X0216Y0042
X02239
X02317
X02396
X02323Y00236
X02244
X02165
Y00039
X02244
X02323
Y-00157
X02244
X02165
Y-00354
X02244
X02323
X02244Y-00551
X02165
X03075Y-00175
Y-00096
Y-00018
Y00061
X02205Y00992
Y01291
X0103Y0183
X0093
X0083
X0073
X0063
X0053
X0043
X0033
X0023
X0013
X0003
X-0007
X-0017
X-0027
X-0037
X-0047
X-0057
X0032Y0134
X00399
X00477
X00556
X00635
X00714
X-00626
X-00705
X-00784
X-00863
X-00941
X-0102
X-0087Y0183
X-0077
X-0067
Y0273
X-0077
X-0087
X-0057
X-0047
X-0037
X-0027
X-0017
X-0007
X0003
X0013
X0023
X0033
X0043
X0053
X0063
X0073
X0083
X0093
X0103
T05
X01066Y-0093
X01166
X01266
X01366
X01466
X01566
X01666
X01766Y-0073
Y-0063
X01866
Y-0073
X00766Y-0093
X00666
X00566
X00466
X00366
X00266
X00166
X00066
X-00134
X-00534
X-00634
X-00734
X-00834
X00571Y-0003
X00671
Y0007
X00571
Y0017
X00671
X01766
Y0027
Y0037
Y0047
Y0057
Y0067
Y0077
Y0087
X01866
Y0077
Y0067
Y0057
Y0047
Y0037
Y0027
Y0017
Y0007
X01766
Y-0003
X01866
Y-0013
X01766
Y-0023
X01866
Y-0033
X01766
Y-0043
X01866
Y-0053
X01766
Y0097
X01866
X01466
X01366
X01266
X01166
X01066
X00966
X00866
X00766
X00566
X00466
X00366
X00266
X00166
X00066
X-00034
X-00134
X-00294
X-00394
X-00494
X-00594
X-00694
X-00794
X-00894
X-00994
X-01094
X-01194
T06
X-0094Y-029
X-0084
X-0074
X-0064
X-00705Y-02735
X-00805
X-00905
X-00947Y-02521
Y-02421
X-00847
Y-02521
X-00747
Y-02421
X-00647
Y-02521
X-00547
Y-02421
X-00447
Y-02521
X-00347
Y-02421
X-00247
Y-02521
X-00147
Y-02421
X-00047
Y-02521
X00053
Y-02421
X00153
Y-02521
X00253
Y-02421
X00353
Y-02521
X00453
Y-02421
X00553
Y-02521
X00653
Y-02421
X00753
Y-02521
X00853
Y-02421
X0086Y-029
X0076
X0066
X0096
X00953Y-02521
Y-02421
X01937Y-02154
X02008Y-02083
X02078Y-02012
X02149Y-01941
X02223Y-01383
Y-01245
X-0178Y-0182
Y-0192
Y-0202
X-01941Y-02161
X-02012Y-0209
X-02083Y-0202
X-02154Y-01949
X-03055Y-01655
Y-01555
Y-01455
Y-01355
Y-01255
Y-01155
X-0258Y-00145
Y-00045
Y00055
Y00155
X-0198Y-005
Y-006
X-0188
Y-005
X-0178
Y-006
X-00375Y-00104
Y-00004
Y00096
X02559Y00143
Y00043
Y-00057
Y-00157
X02154Y01941
X02083Y02012
X02012Y02082
X01941Y02153
X-01937Y0215
X-02008Y02079
X-02078Y02008
X-02149Y01937
X-0094Y0288
X-0084
X-0074
X-0064
X0066
X0076
X0086
X0096
T07
X-03346Y-0311
X-0311Y-03346
X-02165Y-03543
X-01575Y-03346
X-00157
X01378Y-03228
Y-03622
X01969
X02165Y-03543
X01969Y-03228
X03091Y-03327
X03327Y-03091
X03543Y-02165
X-03543
X03543Y02165
X-03543
X-03346Y0311
X-0311Y03346
X-02165Y03543
X02165
X03091Y03327
X03327Y03091
T08
X01866Y-0093
X-01384
X01616Y0097
X-01334
T09
X-0154Y-025
X01545Y-025
X-0154Y025
X01545
M30
