**ABCDEFGHIJKLMNOPQRSTUVWXYZabcdefghijklmnopqrstuvwxyz**************************
**PARASOLID !"#$%&'()*+,-./:;<=>?@[\]^_`{|}~0123456789**************************
**PART1;
MC=AMD64;
MC_MODEL=Intel64 Family 6 Model 42 Stepping 7, GenuineIntel;
MC_ID=unknown;
OS=Windows_NT;
OS_RELEASE=unknown;
FRU=Parasolid Version 24.1, build 231,  7-17-2012;
APPL=SolidWorks 2013-2012270;
SITE=;
USER=unknown;
FORMAT=text;
GUISE=transmit;
KEY=cubao;
FILE=cubao.x_t;
DATE=Tue Jun 11 18:50:40 2013;
**PART2;
SCH=SCH_2401231_20000;
USFLD_SIZE=0;
**PART3;
**END_OF_HEADER*****************************************************************
T51 : TRANSMIT FILE created by modeller version 240123123 SCH_2401231_20000_1300
6189 0 12 27 CCCCCCCCCCCCCCCCCCCCCCCA16 index_map_offset0 0 1 dA9 index_map82 0
 A17 node_id_index_map82 0 A20 schema_embedding_map82 0 Z1 544 0 2 0 0 0 0 1e3 1
e-8 0 3 0 1 0 1 1 4 5 6 7 8 9 10 0 0 0 0 70 11 CI9 list_type0 0 1 uI10 notransmi
t0 0 1 lCCCDCCDI12 finger_index0 0 1 dI12 finger_block1012 0 CZ2 0 4 T1 0 0 2 20
 1 11 11 13 255 4 29 0 1 0 12 0 0 13 0 51 255 5 58 0 14 15 0 0 +.003175 0 0 -1 0
 0 .0127 0 0 1 31 255 6 60 0 9 16 0 0 +.003175 0 0 -1 0 0 0 0 1 .0127 29 255 7 9
4 0 10 17 0 0 .0054992613148867 .00317499999881457 19 255 8 33 0 1 13 0 18 V16 2
55 9 47 0 ?19 0 20 6 0 0 1 18 255 10 92 0 21 0 22 7 ?1 17 255 21 0 23 24 25 10 2
6 27 0 28 +18 22 144 0 29 10 30 31 ?1 17 29 0 32 33 34 22 25 35 0 36 +18 30 143
 0 34 22 37 38 ?1 29 31 192 0 22 38 39 -.00635 .0054992613148867 -.0031749999985
18215 29 38 193 0 30 40 31 -.00635 .0054992613148867 .00317499999881457 29 39 19
1 0 41 31 42 0 -.0054992613154 -.003174999998518215 18 41 145 0 43 44 0 39 ?1 29
 42 190 0 44 39 17 0 -.0054992613154 .00317499999881457 18 44 138 0 45 46 41 42
 ?1 29 17 188 0 46 42 7 0 .0054992613148867 -.003174999998518215 18 46 141 0 24
 47 44 17 ?1 17 24 0 23 36 21 46 48 49 0 50 +18 47 139 0 51 37 46 52 ?1 17 51 0
 53 43 54 47 55 56 0 33 -18 37 142 0 55 30 47 40 ?1 29 52 195 0 47 0 40 -.00635
 -.0054992613154 -.003174999998518215 29 40 194 0 37 52 38 -.00635 -.00549926131
54 .00317499999881457 17 55 0 32 34 33 37 51 56 0 54 +15 255 32 164 0 33 57 0 17
 34 0 32 29 55 30 58 59 0 26 +17 33 0 32 55 29 47 60 61 0 62 +16 56 129 0 ?55 59
 61 63 0 0 1 17 54 0 53 51 45 37 64 65 0 58 -15 53 153 0 45 66 0 17 45 0 53 54 4
3 44 67 68 0 64 +17 64 0 69 28 58 44 54 65 0 70 +16 65 121 0 ?64 71 27 72 0 0 1
 17 58 0 69 64 26 37 34 59 0 0 -15 69 157 0 28 73 0 17 26 0 69 58 28 30 21 27 0
 25 -16 59 132 0 ?34 35 56 74 0 0 1 16 35 135 0 ?29 75 59 76 0 0 1 31 74 185 0 5
9 63 76 0 +-.00635 -2566514709090305e-28 1481786776393354e-28 -1 0 0 0 0 -1 .006
35000000029636 30 255 63 186 0 56 77 74 0 +-.00635 -.0054992613154 .003174999998
81457 0 1365923997405866e-31 1 30 76 184 0 35 74 78 0 +-.00635 .0054992613148867
 -.003174999998518215 0 0 -1 31 78 183 0 79 76 80 0 +0 -2566514709090305e-28 148
1786776393354e-28 -1 0 0 0 0 -1 .00635000000029636 16 79 110 0 ?81 68 82 78 0 0
 1 30 80 182 0 68 78 83 0 +0 -.0054992613154 .00317499999881457 0 13659239974058
66e-31 1 16 68 114 0 ?45 84 79 80 0 0 1 31 83 181 0 84 80 85 0 +0 -2566514709090
305e-28 1481786776393354e-28 -1 0 0 0 0 -1 .00635000000029636 16 84 118 0 ?28 49
 68 83 0 0 1 30 85 180 0 49 83 86 0 +0 .0054992613148867 -.003174999998518215 0
 0 -1 16 49 122 0 ?24 61 84 85 0 0 1 30 86 179 0 75 85 87 0 +-.00635 .0054992613
148867 -.003174999998518215 1 0 0 16 75 113 0 ?50 27 35 86 0 0 1 30 87 178 0 27
 86 72 0 +-.00635 .0054992613148867 .00317499999881457 1 0 0 16 27 125 0 ?21 65
 75 87 0 0 1 30 72 177 0 65 87 88 0 +-.00635 -.0054992613154 .00317499999881457
 1 0 0 30 88 176 0 71 72 16 0 +-.00635 -.0054992613154 -.003174999998518215 1 0
 0 16 71 117 0 ?43 20 65 88 0 0 1 31 16 59 0 20 88 6 0 +0 0 0 -1 0 0 0 0 1 .0127
 16 20 35 0 ?89 9 71 16 0 0 1 17 89 0 90 89 89 0 91 20 0 0 +15 90 73 0 89 12 92
 17 91 0 93 91 91 0 89 20 0 0 -15 93 52 0 91 14 0 14 255 14 53 94 ?95 12 96 4 5
 +0 0 95 12 18 81 255 1 94 532 97 14 98 0 0 99 100 14 95 50 99 ?101 14 102 4 15
 +0 0 101 14 18 14 12 107 103 ?14 0 104 4 105 +0 0 14 0 18 15 96 75 0 19 14 93 1
3 18 32 0 0 0 0 0 0 8 12 17 19 0 96 19 19 0 106 9 0 0 +17 106 0 107 106 106 0 19
 9 0 0 -15 107 49 0 106 95 0 81 1 103 534 97 12 108 0 99 109 110 15 104 394 0 11
1 12 112 50 255 105 56 0 12 113 15 0 +0 0 0 -1 0 0 0 0 1 51 113 170 0 101 114 10
5 0 --.00635 -2566514709090305e-28 1481786776393354e-28 1 0 0 .00635000000029636
 0 0 -1 50 15 57 0 95 105 5 0 +.003175 .0127 0 1 0 0 0 0 -1 14 101 146 109 ?66 9
5 115 4 113 -0 0 66 95 18 50 114 171 0 66 116 113 0 +-.00635 -.0054992613154 .00
317499999881457 0 1 -1365923997405866e-31 0 1365923997405866e-31 1 14 66 150 117
 ?73 101 53 4 114 -0 0 73 101 18 51 116 172 0 73 118 114 0 --.00635 -25665147090
90305e-28 1481786776393354e-28 1 0 0 .00635000000029636 0 0 -1 14 73 154 119 ?12
0 66 69 4 116 -0 0 120 66 18 50 118 173 0 120 121 116 0 +-.00635 .00549926131488
67 -.003174999998518215 0 -1 0 0 0 -1 14 120 158 122 ?57 73 23 4 118 -0 0 57 73
 18 50 121 175 0 57 123 118 0 +-.00635 -2566514709090305e-28 1481786776393354e-2
8 1 0 0 0 0 -1 14 57 162 124 ?125 120 126 4 121 -0 0 125 120 18 51 123 277 0 125
 127 121 0 +.003175 -.0067351920922 -.0067351920922 1 0 0 .001190624999999988 0
 0 -1 14 125 268 128 ?129 57 130 4 123 -0 0 129 57 18 51 127 327 0 129 131 123 0
 +.003175 .0067351920922 -.0067351920922 1 0 0 .001190624999999988 0 0 -1 14 129
 318 132 ?133 125 134 4 127 -0 0 133 125 18 51 131 377 0 133 135 127 0 +.003175
 .0067351920922 .0067351920922 1 0 0 .001190624999999988 0 0 -1 14 133 368 136 ?
137 129 138 4 131 -0 0 137 129 18 51 135 427 0 137 139 131 0 +.003175 -.00673519
20922 .0067351920922 1 0 0 .001190624999999988 0 0 -1 14 137 418 140 ?141 133 14
2 4 135 -0 0 141 133 18 51 139 481 0 141 0 135 0 +-.00635 0 0 -1 0 0 .0014999999
97199986 0 0 1 14 141 472 143 ?0 137 144 4 139 -0 0 0 137 18 81 1 143 544 97 141
 145 0 140 0 146 15 144 475 0 147 141 148 17 147 0 144 147 147 0 149 150 0 0 -15
 148 476 0 151 141 0 17 151 0 148 151 151 0 152 153 0 0 +17 152 0 126 152 152 0
 151 153 0 0 -16 153 462 0 ?151 150 0 154 0 0 1 16 150 463 0 ?149 155 153 156 0
 0 1 31 154 483 0 153 0 156 0 +-.00635 0 0 -1 0 0 0 0 1 .001499999997199988 31 1
56 482 0 150 154 157 0 +.003175 0 0 -1 0 0 0 0 1 .001499999997199986 31 157 430
 0 155 156 158 0 +.003175 -.0067351920922 .0067351920922 1 0 0 0 0 -1 .001190625
 16 155 404 0 ?159 160 150 157 0 0 1 31 158 428 0 160 157 161 0 +0 -.00673519209
22 .0067351920922 -1 0 0 0 0 1 .001190624999999988 16 160 403 0 ?162 163 155 158
 0 0 1 31 161 380 0 163 158 164 0 +.003175 .0067351920922 .0067351920922 1 0 0 0
 0 -1 .001190625 16 163 354 0 ?165 166 160 161 0 0 1 31 164 378 0 166 161 167 0
 +0 .0067351920922 .0067351920922 -1 0 0 0 0 1 .001190624999999988 16 166 353 0
 ?168 169 163 164 0 0 1 31 167 330 0 169 164 170 0 +.003175 .0067351920922 -.006
7351920922 1 0 0 0 0 -1 .001190625 16 169 304 0 ?171 172 166 167 0 0 1 31 170 32
8 0 172 167 173 0 +0 .0067351920922 -.0067351920922 -1 0 0 0 0 1 .00119062499999
9988 16 172 303 0 ?174 175 169 170 0 0 1 31 173 280 0 175 170 176 0 +.003175 -.0
067351920922 -.0067351920922 1 0 0 0 0 -1 .001190625 16 175 254 0 ?177 82 172 17
3 0 0 1 31 176 278 0 82 173 77 0 +0 -.0067351920922 -.0067351920922 -1 0 0 0 0 1
 .001190624999999988 16 82 253 0 ?178 79 175 176 0 0 1 31 77 187 0 61 176 63 0 +
-.00635 -2566514709090305e-28 1481786776393354e-28 -1 0 0 0 0 -1 .00635000000029
636 16 61 126 0 ?33 56 49 77 0 0 1 17 178 0 130 178 178 0 179 82 0 0 +15 130 271
 0 178 125 180 17 179 0 181 179 179 0 178 82 0 0 -15 181 244 0 179 12 90 15 180
 272 0 177 125 0 17 177 0 180 177 177 0 182 175 0 0 +17 182 0 183 182 182 0 177
 175 0 0 -15 183 234 0 182 95 107 17 174 0 134 174 174 0 184 172 0 0 +15 134 321
 0 174 129 185 17 184 0 186 184 184 0 174 172 0 0 -15 186 294 0 184 12 181 15 18
5 322 0 171 129 0 17 171 0 185 171 171 0 187 169 0 0 +17 187 0 188 187 187 0 171
 169 0 0 -15 188 284 0 187 95 183 17 168 0 138 168 168 0 189 166 0 0 +15 138 371
 0 168 133 190 17 189 0 112 189 189 0 168 166 0 0 -15 112 344 0 189 12 186 15 19
0 372 0 165 133 0 17 165 0 190 165 165 0 191 163 0 0 +17 191 0 192 191 191 0 165
 163 0 0 -15 192 334 0 191 95 188 17 162 0 142 162 162 0 111 160 0 0 +15 142 421
 0 162 137 193 17 111 0 104 111 111 0 162 160 0 0 -15 193 422 0 159 137 0 17 159
 0 193 159 159 0 194 155 0 0 +17 194 0 195 194 194 0 159 155 0 0 -15 195 384 0 1
94 95 192 17 149 0 102 149 149 0 147 150 0 0 +15 102 456 0 149 95 195 15 126 448
 0 152 57 32 80 255 1 97 196 197 9000 1 1 1 1 1 1 1 1 0 FFFFTFTFFFFFFF1 81 1 145
 503 198 141 0 143 199 0 200 81 1 140 543 97 137 199 0 136 143 201 82 255 1 146
 -2085683009 81 1 199 502 198 137 0 140 202 145 203 81 1 136 542 97 133 202 0 13
2 140 204 82 1 201 -2113863490 81 1 202 501 198 133 0 136 205 199 206 81 1 132 5
41 97 129 205 0 128 136 207 82 1 204 -2129919810 81 1 205 500 198 129 0 132 208
 202 209 81 1 128 540 97 125 208 0 124 132 210 82 1 207 -2145976130 81 1 208 499
 198 125 0 128 211 205 212 81 1 124 539 97 57 211 0 122 128 213 82 1 210 2132869
310 81 1 211 498 198 57 0 124 214 208 215 81 1 122 538 97 120 214 0 119 124 216
 82 1 213 2106130623 81 1 214 497 198 120 0 122 217 211 218 81 1 119 537 97 73 2
17 0 117 122 219 82 1 216 2112684221 81 1 217 496 198 73 0 119 220 214 221 81 1
 117 536 97 66 220 0 109 119 222 82 1 219 2112946365 81 1 220 495 198 66 0 117 2
23 217 224 81 1 109 535 97 101 223 0 103 117 225 82 1 222 2113208509 81 1 223 49
4 198 101 0 109 226 220 227 82 1 225 2113470653 80 1 198 0 228 8001 0 0 0 0 3 5
 0 0 0 FFFFTFTFFFFFFF2 81 1 226 493 198 95 0 99 98 223 229 83 255 3 227 .7921568
62745098 .819607843137255 .933333333333333 81 1 99 533 97 95 226 0 94 103 230 81
 1 98 492 198 14 0 94 108 226 231 83 3 229 .792156862745098 .819607843137255 .93
3333333333333 81 1 108 491 198 12 0 103 0 98 232 83 3 231 .792156862745098 .8196
07843137255 .933333333333333 83 3 232 .792156862745098 .819607843137255 .9333333
33333333 82 1 230 2089353407 79 255 15 228 SDL/TYSA_COLOUR83 3 224 .792156862745
098 .819607843137255 .933333333333333 83 3 221 .792156862745098 .819607843137255
 .933333333333333 83 3 218 .792156862745098 .819607843137255 .933333333333333 83
 3 215 .792156862745098 .819607843137255 .933333333333333 83 3 212 .792156862745
098 .819607843137255 .933333333333333 83 3 209 .792156862745098 .819607843137255
 .933333333333333 83 3 206 .792156862745098 .819607843137255 .933333333333333 83
 3 203 .792156862745098 .819607843137255 .933333333333333 83 3 200 .792156862745
098 .819607843137255 .933333333333333 79 14 197 SWEntUnchanged15 23 161 0 24 120
 0 15 115 149 0 81 101 0 17 81 0 115 62 50 41 233 79 0 67 +17 62 0 115 60 81 47
 43 71 0 0 -17 50 0 115 81 60 46 36 75 0 233 +17 233 0 92 48 67 46 81 79 0 0 -17
 67 0 92 233 70 41 45 68 0 0 -15 92 90 0 67 12 0 17 70 0 92 67 48 44 28 84 0 0 -
17 48 0 92 70 233 10 24 49 0 0 -17 28 0 69 26 64 10 70 84 0 48 +17 60 0 115 50 6
2 22 33 61 0 0 -17 36 0 23 25 24 22 50 75 0 60 -17 25 0 23 21 36 30 29 35 0 0 -1
7 43 0 53 45 51 41 62 71 0 81 +82 1 110 2118320318 82 1 100 2089681083 19 13 28
 0 1 0 8 4 S74 4 CI16 index_map_offset0 0 1 dCCZ20 11 2 0 0 143 145 0 0 0 0 0 0
 0 0 0 0 0 0 0 0 0 0 0 0 1 0 
