M48
;Layer_Color=9474304
;FILE_FORMAT=2:3
INCH,LZ
;TYPE=PLATED
T1F00S00C0.012
T2F00S00C0.024
T3F00S00C0.028
T4F00S00C0.035
T5F00S00C0.079
%
T01
X00671Y00283
X01151Y00183
X00671Y00643
Y01224
Y01584
X01151Y01124
X00434Y0141
X00367Y01451
X00174Y0146
X0016Y01491
X00154Y0155
Y0136
Y0131
T02
X00274Y00209
X00374Y00309
X00174
X00274Y00409
X00788Y00469
X00888
X00838Y00172
Y00072
Y00741
Y00841
Y01013
Y01113
X00788Y0141
X00888
X00838Y01682
Y01782
X00374Y00939
X00274Y00839
X00174Y00939
X00274Y01039
T03
X01111Y00343
Y00421
Y005
Y00579
Y01284
Y01362
Y01441
Y0152
T04
X00112Y00054
X00212
X00312
X00412
X01286Y00355
Y00455
Y00555
Y01296
Y01396
Y01496
X00489Y01495
Y01595
Y01695
Y01795
Y01395
Y01295
X00412Y00684
X00312
X00212
X00112
T05
X00681Y00083
X00838Y00386
Y00547
X01291Y00083
Y00831
Y01024
X00681
Y00831
X00838Y01327
Y01488
X00681Y01772
X01291
X00054Y0179
Y013
M30
