%FSLAX23Y23*%
%MOIN*%
G70*
G01*
G75*
G04 Layer_Color=65535*
%ADD10C,0.005*%
%ADD11R,0.067X0.043*%
%ADD12C,0.010*%
%ADD13R,0.037X0.035*%
%ADD14R,0.037X0.035*%
%ADD15R,0.045X0.069*%
%ADD16R,0.069X0.045*%
%ADD17C,0.012*%
%ADD18R,0.043X0.055*%
%ADD19O,0.010X0.022*%
%ADD20O,0.022X0.010*%
%ADD21C,0.008*%
%ADD22C,0.047*%
%ADD23C,0.059*%
%ADD24R,0.059X0.059*%
%ADD25R,0.059X0.059*%
%ADD26R,0.047X0.047*%
%ADD27C,0.051*%
%ADD28C,0.028*%
%ADD29C,0.024*%
%ADD30C,0.008*%
%ADD31C,0.010*%
%ADD32C,0.007*%
D10*
X4Y509D02*
X564D01*
X4Y4D02*
X564D01*
X4D02*
Y509D01*
X564Y4D02*
Y509D01*
X4Y1139D02*
X564D01*
X4Y634D02*
X564D01*
X4D02*
Y1139D01*
X564Y634D02*
Y1139D01*
X690Y910D02*
G03*
X602Y822I0J-88D01*
G01*
X1370D02*
G03*
X1282Y910I-88J0D01*
G01*
Y4D02*
G03*
X1370Y92I0J88D01*
G01*
X602D02*
G03*
X690Y4I88J0D01*
G01*
X799Y158D02*
Y183D01*
X877Y730D02*
Y755D01*
X602Y476D02*
Y822D01*
X1282Y910D02*
X690D01*
X1370Y92D02*
Y822D01*
X1282Y4D02*
X690D01*
X602Y92D02*
Y476D01*
X690Y1850D02*
G03*
X602Y1762I0J-88D01*
G01*
X1370D02*
G03*
X1282Y1850I-88J0D01*
G01*
Y945D02*
G03*
X1370Y1033I0J88D01*
G01*
X602D02*
G03*
X690Y945I88J0D01*
G01*
X799Y1099D02*
Y1124D01*
X877Y1671D02*
Y1696D01*
X602Y1417D02*
Y1762D01*
X1282Y1850D02*
X690D01*
X1370Y1033D02*
Y1762D01*
X1282Y945D02*
X690D01*
X602Y1033D02*
Y1417D01*
X544Y1240D02*
X4D01*
Y1850D01*
X544D02*
X4D01*
X544Y1240D02*
Y1850D01*
X0Y0D02*
X1374D01*
Y1853D01*
X0D02*
X1374D01*
X0Y0D02*
Y1853D01*
D12*
X520Y161D02*
Y126D01*
X508Y138D01*
X496Y126D01*
Y161D01*
X485Y126D02*
Y161D01*
X461D01*
X450Y126D02*
X426Y161D01*
Y126D02*
X450Y161D01*
X512Y290D02*
X518Y284D01*
X530D01*
X535Y290D01*
Y313D01*
X530Y319D01*
X518D01*
X512Y313D01*
X501Y319D02*
X489D01*
X495D01*
Y284D01*
X501Y290D01*
X520Y791D02*
Y756D01*
X508Y768D01*
X496Y756D01*
Y791D01*
X485Y756D02*
Y791D01*
X461D01*
X450Y756D02*
X426Y791D01*
Y756D02*
X450Y791D01*
X512Y920D02*
X518Y914D01*
X530D01*
X535Y920D01*
Y943D01*
X530Y949D01*
X518D01*
X512Y943D01*
X501Y949D02*
X489D01*
X495D01*
Y914D01*
X501Y920D01*
X961Y23D02*
X1001D01*
Y49D01*
Y63D02*
Y76D01*
Y69D01*
X961D01*
X968Y63D01*
X961Y823D02*
X1001D01*
Y849D01*
Y889D02*
Y863D01*
X974Y889D01*
X968D01*
X961Y883D01*
Y869D01*
X968Y863D01*
X956Y378D02*
X996D01*
Y405D01*
X956Y418D02*
X996D01*
Y438D01*
X989Y445D01*
X962D01*
X956Y438D01*
Y418D01*
X996Y458D02*
X956D01*
Y478D01*
X962Y485D01*
X976D01*
X982Y478D01*
Y458D01*
Y471D02*
X996Y485D01*
Y498D02*
Y511D01*
Y505D01*
X956D01*
X962Y498D01*
X1306Y625D02*
X1266D01*
Y645D01*
X1273Y651D01*
X1286D01*
X1293Y645D01*
Y625D01*
X1306Y691D02*
Y665D01*
X1279Y691D01*
X1273D01*
X1266Y685D01*
Y671D01*
X1273Y665D01*
X1014Y199D02*
X988D01*
X981Y193D01*
Y179D01*
X988Y173D01*
X1014D01*
X1021Y179D01*
Y193D01*
X1008Y186D02*
X1021Y199D01*
Y193D02*
X1014Y199D01*
X1021Y213D02*
Y226D01*
Y219D01*
X981D01*
X988Y213D01*
X703Y669D02*
X663D01*
Y689D01*
X670Y695D01*
X683D01*
X690Y689D01*
Y669D01*
Y682D02*
X703Y695D01*
Y709D02*
Y722D01*
Y715D01*
X663D01*
X670Y709D01*
X703Y194D02*
X663D01*
Y214D01*
X670Y220D01*
X683D01*
X690Y214D01*
Y194D01*
Y207D02*
X703Y220D01*
Y260D02*
Y234D01*
X676Y260D01*
X670D01*
X663Y254D01*
Y240D01*
X670Y234D01*
X771Y263D02*
X731D01*
Y283D01*
X738Y289D01*
X751D01*
X758Y283D01*
Y263D01*
Y276D02*
X771Y289D01*
X738Y303D02*
X731Y309D01*
Y323D01*
X738Y329D01*
X744D01*
X751Y323D01*
Y316D01*
Y323D01*
X758Y329D01*
X764D01*
X771Y323D01*
Y309D01*
X764Y303D01*
X764Y601D02*
X724D01*
Y621D01*
X731Y628D01*
X744D01*
X751Y621D01*
Y601D01*
Y615D02*
X764Y628D01*
Y661D02*
X724D01*
X744Y641D01*
Y668D01*
X1194Y374D02*
Y364D01*
X1199Y359D01*
X1219D01*
X1224Y364D01*
Y374D01*
X1219Y379D01*
X1199D01*
X1194Y374D01*
X1224Y389D02*
X1194D01*
X1224Y409D01*
X1194D01*
X1209Y449D02*
Y469D01*
X1194Y509D02*
Y519D01*
Y514D01*
X1224D01*
Y509D01*
Y519D01*
X1194Y549D02*
Y539D01*
X1199Y534D01*
X1219D01*
X1224Y539D01*
Y549D01*
X1219Y554D01*
X1199D01*
X1194Y549D01*
X1041Y263D02*
X1071D01*
Y283D01*
X1041Y313D02*
Y293D01*
X1071D01*
Y313D01*
X1056Y293D02*
Y303D01*
X1041Y323D02*
X1071D01*
Y338D01*
X1066Y343D01*
X1046D01*
X1041Y338D01*
Y323D01*
X1071Y383D02*
X1051D01*
X1041Y393D01*
X1051Y403D01*
X1071D01*
X1056D01*
Y383D01*
X1071Y413D02*
X1041D01*
X1071Y433D01*
X1041D01*
X1071Y443D02*
X1051D01*
X1041Y453D01*
X1051Y463D01*
X1071D01*
X1056D01*
Y443D01*
Y503D02*
Y523D01*
Y563D02*
Y583D01*
X1046Y573D02*
X1066D01*
X961Y964D02*
X1001D01*
Y990D01*
Y1004D02*
Y1017D01*
Y1010D01*
X961D01*
X968Y1004D01*
X961Y1764D02*
X1001D01*
Y1790D01*
Y1830D02*
Y1804D01*
X974Y1830D01*
X968D01*
X961Y1824D01*
Y1810D01*
X968Y1804D01*
X956Y1319D02*
X996D01*
Y1346D01*
X956Y1359D02*
X996D01*
Y1379D01*
X989Y1386D01*
X962D01*
X956Y1379D01*
Y1359D01*
X996Y1399D02*
X956D01*
Y1419D01*
X962Y1426D01*
X976D01*
X982Y1419D01*
Y1399D01*
Y1412D02*
X996Y1426D01*
Y1439D02*
Y1452D01*
Y1446D01*
X956D01*
X962Y1439D01*
X1306Y1566D02*
X1266D01*
Y1586D01*
X1273Y1592D01*
X1286D01*
X1293Y1586D01*
Y1566D01*
X1306Y1632D02*
Y1606D01*
X1279Y1632D01*
X1273D01*
X1266Y1626D01*
Y1612D01*
X1273Y1606D01*
X1014Y1140D02*
X988D01*
X981Y1134D01*
Y1120D01*
X988Y1114D01*
X1014D01*
X1021Y1120D01*
Y1134D01*
X1008Y1127D02*
X1021Y1140D01*
Y1134D02*
X1014Y1140D01*
X1021Y1154D02*
Y1167D01*
Y1160D01*
X981D01*
X988Y1154D01*
X703Y1610D02*
X663D01*
Y1630D01*
X670Y1636D01*
X683D01*
X690Y1630D01*
Y1610D01*
Y1623D02*
X703Y1636D01*
Y1649D02*
Y1663D01*
Y1656D01*
X663D01*
X670Y1649D01*
X703Y1135D02*
X663D01*
Y1155D01*
X670Y1161D01*
X683D01*
X690Y1155D01*
Y1135D01*
Y1148D02*
X703Y1161D01*
Y1201D02*
Y1174D01*
X676Y1201D01*
X670D01*
X663Y1194D01*
Y1181D01*
X670Y1174D01*
X771Y1204D02*
X731D01*
Y1224D01*
X738Y1230D01*
X751D01*
X758Y1224D01*
Y1204D01*
Y1217D02*
X771Y1230D01*
X738Y1244D02*
X731Y1250D01*
Y1264D01*
X738Y1270D01*
X744D01*
X751Y1264D01*
Y1257D01*
Y1264D01*
X758Y1270D01*
X764D01*
X771Y1264D01*
Y1250D01*
X764Y1244D01*
X764Y1542D02*
X724D01*
Y1562D01*
X731Y1569D01*
X744D01*
X751Y1562D01*
Y1542D01*
Y1556D02*
X764Y1569D01*
Y1602D02*
X724D01*
X744Y1582D01*
Y1609D01*
X1194Y1315D02*
Y1305D01*
X1199Y1300D01*
X1219D01*
X1224Y1305D01*
Y1315D01*
X1219Y1320D01*
X1199D01*
X1194Y1315D01*
X1224Y1330D02*
X1194D01*
X1224Y1350D01*
X1194D01*
X1209Y1390D02*
Y1410D01*
X1194Y1450D02*
Y1460D01*
Y1455D01*
X1224D01*
Y1450D01*
Y1460D01*
X1194Y1490D02*
Y1480D01*
X1199Y1475D01*
X1219D01*
X1224Y1480D01*
Y1490D01*
X1219Y1495D01*
X1199D01*
X1194Y1490D01*
X1041Y1204D02*
X1071D01*
Y1224D01*
X1041Y1254D02*
Y1234D01*
X1071D01*
Y1254D01*
X1056Y1234D02*
Y1244D01*
X1041Y1264D02*
X1071D01*
Y1279D01*
X1066Y1284D01*
X1046D01*
X1041Y1279D01*
Y1264D01*
X1071Y1324D02*
X1051D01*
X1041Y1334D01*
X1051Y1344D01*
X1071D01*
X1056D01*
Y1324D01*
X1071Y1354D02*
X1041D01*
X1071Y1374D01*
X1041D01*
X1071Y1384D02*
X1051D01*
X1041Y1394D01*
X1051Y1404D01*
X1071D01*
X1056D01*
Y1384D01*
Y1444D02*
Y1464D01*
Y1504D02*
Y1524D01*
X1046Y1514D02*
X1066D01*
X119Y1370D02*
X114Y1365D01*
Y1355D01*
X119Y1350D01*
X139D01*
X144Y1355D01*
Y1365D01*
X139Y1370D01*
X144Y1380D02*
Y1390D01*
Y1385D01*
X114D01*
X119Y1380D01*
Y1280D02*
X114Y1275D01*
Y1265D01*
X119Y1260D01*
X139D01*
X144Y1265D01*
Y1275D01*
X139Y1280D01*
X144Y1310D02*
Y1290D01*
X124Y1310D01*
X119D01*
X114Y1305D01*
Y1295D01*
X119Y1290D01*
X117Y1511D02*
X112Y1506D01*
Y1496D01*
X117Y1491D01*
X137D01*
X142Y1496D01*
Y1506D01*
X137Y1511D01*
X117Y1521D02*
X112Y1526D01*
Y1536D01*
X117Y1541D01*
X122D01*
X127Y1536D01*
Y1531D01*
Y1536D01*
X132Y1541D01*
X137D01*
X142Y1536D01*
Y1526D01*
X137Y1521D01*
X116Y1435D02*
X111Y1430D01*
Y1420D01*
X116Y1415D01*
X136D01*
X141Y1420D01*
Y1430D01*
X136Y1435D01*
X141Y1460D02*
X111D01*
X126Y1445D01*
Y1465D01*
X114Y1586D02*
X139D01*
X144Y1591D01*
Y1601D01*
X139Y1606D01*
X114D01*
X144Y1616D02*
Y1626D01*
Y1621D01*
X114D01*
X119Y1616D01*
X396Y1252D02*
X426D01*
Y1272D01*
X401Y1302D02*
X396Y1297D01*
Y1287D01*
X401Y1282D01*
X406D01*
X411Y1287D01*
Y1297D01*
X416Y1302D01*
X421D01*
X426Y1297D01*
Y1287D01*
X421Y1282D01*
X396Y1312D02*
X426D01*
Y1327D01*
X421Y1332D01*
X416D01*
X411Y1327D01*
Y1312D01*
Y1327D01*
X406Y1332D01*
X401D01*
X396Y1327D01*
Y1312D01*
Y1359D02*
Y1369D01*
Y1364D01*
X426D01*
Y1359D01*
Y1369D01*
Y1384D02*
X396D01*
X426Y1404D01*
X396D01*
Y1414D02*
Y1434D01*
Y1424D01*
X426D01*
X401Y1472D02*
X396Y1467D01*
Y1457D01*
X401Y1452D01*
X406D01*
X411Y1457D01*
Y1467D01*
X416Y1472D01*
X421D01*
X426Y1467D01*
Y1457D01*
X421Y1452D01*
X396Y1482D02*
X426D01*
Y1497D01*
X421Y1502D01*
X401D01*
X396Y1497D01*
Y1482D01*
X426Y1512D02*
X406D01*
X396Y1522D01*
X406Y1532D01*
X426D01*
X411D01*
Y1512D01*
X401Y1573D02*
X396Y1568D01*
Y1558D01*
X401Y1553D01*
X406D01*
X411Y1558D01*
Y1568D01*
X416Y1573D01*
X421D01*
X426Y1568D01*
Y1558D01*
X421Y1553D01*
X401Y1603D02*
X396Y1598D01*
Y1588D01*
X401Y1583D01*
X421D01*
X426Y1588D01*
Y1598D01*
X421Y1603D01*
X396Y1613D02*
X426D01*
Y1633D01*
X402Y1652D02*
X397Y1657D01*
Y1667D01*
X402Y1672D01*
X407D01*
X412Y1667D01*
Y1662D01*
Y1667D01*
X417Y1672D01*
X422D01*
X427Y1667D01*
Y1657D01*
X422Y1652D01*
X397Y1682D02*
X417D01*
X427Y1692D01*
X417Y1702D01*
X397D01*
X402Y1712D02*
X397Y1717D01*
Y1727D01*
X402Y1732D01*
X407D01*
X412Y1727D01*
Y1722D01*
Y1727D01*
X417Y1732D01*
X422D01*
X427Y1727D01*
Y1717D01*
X422Y1712D01*
X402Y1775D02*
X397Y1770D01*
Y1760D01*
X402Y1755D01*
X422D01*
X427Y1760D01*
Y1770D01*
X422Y1775D01*
X412D01*
Y1765D01*
X427Y1785D02*
X397D01*
X427Y1805D01*
X397D01*
Y1815D02*
X427D01*
Y1830D01*
X422Y1835D01*
X402D01*
X397Y1830D01*
Y1815D01*
D21*
X779Y210D02*
G03*
X897Y211I60J-91D01*
G01*
X897Y703D02*
G03*
X779Y702I-60J91D01*
G01*
X779Y1151D02*
G03*
X897Y1152I60J-91D01*
G01*
X897Y1644D02*
G03*
X779Y1643I-60J91D01*
G01*
D30*
X471Y309D02*
G03*
X471Y309I-197J0D01*
G01*
X144Y464D02*
G03*
X144Y464I-20J0D01*
G01*
X62Y4D02*
Y104D01*
X462D01*
X62Y4D02*
X462D01*
Y104D01*
X474Y403D02*
Y435D01*
X534Y403D02*
Y435D01*
X471Y939D02*
G03*
X471Y939I-197J0D01*
G01*
X144Y1094D02*
G03*
X144Y1094I-20J0D01*
G01*
X62Y634D02*
Y734D01*
X462D01*
X62Y634D02*
X462D01*
Y734D01*
X474Y1033D02*
Y1065D01*
X534Y1033D02*
Y1065D01*
X838Y569D02*
G03*
X838Y569I0J-100D01*
G01*
X1045Y156D02*
Y174D01*
Y72D02*
Y89D01*
X1103Y174D02*
X1045D01*
X1103Y72D02*
X1045D01*
X1336Y605D02*
X1236D01*
X1336Y305D02*
Y605D01*
Y305D02*
X1236D01*
Y605D01*
X899Y330D02*
X856D01*
X899Y269D02*
X856D01*
X892Y663D02*
X849D01*
X892Y602D02*
X849D01*
X648Y347D02*
Y390D01*
X709Y347D02*
Y390D01*
Y537D02*
Y580D01*
X648Y537D02*
Y580D01*
X838Y1510D02*
G03*
X838Y1510I0J-100D01*
G01*
X1045Y1097D02*
Y1115D01*
Y1013D02*
Y1030D01*
X1103Y1115D02*
X1045D01*
X1103Y1013D02*
X1045D01*
X1336Y1546D02*
X1236D01*
X1336Y1246D02*
Y1546D01*
Y1246D02*
X1236D01*
Y1546D01*
X899Y1271D02*
X856D01*
X899Y1210D02*
X856D01*
X892Y1604D02*
X849D01*
X892Y1543D02*
X849D01*
X648Y1288D02*
Y1331D01*
X709Y1288D02*
Y1331D01*
Y1478D02*
Y1521D01*
X648Y1478D02*
Y1521D01*
X204Y1441D02*
X185D01*
Y1460D01*
Y1580D02*
Y1599D01*
X204D02*
X185D01*
X343D02*
X324D01*
X343Y1580D02*
Y1599D01*
Y1441D02*
Y1460D01*
Y1441D02*
X324D01*
X226Y1649D02*
X182D01*
X226Y1711D02*
X182D01*
X226Y1749D02*
X182D01*
X226Y1811D02*
X182D01*
X539Y1245D02*
Y1845D01*
X439Y1245D02*
Y1845D01*
X539Y1245D02*
X439D01*
X539Y1845D02*
X439D01*
X375Y1708D02*
Y1752D01*
X313Y1708D02*
Y1752D01*
D31*
X1004Y128D02*
G03*
X1004Y128I0J-5D01*
G01*
Y1069D02*
G03*
X1004Y1069I0J-5D01*
G01*
X174Y1430D02*
G03*
X174Y1430I0J-5D01*
G01*
D32*
X897Y211D02*
X779D01*
X897Y702D02*
X779D01*
X897Y1152D02*
X779D01*
X897Y1643D02*
X779D01*
M02*
