%FSLAX23Y23*%
%MOIN*%
G70*
G01*
G75*
G04 Layer_Physical_Order=2*
G04 Layer_Color=8388608*
%ADD10C,0.005*%
%ADD11R,0.067X0.043*%
%ADD12C,0.010*%
%ADD13R,0.037X0.035*%
%ADD14R,0.037X0.035*%
%ADD15R,0.045X0.069*%
%ADD16R,0.069X0.045*%
%ADD17C,0.012*%
%ADD18R,0.043X0.055*%
%ADD19O,0.010X0.022*%
%ADD20O,0.022X0.010*%
%ADD21C,0.008*%
%ADD22C,0.047*%
%ADD23C,0.059*%
%ADD24R,0.059X0.059*%
%ADD25R,0.059X0.059*%
%ADD26R,0.047X0.047*%
%ADD27C,0.051*%
%ADD28C,0.028*%
%ADD29C,0.024*%
D10*
X0Y0D02*
X1374D01*
Y1853D01*
X0D02*
X1374D01*
X0Y0D02*
Y1853D01*
D12*
X1111Y421D02*
X890Y643D01*
X671D01*
X1151Y460D02*
X1111Y500D01*
X711Y243D02*
X671Y283D01*
X1151Y243D02*
X711D01*
X1151Y183D02*
Y243D01*
Y460D01*
X1111Y1362D02*
X890Y1584D01*
X671D01*
X1151Y1401D02*
X1111Y1441D01*
X711Y1184D02*
X671Y1224D01*
X1151Y1184D02*
X711D01*
X1151Y1124D02*
Y1184D01*
Y1401D01*
D21*
X203Y1491D02*
X160D01*
X184Y1460D02*
X174Y1470D01*
Y1460D02*
Y1470D01*
X212Y1460D02*
X184D01*
X268Y1427D02*
X203Y1491D01*
X261Y1411D02*
X212Y1460D01*
X384Y1360D02*
X434Y1410D01*
X384Y1360D02*
X154D01*
X489Y1495D02*
X485D01*
X394Y1427D02*
X268D01*
X489Y1580D02*
Y1595D01*
X401Y1411D02*
X261D01*
X401D02*
X410Y1419D01*
X435Y1467D02*
Y1526D01*
X489Y1580D01*
X451Y1461D02*
Y1461D01*
X485Y1495D01*
X410Y1420D02*
X424Y1434D01*
X424D02*
X424D01*
X424D02*
X451Y1461D01*
X418Y1450D02*
X417D01*
X418D02*
X435Y1467D01*
X395Y1451D02*
X367D01*
X395D02*
X411Y1466D01*
X411D02*
X411D01*
X411D02*
X419Y1474D01*
X410Y1419D02*
Y1420D01*
X394Y1427D02*
X417Y1450D01*
X419Y1474D02*
Y1624D01*
X489Y1694D01*
Y1695D01*
X154Y1310D02*
X130Y1334D01*
Y1529D01*
X151Y1550D01*
X154D02*
X151D01*
D22*
X374Y309D02*
D03*
X274Y209D02*
D03*
X174Y309D02*
D03*
X274Y409D02*
D03*
X374Y939D02*
D03*
X274Y839D02*
D03*
X174Y939D02*
D03*
X274Y1039D02*
D03*
X838Y172D02*
D03*
Y72D02*
D03*
Y741D02*
D03*
Y841D02*
D03*
X888Y469D02*
D03*
X788D02*
D03*
X1111Y579D02*
D03*
Y500D02*
D03*
Y421D02*
D03*
X838Y1113D02*
D03*
Y1013D02*
D03*
Y1682D02*
D03*
Y1782D02*
D03*
X888Y1410D02*
D03*
X788D02*
D03*
X1111Y1520D02*
D03*
Y1441D02*
D03*
Y1362D02*
D03*
D23*
X412Y54D02*
D03*
X312D02*
D03*
X212D02*
D03*
X412Y684D02*
D03*
X312D02*
D03*
X212D02*
D03*
X1286Y355D02*
D03*
Y455D02*
D03*
Y1296D02*
D03*
Y1396D02*
D03*
X489Y1795D02*
D03*
Y1695D02*
D03*
Y1595D02*
D03*
Y1495D02*
D03*
Y1395D02*
D03*
D24*
X112Y54D02*
D03*
Y684D02*
D03*
D25*
X1286Y555D02*
D03*
Y1496D02*
D03*
X489Y1295D02*
D03*
D26*
X1111Y343D02*
D03*
Y1284D02*
D03*
D27*
X1291Y83D02*
D03*
Y831D02*
D03*
X681Y83D02*
D03*
Y831D02*
D03*
X838Y547D02*
D03*
Y386D02*
D03*
X1291Y1024D02*
D03*
Y1772D02*
D03*
X681Y1024D02*
D03*
Y1772D02*
D03*
X838Y1488D02*
D03*
Y1327D02*
D03*
X54Y1790D02*
D03*
Y1300D02*
D03*
D28*
X671Y643D02*
D03*
X1151Y183D02*
D03*
X671Y283D02*
D03*
Y1584D02*
D03*
X1151Y1124D02*
D03*
X671Y1224D02*
D03*
D29*
X174Y1460D02*
D03*
X367Y1451D02*
D03*
X434Y1410D02*
D03*
X154Y1360D02*
D03*
Y1550D02*
D03*
X160Y1491D02*
D03*
X154Y1310D02*
D03*
M02*
