%FSLAX23Y23*%
%MOIN*%
G70*
G01*
G75*
G04 Layer_Physical_Order=1*
G04 Layer_Color=255*
%ADD10C,0.005*%
%ADD11R,0.067X0.043*%
%ADD12C,0.010*%
%ADD13R,0.037X0.035*%
%ADD14R,0.037X0.035*%
%ADD15R,0.045X0.069*%
%ADD16R,0.069X0.045*%
%ADD17C,0.012*%
%ADD18R,0.043X0.055*%
%ADD19O,0.010X0.022*%
%ADD20O,0.022X0.010*%
%ADD21C,0.008*%
%ADD22C,0.047*%
%ADD23C,0.059*%
%ADD24R,0.059X0.059*%
%ADD25R,0.059X0.059*%
%ADD26R,0.047X0.047*%
%ADD27C,0.051*%
%ADD28C,0.028*%
%ADD29C,0.024*%
D10*
X0Y0D02*
X1374D01*
Y1853D01*
X0D02*
X1374D01*
X0Y0D02*
Y1853D01*
D11*
X504Y366D02*
D03*
Y472D02*
D03*
Y996D02*
D03*
Y1102D02*
D03*
D12*
X314Y249D02*
X444Y379D01*
X314Y56D02*
Y249D01*
X312Y54D02*
X314Y56D01*
X270Y429D02*
X325Y484D01*
X517D01*
X444Y379D02*
X506D01*
X212Y54D02*
Y147D01*
X269Y204D01*
X112Y54D02*
Y257D01*
X164Y309D01*
X552Y194D02*
Y449D01*
X412Y54D02*
X552Y194D01*
X517Y484D02*
X552Y449D01*
X314Y879D02*
X444Y1009D01*
X314Y686D02*
Y879D01*
X312Y684D02*
X314Y686D01*
X270Y1059D02*
X325Y1114D01*
X517D01*
X444Y1009D02*
X506D01*
X212Y684D02*
Y777D01*
X269Y834D01*
X112Y684D02*
Y887D01*
X164Y939D01*
X552Y824D02*
Y1078D01*
X412Y684D02*
X552Y824D01*
X517Y1114D02*
X552Y1078D01*
X1111Y343D02*
X1121Y353D01*
X1301D02*
X1121D01*
X1301Y416D02*
Y453D01*
X1345Y371D02*
X1301Y416D01*
X1345Y294D02*
Y371D01*
X1137Y85D02*
X1345Y294D01*
X1045Y123D02*
X889D01*
X838Y72D02*
X889Y123D01*
X817Y193D02*
Y299D01*
X838Y172D02*
X817Y193D01*
Y614D02*
Y721D01*
X838Y741D01*
X678Y429D02*
Y499D01*
X838Y72D02*
X761Y149D01*
Y764D02*
X838Y841D01*
X758Y499D02*
X678D01*
X788Y469D02*
X758Y499D01*
X761Y149D02*
Y387D01*
X827Y454D01*
X804Y507D02*
X761Y550D01*
Y764D01*
X827Y454D02*
Y484D01*
X804Y507D01*
Y507D01*
X1111Y1284D02*
X1121Y1294D01*
X1301D02*
X1121D01*
X1301Y1357D02*
Y1394D01*
X1345Y1312D02*
X1301Y1357D01*
X1345Y1235D02*
Y1312D01*
X1137Y1026D02*
X1345Y1235D01*
X1045Y1064D02*
X889D01*
X838Y1013D02*
X889Y1064D01*
X817Y1134D02*
Y1240D01*
X838Y1113D02*
X817Y1134D01*
Y1555D02*
Y1662D01*
X838Y1682D01*
X678Y1370D02*
Y1439D01*
X838Y1013D02*
X761Y1090D01*
Y1705D02*
X838Y1782D01*
X758Y1439D02*
X678D01*
X788Y1410D02*
X758Y1439D01*
X761Y1090D02*
Y1328D01*
X827Y1395D01*
X804Y1448D02*
X761Y1491D01*
Y1705D01*
X827Y1395D02*
Y1425D01*
X804Y1448D01*
Y1448D01*
D13*
X1045Y123D02*
D03*
X1137Y85D02*
D03*
X1045Y1064D02*
D03*
X1137Y1026D02*
D03*
D14*
X1137Y160D02*
D03*
Y1101D02*
D03*
D15*
X817Y299D02*
D03*
X937D02*
D03*
X811Y633D02*
D03*
X931D02*
D03*
X817Y1240D02*
D03*
X937D02*
D03*
X811Y1574D02*
D03*
X931D02*
D03*
X264Y1680D02*
D03*
X144D02*
D03*
X264Y1780D02*
D03*
X144D02*
D03*
D16*
X678Y309D02*
D03*
Y429D02*
D03*
Y619D02*
D03*
Y499D02*
D03*
Y1249D02*
D03*
Y1370D02*
D03*
Y1560D02*
D03*
Y1439D02*
D03*
X344Y1790D02*
D03*
Y1670D02*
D03*
D17*
X1111Y579D02*
X973D01*
X937Y614D01*
Y518D02*
Y614D01*
X888Y469D02*
X937Y518D01*
Y299D02*
Y426D01*
X895Y469D01*
X888D01*
X1301Y553D02*
X1275Y579D01*
X1111D01*
Y1520D02*
X973D01*
X937Y1555D01*
Y1459D02*
Y1555D01*
X888Y1410D02*
X937Y1459D01*
Y1240D02*
Y1367D01*
X895Y1410D01*
X888D01*
X1301Y1494D02*
X1275Y1520D01*
X1111D01*
D18*
X294Y1370D02*
D03*
X354D02*
D03*
X294Y1290D02*
D03*
X354D02*
D03*
X234Y1370D02*
D03*
X174D02*
D03*
X234Y1290D02*
D03*
X174D02*
D03*
D19*
X215Y1438D02*
D03*
X234D02*
D03*
X254D02*
D03*
X274D02*
D03*
X294D02*
D03*
X313D02*
D03*
Y1602D02*
D03*
X294D02*
D03*
X274D02*
D03*
X254D02*
D03*
X234D02*
D03*
X215D02*
D03*
D20*
X346Y1471D02*
D03*
Y1490D02*
D03*
Y1510D02*
D03*
Y1530D02*
D03*
Y1550D02*
D03*
Y1569D02*
D03*
X182D02*
D03*
Y1550D02*
D03*
Y1530D02*
D03*
Y1510D02*
D03*
Y1490D02*
D03*
Y1471D02*
D03*
D21*
X489Y1695D02*
X439D01*
X344Y1790D01*
X274D01*
X264Y1780D02*
X274Y1790D01*
X264Y1680D02*
Y1780D01*
Y1676D02*
Y1680D01*
X313Y1627D02*
X264Y1676D01*
X313Y1602D02*
Y1627D01*
X314Y1601D02*
X313Y1602D01*
X346Y1490D02*
X284D01*
X294Y1290D02*
Y1370D01*
X294Y1290D02*
X294Y1290D01*
X294Y1290D02*
X234D01*
Y1370D01*
X234Y1602D02*
X215D01*
X237Y1599D02*
X234Y1602D01*
X237Y1589D02*
Y1599D01*
X247Y1579D02*
X237Y1589D01*
X263Y1579D02*
X247D01*
X263D02*
X274Y1590D01*
Y1602D01*
X354Y1370D02*
X369Y1385D01*
X489Y1295D02*
X531Y1337D01*
X215Y1594D02*
Y1602D01*
X234Y1370D02*
X215Y1389D01*
Y1438D01*
X292Y1550D02*
X263Y1579D01*
X346Y1550D02*
X292D01*
X354Y1290D02*
Y1370D01*
X182Y1490D02*
X182Y1490D01*
X154Y1550D02*
X154Y1550D01*
X182Y1550D02*
X154D01*
X174Y1290D02*
X154Y1310D01*
X174Y1290D02*
X174D01*
X344Y1663D02*
Y1670D01*
X465Y1542D02*
X344Y1663D01*
X531Y1337D02*
Y1520D01*
X509Y1542D01*
X465D01*
X346Y1569D02*
X346Y1569D01*
Y1530D02*
X346Y1530D01*
X254Y1438D02*
Y1460D01*
X284Y1490D01*
X215Y1438D02*
Y1449D01*
X182Y1490D02*
X164D01*
X200Y1471D02*
X182D01*
X215Y1449D02*
X226Y1460D01*
Y1583D01*
X215Y1594D01*
X200Y1471D02*
X210Y1481D01*
Y1571D01*
X198Y1584D01*
X164Y1490D02*
X130Y1524D01*
Y1666D01*
X144Y1680D01*
X489Y1795D02*
X485D01*
X450Y1830D01*
X237Y1599D02*
X223Y1613D01*
Y1817D01*
X236Y1830D01*
X450D02*
X236D01*
X198Y1584D02*
Y1714D01*
X144Y1768D01*
Y1780D01*
X434Y1410D02*
X435Y1411D01*
X489Y1295D02*
X398Y1386D01*
X346Y1510D02*
X346Y1510D01*
X369Y1385D02*
Y1486D01*
X364Y1490D01*
X346D01*
X398Y1386D02*
Y1480D01*
X368Y1510D01*
X346D01*
X435Y1411D02*
Y1465D01*
X370Y1530D01*
X346D01*
X356Y1569D02*
X346D01*
X489Y1395D02*
Y1436D01*
X356Y1569D01*
D22*
X374Y309D02*
D03*
X274Y209D02*
D03*
X174Y309D02*
D03*
X274Y409D02*
D03*
X374Y939D02*
D03*
X274Y839D02*
D03*
X174Y939D02*
D03*
X274Y1039D02*
D03*
X838Y172D02*
D03*
Y72D02*
D03*
Y741D02*
D03*
Y841D02*
D03*
X888Y469D02*
D03*
X788D02*
D03*
X1111Y579D02*
D03*
Y500D02*
D03*
Y421D02*
D03*
X838Y1113D02*
D03*
Y1013D02*
D03*
Y1682D02*
D03*
Y1782D02*
D03*
X888Y1410D02*
D03*
X788D02*
D03*
X1111Y1520D02*
D03*
Y1441D02*
D03*
Y1362D02*
D03*
D23*
X412Y54D02*
D03*
X312D02*
D03*
X212D02*
D03*
X412Y684D02*
D03*
X312D02*
D03*
X212D02*
D03*
X1286Y355D02*
D03*
Y455D02*
D03*
Y1296D02*
D03*
Y1396D02*
D03*
X489Y1795D02*
D03*
Y1695D02*
D03*
Y1595D02*
D03*
Y1495D02*
D03*
Y1395D02*
D03*
D24*
X112Y54D02*
D03*
Y684D02*
D03*
D25*
X1286Y555D02*
D03*
Y1496D02*
D03*
X489Y1295D02*
D03*
D26*
X1111Y343D02*
D03*
Y1284D02*
D03*
D27*
X1291Y83D02*
D03*
Y831D02*
D03*
X681Y83D02*
D03*
Y831D02*
D03*
X838Y547D02*
D03*
Y386D02*
D03*
X1291Y1024D02*
D03*
Y1772D02*
D03*
X681Y1024D02*
D03*
Y1772D02*
D03*
X838Y1488D02*
D03*
Y1327D02*
D03*
X54Y1790D02*
D03*
Y1300D02*
D03*
D28*
X671Y643D02*
D03*
X1151Y183D02*
D03*
X671Y283D02*
D03*
Y1584D02*
D03*
X1151Y1124D02*
D03*
X671Y1224D02*
D03*
D29*
X174Y1460D02*
D03*
X367Y1451D02*
D03*
X434Y1410D02*
D03*
X154Y1360D02*
D03*
Y1550D02*
D03*
X160Y1491D02*
D03*
X154Y1310D02*
D03*
M02*
