%FSLAX23Y23*%
%MOIN*%
G70*
G01*
G75*
G04 Layer_Color=32896*
%ADD10C,0.005*%
%ADD11R,0.067X0.043*%
%ADD12C,0.010*%
%ADD13R,0.037X0.035*%
%ADD14R,0.037X0.035*%
%ADD15R,0.045X0.069*%
%ADD16R,0.069X0.045*%
%ADD17C,0.012*%
%ADD18R,0.043X0.055*%
%ADD19O,0.010X0.022*%
%ADD20O,0.022X0.010*%
%ADD21C,0.008*%
%ADD22C,0.047*%
%ADD23C,0.059*%
%ADD24R,0.059X0.059*%
%ADD25R,0.059X0.059*%
%ADD26R,0.047X0.047*%
%ADD27C,0.051*%
%ADD28C,0.028*%
%ADD29C,0.024*%
%ADD30C,0.008*%
%ADD31C,0.010*%
%ADD32C,0.007*%
%ADD33R,0.075X0.051*%
%ADD34R,0.045X0.043*%
%ADD35R,0.045X0.043*%
%ADD36R,0.053X0.077*%
%ADD37R,0.077X0.053*%
%ADD38R,0.051X0.063*%
%ADD39O,0.018X0.030*%
%ADD40O,0.030X0.018*%
%ADD41C,0.055*%
%ADD42C,0.067*%
%ADD43R,0.067X0.067*%
%ADD44R,0.067X0.067*%
%ADD45R,0.055X0.055*%
%ADD46C,0.059*%
%ADD47C,0.001*%
D10*
X4Y509D02*
X564D01*
X4Y4D02*
X564D01*
X4D02*
Y509D01*
X564Y4D02*
Y509D01*
X4Y1139D02*
X564D01*
X4Y634D02*
X564D01*
X4D02*
Y1139D01*
X564Y634D02*
Y1139D01*
X690Y910D02*
G03*
X602Y822I0J-88D01*
G01*
X1370D02*
G03*
X1282Y910I-88J0D01*
G01*
Y4D02*
G03*
X1370Y92I0J88D01*
G01*
X602D02*
G03*
X690Y4I88J0D01*
G01*
X602Y476D02*
Y822D01*
X1282Y910D02*
X690D01*
X1370Y92D02*
Y822D01*
X1282Y4D02*
X690D01*
X602Y92D02*
Y476D01*
X690Y1850D02*
G03*
X602Y1762I0J-88D01*
G01*
X1370D02*
G03*
X1282Y1850I-88J0D01*
G01*
Y945D02*
G03*
X1370Y1033I0J88D01*
G01*
X602D02*
G03*
X690Y945I88J0D01*
G01*
X602Y1417D02*
Y1762D01*
X1282Y1850D02*
X690D01*
X1370Y1033D02*
Y1762D01*
X1282Y945D02*
X690D01*
X602Y1033D02*
Y1417D01*
X544Y1240D02*
X4D01*
Y1850D01*
X544D02*
X4D01*
X544Y1240D02*
Y1850D01*
X0Y0D02*
X1374D01*
Y1853D01*
X0D02*
X1374D01*
X0Y0D02*
Y1853D01*
D12*
X4Y325D02*
X138D01*
Y255D02*
Y509D01*
X4Y255D02*
X138D01*
X354Y129D02*
X327D01*
X314Y142D01*
X327Y156D01*
X354D01*
X347Y196D02*
X354Y189D01*
Y176D01*
X347Y169D01*
X321D01*
X314Y176D01*
Y189D01*
X321Y196D01*
X347Y236D02*
X354Y229D01*
Y216D01*
X347Y209D01*
X321D01*
X314Y216D01*
Y229D01*
X321Y236D01*
X123Y156D02*
X130Y149D01*
Y136D01*
X123Y129D01*
X117D01*
X110Y136D01*
Y149D01*
X103Y156D01*
X97D01*
X90Y149D01*
Y136D01*
X97Y129D01*
X123Y196D02*
X130Y189D01*
Y176D01*
X123Y169D01*
X97D01*
X90Y176D01*
Y189D01*
X97Y196D01*
X130Y209D02*
X90D01*
Y236D01*
X217Y156D02*
X224Y149D01*
Y136D01*
X217Y129D01*
X211D01*
X204Y136D01*
Y149D01*
X197Y156D01*
X191D01*
X184Y149D01*
Y136D01*
X191Y129D01*
X224Y169D02*
X184D01*
Y189D01*
X191Y196D01*
X217D01*
X224Y189D01*
Y169D01*
X184Y209D02*
X211D01*
X224Y222D01*
X211Y236D01*
X184D01*
X204D01*
Y209D01*
X423Y156D02*
X430Y149D01*
Y136D01*
X423Y129D01*
X397D01*
X390Y136D01*
Y149D01*
X397Y156D01*
X410D01*
Y142D01*
X390Y169D02*
X430D01*
X390Y196D01*
X430D01*
Y209D02*
X390D01*
Y229D01*
X397Y236D01*
X423D01*
X430Y229D01*
Y209D01*
X37Y268D02*
X51D01*
X44D01*
Y311D01*
X37D01*
X51D01*
X73Y268D02*
Y311D01*
X95D01*
X102Y304D01*
Y275D01*
X95Y268D01*
X73D01*
X519Y487D02*
X545D01*
Y447D01*
X519D01*
X545Y467D02*
X532D01*
X505Y447D02*
Y487D01*
X492Y474D01*
X479Y487D01*
Y447D01*
X439Y487D02*
X465D01*
Y447D01*
X439D01*
X465Y467D02*
X452D01*
X425Y447D02*
Y487D01*
X405D01*
X399Y480D01*
Y467D01*
X405Y460D01*
X425D01*
X412D02*
X399Y447D01*
X365Y487D02*
X379D01*
X385Y480D01*
Y454D01*
X379Y447D01*
X365D01*
X359Y454D01*
Y480D01*
X365Y487D01*
X345D02*
X319D01*
X332D01*
Y447D01*
X279Y487D02*
X305D01*
Y447D01*
X279D01*
X305Y467D02*
X292D01*
X239Y480D02*
X245Y487D01*
X259D01*
X265Y480D01*
Y454D01*
X259Y447D01*
X245D01*
X239Y454D01*
X205Y487D02*
X219D01*
X225Y480D01*
Y454D01*
X219Y447D01*
X205D01*
X199Y454D01*
Y480D01*
X205Y487D01*
X159Y480D02*
X165Y487D01*
X179D01*
X185Y480D01*
Y474D01*
X179Y467D01*
X165D01*
X159Y460D01*
Y454D01*
X165Y447D01*
X179D01*
X185Y454D01*
X545Y418D02*
Y391D01*
X532Y378D01*
X519Y391D01*
Y418D01*
X505Y378D02*
X492D01*
X499D01*
Y418D01*
X505Y411D01*
X472Y378D02*
Y385D01*
X465D01*
Y378D01*
X472D01*
X439Y411D02*
X432Y418D01*
X419D01*
X412Y411D01*
Y385D01*
X419Y378D01*
X432D01*
X439Y385D01*
Y411D01*
X4Y955D02*
X138D01*
Y885D02*
Y1139D01*
X4Y885D02*
X138D01*
X354Y759D02*
X327D01*
X314Y772D01*
X327Y786D01*
X354D01*
X347Y826D02*
X354Y819D01*
Y806D01*
X347Y799D01*
X321D01*
X314Y806D01*
Y819D01*
X321Y826D01*
X347Y866D02*
X354Y859D01*
Y846D01*
X347Y839D01*
X321D01*
X314Y846D01*
Y859D01*
X321Y866D01*
X123Y786D02*
X130Y779D01*
Y766D01*
X123Y759D01*
X117D01*
X110Y766D01*
Y779D01*
X103Y786D01*
X97D01*
X90Y779D01*
Y766D01*
X97Y759D01*
X123Y826D02*
X130Y819D01*
Y806D01*
X123Y799D01*
X97D01*
X90Y806D01*
Y819D01*
X97Y826D01*
X130Y839D02*
X90D01*
Y866D01*
X217Y786D02*
X224Y779D01*
Y766D01*
X217Y759D01*
X211D01*
X204Y766D01*
Y779D01*
X197Y786D01*
X191D01*
X184Y779D01*
Y766D01*
X191Y759D01*
X224Y799D02*
X184D01*
Y819D01*
X191Y826D01*
X217D01*
X224Y819D01*
Y799D01*
X184Y839D02*
X211D01*
X224Y852D01*
X211Y866D01*
X184D01*
X204D01*
Y839D01*
X423Y786D02*
X430Y779D01*
Y766D01*
X423Y759D01*
X397D01*
X390Y766D01*
Y779D01*
X397Y786D01*
X410D01*
Y772D01*
X390Y799D02*
X430D01*
X390Y826D01*
X430D01*
Y839D02*
X390D01*
Y859D01*
X397Y866D01*
X423D01*
X430Y859D01*
Y839D01*
X37Y898D02*
X51D01*
X44D01*
Y941D01*
X37D01*
X51D01*
X73Y898D02*
Y941D01*
X95D01*
X102Y934D01*
Y905D01*
X95Y898D01*
X73D01*
X519Y1117D02*
X545D01*
Y1077D01*
X519D01*
X545Y1097D02*
X532D01*
X505Y1077D02*
Y1117D01*
X492Y1103D01*
X479Y1117D01*
Y1077D01*
X439Y1117D02*
X465D01*
Y1077D01*
X439D01*
X465Y1097D02*
X452D01*
X425Y1077D02*
Y1117D01*
X405D01*
X399Y1110D01*
Y1097D01*
X405Y1090D01*
X425D01*
X412D02*
X399Y1077D01*
X365Y1117D02*
X379D01*
X385Y1110D01*
Y1083D01*
X379Y1077D01*
X365D01*
X359Y1083D01*
Y1110D01*
X365Y1117D01*
X345D02*
X319D01*
X332D01*
Y1077D01*
X279Y1117D02*
X305D01*
Y1077D01*
X279D01*
X305Y1097D02*
X292D01*
X239Y1110D02*
X245Y1117D01*
X259D01*
X265Y1110D01*
Y1083D01*
X259Y1077D01*
X245D01*
X239Y1083D01*
X205Y1117D02*
X219D01*
X225Y1110D01*
Y1083D01*
X219Y1077D01*
X205D01*
X199Y1083D01*
Y1110D01*
X205Y1117D01*
X159Y1110D02*
X165Y1117D01*
X179D01*
X185Y1110D01*
Y1103D01*
X179Y1097D01*
X165D01*
X159Y1090D01*
Y1083D01*
X165Y1077D01*
X179D01*
X185Y1083D01*
X545Y1048D02*
Y1021D01*
X532Y1008D01*
X519Y1021D01*
Y1048D01*
X505Y1008D02*
X492D01*
X499D01*
Y1048D01*
X505Y1041D01*
X472Y1008D02*
Y1015D01*
X465D01*
Y1008D01*
X472D01*
X439Y1041D02*
X432Y1048D01*
X419D01*
X412Y1041D01*
Y1015D01*
X419Y1008D01*
X432D01*
X439Y1015D01*
Y1041D01*
X1181Y663D02*
X1001D01*
Y263D02*
Y663D01*
X1181Y263D02*
X1001D01*
X1181D02*
Y663D01*
X973Y658D02*
X933D01*
Y638D01*
X940Y631D01*
X953D01*
X960Y638D01*
Y658D01*
X973Y618D02*
Y604D01*
Y611D01*
X933D01*
X940Y618D01*
X1208Y595D02*
Y575D01*
X1198Y585D02*
X1218D01*
X1208Y535D02*
Y515D01*
X1223Y475D02*
X1203D01*
X1193Y465D01*
X1203Y455D01*
X1223D01*
X1208D01*
Y475D01*
X1223Y445D02*
X1193D01*
X1223Y425D01*
X1193D01*
X1223Y415D02*
X1203D01*
X1193Y405D01*
X1203Y395D01*
X1223D01*
X1208D01*
Y415D01*
X1193Y355D02*
X1223D01*
Y335D01*
X1193Y305D02*
Y325D01*
X1223D01*
Y305D01*
X1208Y325D02*
Y315D01*
X1193Y295D02*
X1223D01*
Y280D01*
X1218Y275D01*
X1198D01*
X1193Y280D01*
Y295D01*
X1327Y744D02*
Y754D01*
Y749D01*
X1352D01*
X1357Y754D01*
Y759D01*
X1352Y764D01*
X1337Y734D02*
X1352D01*
X1357Y729D01*
Y714D01*
X1337D01*
X1357Y704D02*
X1337D01*
Y689D01*
X1342Y684D01*
X1357D01*
Y674D02*
X1337Y654D01*
X1357Y624D02*
Y644D01*
X1337Y624D01*
X1332D01*
X1327Y629D01*
Y639D01*
X1332Y644D01*
Y614D02*
X1327Y609D01*
Y599D01*
X1332Y594D01*
X1352D01*
X1357Y599D01*
Y609D01*
X1352Y614D01*
X1332D01*
X1357Y584D02*
Y574D01*
Y579D01*
X1327D01*
X1332Y584D01*
Y559D02*
X1327Y554D01*
Y544D01*
X1332Y539D01*
X1337D01*
X1342Y544D01*
Y549D01*
Y544D01*
X1347Y539D01*
X1352D01*
X1357Y544D01*
Y554D01*
X1352Y559D01*
X1342Y499D02*
Y479D01*
X1327Y439D02*
X1347D01*
X1357Y429D01*
X1347Y419D01*
X1327D01*
X1357Y409D02*
Y399D01*
Y404D01*
X1327D01*
X1332Y409D01*
X1357Y384D02*
X1352D01*
Y379D01*
X1357D01*
Y384D01*
X1332Y359D02*
X1327Y354D01*
Y344D01*
X1332Y339D01*
X1352D01*
X1357Y344D01*
Y354D01*
X1352Y359D01*
X1332D01*
X1181Y1604D02*
X1001D01*
Y1204D02*
Y1604D01*
X1181Y1204D02*
X1001D01*
X1181D02*
Y1604D01*
X973Y1599D02*
X933D01*
Y1579D01*
X940Y1572D01*
X953D01*
X960Y1579D01*
Y1599D01*
X973Y1559D02*
Y1545D01*
Y1552D01*
X933D01*
X940Y1559D01*
X1208Y1536D02*
Y1516D01*
X1198Y1526D02*
X1218D01*
X1208Y1476D02*
Y1456D01*
X1223Y1416D02*
X1203D01*
X1193Y1406D01*
X1203Y1396D01*
X1223D01*
X1208D01*
Y1416D01*
X1223Y1386D02*
X1193D01*
X1223Y1366D01*
X1193D01*
X1223Y1356D02*
X1203D01*
X1193Y1346D01*
X1203Y1336D01*
X1223D01*
X1208D01*
Y1356D01*
X1193Y1296D02*
X1223D01*
Y1276D01*
X1193Y1246D02*
Y1266D01*
X1223D01*
Y1246D01*
X1208Y1266D02*
Y1256D01*
X1193Y1236D02*
X1223D01*
Y1221D01*
X1218Y1216D01*
X1198D01*
X1193Y1221D01*
Y1236D01*
X1327Y1685D02*
Y1695D01*
Y1690D01*
X1352D01*
X1357Y1695D01*
Y1700D01*
X1352Y1705D01*
X1337Y1675D02*
X1352D01*
X1357Y1670D01*
Y1655D01*
X1337D01*
X1357Y1645D02*
X1337D01*
Y1630D01*
X1342Y1625D01*
X1357D01*
Y1615D02*
X1337Y1595D01*
X1357Y1565D02*
Y1585D01*
X1337Y1565D01*
X1332D01*
X1327Y1570D01*
Y1580D01*
X1332Y1585D01*
Y1555D02*
X1327Y1550D01*
Y1540D01*
X1332Y1535D01*
X1352D01*
X1357Y1540D01*
Y1550D01*
X1352Y1555D01*
X1332D01*
X1357Y1525D02*
Y1515D01*
Y1520D01*
X1327D01*
X1332Y1525D01*
Y1500D02*
X1327Y1495D01*
Y1485D01*
X1332Y1480D01*
X1337D01*
X1342Y1485D01*
Y1490D01*
Y1485D01*
X1347Y1480D01*
X1352D01*
X1357Y1485D01*
Y1495D01*
X1352Y1500D01*
X1342Y1440D02*
Y1420D01*
X1327Y1380D02*
X1347D01*
X1357Y1370D01*
X1347Y1360D01*
X1327D01*
X1357Y1350D02*
Y1340D01*
Y1345D01*
X1327D01*
X1332Y1350D01*
X1357Y1325D02*
X1352D01*
Y1320D01*
X1357D01*
Y1325D01*
X1332Y1300D02*
X1327Y1295D01*
Y1285D01*
X1332Y1280D01*
X1352D01*
X1357Y1285D01*
Y1295D01*
X1352Y1300D01*
X1332D01*
X154Y1820D02*
X119D01*
X131Y1808D01*
X119Y1797D01*
X154D01*
Y1785D02*
X119D01*
Y1768D01*
X125Y1762D01*
X137D01*
X142Y1768D01*
Y1785D01*
X119Y1750D02*
X148D01*
X154Y1744D01*
Y1733D01*
X148Y1727D01*
X119D01*
X148Y1715D02*
X154Y1709D01*
Y1698D01*
X148Y1692D01*
X125D01*
X119Y1698D01*
Y1709D01*
X125Y1715D01*
X131D01*
X137Y1709D01*
Y1692D01*
X154Y1680D02*
Y1668D01*
Y1674D01*
X119D01*
X125Y1680D01*
X119Y1628D02*
Y1651D01*
X137D01*
X131Y1639D01*
Y1633D01*
X137Y1628D01*
X148D01*
X154Y1633D01*
Y1645D01*
X148Y1651D01*
X125Y1616D02*
X119Y1610D01*
Y1598D01*
X125Y1593D01*
X148D01*
X154Y1598D01*
Y1610D01*
X148Y1616D01*
X125D01*
X39Y1697D02*
Y1720D01*
X74D01*
Y1697D01*
X57Y1720D02*
Y1708D01*
X74Y1685D02*
X39D01*
X51Y1673D01*
X39Y1662D01*
X74D01*
X39Y1627D02*
Y1650D01*
X74D01*
Y1627D01*
X57Y1650D02*
Y1638D01*
X74Y1615D02*
X39D01*
Y1598D01*
X45Y1592D01*
X57D01*
X62Y1598D01*
Y1615D01*
Y1603D02*
X74Y1592D01*
X39Y1563D02*
Y1574D01*
X45Y1580D01*
X68D01*
X74Y1574D01*
Y1563D01*
X68Y1557D01*
X45D01*
X39Y1563D01*
Y1545D02*
Y1522D01*
Y1533D01*
X74D01*
X39Y1487D02*
Y1510D01*
X74D01*
Y1487D01*
X57Y1510D02*
Y1498D01*
X45Y1452D02*
X39Y1458D01*
Y1469D01*
X45Y1475D01*
X68D01*
X74Y1469D01*
Y1458D01*
X68Y1452D01*
X39Y1423D02*
Y1434D01*
X45Y1440D01*
X68D01*
X74Y1434D01*
Y1423D01*
X68Y1417D01*
X45D01*
X39Y1423D01*
X45Y1382D02*
X39Y1388D01*
Y1399D01*
X45Y1405D01*
X51D01*
X57Y1399D01*
Y1388D01*
X62Y1382D01*
X68D01*
X74Y1388D01*
Y1399D01*
X68Y1405D01*
X119Y1560D02*
X154D01*
Y1543D01*
X148Y1537D01*
X142D01*
X137Y1543D01*
Y1560D01*
Y1543D01*
X131Y1537D01*
X125D01*
X119Y1543D01*
Y1560D01*
X154Y1525D02*
X119D01*
Y1508D01*
X125Y1502D01*
X137D01*
X142Y1508D01*
Y1525D01*
Y1513D02*
X154Y1502D01*
X119Y1467D02*
Y1490D01*
X154D01*
Y1467D01*
X137Y1490D02*
Y1478D01*
X154Y1455D02*
X131D01*
X119Y1443D01*
X131Y1432D01*
X154D01*
X137D01*
Y1455D01*
X119Y1420D02*
X154D01*
X142D01*
X119Y1397D01*
X137Y1414D01*
X154Y1397D01*
X119Y1368D02*
Y1379D01*
X125Y1385D01*
X148D01*
X154Y1379D01*
Y1368D01*
X148Y1362D01*
X125D01*
X119Y1368D01*
Y1350D02*
X148D01*
X154Y1344D01*
Y1333D01*
X148Y1327D01*
X119D01*
Y1315D02*
Y1292D01*
Y1303D01*
X154D01*
X179Y1820D02*
X202D01*
X214Y1808D01*
X202Y1797D01*
X179D01*
X214Y1785D02*
Y1773D01*
Y1779D01*
X179D01*
X185Y1785D01*
X214Y1756D02*
X208D01*
Y1750D01*
X214D01*
Y1756D01*
X185Y1727D02*
X179Y1721D01*
Y1709D01*
X185Y1703D01*
X208D01*
X214Y1709D01*
Y1721D01*
X208Y1727D01*
X185D01*
D47*
X642Y710D02*
Y748D01*
Y446D02*
Y491D01*
Y153D02*
Y187D01*
X643Y710D02*
Y752D01*
Y442D02*
Y495D01*
Y153D02*
Y191D01*
X644Y710D02*
Y754D01*
Y440D02*
Y497D01*
Y153D02*
Y193D01*
X645Y710D02*
Y755D01*
Y438D02*
Y498D01*
Y153D02*
Y195D01*
X646Y710D02*
Y757D01*
Y437D02*
Y500D01*
Y153D02*
Y196D01*
X647Y710D02*
Y758D01*
Y436D02*
Y501D01*
Y153D02*
Y197D01*
X648Y747D02*
Y759D01*
Y435D02*
Y502D01*
Y187D02*
Y198D01*
X649Y750D02*
Y760D01*
Y434D02*
Y503D01*
Y190D02*
Y199D01*
X650Y752D02*
Y761D01*
Y433D02*
Y504D01*
Y191D02*
Y200D01*
X651Y753D02*
Y761D01*
Y432D02*
Y504D01*
Y193D02*
Y201D01*
X652Y754D02*
Y762D01*
Y489D02*
Y505D01*
Y432D02*
Y448D01*
Y194D02*
Y202D01*
X653Y755D02*
Y763D01*
Y671D02*
Y684D01*
Y641D02*
Y655D01*
Y574D02*
Y604D01*
Y530D02*
Y548D01*
Y490D02*
Y505D01*
Y431D02*
Y446D01*
Y377D02*
Y418D01*
Y322D02*
Y351D01*
Y277D02*
Y295D01*
Y222D02*
Y240D01*
Y195D02*
Y202D01*
X654Y756D02*
Y763D01*
Y668D02*
Y687D01*
Y639D02*
Y657D01*
Y574D02*
Y606D01*
Y528D02*
Y551D01*
Y492D02*
Y506D01*
Y431D02*
Y445D01*
Y377D02*
Y418D01*
Y322D02*
Y353D01*
Y275D02*
Y298D01*
Y220D02*
Y242D01*
Y196D02*
Y203D01*
X655Y757D02*
Y764D01*
Y666D02*
Y688D01*
Y637D02*
Y659D01*
Y574D02*
Y608D01*
Y526D02*
Y552D01*
Y493D02*
Y506D01*
Y430D02*
Y443D01*
Y377D02*
Y418D01*
Y322D02*
Y355D01*
Y273D02*
Y300D01*
Y218D02*
Y244D01*
Y196D02*
Y203D01*
X656Y757D02*
Y764D01*
Y665D02*
Y690D01*
Y636D02*
Y660D01*
Y574D02*
Y609D01*
Y525D02*
Y554D01*
Y494D02*
Y507D01*
Y430D02*
Y442D01*
Y377D02*
Y418D01*
Y322D02*
Y356D01*
Y272D02*
Y301D01*
Y217D02*
Y245D01*
Y197D02*
Y203D01*
X657Y758D02*
Y764D01*
Y664D02*
Y691D01*
Y635D02*
Y662D01*
Y574D02*
Y610D01*
Y524D02*
Y555D01*
Y495D02*
Y507D01*
Y430D02*
Y442D01*
Y377D02*
Y418D01*
Y322D02*
Y357D01*
Y271D02*
Y302D01*
Y215D02*
Y247D01*
Y197D02*
Y204D01*
X658Y758D02*
Y764D01*
Y634D02*
Y692D01*
Y574D02*
Y611D01*
Y523D02*
Y556D01*
Y496D02*
Y507D01*
Y429D02*
Y441D01*
Y377D02*
Y418D01*
Y322D02*
Y358D01*
Y270D02*
Y303D01*
Y214D02*
Y248D01*
Y198D02*
Y204D01*
X659Y758D02*
Y765D01*
Y633D02*
Y693D01*
Y574D02*
Y612D01*
Y522D02*
Y557D01*
Y496D02*
Y507D01*
Y429D02*
Y440D01*
Y377D02*
Y418D01*
Y322D02*
Y359D01*
Y269D02*
Y304D01*
Y214D02*
Y248D01*
Y198D02*
Y204D01*
X660Y759D02*
Y765D01*
Y683D02*
Y693D01*
Y654D02*
Y672D01*
Y632D02*
Y643D01*
Y603D02*
Y613D01*
Y547D02*
Y557D01*
Y521D02*
Y532D01*
Y497D02*
Y508D01*
Y429D02*
Y440D01*
Y394D02*
Y401D01*
Y350D02*
Y360D01*
Y294D02*
Y304D01*
Y268D02*
Y279D01*
Y239D02*
Y249D01*
Y213D02*
Y223D01*
Y198D02*
Y204D01*
X661Y759D02*
Y765D01*
Y685D02*
Y694D01*
Y655D02*
Y670D01*
Y632D02*
Y641D01*
Y604D02*
Y613D01*
Y549D02*
Y558D01*
Y521D02*
Y530D01*
Y497D02*
Y508D01*
Y429D02*
Y439D01*
Y394D02*
Y401D01*
Y351D02*
Y360D01*
Y296D02*
Y305D01*
Y268D02*
Y277D01*
Y241D02*
Y250D01*
Y212D02*
Y221D01*
Y198D02*
Y204D01*
X662Y759D02*
Y765D01*
Y686D02*
Y694D01*
Y657D02*
Y669D01*
Y631D02*
Y640D01*
Y605D02*
Y614D01*
Y550D02*
Y559D01*
Y520D02*
Y529D01*
Y498D02*
Y508D01*
Y429D02*
Y439D01*
Y394D02*
Y401D01*
Y353D02*
Y361D01*
Y297D02*
Y305D01*
Y267D02*
Y276D01*
Y242D02*
Y250D01*
Y212D02*
Y220D01*
Y198D02*
Y204D01*
X663Y759D02*
Y765D01*
Y687D02*
Y695D01*
Y657D02*
Y668D01*
Y631D02*
Y639D01*
Y606D02*
Y614D01*
Y551D02*
Y559D01*
Y520D02*
Y528D01*
Y498D02*
Y508D01*
Y429D02*
Y439D01*
Y394D02*
Y401D01*
Y353D02*
Y361D01*
Y298D02*
Y306D01*
Y267D02*
Y275D01*
Y242D02*
Y250D01*
Y212D02*
Y220D01*
Y199D02*
Y204D01*
X664Y759D02*
Y765D01*
Y687D02*
Y695D01*
Y658D02*
Y667D01*
Y631D02*
Y638D01*
Y607D02*
Y615D01*
Y552D02*
Y559D01*
Y520D02*
Y527D01*
Y498D02*
Y508D01*
Y429D02*
Y439D01*
Y394D02*
Y401D01*
Y354D02*
Y362D01*
Y299D02*
Y306D01*
Y267D02*
Y274D01*
Y243D02*
Y251D01*
Y211D02*
Y219D01*
Y198D02*
Y204D01*
X665Y759D02*
Y765D01*
Y688D02*
Y695D01*
Y659D02*
Y667D01*
Y630D02*
Y638D01*
Y607D02*
Y615D01*
Y552D02*
Y559D01*
Y519D02*
Y527D01*
Y498D02*
Y508D01*
Y429D02*
Y439D01*
Y394D02*
Y401D01*
Y355D02*
Y362D01*
Y299D02*
Y306D01*
Y266D02*
Y274D01*
Y244D02*
Y251D01*
Y211D02*
Y218D01*
Y198D02*
Y204D01*
X666Y759D02*
Y765D01*
Y688D02*
Y696D01*
Y659D02*
Y667D01*
Y630D02*
Y637D01*
Y608D02*
Y615D01*
Y552D02*
Y559D01*
Y519D02*
Y526D01*
Y498D02*
Y508D01*
Y429D02*
Y438D01*
Y394D02*
Y401D01*
Y355D02*
Y362D01*
Y299D02*
Y307D01*
Y266D02*
Y273D01*
Y244D02*
Y251D01*
Y211D02*
Y218D01*
Y198D02*
Y204D01*
X667Y759D02*
Y765D01*
Y689D02*
Y696D01*
Y659D02*
Y667D01*
Y630D02*
Y637D01*
Y608D02*
Y615D01*
Y553D02*
Y560D01*
Y519D02*
Y526D01*
Y498D02*
Y508D01*
Y429D02*
Y438D01*
Y394D02*
Y401D01*
Y355D02*
Y362D01*
Y300D02*
Y307D01*
Y266D02*
Y273D01*
Y244D02*
Y251D01*
Y211D02*
Y218D01*
Y198D02*
Y204D01*
X668Y759D02*
Y765D01*
Y689D02*
Y696D01*
Y659D02*
Y666D01*
Y630D02*
Y637D01*
Y608D02*
Y615D01*
Y553D02*
Y560D01*
Y519D02*
Y526D01*
Y498D02*
Y508D01*
Y429D02*
Y438D01*
Y394D02*
Y401D01*
Y355D02*
Y362D01*
Y300D02*
Y307D01*
Y266D02*
Y273D01*
Y244D02*
Y251D01*
Y211D02*
Y218D01*
Y198D02*
Y204D01*
X669Y759D02*
Y765D01*
Y689D02*
Y696D01*
Y659D02*
Y666D01*
Y630D02*
Y637D01*
Y608D02*
Y615D01*
Y553D02*
Y560D01*
Y519D02*
Y526D01*
Y498D02*
Y508D01*
Y429D02*
Y438D01*
Y394D02*
Y401D01*
Y355D02*
Y362D01*
Y300D02*
Y307D01*
Y266D02*
Y273D01*
Y244D02*
Y251D01*
Y211D02*
Y218D01*
Y197D02*
Y204D01*
X670Y759D02*
Y765D01*
Y689D02*
Y696D01*
Y659D02*
Y666D01*
Y630D02*
Y637D01*
Y608D02*
Y615D01*
Y553D02*
Y560D01*
Y519D02*
Y526D01*
Y498D02*
Y508D01*
Y429D02*
Y438D01*
Y394D02*
Y401D01*
Y355D02*
Y362D01*
Y300D02*
Y307D01*
Y266D02*
Y273D01*
Y244D02*
Y251D01*
Y211D02*
Y218D01*
Y197D02*
Y203D01*
X671Y759D02*
Y765D01*
Y689D02*
Y696D01*
Y659D02*
Y666D01*
Y630D02*
Y637D01*
Y608D02*
Y615D01*
Y553D02*
Y560D01*
Y519D02*
Y526D01*
Y498D02*
Y508D01*
Y429D02*
Y438D01*
Y394D02*
Y401D01*
Y355D02*
Y362D01*
Y300D02*
Y307D01*
Y266D02*
Y273D01*
Y244D02*
Y251D01*
Y211D02*
Y218D01*
Y196D02*
Y203D01*
X672Y759D02*
Y765D01*
Y689D02*
Y696D01*
Y659D02*
Y666D01*
Y630D02*
Y637D01*
Y608D02*
Y615D01*
Y553D02*
Y560D01*
Y519D02*
Y526D01*
Y498D02*
Y508D01*
Y429D02*
Y438D01*
Y394D02*
Y401D01*
Y355D02*
Y362D01*
Y300D02*
Y307D01*
Y272D02*
Y273D01*
Y266D02*
Y267D01*
Y244D02*
Y251D01*
Y211D02*
Y218D01*
Y196D02*
Y203D01*
X673Y759D02*
Y765D01*
Y689D02*
Y696D01*
Y659D02*
Y666D01*
Y630D02*
Y637D01*
Y608D02*
Y615D01*
Y553D02*
Y560D01*
Y519D02*
Y526D01*
Y498D02*
Y508D01*
Y429D02*
Y438D01*
Y394D02*
Y401D01*
Y355D02*
Y362D01*
Y300D02*
Y307D01*
Y244D02*
Y251D01*
Y211D02*
Y218D01*
Y195D02*
Y202D01*
X674Y759D02*
Y765D01*
Y689D02*
Y696D01*
Y659D02*
Y666D01*
Y630D02*
Y637D01*
Y608D02*
Y615D01*
Y553D02*
Y560D01*
Y519D02*
Y526D01*
Y498D02*
Y508D01*
Y429D02*
Y438D01*
Y394D02*
Y401D01*
Y355D02*
Y362D01*
Y300D02*
Y307D01*
Y244D02*
Y251D01*
Y211D02*
Y218D01*
Y194D02*
Y202D01*
X675Y759D02*
Y765D01*
Y689D02*
Y696D01*
Y659D02*
Y666D01*
Y630D02*
Y637D01*
Y608D02*
Y615D01*
Y553D02*
Y560D01*
Y519D02*
Y526D01*
Y498D02*
Y508D01*
Y429D02*
Y438D01*
Y394D02*
Y401D01*
Y355D02*
Y362D01*
Y300D02*
Y307D01*
Y244D02*
Y251D01*
Y211D02*
Y218D01*
Y193D02*
Y201D01*
X676Y759D02*
Y765D01*
Y689D02*
Y696D01*
Y659D02*
Y666D01*
Y630D02*
Y637D01*
Y608D02*
Y615D01*
Y553D02*
Y560D01*
Y519D02*
Y526D01*
Y498D02*
Y508D01*
Y462D02*
Y474D01*
Y429D02*
Y438D01*
Y394D02*
Y401D01*
Y355D02*
Y362D01*
Y300D02*
Y307D01*
Y244D02*
Y251D01*
Y211D02*
Y218D01*
Y191D02*
Y200D01*
X677Y759D02*
Y765D01*
Y689D02*
Y696D01*
Y659D02*
Y666D01*
Y630D02*
Y637D01*
Y608D02*
Y615D01*
Y553D02*
Y560D01*
Y519D02*
Y526D01*
Y498D02*
Y508D01*
Y461D02*
Y476D01*
Y429D02*
Y438D01*
Y394D02*
Y401D01*
Y355D02*
Y362D01*
Y300D02*
Y307D01*
Y244D02*
Y251D01*
Y211D02*
Y218D01*
Y190D02*
Y199D01*
X678Y759D02*
Y765D01*
Y689D02*
Y696D01*
Y659D02*
Y666D01*
Y630D02*
Y637D01*
Y583D02*
Y615D01*
Y553D02*
Y560D01*
Y519D02*
Y526D01*
Y498D02*
Y508D01*
Y461D02*
Y476D01*
Y429D02*
Y438D01*
Y394D02*
Y401D01*
Y330D02*
Y362D01*
Y300D02*
Y307D01*
Y244D02*
Y251D01*
Y211D02*
Y218D01*
Y187D02*
Y198D01*
X679Y722D02*
Y765D01*
Y689D02*
Y696D01*
Y659D02*
Y666D01*
Y630D02*
Y637D01*
Y583D02*
Y615D01*
Y553D02*
Y560D01*
Y519D02*
Y526D01*
Y498D02*
Y508D01*
Y460D02*
Y476D01*
Y429D02*
Y438D01*
Y394D02*
Y401D01*
Y330D02*
Y362D01*
Y300D02*
Y307D01*
Y244D02*
Y251D01*
Y211D02*
Y218D01*
Y165D02*
Y197D01*
X680Y722D02*
Y765D01*
Y689D02*
Y696D01*
Y659D02*
Y666D01*
Y630D02*
Y637D01*
Y583D02*
Y615D01*
Y553D02*
Y560D01*
Y519D02*
Y527D01*
Y498D02*
Y508D01*
Y460D02*
Y476D01*
Y429D02*
Y438D01*
Y394D02*
Y401D01*
Y330D02*
Y362D01*
Y300D02*
Y307D01*
Y244D02*
Y251D01*
Y211D02*
Y218D01*
Y163D02*
Y196D01*
X681Y722D02*
Y765D01*
Y689D02*
Y696D01*
Y659D02*
Y666D01*
Y630D02*
Y637D01*
Y583D02*
Y615D01*
Y553D02*
Y560D01*
Y520D02*
Y527D01*
Y498D02*
Y508D01*
Y460D02*
Y476D01*
Y429D02*
Y438D01*
Y394D02*
Y401D01*
Y330D02*
Y362D01*
Y300D02*
Y307D01*
Y244D02*
Y251D01*
Y211D02*
Y218D01*
Y160D02*
Y195D01*
X682Y722D02*
Y765D01*
Y689D02*
Y696D01*
Y659D02*
Y666D01*
Y630D02*
Y637D01*
Y583D02*
Y615D01*
Y553D02*
Y560D01*
Y520D02*
Y528D01*
Y498D02*
Y508D01*
Y460D02*
Y476D01*
Y429D02*
Y438D01*
Y394D02*
Y401D01*
Y330D02*
Y362D01*
Y300D02*
Y307D01*
Y244D02*
Y251D01*
Y211D02*
Y218D01*
Y159D02*
Y193D01*
X683Y722D02*
Y765D01*
Y689D02*
Y696D01*
Y659D02*
Y666D01*
Y630D02*
Y637D01*
Y583D02*
Y615D01*
Y553D02*
Y560D01*
Y520D02*
Y529D01*
Y498D02*
Y508D01*
Y460D02*
Y476D01*
Y429D02*
Y438D01*
Y394D02*
Y401D01*
Y330D02*
Y362D01*
Y300D02*
Y307D01*
Y244D02*
Y251D01*
Y211D02*
Y218D01*
Y157D02*
Y191D01*
X684Y722D02*
Y765D01*
Y689D02*
Y696D01*
Y659D02*
Y666D01*
Y630D02*
Y637D01*
Y583D02*
Y615D01*
Y553D02*
Y560D01*
Y521D02*
Y530D01*
Y498D02*
Y508D01*
Y460D02*
Y476D01*
Y429D02*
Y438D01*
Y394D02*
Y401D01*
Y330D02*
Y362D01*
Y300D02*
Y307D01*
Y244D02*
Y251D01*
Y211D02*
Y218D01*
Y156D02*
Y188D01*
X685Y759D02*
Y765D01*
Y689D02*
Y696D01*
Y659D02*
Y666D01*
Y630D02*
Y637D01*
Y608D02*
Y615D01*
Y553D02*
Y560D01*
Y521D02*
Y531D01*
Y498D02*
Y508D01*
Y460D02*
Y476D01*
Y429D02*
Y438D01*
Y394D02*
Y401D01*
Y355D02*
Y362D01*
Y300D02*
Y307D01*
Y244D02*
Y251D01*
Y211D02*
Y218D01*
Y155D02*
Y166D01*
X686Y759D02*
Y765D01*
Y689D02*
Y696D01*
Y659D02*
Y666D01*
Y630D02*
Y637D01*
Y608D02*
Y615D01*
Y522D02*
Y560D01*
Y498D02*
Y508D01*
Y460D02*
Y476D01*
Y429D02*
Y438D01*
Y394D02*
Y401D01*
Y355D02*
Y362D01*
Y300D02*
Y307D01*
Y244D02*
Y251D01*
Y211D02*
Y218D01*
Y154D02*
Y164D01*
X687Y759D02*
Y765D01*
Y689D02*
Y696D01*
Y659D02*
Y666D01*
Y630D02*
Y637D01*
Y608D02*
Y615D01*
Y523D02*
Y560D01*
Y498D02*
Y508D01*
Y460D02*
Y476D01*
Y429D02*
Y438D01*
Y394D02*
Y401D01*
Y355D02*
Y362D01*
Y300D02*
Y307D01*
Y244D02*
Y251D01*
Y211D02*
Y218D01*
Y153D02*
Y162D01*
X688Y759D02*
Y765D01*
Y689D02*
Y696D01*
Y659D02*
Y666D01*
Y630D02*
Y637D01*
Y608D02*
Y615D01*
Y524D02*
Y560D01*
Y498D02*
Y508D01*
Y460D02*
Y476D01*
Y429D02*
Y438D01*
Y394D02*
Y401D01*
Y355D02*
Y362D01*
Y300D02*
Y307D01*
Y244D02*
Y251D01*
Y211D02*
Y218D01*
Y153D02*
Y161D01*
X689Y759D02*
Y765D01*
Y689D02*
Y696D01*
Y659D02*
Y666D01*
Y630D02*
Y637D01*
Y608D02*
Y615D01*
Y525D02*
Y560D01*
Y498D02*
Y508D01*
Y461D02*
Y476D01*
Y429D02*
Y438D01*
Y394D02*
Y401D01*
Y355D02*
Y362D01*
Y300D02*
Y307D01*
Y244D02*
Y251D01*
Y211D02*
Y218D01*
Y152D02*
Y160D01*
X690Y759D02*
Y765D01*
Y689D02*
Y696D01*
Y659D02*
Y666D01*
Y630D02*
Y637D01*
Y608D02*
Y615D01*
Y525D02*
Y560D01*
Y498D02*
Y508D01*
Y461D02*
Y476D01*
Y429D02*
Y438D01*
Y394D02*
Y401D01*
Y355D02*
Y362D01*
Y300D02*
Y307D01*
Y244D02*
Y251D01*
Y211D02*
Y218D01*
Y151D02*
Y159D01*
X691Y759D02*
Y765D01*
Y689D02*
Y696D01*
Y659D02*
Y666D01*
Y630D02*
Y637D01*
Y608D02*
Y615D01*
Y523D02*
Y560D01*
Y498D02*
Y508D01*
Y462D02*
Y474D01*
Y429D02*
Y438D01*
Y394D02*
Y401D01*
Y355D02*
Y362D01*
Y300D02*
Y307D01*
Y266D02*
Y273D01*
Y244D02*
Y251D01*
Y211D02*
Y218D01*
Y151D02*
Y158D01*
X692Y759D02*
Y765D01*
Y689D02*
Y696D01*
Y659D02*
Y666D01*
Y630D02*
Y637D01*
Y608D02*
Y615D01*
Y522D02*
Y560D01*
Y498D02*
Y508D01*
Y429D02*
Y438D01*
Y394D02*
Y401D01*
Y355D02*
Y362D01*
Y300D02*
Y307D01*
Y266D02*
Y273D01*
Y244D02*
Y251D01*
Y211D02*
Y218D01*
Y150D02*
Y157D01*
X693Y759D02*
Y765D01*
Y689D02*
Y696D01*
Y659D02*
Y666D01*
Y630D02*
Y637D01*
Y608D02*
Y615D01*
Y553D02*
Y560D01*
Y522D02*
Y533D01*
Y498D02*
Y508D01*
Y429D02*
Y438D01*
Y394D02*
Y401D01*
Y355D02*
Y362D01*
Y300D02*
Y307D01*
Y266D02*
Y273D01*
Y244D02*
Y251D01*
Y211D02*
Y218D01*
Y150D02*
Y157D01*
X694Y759D02*
Y765D01*
Y689D02*
Y696D01*
Y659D02*
Y666D01*
Y630D02*
Y637D01*
Y608D02*
Y615D01*
Y553D02*
Y560D01*
Y521D02*
Y531D01*
Y498D02*
Y508D01*
Y429D02*
Y438D01*
Y394D02*
Y401D01*
Y355D02*
Y362D01*
Y300D02*
Y307D01*
Y266D02*
Y273D01*
Y244D02*
Y251D01*
Y211D02*
Y218D01*
Y150D02*
Y156D01*
X695Y759D02*
Y765D01*
Y689D02*
Y696D01*
Y659D02*
Y666D01*
Y630D02*
Y637D01*
Y608D02*
Y615D01*
Y553D02*
Y560D01*
Y521D02*
Y529D01*
Y498D02*
Y508D01*
Y429D02*
Y438D01*
Y394D02*
Y401D01*
Y355D02*
Y362D01*
Y300D02*
Y307D01*
Y266D02*
Y273D01*
Y244D02*
Y251D01*
Y211D02*
Y218D01*
Y150D02*
Y156D01*
X696Y759D02*
Y765D01*
Y689D02*
Y696D01*
Y659D02*
Y666D01*
Y630D02*
Y637D01*
Y608D02*
Y615D01*
Y553D02*
Y560D01*
Y520D02*
Y528D01*
Y498D02*
Y508D01*
Y429D02*
Y438D01*
Y394D02*
Y401D01*
Y355D02*
Y362D01*
Y299D02*
Y307D01*
Y266D02*
Y274D01*
Y244D02*
Y251D01*
Y211D02*
Y218D01*
Y149D02*
Y156D01*
X697Y759D02*
Y765D01*
Y689D02*
Y696D01*
Y659D02*
Y666D01*
Y630D02*
Y637D01*
Y607D02*
Y615D01*
Y553D02*
Y560D01*
Y520D02*
Y528D01*
Y498D02*
Y508D01*
Y429D02*
Y438D01*
Y394D02*
Y401D01*
Y354D02*
Y362D01*
Y299D02*
Y306D01*
Y266D02*
Y274D01*
Y244D02*
Y251D01*
Y211D02*
Y218D01*
Y149D02*
Y155D01*
X698Y759D02*
Y765D01*
Y689D02*
Y696D01*
Y659D02*
Y666D01*
Y630D02*
Y637D01*
Y607D02*
Y615D01*
Y553D02*
Y560D01*
Y520D02*
Y527D01*
Y498D02*
Y508D01*
Y429D02*
Y438D01*
Y394D02*
Y401D01*
Y354D02*
Y362D01*
Y299D02*
Y306D01*
Y267D02*
Y274D01*
Y243D02*
Y251D01*
Y211D02*
Y219D01*
Y149D02*
Y155D01*
X699Y759D02*
Y765D01*
Y689D02*
Y696D01*
Y659D02*
Y666D01*
Y630D02*
Y637D01*
Y606D02*
Y614D01*
Y553D02*
Y560D01*
Y519D02*
Y527D01*
Y498D02*
Y508D01*
Y429D02*
Y438D01*
Y394D02*
Y401D01*
Y353D02*
Y361D01*
Y298D02*
Y306D01*
Y267D02*
Y275D01*
Y242D02*
Y250D01*
Y212D02*
Y220D01*
Y149D02*
Y155D01*
X700Y759D02*
Y765D01*
Y689D02*
Y696D01*
Y659D02*
Y666D01*
Y630D02*
Y637D01*
Y605D02*
Y614D01*
Y553D02*
Y560D01*
Y519D02*
Y526D01*
Y498D02*
Y508D01*
Y429D02*
Y438D01*
Y394D02*
Y401D01*
Y352D02*
Y361D01*
Y297D02*
Y305D01*
Y267D02*
Y276D01*
Y242D02*
Y250D01*
Y212D02*
Y220D01*
Y149D02*
Y155D01*
X701Y759D02*
Y765D01*
Y689D02*
Y696D01*
Y659D02*
Y666D01*
Y630D02*
Y637D01*
Y604D02*
Y613D01*
Y553D02*
Y560D01*
Y519D02*
Y526D01*
Y498D02*
Y508D01*
Y429D02*
Y438D01*
Y394D02*
Y401D01*
Y351D02*
Y360D01*
Y296D02*
Y305D01*
Y268D02*
Y277D01*
Y240D02*
Y250D01*
Y212D02*
Y222D01*
Y149D02*
Y155D01*
X702Y759D02*
Y765D01*
Y689D02*
Y696D01*
Y659D02*
Y666D01*
Y630D02*
Y637D01*
Y603D02*
Y613D01*
Y553D02*
Y560D01*
Y519D02*
Y526D01*
Y498D02*
Y508D01*
Y429D02*
Y439D01*
Y394D02*
Y401D01*
Y350D02*
Y360D01*
Y294D02*
Y304D01*
Y268D02*
Y279D01*
Y239D02*
Y249D01*
Y213D02*
Y223D01*
Y149D02*
Y155D01*
X703Y759D02*
Y765D01*
Y689D02*
Y696D01*
Y659D02*
Y666D01*
Y630D02*
Y637D01*
Y574D02*
Y612D01*
Y553D02*
Y560D01*
Y519D02*
Y526D01*
Y498D02*
Y508D01*
Y429D02*
Y439D01*
Y394D02*
Y401D01*
Y322D02*
Y359D01*
Y269D02*
Y304D01*
Y214D02*
Y248D01*
Y149D02*
Y155D01*
X704Y758D02*
Y765D01*
Y689D02*
Y696D01*
Y659D02*
Y666D01*
Y630D02*
Y637D01*
Y574D02*
Y611D01*
Y553D02*
Y560D01*
Y519D02*
Y526D01*
Y498D02*
Y507D01*
Y429D02*
Y439D01*
Y394D02*
Y401D01*
Y322D02*
Y358D01*
Y270D02*
Y303D01*
Y215D02*
Y247D01*
Y149D02*
Y156D01*
X705Y758D02*
Y764D01*
Y689D02*
Y696D01*
Y659D02*
Y666D01*
Y630D02*
Y637D01*
Y574D02*
Y610D01*
Y553D02*
Y560D01*
Y519D02*
Y526D01*
Y498D02*
Y507D01*
Y429D02*
Y439D01*
Y394D02*
Y401D01*
Y322D02*
Y357D01*
Y271D02*
Y302D01*
Y216D02*
Y247D01*
Y150D02*
Y156D01*
X706Y758D02*
Y764D01*
Y689D02*
Y696D01*
Y659D02*
Y666D01*
Y630D02*
Y637D01*
Y574D02*
Y609D01*
Y553D02*
Y560D01*
Y519D02*
Y526D01*
Y497D02*
Y507D01*
Y430D02*
Y439D01*
Y394D02*
Y401D01*
Y322D02*
Y356D01*
Y272D02*
Y301D01*
Y217D02*
Y245D01*
Y150D02*
Y156D01*
X707Y757D02*
Y764D01*
Y689D02*
Y696D01*
Y659D02*
Y666D01*
Y630D02*
Y637D01*
Y574D02*
Y608D01*
Y553D02*
Y560D01*
Y519D02*
Y526D01*
Y497D02*
Y507D01*
Y430D02*
Y440D01*
Y394D02*
Y401D01*
Y322D02*
Y355D01*
Y273D02*
Y300D01*
Y218D02*
Y244D01*
Y150D02*
Y157D01*
X708Y757D02*
Y764D01*
Y689D02*
Y696D01*
Y659D02*
Y666D01*
Y630D02*
Y637D01*
Y574D02*
Y606D01*
Y553D02*
Y560D01*
Y519D02*
Y526D01*
Y496D02*
Y506D01*
Y430D02*
Y441D01*
Y394D02*
Y401D01*
Y322D02*
Y353D01*
Y275D02*
Y298D01*
Y220D02*
Y242D01*
Y150D02*
Y157D01*
X709Y756D02*
Y763D01*
Y689D02*
Y696D01*
Y659D02*
Y666D01*
Y630D02*
Y637D01*
Y574D02*
Y603D01*
Y553D02*
Y560D01*
Y519D02*
Y526D01*
Y495D02*
Y506D01*
Y431D02*
Y441D01*
Y394D02*
Y401D01*
Y322D02*
Y350D01*
Y278D02*
Y295D01*
Y223D02*
Y239D01*
Y151D02*
Y158D01*
X710Y755D02*
Y763D01*
Y495D02*
Y505D01*
Y431D02*
Y442D01*
Y151D02*
Y159D01*
X711Y754D02*
Y762D01*
Y494D02*
Y505D01*
Y432D02*
Y443D01*
Y152D02*
Y160D01*
X712Y753D02*
Y761D01*
Y493D02*
Y504D01*
Y432D02*
Y444D01*
Y153D02*
Y161D01*
X713Y752D02*
Y761D01*
Y492D02*
Y504D01*
Y433D02*
Y445D01*
Y153D02*
Y162D01*
X714Y750D02*
Y760D01*
Y490D02*
Y503D01*
Y434D02*
Y446D01*
Y154D02*
Y164D01*
X715Y747D02*
Y759D01*
Y488D02*
Y502D01*
Y434D02*
Y448D01*
Y155D02*
Y167D01*
X716Y483D02*
Y758D01*
Y156D02*
Y454D01*
X717Y482D02*
Y757D01*
Y157D02*
Y455D01*
X718Y482D02*
Y755D01*
Y159D02*
Y455D01*
X719Y482D02*
Y754D01*
Y160D02*
Y455D01*
X720Y482D02*
Y752D01*
Y162D02*
Y455D01*
X721Y483D02*
Y748D01*
Y166D02*
Y454D01*
X642Y1651D02*
Y1689D01*
Y1387D02*
Y1432D01*
Y1094D02*
Y1128D01*
X643Y1651D02*
Y1693D01*
Y1383D02*
Y1436D01*
Y1094D02*
Y1132D01*
X644Y1651D02*
Y1695D01*
Y1381D02*
Y1438D01*
Y1094D02*
Y1134D01*
X645Y1651D02*
Y1696D01*
Y1379D02*
Y1439D01*
Y1094D02*
Y1136D01*
X646Y1651D02*
Y1698D01*
Y1378D02*
Y1441D01*
Y1094D02*
Y1137D01*
X647Y1651D02*
Y1699D01*
Y1377D02*
Y1442D01*
Y1094D02*
Y1138D01*
X648Y1688D02*
Y1700D01*
Y1376D02*
Y1443D01*
Y1128D02*
Y1139D01*
X649Y1691D02*
Y1701D01*
Y1375D02*
Y1444D01*
Y1131D02*
Y1140D01*
X650Y1693D02*
Y1702D01*
Y1374D02*
Y1445D01*
Y1132D02*
Y1141D01*
X651Y1694D02*
Y1702D01*
Y1373D02*
Y1445D01*
Y1134D02*
Y1142D01*
X652Y1695D02*
Y1703D01*
Y1430D02*
Y1446D01*
Y1373D02*
Y1389D01*
Y1135D02*
Y1143D01*
X653Y1696D02*
Y1704D01*
Y1612D02*
Y1625D01*
Y1582D02*
Y1596D01*
Y1515D02*
Y1545D01*
Y1471D02*
Y1489D01*
Y1431D02*
Y1446D01*
Y1372D02*
Y1387D01*
Y1318D02*
Y1359D01*
Y1263D02*
Y1292D01*
Y1218D02*
Y1236D01*
Y1163D02*
Y1181D01*
Y1136D02*
Y1143D01*
X654Y1697D02*
Y1704D01*
Y1609D02*
Y1628D01*
Y1580D02*
Y1598D01*
Y1515D02*
Y1547D01*
Y1469D02*
Y1492D01*
Y1433D02*
Y1447D01*
Y1372D02*
Y1386D01*
Y1318D02*
Y1359D01*
Y1263D02*
Y1294D01*
Y1216D02*
Y1239D01*
Y1161D02*
Y1183D01*
Y1137D02*
Y1144D01*
X655Y1698D02*
Y1705D01*
Y1607D02*
Y1629D01*
Y1578D02*
Y1600D01*
Y1515D02*
Y1549D01*
Y1467D02*
Y1493D01*
Y1434D02*
Y1447D01*
Y1371D02*
Y1384D01*
Y1318D02*
Y1359D01*
Y1263D02*
Y1296D01*
Y1214D02*
Y1241D01*
Y1159D02*
Y1185D01*
Y1137D02*
Y1144D01*
X656Y1698D02*
Y1705D01*
Y1606D02*
Y1631D01*
Y1577D02*
Y1601D01*
Y1515D02*
Y1550D01*
Y1466D02*
Y1495D01*
Y1435D02*
Y1448D01*
Y1371D02*
Y1383D01*
Y1318D02*
Y1359D01*
Y1263D02*
Y1297D01*
Y1213D02*
Y1242D01*
Y1158D02*
Y1186D01*
Y1138D02*
Y1144D01*
X657Y1699D02*
Y1705D01*
Y1605D02*
Y1632D01*
Y1576D02*
Y1603D01*
Y1515D02*
Y1551D01*
Y1465D02*
Y1496D01*
Y1436D02*
Y1448D01*
Y1371D02*
Y1383D01*
Y1318D02*
Y1359D01*
Y1263D02*
Y1298D01*
Y1212D02*
Y1243D01*
Y1156D02*
Y1188D01*
Y1138D02*
Y1145D01*
X658Y1699D02*
Y1705D01*
Y1575D02*
Y1633D01*
Y1515D02*
Y1552D01*
Y1464D02*
Y1497D01*
Y1437D02*
Y1448D01*
Y1370D02*
Y1382D01*
Y1318D02*
Y1359D01*
Y1263D02*
Y1299D01*
Y1211D02*
Y1244D01*
Y1155D02*
Y1189D01*
Y1139D02*
Y1145D01*
X659Y1699D02*
Y1706D01*
Y1574D02*
Y1634D01*
Y1515D02*
Y1553D01*
Y1463D02*
Y1498D01*
Y1437D02*
Y1448D01*
Y1370D02*
Y1381D01*
Y1318D02*
Y1359D01*
Y1263D02*
Y1300D01*
Y1210D02*
Y1245D01*
Y1155D02*
Y1189D01*
Y1139D02*
Y1145D01*
X660Y1700D02*
Y1706D01*
Y1624D02*
Y1634D01*
Y1595D02*
Y1613D01*
Y1573D02*
Y1584D01*
Y1544D02*
Y1554D01*
Y1488D02*
Y1498D01*
Y1462D02*
Y1473D01*
Y1438D02*
Y1449D01*
Y1370D02*
Y1381D01*
Y1335D02*
Y1342D01*
Y1291D02*
Y1301D01*
Y1235D02*
Y1245D01*
Y1209D02*
Y1220D01*
Y1180D02*
Y1190D01*
Y1154D02*
Y1164D01*
Y1139D02*
Y1145D01*
X661Y1700D02*
Y1706D01*
Y1626D02*
Y1635D01*
Y1596D02*
Y1611D01*
Y1573D02*
Y1582D01*
Y1545D02*
Y1554D01*
Y1490D02*
Y1499D01*
Y1462D02*
Y1471D01*
Y1438D02*
Y1449D01*
Y1370D02*
Y1380D01*
Y1335D02*
Y1342D01*
Y1292D02*
Y1301D01*
Y1237D02*
Y1246D01*
Y1209D02*
Y1218D01*
Y1182D02*
Y1191D01*
Y1153D02*
Y1162D01*
Y1139D02*
Y1145D01*
X662Y1700D02*
Y1706D01*
Y1627D02*
Y1635D01*
Y1598D02*
Y1610D01*
Y1572D02*
Y1581D01*
Y1546D02*
Y1555D01*
Y1491D02*
Y1500D01*
Y1461D02*
Y1470D01*
Y1439D02*
Y1449D01*
Y1370D02*
Y1380D01*
Y1335D02*
Y1342D01*
Y1294D02*
Y1302D01*
Y1238D02*
Y1246D01*
Y1208D02*
Y1217D01*
Y1183D02*
Y1191D01*
Y1153D02*
Y1161D01*
Y1139D02*
Y1145D01*
X663Y1700D02*
Y1706D01*
Y1628D02*
Y1636D01*
Y1598D02*
Y1609D01*
Y1572D02*
Y1580D01*
Y1547D02*
Y1555D01*
Y1492D02*
Y1500D01*
Y1461D02*
Y1469D01*
Y1439D02*
Y1449D01*
Y1370D02*
Y1380D01*
Y1335D02*
Y1342D01*
Y1294D02*
Y1302D01*
Y1239D02*
Y1247D01*
Y1208D02*
Y1216D01*
Y1183D02*
Y1191D01*
Y1153D02*
Y1161D01*
Y1140D02*
Y1145D01*
X664Y1700D02*
Y1706D01*
Y1628D02*
Y1636D01*
Y1599D02*
Y1608D01*
Y1572D02*
Y1579D01*
Y1548D02*
Y1556D01*
Y1493D02*
Y1500D01*
Y1461D02*
Y1468D01*
Y1439D02*
Y1449D01*
Y1370D02*
Y1380D01*
Y1335D02*
Y1342D01*
Y1295D02*
Y1303D01*
Y1240D02*
Y1247D01*
Y1208D02*
Y1215D01*
Y1184D02*
Y1192D01*
Y1152D02*
Y1160D01*
Y1139D02*
Y1145D01*
X665Y1700D02*
Y1706D01*
Y1629D02*
Y1636D01*
Y1600D02*
Y1608D01*
Y1571D02*
Y1579D01*
Y1548D02*
Y1556D01*
Y1493D02*
Y1500D01*
Y1460D02*
Y1468D01*
Y1439D02*
Y1449D01*
Y1370D02*
Y1380D01*
Y1335D02*
Y1342D01*
Y1296D02*
Y1303D01*
Y1240D02*
Y1247D01*
Y1207D02*
Y1215D01*
Y1185D02*
Y1192D01*
Y1152D02*
Y1159D01*
Y1139D02*
Y1145D01*
X666Y1700D02*
Y1706D01*
Y1629D02*
Y1637D01*
Y1600D02*
Y1608D01*
Y1571D02*
Y1578D01*
Y1549D02*
Y1556D01*
Y1493D02*
Y1500D01*
Y1460D02*
Y1467D01*
Y1439D02*
Y1449D01*
Y1370D02*
Y1379D01*
Y1335D02*
Y1342D01*
Y1296D02*
Y1303D01*
Y1240D02*
Y1248D01*
Y1207D02*
Y1214D01*
Y1185D02*
Y1192D01*
Y1152D02*
Y1159D01*
Y1139D02*
Y1145D01*
X667Y1700D02*
Y1706D01*
Y1630D02*
Y1637D01*
Y1600D02*
Y1608D01*
Y1571D02*
Y1578D01*
Y1549D02*
Y1556D01*
Y1494D02*
Y1501D01*
Y1460D02*
Y1467D01*
Y1439D02*
Y1449D01*
Y1370D02*
Y1379D01*
Y1335D02*
Y1342D01*
Y1296D02*
Y1303D01*
Y1241D02*
Y1248D01*
Y1207D02*
Y1214D01*
Y1185D02*
Y1192D01*
Y1152D02*
Y1159D01*
Y1139D02*
Y1145D01*
X668Y1700D02*
Y1706D01*
Y1630D02*
Y1637D01*
Y1600D02*
Y1607D01*
Y1571D02*
Y1578D01*
Y1549D02*
Y1556D01*
Y1494D02*
Y1501D01*
Y1460D02*
Y1467D01*
Y1439D02*
Y1449D01*
Y1370D02*
Y1379D01*
Y1335D02*
Y1342D01*
Y1296D02*
Y1303D01*
Y1241D02*
Y1248D01*
Y1207D02*
Y1214D01*
Y1185D02*
Y1192D01*
Y1152D02*
Y1159D01*
Y1139D02*
Y1145D01*
X669Y1700D02*
Y1706D01*
Y1630D02*
Y1637D01*
Y1600D02*
Y1607D01*
Y1571D02*
Y1578D01*
Y1549D02*
Y1556D01*
Y1494D02*
Y1501D01*
Y1460D02*
Y1467D01*
Y1439D02*
Y1449D01*
Y1370D02*
Y1379D01*
Y1335D02*
Y1342D01*
Y1296D02*
Y1303D01*
Y1241D02*
Y1248D01*
Y1207D02*
Y1214D01*
Y1185D02*
Y1192D01*
Y1152D02*
Y1159D01*
Y1138D02*
Y1145D01*
X670Y1700D02*
Y1706D01*
Y1630D02*
Y1637D01*
Y1600D02*
Y1607D01*
Y1571D02*
Y1578D01*
Y1549D02*
Y1556D01*
Y1494D02*
Y1501D01*
Y1460D02*
Y1467D01*
Y1439D02*
Y1449D01*
Y1370D02*
Y1379D01*
Y1335D02*
Y1342D01*
Y1296D02*
Y1303D01*
Y1241D02*
Y1248D01*
Y1207D02*
Y1214D01*
Y1185D02*
Y1192D01*
Y1152D02*
Y1159D01*
Y1138D02*
Y1144D01*
X671Y1700D02*
Y1706D01*
Y1630D02*
Y1637D01*
Y1600D02*
Y1607D01*
Y1571D02*
Y1578D01*
Y1549D02*
Y1556D01*
Y1494D02*
Y1501D01*
Y1460D02*
Y1467D01*
Y1439D02*
Y1449D01*
Y1370D02*
Y1379D01*
Y1335D02*
Y1342D01*
Y1296D02*
Y1303D01*
Y1241D02*
Y1248D01*
Y1207D02*
Y1214D01*
Y1185D02*
Y1192D01*
Y1152D02*
Y1159D01*
Y1137D02*
Y1144D01*
X672Y1700D02*
Y1706D01*
Y1630D02*
Y1637D01*
Y1600D02*
Y1607D01*
Y1571D02*
Y1578D01*
Y1549D02*
Y1556D01*
Y1494D02*
Y1501D01*
Y1460D02*
Y1467D01*
Y1439D02*
Y1449D01*
Y1370D02*
Y1379D01*
Y1335D02*
Y1342D01*
Y1296D02*
Y1303D01*
Y1241D02*
Y1248D01*
Y1213D02*
Y1214D01*
Y1207D02*
Y1208D01*
Y1185D02*
Y1192D01*
Y1152D02*
Y1159D01*
Y1137D02*
Y1144D01*
X673Y1700D02*
Y1706D01*
Y1630D02*
Y1637D01*
Y1600D02*
Y1607D01*
Y1571D02*
Y1578D01*
Y1549D02*
Y1556D01*
Y1494D02*
Y1501D01*
Y1460D02*
Y1467D01*
Y1439D02*
Y1449D01*
Y1370D02*
Y1379D01*
Y1335D02*
Y1342D01*
Y1296D02*
Y1303D01*
Y1241D02*
Y1248D01*
Y1185D02*
Y1192D01*
Y1152D02*
Y1159D01*
Y1136D02*
Y1143D01*
X674Y1700D02*
Y1706D01*
Y1630D02*
Y1637D01*
Y1600D02*
Y1607D01*
Y1571D02*
Y1578D01*
Y1549D02*
Y1556D01*
Y1494D02*
Y1501D01*
Y1460D02*
Y1467D01*
Y1439D02*
Y1449D01*
Y1370D02*
Y1379D01*
Y1335D02*
Y1342D01*
Y1296D02*
Y1303D01*
Y1241D02*
Y1248D01*
Y1185D02*
Y1192D01*
Y1152D02*
Y1159D01*
Y1135D02*
Y1143D01*
X675Y1700D02*
Y1706D01*
Y1630D02*
Y1637D01*
Y1600D02*
Y1607D01*
Y1571D02*
Y1578D01*
Y1549D02*
Y1556D01*
Y1494D02*
Y1501D01*
Y1460D02*
Y1467D01*
Y1439D02*
Y1449D01*
Y1370D02*
Y1379D01*
Y1335D02*
Y1342D01*
Y1296D02*
Y1303D01*
Y1241D02*
Y1248D01*
Y1185D02*
Y1192D01*
Y1152D02*
Y1159D01*
Y1134D02*
Y1142D01*
X676Y1700D02*
Y1706D01*
Y1630D02*
Y1637D01*
Y1600D02*
Y1607D01*
Y1571D02*
Y1578D01*
Y1549D02*
Y1556D01*
Y1494D02*
Y1501D01*
Y1460D02*
Y1467D01*
Y1439D02*
Y1449D01*
Y1403D02*
Y1415D01*
Y1370D02*
Y1379D01*
Y1335D02*
Y1342D01*
Y1296D02*
Y1303D01*
Y1241D02*
Y1248D01*
Y1185D02*
Y1192D01*
Y1152D02*
Y1159D01*
Y1132D02*
Y1141D01*
X677Y1700D02*
Y1706D01*
Y1630D02*
Y1637D01*
Y1600D02*
Y1607D01*
Y1571D02*
Y1578D01*
Y1549D02*
Y1556D01*
Y1494D02*
Y1501D01*
Y1460D02*
Y1467D01*
Y1439D02*
Y1449D01*
Y1402D02*
Y1417D01*
Y1370D02*
Y1379D01*
Y1335D02*
Y1342D01*
Y1296D02*
Y1303D01*
Y1241D02*
Y1248D01*
Y1185D02*
Y1192D01*
Y1152D02*
Y1159D01*
Y1131D02*
Y1140D01*
X678Y1700D02*
Y1706D01*
Y1630D02*
Y1637D01*
Y1600D02*
Y1607D01*
Y1571D02*
Y1578D01*
Y1524D02*
Y1556D01*
Y1494D02*
Y1501D01*
Y1460D02*
Y1467D01*
Y1439D02*
Y1449D01*
Y1402D02*
Y1417D01*
Y1370D02*
Y1379D01*
Y1335D02*
Y1342D01*
Y1271D02*
Y1303D01*
Y1241D02*
Y1248D01*
Y1185D02*
Y1192D01*
Y1152D02*
Y1159D01*
Y1128D02*
Y1139D01*
X679Y1663D02*
Y1706D01*
Y1630D02*
Y1637D01*
Y1600D02*
Y1607D01*
Y1571D02*
Y1578D01*
Y1524D02*
Y1556D01*
Y1494D02*
Y1501D01*
Y1460D02*
Y1467D01*
Y1439D02*
Y1449D01*
Y1401D02*
Y1417D01*
Y1370D02*
Y1379D01*
Y1335D02*
Y1342D01*
Y1271D02*
Y1303D01*
Y1241D02*
Y1248D01*
Y1185D02*
Y1192D01*
Y1152D02*
Y1159D01*
Y1106D02*
Y1138D01*
X680Y1663D02*
Y1706D01*
Y1630D02*
Y1637D01*
Y1600D02*
Y1607D01*
Y1571D02*
Y1578D01*
Y1524D02*
Y1556D01*
Y1494D02*
Y1501D01*
Y1460D02*
Y1468D01*
Y1439D02*
Y1449D01*
Y1401D02*
Y1417D01*
Y1370D02*
Y1379D01*
Y1335D02*
Y1342D01*
Y1271D02*
Y1303D01*
Y1241D02*
Y1248D01*
Y1185D02*
Y1192D01*
Y1152D02*
Y1159D01*
Y1104D02*
Y1137D01*
X681Y1663D02*
Y1706D01*
Y1630D02*
Y1637D01*
Y1600D02*
Y1607D01*
Y1571D02*
Y1578D01*
Y1524D02*
Y1556D01*
Y1494D02*
Y1501D01*
Y1461D02*
Y1468D01*
Y1439D02*
Y1449D01*
Y1401D02*
Y1417D01*
Y1370D02*
Y1379D01*
Y1335D02*
Y1342D01*
Y1271D02*
Y1303D01*
Y1241D02*
Y1248D01*
Y1185D02*
Y1192D01*
Y1152D02*
Y1159D01*
Y1101D02*
Y1136D01*
X682Y1663D02*
Y1706D01*
Y1630D02*
Y1637D01*
Y1600D02*
Y1607D01*
Y1571D02*
Y1578D01*
Y1524D02*
Y1556D01*
Y1494D02*
Y1501D01*
Y1461D02*
Y1469D01*
Y1439D02*
Y1449D01*
Y1401D02*
Y1417D01*
Y1370D02*
Y1379D01*
Y1335D02*
Y1342D01*
Y1271D02*
Y1303D01*
Y1241D02*
Y1248D01*
Y1185D02*
Y1192D01*
Y1152D02*
Y1159D01*
Y1100D02*
Y1134D01*
X683Y1663D02*
Y1706D01*
Y1630D02*
Y1637D01*
Y1600D02*
Y1607D01*
Y1571D02*
Y1578D01*
Y1524D02*
Y1556D01*
Y1494D02*
Y1501D01*
Y1461D02*
Y1470D01*
Y1439D02*
Y1449D01*
Y1401D02*
Y1417D01*
Y1370D02*
Y1379D01*
Y1335D02*
Y1342D01*
Y1271D02*
Y1303D01*
Y1241D02*
Y1248D01*
Y1185D02*
Y1192D01*
Y1152D02*
Y1159D01*
Y1098D02*
Y1132D01*
X684Y1663D02*
Y1706D01*
Y1630D02*
Y1637D01*
Y1600D02*
Y1607D01*
Y1571D02*
Y1578D01*
Y1524D02*
Y1556D01*
Y1494D02*
Y1501D01*
Y1462D02*
Y1471D01*
Y1439D02*
Y1449D01*
Y1401D02*
Y1417D01*
Y1370D02*
Y1379D01*
Y1335D02*
Y1342D01*
Y1271D02*
Y1303D01*
Y1241D02*
Y1248D01*
Y1185D02*
Y1192D01*
Y1152D02*
Y1159D01*
Y1097D02*
Y1129D01*
X685Y1700D02*
Y1706D01*
Y1630D02*
Y1637D01*
Y1600D02*
Y1607D01*
Y1571D02*
Y1578D01*
Y1549D02*
Y1556D01*
Y1494D02*
Y1501D01*
Y1462D02*
Y1472D01*
Y1439D02*
Y1449D01*
Y1401D02*
Y1417D01*
Y1370D02*
Y1379D01*
Y1335D02*
Y1342D01*
Y1296D02*
Y1303D01*
Y1241D02*
Y1248D01*
Y1185D02*
Y1192D01*
Y1152D02*
Y1159D01*
Y1096D02*
Y1107D01*
X686Y1700D02*
Y1706D01*
Y1630D02*
Y1637D01*
Y1600D02*
Y1607D01*
Y1571D02*
Y1578D01*
Y1549D02*
Y1556D01*
Y1463D02*
Y1501D01*
Y1439D02*
Y1449D01*
Y1401D02*
Y1417D01*
Y1370D02*
Y1379D01*
Y1335D02*
Y1342D01*
Y1296D02*
Y1303D01*
Y1241D02*
Y1248D01*
Y1185D02*
Y1192D01*
Y1152D02*
Y1159D01*
Y1095D02*
Y1105D01*
X687Y1700D02*
Y1706D01*
Y1630D02*
Y1637D01*
Y1600D02*
Y1607D01*
Y1571D02*
Y1578D01*
Y1549D02*
Y1556D01*
Y1464D02*
Y1501D01*
Y1439D02*
Y1449D01*
Y1401D02*
Y1417D01*
Y1370D02*
Y1379D01*
Y1335D02*
Y1342D01*
Y1296D02*
Y1303D01*
Y1241D02*
Y1248D01*
Y1185D02*
Y1192D01*
Y1152D02*
Y1159D01*
Y1094D02*
Y1103D01*
X688Y1700D02*
Y1706D01*
Y1630D02*
Y1637D01*
Y1600D02*
Y1607D01*
Y1571D02*
Y1578D01*
Y1549D02*
Y1556D01*
Y1465D02*
Y1501D01*
Y1439D02*
Y1449D01*
Y1401D02*
Y1417D01*
Y1370D02*
Y1379D01*
Y1335D02*
Y1342D01*
Y1296D02*
Y1303D01*
Y1241D02*
Y1248D01*
Y1185D02*
Y1192D01*
Y1152D02*
Y1159D01*
Y1094D02*
Y1102D01*
X689Y1700D02*
Y1706D01*
Y1630D02*
Y1637D01*
Y1600D02*
Y1607D01*
Y1571D02*
Y1578D01*
Y1549D02*
Y1556D01*
Y1466D02*
Y1501D01*
Y1439D02*
Y1449D01*
Y1402D02*
Y1417D01*
Y1370D02*
Y1379D01*
Y1335D02*
Y1342D01*
Y1296D02*
Y1303D01*
Y1241D02*
Y1248D01*
Y1185D02*
Y1192D01*
Y1152D02*
Y1159D01*
Y1093D02*
Y1101D01*
X690Y1700D02*
Y1706D01*
Y1630D02*
Y1637D01*
Y1600D02*
Y1607D01*
Y1571D02*
Y1578D01*
Y1549D02*
Y1556D01*
Y1466D02*
Y1501D01*
Y1439D02*
Y1449D01*
Y1402D02*
Y1417D01*
Y1370D02*
Y1379D01*
Y1335D02*
Y1342D01*
Y1296D02*
Y1303D01*
Y1241D02*
Y1248D01*
Y1185D02*
Y1192D01*
Y1152D02*
Y1159D01*
Y1092D02*
Y1100D01*
X691Y1700D02*
Y1706D01*
Y1630D02*
Y1637D01*
Y1600D02*
Y1607D01*
Y1571D02*
Y1578D01*
Y1549D02*
Y1556D01*
Y1464D02*
Y1501D01*
Y1439D02*
Y1449D01*
Y1403D02*
Y1415D01*
Y1370D02*
Y1379D01*
Y1335D02*
Y1342D01*
Y1296D02*
Y1303D01*
Y1241D02*
Y1248D01*
Y1207D02*
Y1214D01*
Y1185D02*
Y1192D01*
Y1152D02*
Y1159D01*
Y1092D02*
Y1099D01*
X692Y1700D02*
Y1706D01*
Y1630D02*
Y1637D01*
Y1600D02*
Y1607D01*
Y1571D02*
Y1578D01*
Y1549D02*
Y1556D01*
Y1463D02*
Y1501D01*
Y1439D02*
Y1449D01*
Y1370D02*
Y1379D01*
Y1335D02*
Y1342D01*
Y1296D02*
Y1303D01*
Y1241D02*
Y1248D01*
Y1207D02*
Y1214D01*
Y1185D02*
Y1192D01*
Y1152D02*
Y1159D01*
Y1091D02*
Y1098D01*
X693Y1700D02*
Y1706D01*
Y1630D02*
Y1637D01*
Y1600D02*
Y1607D01*
Y1571D02*
Y1578D01*
Y1549D02*
Y1556D01*
Y1494D02*
Y1501D01*
Y1463D02*
Y1474D01*
Y1439D02*
Y1449D01*
Y1370D02*
Y1379D01*
Y1335D02*
Y1342D01*
Y1296D02*
Y1303D01*
Y1241D02*
Y1248D01*
Y1207D02*
Y1214D01*
Y1185D02*
Y1192D01*
Y1152D02*
Y1159D01*
Y1091D02*
Y1098D01*
X694Y1700D02*
Y1706D01*
Y1630D02*
Y1637D01*
Y1600D02*
Y1607D01*
Y1571D02*
Y1578D01*
Y1549D02*
Y1556D01*
Y1494D02*
Y1501D01*
Y1462D02*
Y1472D01*
Y1439D02*
Y1449D01*
Y1370D02*
Y1379D01*
Y1335D02*
Y1342D01*
Y1296D02*
Y1303D01*
Y1241D02*
Y1248D01*
Y1207D02*
Y1214D01*
Y1185D02*
Y1192D01*
Y1152D02*
Y1159D01*
Y1091D02*
Y1097D01*
X695Y1700D02*
Y1706D01*
Y1630D02*
Y1637D01*
Y1600D02*
Y1607D01*
Y1571D02*
Y1578D01*
Y1549D02*
Y1556D01*
Y1494D02*
Y1501D01*
Y1462D02*
Y1470D01*
Y1439D02*
Y1449D01*
Y1370D02*
Y1379D01*
Y1335D02*
Y1342D01*
Y1296D02*
Y1303D01*
Y1241D02*
Y1248D01*
Y1207D02*
Y1214D01*
Y1185D02*
Y1192D01*
Y1152D02*
Y1159D01*
Y1091D02*
Y1097D01*
X696Y1700D02*
Y1706D01*
Y1630D02*
Y1637D01*
Y1600D02*
Y1607D01*
Y1571D02*
Y1578D01*
Y1549D02*
Y1556D01*
Y1494D02*
Y1501D01*
Y1461D02*
Y1469D01*
Y1439D02*
Y1449D01*
Y1370D02*
Y1379D01*
Y1335D02*
Y1342D01*
Y1296D02*
Y1303D01*
Y1240D02*
Y1248D01*
Y1207D02*
Y1215D01*
Y1185D02*
Y1192D01*
Y1152D02*
Y1159D01*
Y1090D02*
Y1097D01*
X697Y1700D02*
Y1706D01*
Y1630D02*
Y1637D01*
Y1600D02*
Y1607D01*
Y1571D02*
Y1578D01*
Y1548D02*
Y1556D01*
Y1494D02*
Y1501D01*
Y1461D02*
Y1469D01*
Y1439D02*
Y1449D01*
Y1370D02*
Y1379D01*
Y1335D02*
Y1342D01*
Y1295D02*
Y1303D01*
Y1240D02*
Y1247D01*
Y1207D02*
Y1215D01*
Y1185D02*
Y1192D01*
Y1152D02*
Y1159D01*
Y1090D02*
Y1096D01*
X698Y1700D02*
Y1706D01*
Y1630D02*
Y1637D01*
Y1600D02*
Y1607D01*
Y1571D02*
Y1578D01*
Y1548D02*
Y1556D01*
Y1494D02*
Y1501D01*
Y1461D02*
Y1468D01*
Y1439D02*
Y1449D01*
Y1370D02*
Y1379D01*
Y1335D02*
Y1342D01*
Y1295D02*
Y1303D01*
Y1240D02*
Y1247D01*
Y1208D02*
Y1215D01*
Y1184D02*
Y1192D01*
Y1152D02*
Y1160D01*
Y1090D02*
Y1096D01*
X699Y1700D02*
Y1706D01*
Y1630D02*
Y1637D01*
Y1600D02*
Y1607D01*
Y1571D02*
Y1578D01*
Y1547D02*
Y1555D01*
Y1494D02*
Y1501D01*
Y1460D02*
Y1468D01*
Y1439D02*
Y1449D01*
Y1370D02*
Y1379D01*
Y1335D02*
Y1342D01*
Y1294D02*
Y1302D01*
Y1239D02*
Y1247D01*
Y1208D02*
Y1216D01*
Y1183D02*
Y1191D01*
Y1153D02*
Y1161D01*
Y1090D02*
Y1096D01*
X700Y1700D02*
Y1706D01*
Y1630D02*
Y1637D01*
Y1600D02*
Y1607D01*
Y1571D02*
Y1578D01*
Y1546D02*
Y1555D01*
Y1494D02*
Y1501D01*
Y1460D02*
Y1467D01*
Y1439D02*
Y1449D01*
Y1370D02*
Y1379D01*
Y1335D02*
Y1342D01*
Y1293D02*
Y1302D01*
Y1238D02*
Y1246D01*
Y1208D02*
Y1217D01*
Y1183D02*
Y1191D01*
Y1153D02*
Y1161D01*
Y1090D02*
Y1096D01*
X701Y1700D02*
Y1706D01*
Y1630D02*
Y1637D01*
Y1600D02*
Y1607D01*
Y1571D02*
Y1578D01*
Y1545D02*
Y1554D01*
Y1494D02*
Y1501D01*
Y1460D02*
Y1467D01*
Y1439D02*
Y1449D01*
Y1370D02*
Y1379D01*
Y1335D02*
Y1342D01*
Y1292D02*
Y1301D01*
Y1237D02*
Y1246D01*
Y1209D02*
Y1218D01*
Y1181D02*
Y1191D01*
Y1153D02*
Y1163D01*
Y1090D02*
Y1096D01*
X702Y1700D02*
Y1706D01*
Y1630D02*
Y1637D01*
Y1600D02*
Y1607D01*
Y1571D02*
Y1578D01*
Y1544D02*
Y1554D01*
Y1494D02*
Y1501D01*
Y1460D02*
Y1467D01*
Y1439D02*
Y1449D01*
Y1370D02*
Y1380D01*
Y1335D02*
Y1342D01*
Y1291D02*
Y1301D01*
Y1235D02*
Y1245D01*
Y1209D02*
Y1220D01*
Y1180D02*
Y1190D01*
Y1154D02*
Y1164D01*
Y1090D02*
Y1096D01*
X703Y1700D02*
Y1706D01*
Y1630D02*
Y1637D01*
Y1600D02*
Y1607D01*
Y1571D02*
Y1578D01*
Y1515D02*
Y1553D01*
Y1494D02*
Y1501D01*
Y1460D02*
Y1467D01*
Y1439D02*
Y1449D01*
Y1370D02*
Y1380D01*
Y1335D02*
Y1342D01*
Y1263D02*
Y1300D01*
Y1210D02*
Y1245D01*
Y1155D02*
Y1189D01*
Y1090D02*
Y1096D01*
X704Y1699D02*
Y1706D01*
Y1630D02*
Y1637D01*
Y1600D02*
Y1607D01*
Y1571D02*
Y1578D01*
Y1515D02*
Y1552D01*
Y1494D02*
Y1501D01*
Y1460D02*
Y1467D01*
Y1439D02*
Y1448D01*
Y1370D02*
Y1380D01*
Y1335D02*
Y1342D01*
Y1263D02*
Y1299D01*
Y1211D02*
Y1244D01*
Y1156D02*
Y1188D01*
Y1090D02*
Y1097D01*
X705Y1699D02*
Y1705D01*
Y1630D02*
Y1637D01*
Y1600D02*
Y1607D01*
Y1571D02*
Y1578D01*
Y1515D02*
Y1551D01*
Y1494D02*
Y1501D01*
Y1460D02*
Y1467D01*
Y1439D02*
Y1448D01*
Y1370D02*
Y1380D01*
Y1335D02*
Y1342D01*
Y1263D02*
Y1298D01*
Y1212D02*
Y1243D01*
Y1157D02*
Y1188D01*
Y1091D02*
Y1097D01*
X706Y1699D02*
Y1705D01*
Y1630D02*
Y1637D01*
Y1600D02*
Y1607D01*
Y1571D02*
Y1578D01*
Y1515D02*
Y1550D01*
Y1494D02*
Y1501D01*
Y1460D02*
Y1467D01*
Y1438D02*
Y1448D01*
Y1371D02*
Y1380D01*
Y1335D02*
Y1342D01*
Y1263D02*
Y1297D01*
Y1213D02*
Y1242D01*
Y1158D02*
Y1186D01*
Y1091D02*
Y1097D01*
X707Y1698D02*
Y1705D01*
Y1630D02*
Y1637D01*
Y1600D02*
Y1607D01*
Y1571D02*
Y1578D01*
Y1515D02*
Y1549D01*
Y1494D02*
Y1501D01*
Y1460D02*
Y1467D01*
Y1438D02*
Y1448D01*
Y1371D02*
Y1381D01*
Y1335D02*
Y1342D01*
Y1263D02*
Y1296D01*
Y1214D02*
Y1241D01*
Y1159D02*
Y1185D01*
Y1091D02*
Y1098D01*
X708Y1698D02*
Y1705D01*
Y1630D02*
Y1637D01*
Y1600D02*
Y1607D01*
Y1571D02*
Y1578D01*
Y1515D02*
Y1547D01*
Y1494D02*
Y1501D01*
Y1460D02*
Y1467D01*
Y1437D02*
Y1447D01*
Y1371D02*
Y1382D01*
Y1335D02*
Y1342D01*
Y1263D02*
Y1294D01*
Y1216D02*
Y1239D01*
Y1161D02*
Y1183D01*
Y1091D02*
Y1098D01*
X709Y1697D02*
Y1704D01*
Y1630D02*
Y1637D01*
Y1600D02*
Y1607D01*
Y1571D02*
Y1578D01*
Y1515D02*
Y1544D01*
Y1494D02*
Y1501D01*
Y1460D02*
Y1467D01*
Y1436D02*
Y1447D01*
Y1372D02*
Y1382D01*
Y1335D02*
Y1342D01*
Y1263D02*
Y1291D01*
Y1219D02*
Y1236D01*
Y1164D02*
Y1180D01*
Y1092D02*
Y1099D01*
X710Y1696D02*
Y1704D01*
Y1436D02*
Y1446D01*
Y1372D02*
Y1383D01*
Y1092D02*
Y1100D01*
X711Y1695D02*
Y1703D01*
Y1435D02*
Y1446D01*
Y1373D02*
Y1384D01*
Y1093D02*
Y1101D01*
X712Y1694D02*
Y1702D01*
Y1434D02*
Y1445D01*
Y1373D02*
Y1385D01*
Y1094D02*
Y1102D01*
X713Y1693D02*
Y1702D01*
Y1433D02*
Y1445D01*
Y1374D02*
Y1386D01*
Y1094D02*
Y1103D01*
X714Y1691D02*
Y1701D01*
Y1431D02*
Y1444D01*
Y1375D02*
Y1387D01*
Y1095D02*
Y1105D01*
X715Y1688D02*
Y1700D01*
Y1429D02*
Y1443D01*
Y1375D02*
Y1389D01*
Y1096D02*
Y1108D01*
X716Y1424D02*
Y1699D01*
Y1097D02*
Y1395D01*
X717Y1423D02*
Y1698D01*
Y1098D02*
Y1396D01*
X718Y1423D02*
Y1696D01*
Y1100D02*
Y1396D01*
X719Y1423D02*
Y1695D01*
Y1101D02*
Y1396D01*
X720Y1423D02*
Y1693D01*
Y1103D02*
Y1396D01*
X721Y1424D02*
Y1689D01*
Y1107D02*
Y1395D01*
M02*
